%TF.GenerationSoftware,KiCad,Pcbnew,8.0.5*%
%TF.CreationDate,2024-10-25T00:02:52-07:00*%
%TF.ProjectId,Vanguard_new,56616e67-7561-4726-945f-6e65772e6b69,rev?*%
%TF.SameCoordinates,Original*%
%TF.FileFunction,Soldermask,Top*%
%TF.FilePolarity,Negative*%
%FSLAX46Y46*%
G04 Gerber Fmt 4.6, Leading zero omitted, Abs format (unit mm)*
G04 Created by KiCad (PCBNEW 8.0.5) date 2024-10-25 00:02:52*
%MOMM*%
%LPD*%
G01*
G04 APERTURE LIST*
G04 Aperture macros list*
%AMRoundRect*
0 Rectangle with rounded corners*
0 $1 Rounding radius*
0 $2 $3 $4 $5 $6 $7 $8 $9 X,Y pos of 4 corners*
0 Add a 4 corners polygon primitive as box body*
4,1,4,$2,$3,$4,$5,$6,$7,$8,$9,$2,$3,0*
0 Add four circle primitives for the rounded corners*
1,1,$1+$1,$2,$3*
1,1,$1+$1,$4,$5*
1,1,$1+$1,$6,$7*
1,1,$1+$1,$8,$9*
0 Add four rect primitives between the rounded corners*
20,1,$1+$1,$2,$3,$4,$5,0*
20,1,$1+$1,$4,$5,$6,$7,0*
20,1,$1+$1,$6,$7,$8,$9,0*
20,1,$1+$1,$8,$9,$2,$3,0*%
%AMRotRect*
0 Rectangle, with rotation*
0 The origin of the aperture is its center*
0 $1 length*
0 $2 width*
0 $3 Rotation angle, in degrees counterclockwise*
0 Add horizontal line*
21,1,$1,$2,0,0,$3*%
G04 Aperture macros list end*
%ADD10O,1.700000X1.700000*%
%ADD11R,1.700000X1.700000*%
%ADD12R,1.000000X1.000000*%
%ADD13RoundRect,0.135000X-0.135000X-0.185000X0.135000X-0.185000X0.135000X0.185000X-0.135000X0.185000X0*%
%ADD14RoundRect,0.100000X0.100000X-0.130000X0.100000X0.130000X-0.100000X0.130000X-0.100000X-0.130000X0*%
%ADD15RoundRect,0.135000X0.185000X-0.135000X0.185000X0.135000X-0.185000X0.135000X-0.185000X-0.135000X0*%
%ADD16RoundRect,0.100000X-0.130000X-0.100000X0.130000X-0.100000X0.130000X0.100000X-0.130000X0.100000X0*%
%ADD17RoundRect,0.150000X0.150000X-0.587500X0.150000X0.587500X-0.150000X0.587500X-0.150000X-0.587500X0*%
%ADD18R,1.000000X0.380000*%
%ADD19R,1.150000X0.700000*%
%ADD20RoundRect,0.135000X-0.185000X0.135000X-0.185000X-0.135000X0.185000X-0.135000X0.185000X0.135000X0*%
%ADD21RoundRect,0.147500X-0.147500X-0.172500X0.147500X-0.172500X0.147500X0.172500X-0.147500X0.172500X0*%
%ADD22RoundRect,0.075000X0.521491X-0.415425X-0.415425X0.521491X-0.521491X0.415425X0.415425X-0.521491X0*%
%ADD23RoundRect,0.075000X0.521491X0.415425X0.415425X0.521491X-0.521491X-0.415425X-0.415425X-0.521491X0*%
%ADD24C,1.000000*%
%ADD25RoundRect,0.100000X0.130000X0.100000X-0.130000X0.100000X-0.130000X-0.100000X0.130000X-0.100000X0*%
%ADD26RoundRect,0.135000X0.135000X0.185000X-0.135000X0.185000X-0.135000X-0.185000X0.135000X-0.185000X0*%
%ADD27R,2.700000X2.700000*%
%ADD28RoundRect,0.087500X-0.325000X0.087500X-0.325000X-0.087500X0.325000X-0.087500X0.325000X0.087500X0*%
%ADD29RoundRect,0.087500X-0.087500X0.325000X-0.087500X-0.325000X0.087500X-0.325000X0.087500X0.325000X0*%
%ADD30RoundRect,0.098000X0.859000X0.294000X-0.859000X0.294000X-0.859000X-0.294000X0.859000X-0.294000X0*%
%ADD31RoundRect,0.100000X-0.100000X0.130000X-0.100000X-0.130000X0.100000X-0.130000X0.100000X0.130000X0*%
%ADD32RoundRect,0.150000X-0.512500X-0.150000X0.512500X-0.150000X0.512500X0.150000X-0.512500X0.150000X0*%
%ADD33RoundRect,0.160000X0.565000X0.240000X-0.565000X0.240000X-0.565000X-0.240000X0.565000X-0.240000X0*%
%ADD34RoundRect,0.120000X0.605000X0.180000X-0.605000X0.180000X-0.605000X-0.180000X0.605000X-0.180000X0*%
%ADD35R,1.200000X1.200000*%
%ADD36RoundRect,0.102000X0.975000X-0.300000X0.975000X0.300000X-0.975000X0.300000X-0.975000X-0.300000X0*%
%ADD37RoundRect,0.102000X0.350000X-0.125000X0.350000X0.125000X-0.350000X0.125000X-0.350000X-0.125000X0*%
%ADD38RoundRect,0.102000X0.550000X-0.125000X0.550000X0.125000X-0.550000X0.125000X-0.550000X-0.125000X0*%
%ADD39RoundRect,0.102000X0.125000X-0.350000X0.125000X0.350000X-0.125000X0.350000X-0.125000X-0.350000X0*%
%ADD40RoundRect,0.102000X0.125000X-0.550000X0.125000X0.550000X-0.125000X0.550000X-0.125000X-0.550000X0*%
%ADD41RoundRect,0.102000X0.125000X-0.400000X0.125000X0.400000X-0.125000X0.400000X-0.125000X-0.400000X0*%
%ADD42RoundRect,0.135000X0.226274X0.035355X0.035355X0.226274X-0.226274X-0.035355X-0.035355X-0.226274X0*%
%ADD43R,1.000000X1.500000*%
%ADD44R,1.800000X1.170000*%
%ADD45R,1.350000X1.900000*%
%ADD46R,1.350000X1.550000*%
%ADD47R,1.000000X1.200000*%
%ADD48R,1.100000X0.750000*%
%ADD49R,1.100000X0.850000*%
%ADD50RoundRect,0.160000X-0.565000X-0.240000X0.565000X-0.240000X0.565000X0.240000X-0.565000X0.240000X0*%
%ADD51RoundRect,0.120000X-0.605000X-0.180000X0.605000X-0.180000X0.605000X0.180000X-0.605000X0.180000X0*%
%ADD52C,2.000000*%
%ADD53R,2.000000X2.000000*%
%ADD54RoundRect,0.175000X0.175000X0.325000X-0.175000X0.325000X-0.175000X-0.325000X0.175000X-0.325000X0*%
%ADD55RoundRect,0.150000X0.200000X0.150000X-0.200000X0.150000X-0.200000X-0.150000X0.200000X-0.150000X0*%
%ADD56RoundRect,0.062500X-0.291682X0.203293X0.203293X-0.291682X0.291682X-0.203293X-0.203293X0.291682X0*%
%ADD57RoundRect,0.062500X-0.291682X-0.203293X-0.203293X-0.291682X0.291682X0.203293X0.203293X0.291682X0*%
%ADD58RotRect,2.600000X2.600000X315.000000*%
%ADD59RoundRect,0.102000X0.337500X-0.125000X0.337500X0.125000X-0.337500X0.125000X-0.337500X-0.125000X0*%
%ADD60RoundRect,0.102000X0.125000X-0.287500X0.125000X0.287500X-0.125000X0.287500X-0.125000X-0.287500X0*%
%ADD61RoundRect,0.150000X-0.150000X0.587500X-0.150000X-0.587500X0.150000X-0.587500X0.150000X0.587500X0*%
%ADD62RoundRect,0.150000X0.587500X0.150000X-0.587500X0.150000X-0.587500X-0.150000X0.587500X-0.150000X0*%
%ADD63RoundRect,0.150000X-0.825000X-0.150000X0.825000X-0.150000X0.825000X0.150000X-0.825000X0.150000X0*%
G04 APERTURE END LIST*
D10*
%TO.C,J6*%
X378459520Y-19590063D03*
D11*
X378459520Y-17050063D03*
%TD*%
D12*
%TO.C,TP2*%
X340000000Y-17907491D03*
%TD*%
%TO.C,TP1*%
X342298854Y-17907491D03*
%TD*%
D11*
%TO.C,J2*%
X346298854Y-27867491D03*
D10*
X346298854Y-30407491D03*
X343758854Y-27867491D03*
X343758854Y-30407491D03*
X341218854Y-27867491D03*
X341218854Y-30407491D03*
%TD*%
D13*
%TO.C,R16*%
X370500000Y-24500000D03*
X369480002Y-24500000D03*
%TD*%
D14*
%TO.C,C4*%
X361500000Y-24180000D03*
X361500000Y-24820000D03*
%TD*%
D15*
%TO.C,R7*%
X357298854Y-14377490D03*
X357298854Y-13357492D03*
%TD*%
%TO.C,R11*%
X350500000Y-20509999D03*
X350500000Y-19490001D03*
%TD*%
D16*
%TO.C,D5*%
X378320000Y-25500000D03*
X377680000Y-25500000D03*
%TD*%
D17*
%TO.C,Q1*%
X355348854Y-20242491D03*
X357248854Y-20242491D03*
X356298854Y-18367491D03*
%TD*%
D13*
%TO.C,R13*%
X351298854Y-12367491D03*
X352318852Y-12367491D03*
%TD*%
D16*
%TO.C,D2*%
X357118854Y-25367491D03*
X356478854Y-25367491D03*
%TD*%
D18*
%TO.C,J1*%
X336798854Y-27367491D03*
X336798854Y-26867491D03*
X336798854Y-26367491D03*
X336798854Y-25867491D03*
X336798854Y-25367491D03*
X336798854Y-24867491D03*
X336798854Y-24367491D03*
X336798854Y-23867491D03*
X336798854Y-23367491D03*
X336798854Y-22867491D03*
X336798854Y-22367491D03*
X336798854Y-21867491D03*
D19*
X337638854Y-28037491D03*
%TD*%
D16*
%TO.C,C7*%
X345662500Y-13040000D03*
X346302500Y-13040000D03*
%TD*%
D20*
%TO.C,R5*%
X358298854Y-22877490D03*
X358298854Y-21857492D03*
%TD*%
%TO.C,R1*%
X343298854Y-25377491D03*
X343298854Y-24357491D03*
%TD*%
D13*
%TO.C,R21*%
X358990000Y-13500000D03*
X360010000Y-13500000D03*
%TD*%
%TO.C,R24*%
X342500000Y-16000000D03*
X343519998Y-16000000D03*
%TD*%
D21*
%TO.C,L1*%
X371382399Y-15005582D03*
X370412399Y-15005582D03*
%TD*%
D22*
%TO.C,U2*%
X358671573Y-9828427D03*
X359025127Y-9474873D03*
X359378680Y-9121320D03*
X359732234Y-8767766D03*
X360085787Y-8414213D03*
X360439340Y-8060660D03*
X360792894Y-7707106D03*
X361146447Y-7353553D03*
X361500000Y-7000000D03*
X361853554Y-6646446D03*
X362207107Y-6292893D03*
X362560661Y-5939339D03*
D23*
X362560661Y-3941763D03*
X362207107Y-3588209D03*
X361853554Y-3234656D03*
X361500000Y-2881102D03*
X361146447Y-2527549D03*
X360792894Y-2173996D03*
X360439340Y-1820442D03*
X360085787Y-1466889D03*
X359732234Y-1113336D03*
X359378680Y-759782D03*
X359025127Y-406229D03*
X358671573Y-52675D03*
D22*
X356673997Y-52675D03*
X356320443Y-406229D03*
X355966890Y-759782D03*
X355613336Y-1113336D03*
X355259783Y-1466889D03*
X354906230Y-1820442D03*
X354552676Y-2173996D03*
X354199123Y-2527549D03*
X353845570Y-2881102D03*
X353492016Y-3234656D03*
X353138463Y-3588209D03*
X352784909Y-3941763D03*
D23*
X352784909Y-5939339D03*
X353138463Y-6292893D03*
X353492016Y-6646446D03*
X353845570Y-7000000D03*
X354199123Y-7353553D03*
X354552676Y-7707106D03*
X354906230Y-8060660D03*
X355259783Y-8414213D03*
X355613336Y-8767766D03*
X355966890Y-9121320D03*
X356320443Y-9474873D03*
X356673997Y-9828427D03*
%TD*%
D24*
%TO.C,Y1*%
X339162500Y-12340000D03*
X339162500Y-14240000D03*
%TD*%
D25*
%TO.C,C10*%
X373759380Y-13944923D03*
X374399380Y-13944923D03*
%TD*%
D13*
%TO.C,R18*%
X345930000Y-12457500D03*
X346950000Y-12457500D03*
%TD*%
D26*
%TO.C,R23*%
X345092500Y-7490000D03*
X344072500Y-7490000D03*
%TD*%
D13*
%TO.C,R26*%
X366934999Y-3430000D03*
X365915001Y-3430000D03*
%TD*%
D15*
%TO.C,R10*%
X354250000Y-24379999D03*
X354250000Y-23360001D03*
%TD*%
D10*
%TO.C,J4*%
X378500000Y-2445001D03*
X378500000Y-4985000D03*
D11*
X378500000Y-7525000D03*
%TD*%
D10*
%TO.C,J5*%
X338000000Y-3460001D03*
X338000000Y-6000000D03*
D11*
X338000000Y-8540000D03*
%TD*%
D13*
%TO.C,R29*%
X349000000Y-3500000D03*
X347980002Y-3500000D03*
%TD*%
D27*
%TO.C,U8*%
X373594733Y-18450000D03*
D28*
X375557233Y-17475000D03*
X375557233Y-18125000D03*
X375557233Y-18775000D03*
X375557233Y-19425000D03*
D29*
X374569733Y-20412500D03*
X373919733Y-20412500D03*
X373269733Y-20412500D03*
X372619733Y-20412500D03*
D28*
X371632233Y-19425000D03*
X371632233Y-18775000D03*
X371632233Y-18125000D03*
X371632233Y-17475000D03*
D29*
X372619733Y-16487500D03*
X373269733Y-16487500D03*
X373919733Y-16487500D03*
X374569733Y-16487500D03*
%TD*%
D14*
%TO.C,C2*%
X337000000Y-12820000D03*
X337000000Y-12180000D03*
%TD*%
D26*
%TO.C,R9*%
X357009999Y-12000000D03*
X355990001Y-12000000D03*
%TD*%
D30*
%TO.C,U3*%
X360870000Y-19905000D03*
X360870000Y-18635000D03*
X360870000Y-17365000D03*
X360870000Y-16095000D03*
X368130000Y-16095000D03*
X368130000Y-17365000D03*
X368130000Y-18635000D03*
X368130000Y-19905000D03*
%TD*%
D13*
%TO.C,R17*%
X378509999Y-24500000D03*
X377490001Y-24500000D03*
%TD*%
D15*
%TO.C,R6*%
X357298854Y-21857492D03*
X357298854Y-22877490D03*
%TD*%
D14*
%TO.C,C8*%
X369836739Y-18574670D03*
X369836739Y-19214670D03*
%TD*%
D31*
%TO.C,D3*%
X353000000Y-23680000D03*
X353000000Y-24320000D03*
%TD*%
D32*
%TO.C,U4*%
X376137500Y-24550001D03*
X376137500Y-26449999D03*
X373862500Y-26449999D03*
X373862500Y-25500000D03*
X373862500Y-24550001D03*
%TD*%
D31*
%TO.C,C3*%
X337000000Y-13860000D03*
X337000000Y-14500000D03*
%TD*%
D20*
%TO.C,R12*%
X357298854Y-15357491D03*
X357298854Y-16377491D03*
%TD*%
D33*
%TO.C,PORTSIDE_RGB1*%
X343475000Y-4550000D03*
D34*
X343475000Y-3500000D03*
D33*
X343475000Y-2450000D03*
X346525000Y-2450000D03*
D34*
X346525000Y-3500000D03*
D33*
X346525000Y-4550000D03*
%TD*%
D13*
%TO.C,R25*%
X366934999Y-2320000D03*
X365915001Y-2320000D03*
%TD*%
D35*
%TO.C,D6*%
X363600001Y-29500000D03*
X366399999Y-29500000D03*
%TD*%
D13*
%TO.C,R19*%
X345910000Y-10227500D03*
X346930000Y-10227500D03*
%TD*%
D36*
%TO.C,U5*%
X366610000Y-24910000D03*
X366610000Y-26910000D03*
D37*
X362910000Y-27160000D03*
X362909999Y-26660000D03*
D38*
X363110000Y-26160000D03*
X363110000Y-25660000D03*
D37*
X362909999Y-25160000D03*
X362910000Y-24660000D03*
D39*
X363810000Y-24460000D03*
D40*
X364459999Y-24660000D03*
X365110000Y-24660000D03*
D39*
X365760000Y-24460000D03*
X366610000Y-24460000D03*
X367460000Y-24460000D03*
X367460000Y-27360000D03*
X366610000Y-27360000D03*
X365760000Y-27360000D03*
D40*
X365110000Y-27160000D03*
X364459999Y-27160000D03*
D41*
X363810000Y-27310000D03*
%TD*%
D42*
%TO.C,R22*%
X361139376Y-10139376D03*
X361860624Y-10860624D03*
%TD*%
D13*
%TO.C,R27*%
X366934999Y-4580000D03*
X365915001Y-4580000D03*
%TD*%
%TO.C,R28*%
X349000000Y-4520000D03*
X347980002Y-4520000D03*
%TD*%
D20*
%TO.C,R14*%
X361500000Y-27010000D03*
X361500000Y-25990000D03*
%TD*%
D13*
%TO.C,R30*%
X349010000Y-2450001D03*
X347990002Y-2450001D03*
%TD*%
D31*
%TO.C,C1*%
X344500000Y-24475000D03*
X344500000Y-23835000D03*
%TD*%
D13*
%TO.C,R20*%
X344312500Y-8640000D03*
X345332500Y-8640000D03*
%TD*%
D43*
%TO.C,ADR1*%
X341162500Y-8062500D03*
X342462500Y-8062500D03*
%TD*%
D25*
%TO.C,C9*%
X373759380Y-14652029D03*
X374399380Y-14652029D03*
%TD*%
D44*
%TO.C,J3*%
X337987500Y16255000D03*
D45*
X348462500Y14230000D03*
X348462500Y8260000D03*
D46*
X337762500Y4935000D03*
D47*
X347487500Y4760000D03*
X343787500Y4760000D03*
D48*
X337637500Y15045000D03*
D49*
X337637500Y13995000D03*
X337637500Y12895000D03*
X337637500Y11795000D03*
X337637500Y10695000D03*
X337637500Y9594999D03*
X337637500Y8495000D03*
X337637500Y7394999D03*
%TD*%
D50*
%TO.C,STARBOARD_RGB1*%
X371500000Y-2450000D03*
D51*
X371500000Y-3500000D03*
D50*
X371500000Y-4550000D03*
X368450000Y-4550000D03*
D51*
X368450000Y-3500000D03*
D50*
X368450000Y-2450000D03*
%TD*%
D52*
%TO.C,BZ1*%
X370370785Y10000000D03*
D53*
X375370785Y10000000D03*
%TD*%
D15*
%TO.C,R2*%
X346500000Y-24490001D03*
X346500000Y-25509999D03*
%TD*%
D54*
%TO.C,D1*%
X341798854Y-25117491D03*
D55*
X341798854Y-23417491D03*
X339798854Y-23417491D03*
X339798854Y-25317491D03*
%TD*%
D56*
%TO.C,U1*%
X347562718Y-14051088D03*
X347209165Y-14404642D03*
X346855611Y-14758195D03*
X346502058Y-15111748D03*
X346148505Y-15465302D03*
X345794951Y-15818855D03*
D57*
X345794951Y-16791127D03*
X346148505Y-17144680D03*
X346502058Y-17498234D03*
X346855611Y-17851787D03*
X347209165Y-18205340D03*
X347562718Y-18558894D03*
D56*
X348534990Y-18558894D03*
X348888543Y-18205340D03*
X349242097Y-17851787D03*
X349595650Y-17498234D03*
X349949203Y-17144680D03*
X350302757Y-16791127D03*
D57*
X350302757Y-15818855D03*
X349949203Y-15465302D03*
X349595650Y-15111748D03*
X349242097Y-14758195D03*
X348888543Y-14404642D03*
X348534990Y-14051088D03*
D58*
X348048854Y-16304991D03*
%TD*%
D59*
%TO.C,U6*%
X341500000Y-14500000D03*
D60*
X342312499Y-14562500D03*
X342812500Y-14562500D03*
X343312500Y-14562500D03*
X343812501Y-14562500D03*
D59*
X344625000Y-14500000D03*
X344625000Y-14000000D03*
X344625000Y-13500000D03*
X344625000Y-13000000D03*
X344625000Y-12500000D03*
X344625000Y-12000000D03*
X344625000Y-11500000D03*
X344625000Y-11000000D03*
X344625000Y-10500000D03*
X344625000Y-10000000D03*
D60*
X343812501Y-9937500D03*
X343312500Y-9937500D03*
X342812500Y-9937500D03*
X342312499Y-9937500D03*
D59*
X341500000Y-10000000D03*
X341500000Y-10500000D03*
X341500000Y-11000000D03*
X341500000Y-11500000D03*
X341500000Y-12000000D03*
X341500000Y-12500000D03*
X341500000Y-13000000D03*
X341500000Y-13500000D03*
X341500000Y-14000000D03*
%TD*%
D20*
%TO.C,R4*%
X356298854Y-24377491D03*
X356298854Y-23357491D03*
%TD*%
D26*
%TO.C,R15*%
X369480002Y-25500000D03*
X370500000Y-25500000D03*
%TD*%
D61*
%TO.C,Q3*%
X355798854Y-14367491D03*
X353898854Y-14367491D03*
X354848854Y-16242492D03*
%TD*%
D62*
%TO.C,Q4*%
X368850785Y1500000D03*
X368850785Y3400000D03*
X366975785Y2450000D03*
%TD*%
D15*
%TO.C,R8*%
X358798854Y-19367491D03*
X358798854Y-20387489D03*
%TD*%
D14*
%TO.C,C5*%
X371500000Y-24860000D03*
X371500000Y-25500000D03*
%TD*%
D17*
%TO.C,Q2*%
X351848854Y-20242492D03*
X353748854Y-20242492D03*
X352798854Y-18367491D03*
%TD*%
D20*
%TO.C,R3*%
X355298854Y-23360000D03*
X355298854Y-24380000D03*
%TD*%
D63*
%TO.C,U7*%
X357442500Y15750000D03*
X357442500Y14480000D03*
X357442500Y13210000D03*
X357442500Y11940000D03*
X357442500Y10670000D03*
X357442500Y9400000D03*
X357442500Y8130000D03*
X352492500Y8130000D03*
X352492500Y9400000D03*
X352492500Y10670000D03*
X352492500Y11940000D03*
X352492500Y13210000D03*
X352492500Y14480000D03*
X352492500Y15750000D03*
%TD*%
D25*
%TO.C,C6*%
X374860000Y-23000000D03*
X375500000Y-23000000D03*
%TD*%
M02*
