%TF.GenerationSoftware,KiCad,Pcbnew,8.0.5*%
%TF.CreationDate,2024-10-25T00:02:52-07:00*%
%TF.ProjectId,Vanguard_new,56616e67-7561-4726-945f-6e65772e6b69,rev?*%
%TF.SameCoordinates,Original*%
%TF.FileFunction,Copper,L4,Bot*%
%TF.FilePolarity,Positive*%
%FSLAX46Y46*%
G04 Gerber Fmt 4.6, Leading zero omitted, Abs format (unit mm)*
G04 Created by KiCad (PCBNEW 8.0.5) date 2024-10-25 00:02:52*
%MOMM*%
%LPD*%
G01*
G04 APERTURE LIST*
%TA.AperFunction,ComponentPad*%
%ADD10O,1.700000X1.700000*%
%TD*%
%TA.AperFunction,ComponentPad*%
%ADD11R,1.700000X1.700000*%
%TD*%
%TA.AperFunction,SMDPad,CuDef*%
%ADD12R,1.000000X0.380000*%
%TD*%
%TA.AperFunction,SMDPad,CuDef*%
%ADD13R,1.150000X0.700000*%
%TD*%
%TA.AperFunction,ComponentPad*%
%ADD14C,1.000000*%
%TD*%
%TA.AperFunction,HeatsinkPad*%
%ADD15C,0.500000*%
%TD*%
%TA.AperFunction,HeatsinkPad*%
%ADD16R,2.700000X2.700000*%
%TD*%
%TA.AperFunction,ComponentPad*%
%ADD17C,2.000000*%
%TD*%
%TA.AperFunction,ComponentPad*%
%ADD18R,2.000000X2.000000*%
%TD*%
%TA.AperFunction,ViaPad*%
%ADD19C,0.600000*%
%TD*%
%TA.AperFunction,ViaPad*%
%ADD20C,0.500000*%
%TD*%
%TA.AperFunction,ViaPad*%
%ADD21C,0.300000*%
%TD*%
%TA.AperFunction,Conductor*%
%ADD22C,0.200000*%
%TD*%
G04 APERTURE END LIST*
D10*
%TO.P,J6,2,Pin_2*%
%TO.N,GND*%
X378459520Y-19590063D03*
D11*
%TO.P,J6,1,Pin_1*%
%TO.N,VBUS_out*%
X378459520Y-17050063D03*
%TD*%
%TO.P,J2,1,Pin_1*%
%TO.N,RST*%
X346298854Y-27867491D03*
D10*
%TO.P,J2,2,Pin_2*%
%TO.N,Net-(J2-Pin_2)*%
X346298854Y-30407491D03*
%TO.P,J2,3,Pin_3*%
%TO.N,Net-(J2-Pin_3)*%
X343758854Y-27867491D03*
%TO.P,J2,4,Pin_4*%
%TO.N,UPDI*%
X343758854Y-30407491D03*
%TO.P,J2,5,Pin_5*%
%TO.N,GND*%
X341218854Y-27867491D03*
%TO.P,J2,6,Pin_6*%
%TO.N,Net-(J2-Pin_6)*%
X341218854Y-30407491D03*
%TD*%
D12*
%TO.P,J1,B1,GND*%
%TO.N,GND*%
X336798854Y-21867491D03*
%TO.P,J1,B2*%
%TO.N,N/C*%
X336798854Y-22367491D03*
%TO.P,J1,B3*%
X336798854Y-22867491D03*
%TO.P,J1,B4,VBUS*%
%TO.N,VBUS_out*%
X336798854Y-23367491D03*
%TO.P,J1,B5,VCONN*%
%TO.N,unconnected-(J1-VCONN-PadB5)*%
X336798854Y-23867491D03*
%TO.P,J1,B8*%
%TO.N,N/C*%
X336798854Y-25367491D03*
%TO.P,J1,B9,VBUS*%
%TO.N,VBUS_out*%
X336798854Y-25867491D03*
%TO.P,J1,B10*%
%TO.N,N/C*%
X336798854Y-26367491D03*
%TO.P,J1,B11*%
X336798854Y-26867491D03*
%TO.P,J1,B12,GND*%
%TO.N,GND*%
X336798854Y-27367491D03*
D13*
%TO.P,J1,S1,SHIELD*%
X337638854Y-21197491D03*
%TD*%
D14*
%TO.P,Y1,1,1*%
%TO.N,Net-(U6-XOUT32{slash}CLKSEL1)*%
X339162500Y-12340000D03*
%TO.P,Y1,2,2*%
%TO.N,Net-(U6-XIN32)*%
X339162500Y-14240000D03*
%TD*%
D10*
%TO.P,J4,3,Pin_3*%
%TO.N,GND*%
X378500000Y-2445001D03*
%TO.P,J4,2,Pin_2*%
%TO.N,+5V*%
X378500000Y-4985000D03*
D11*
%TO.P,J4,1,Pin_1*%
%TO.N,STAR_SERVO*%
X378500000Y-7525000D03*
%TD*%
D10*
%TO.P,J5,3,Pin_3*%
%TO.N,GND*%
X338000000Y-3460001D03*
%TO.P,J5,2,Pin_2*%
%TO.N,+5V*%
X338000000Y-6000000D03*
D11*
%TO.P,J5,1,Pin_1*%
%TO.N,PORT_SERVO*%
X338000000Y-8540000D03*
%TD*%
D15*
%TO.P,U8,17,PAD*%
%TO.N,unconnected-(U8-PAD-Pad17)*%
X372494733Y-19550000D03*
X374694733Y-19550000D03*
X373594733Y-19549999D03*
X372494734Y-18450000D03*
D16*
X373594733Y-18450000D03*
D15*
X373594733Y-18450000D03*
X374694732Y-18450000D03*
X373594733Y-17350001D03*
X372494733Y-17350000D03*
X374694733Y-17350000D03*
%TD*%
D17*
%TO.P,BZ1,2,-*%
%TO.N,Net-(BZ1--)*%
X370370785Y10000000D03*
D18*
%TO.P,BZ1,1,+*%
%TO.N,+5V*%
X375370785Y10000000D03*
%TD*%
D19*
%TO.N,Net-(J2-Pin_6)*%
X350391145Y-19500000D03*
%TO.N,RST*%
X359110624Y-13610624D03*
%TO.N,VBUS_out*%
X338000000Y-26500000D03*
%TO.N,GND*%
X336550000Y-20500000D03*
X337638854Y-21197491D03*
D20*
%TO.N,VBUS_out*%
X338000000Y-22500000D03*
D19*
%TO.N,SDA*%
X358500000Y-12500000D03*
X357130294Y-10400000D03*
D21*
%TO.N,TX0*%
X361146447Y-7353553D03*
X359285176Y-11714824D03*
D20*
%TO.N,SDA*%
X356673997Y-9828427D03*
D19*
%TO.N,GND*%
X363000000Y-2500000D03*
D20*
%TO.N,SCL*%
X358987826Y-7999697D03*
D19*
X340375735Y-9713235D03*
%TO.N,SDA*%
X340500000Y-11000000D03*
D21*
%TO.N,UPDI*%
X354199123Y-7353553D03*
D19*
X357298854Y-13357492D03*
%TO.N,GND*%
X368000000Y-16000000D03*
X355992540Y-2343687D03*
X355741403Y-7233386D03*
X337000000Y-15500000D03*
X342742500Y-13160000D03*
%TO.N,RST*%
X346950000Y-11500000D03*
X343500000Y-13500000D03*
%TO.N,GND*%
X341162500Y-8062500D03*
D21*
%TO.N,RST*%
X353379891Y-9500000D03*
D19*
X357009999Y-12000000D03*
%TO.N,Net-(D2-K)*%
X355990001Y-12000000D03*
X353898854Y-14367491D03*
D21*
%TO.N,RX0*%
X361500000Y-7000000D03*
D19*
X357298854Y-16377491D03*
%TO.N,PORT_SERVO*%
X360000000Y-4900000D03*
D21*
%TO.N,STAR_SERVO*%
X354000000Y-4976967D03*
D20*
%TO.N,STAR_RED*%
X363573514Y-8100000D03*
X364825735Y-5825735D03*
D21*
%TO.N,RST*%
X357406371Y-14269973D03*
X361860624Y-10860624D03*
%TO.N,PORT_GREEN*%
X353492016Y-3234656D03*
X350500000Y-1500000D03*
D19*
%TO.N,GND*%
X373500000Y-3500000D03*
X341500000Y-3500000D03*
%TO.N,+5V*%
X373500000Y-12500000D03*
X350500000Y-7000000D03*
%TO.N,D5*%
X357442500Y10670000D03*
X360169534Y9500000D03*
%TO.N,D4*%
X357500000Y12000000D03*
X360000000Y11500000D03*
D21*
%TO.N,D7*%
X357442500Y14480000D03*
D19*
X355815687Y1315687D03*
%TO.N,CD*%
X355250000Y750000D03*
X352000000Y4000000D03*
%TO.N,GND*%
X340000000Y11340000D03*
X351000000Y6000000D03*
%TO.N,RST*%
X360870000Y-19905000D03*
X375589999Y-22982042D03*
%TO.N,PA3{slash}SS*%
X366500000Y-20000000D03*
D20*
%TO.N,PA0{slash}MISO*%
X357192580Y-7844051D03*
D19*
X366500000Y-18500000D03*
D20*
%TO.N,PA2{slash}SCK*%
X354000000Y-11500000D03*
D19*
X362500000Y-16500000D03*
%TO.N,GND*%
X350500000Y-13763449D03*
D20*
%TO.N,Net-(D1-I{slash}O1)*%
X352198854Y-13955102D03*
D19*
%TO.N,GND*%
X367000000Y-26109998D03*
X373372273Y-15500000D03*
X370500000Y-18574670D03*
D20*
X373269733Y-21144543D03*
D19*
X376907807Y-19601777D03*
D20*
%TO.N,Net-(J2-Pin_3)*%
X351150173Y-16449994D03*
D19*
X346000000Y-22000000D03*
%TO.N,GND*%
X343987500Y-24987500D03*
X339000000Y-27867491D03*
%TO.N,VBUS_out*%
X362500000Y-29500000D03*
X345000000Y-23000000D03*
D20*
%TO.N,TX0*%
X352798854Y-12367491D03*
D19*
X352798854Y-16867491D03*
D20*
%TO.N,Net-(D1-I{slash}O2)*%
X352000000Y-14729994D03*
D19*
X339798854Y-15867491D03*
%TO.N,VBUS_out*%
X337798854Y-23367491D03*
X339798854Y-25317491D03*
D21*
%TO.N,Net-(D2-K)*%
X351848854Y-17500000D03*
X356478854Y-25367491D03*
%TO.N,Net-(D3-K)*%
X353748854Y-20242492D03*
X354250000Y-23360001D03*
D19*
%TO.N,RST*%
X355298854Y-22467491D03*
X355348854Y-20242491D03*
X346798854Y-26367491D03*
D20*
%TO.N,Net-(J2-Pin_2)*%
X351423119Y-15598654D03*
D19*
X347791416Y-21360053D03*
%TO.N,UPDI*%
X356298854Y-18367491D03*
X344798854Y-29367491D03*
D20*
%TO.N,Net-(J2-Pin_6)*%
X350391145Y-16702738D03*
D19*
X342298854Y-29367491D03*
%TO.N,Net-(D1-I{slash}O1)*%
X343298854Y-23367491D03*
%TO.N,GND*%
X366975785Y2450000D03*
X375500000Y-25500000D03*
X371000000Y-24000000D03*
X361500000Y-23500000D03*
X367500000Y-29500000D03*
%TO.N,Net-(U5-FB)*%
X363859999Y-28037252D03*
X369500000Y-26500000D03*
D20*
%TO.N,PA3{slash}SS*%
X355000000Y-11000000D03*
D19*
%TO.N,GND*%
X346500000Y-13500000D03*
D21*
X336500000Y-27500000D03*
%TD*%
D22*
%TO.N,VBUS_out*%
X338000000Y-26258637D02*
X337608854Y-25867491D01*
X338000000Y-26500000D02*
X338000000Y-26258637D01*
X337608854Y-25867491D02*
X336798854Y-25867491D01*
%TO.N,GND*%
X336550000Y-21618637D02*
X336798854Y-21867491D01*
X336550000Y-20500000D02*
X336550000Y-21618637D01*
%TO.N,VBUS_out*%
X337588854Y-23367491D02*
X336798854Y-23367491D01*
X338000000Y-22500000D02*
X338000000Y-22956345D01*
X338000000Y-22956345D02*
X337588854Y-23367491D01*
%TO.N,GND*%
X347209165Y-14404642D02*
X346500000Y-13695477D01*
X346500000Y-13695477D02*
X346500000Y-13500000D01*
%TD*%
%TA.AperFunction,Conductor*%
%TO.N,GND*%
G36*
X380192539Y19479815D02*
G01*
X380238294Y19427011D01*
X380249500Y19375500D01*
X380249500Y-31875500D01*
X380229815Y-31942539D01*
X380177011Y-31988294D01*
X380125500Y-31999500D01*
X346437424Y-31999500D01*
X346370385Y-31979815D01*
X346324630Y-31927011D01*
X346314686Y-31857853D01*
X346343711Y-31794297D01*
X346402489Y-31756523D01*
X346426616Y-31751972D01*
X346534262Y-31742554D01*
X346762517Y-31681394D01*
X346976684Y-31581526D01*
X347170255Y-31445986D01*
X347337349Y-31278892D01*
X347472889Y-31085321D01*
X347572757Y-30871154D01*
X347633917Y-30642899D01*
X347654513Y-30407491D01*
X347633917Y-30172083D01*
X347572757Y-29943828D01*
X347472889Y-29729662D01*
X347337349Y-29536090D01*
X347301255Y-29499996D01*
X361694435Y-29499996D01*
X361694435Y-29500003D01*
X361714630Y-29679249D01*
X361714631Y-29679254D01*
X361774211Y-29849523D01*
X361833466Y-29943826D01*
X361870184Y-30002262D01*
X361997738Y-30129816D01*
X362150478Y-30225789D01*
X362320745Y-30285368D01*
X362320750Y-30285369D01*
X362499996Y-30305565D01*
X362500000Y-30305565D01*
X362500004Y-30305565D01*
X362679249Y-30285369D01*
X362679252Y-30285368D01*
X362679255Y-30285368D01*
X362849522Y-30225789D01*
X363002262Y-30129816D01*
X363129816Y-30002262D01*
X363225789Y-29849522D01*
X363285368Y-29679255D01*
X363305565Y-29500000D01*
X363288984Y-29352842D01*
X363285369Y-29320750D01*
X363285368Y-29320745D01*
X363252641Y-29227216D01*
X363225789Y-29150478D01*
X363129816Y-28997738D01*
X363002262Y-28870184D01*
X362930311Y-28824974D01*
X362849523Y-28774211D01*
X362679254Y-28714631D01*
X362679249Y-28714630D01*
X362500004Y-28694435D01*
X362499996Y-28694435D01*
X362320750Y-28714630D01*
X362320745Y-28714631D01*
X362150476Y-28774211D01*
X361997737Y-28870184D01*
X361870184Y-28997737D01*
X361774211Y-29150476D01*
X361714631Y-29320745D01*
X361714630Y-29320750D01*
X361694435Y-29499996D01*
X347301255Y-29499996D01*
X347215421Y-29414162D01*
X347181938Y-29352842D01*
X347186922Y-29283150D01*
X347228793Y-29227216D01*
X347259769Y-29210301D01*
X347391185Y-29161287D01*
X347506400Y-29075037D01*
X347592650Y-28959822D01*
X347642945Y-28824974D01*
X347649354Y-28765364D01*
X347649354Y-28037248D01*
X363054434Y-28037248D01*
X363054434Y-28037255D01*
X363074629Y-28216501D01*
X363074630Y-28216506D01*
X363134210Y-28386775D01*
X363230183Y-28539514D01*
X363357737Y-28667068D01*
X363510477Y-28763041D01*
X363680744Y-28822620D01*
X363680749Y-28822621D01*
X363859995Y-28842817D01*
X363859999Y-28842817D01*
X363860003Y-28842817D01*
X364039248Y-28822621D01*
X364039251Y-28822620D01*
X364039254Y-28822620D01*
X364209521Y-28763041D01*
X364362261Y-28667068D01*
X364489815Y-28539514D01*
X364585788Y-28386774D01*
X364645367Y-28216507D01*
X364645368Y-28216501D01*
X364665564Y-28037255D01*
X364665564Y-28037248D01*
X364645368Y-27858002D01*
X364645367Y-27857997D01*
X364585788Y-27687730D01*
X364582181Y-27681990D01*
X364505834Y-27560484D01*
X364489815Y-27534990D01*
X364362261Y-27407436D01*
X364285464Y-27359181D01*
X364209522Y-27311463D01*
X364039253Y-27251883D01*
X364039248Y-27251882D01*
X363860003Y-27231687D01*
X363859995Y-27231687D01*
X363680749Y-27251882D01*
X363680744Y-27251883D01*
X363510475Y-27311463D01*
X363357736Y-27407436D01*
X363230183Y-27534989D01*
X363134210Y-27687728D01*
X363074630Y-27857997D01*
X363074629Y-27858002D01*
X363054434Y-28037248D01*
X347649354Y-28037248D01*
X347649353Y-26969619D01*
X347642945Y-26910008D01*
X347641664Y-26906574D01*
X347592651Y-26775162D01*
X347592650Y-26775161D01*
X347592650Y-26775160D01*
X347572037Y-26747625D01*
X347547621Y-26682162D01*
X347554264Y-26632360D01*
X347584222Y-26546746D01*
X347589490Y-26499996D01*
X368694435Y-26499996D01*
X368694435Y-26500003D01*
X368714630Y-26679249D01*
X368714631Y-26679254D01*
X368774211Y-26849523D01*
X368810059Y-26906574D01*
X368870184Y-27002262D01*
X368997738Y-27129816D01*
X369150478Y-27225789D01*
X369320745Y-27285368D01*
X369320750Y-27285369D01*
X369499996Y-27305565D01*
X369500000Y-27305565D01*
X369500004Y-27305565D01*
X369679249Y-27285369D01*
X369679252Y-27285368D01*
X369679255Y-27285368D01*
X369849522Y-27225789D01*
X370002262Y-27129816D01*
X370129816Y-27002262D01*
X370225789Y-26849522D01*
X370285368Y-26679255D01*
X370294967Y-26594061D01*
X370305565Y-26500003D01*
X370305565Y-26499996D01*
X370285369Y-26320750D01*
X370285368Y-26320745D01*
X370225788Y-26150476D01*
X370142528Y-26017969D01*
X370129816Y-25997738D01*
X370002262Y-25870184D01*
X369922002Y-25819753D01*
X369849523Y-25774211D01*
X369679254Y-25714631D01*
X369679249Y-25714630D01*
X369500004Y-25694435D01*
X369499996Y-25694435D01*
X369320750Y-25714630D01*
X369320745Y-25714631D01*
X369150476Y-25774211D01*
X368997737Y-25870184D01*
X368870184Y-25997737D01*
X368774211Y-26150476D01*
X368714631Y-26320745D01*
X368714630Y-26320750D01*
X368694435Y-26499996D01*
X347589490Y-26499996D01*
X347589567Y-26499311D01*
X347604419Y-26367494D01*
X347604419Y-26367487D01*
X347584223Y-26188241D01*
X347584222Y-26188236D01*
X347571009Y-26150476D01*
X347524643Y-26017969D01*
X347511930Y-25997737D01*
X347428669Y-25865228D01*
X347301116Y-25737675D01*
X347148377Y-25641702D01*
X346978108Y-25582122D01*
X346978103Y-25582121D01*
X346798858Y-25561926D01*
X346798850Y-25561926D01*
X346619604Y-25582121D01*
X346619599Y-25582122D01*
X346449330Y-25641702D01*
X346296591Y-25737675D01*
X346169038Y-25865228D01*
X346073065Y-26017967D01*
X346013485Y-26188236D01*
X346013484Y-26188241D01*
X345998555Y-26320750D01*
X345993289Y-26367491D01*
X345993962Y-26373469D01*
X345994598Y-26379111D01*
X345982541Y-26447933D01*
X345935190Y-26499311D01*
X345871377Y-26516991D01*
X345400983Y-26516991D01*
X345400977Y-26516992D01*
X345341370Y-26523399D01*
X345206525Y-26573693D01*
X345206518Y-26573697D01*
X345091309Y-26659943D01*
X345091306Y-26659946D01*
X345005060Y-26775155D01*
X345005057Y-26775160D01*
X344956043Y-26906574D01*
X344914171Y-26962507D01*
X344848707Y-26986924D01*
X344780434Y-26972072D01*
X344752180Y-26950921D01*
X344630256Y-26828997D01*
X344630249Y-26828992D01*
X344436688Y-26693458D01*
X344436684Y-26693456D01*
X344406217Y-26679249D01*
X344222517Y-26593588D01*
X344222513Y-26593587D01*
X344222509Y-26593585D01*
X343994267Y-26532429D01*
X343994257Y-26532427D01*
X343758855Y-26511832D01*
X343758853Y-26511832D01*
X343523450Y-26532427D01*
X343523440Y-26532429D01*
X343295198Y-26593585D01*
X343295189Y-26593589D01*
X343081025Y-26693455D01*
X343081023Y-26693456D01*
X342887451Y-26828996D01*
X342720362Y-26996085D01*
X342590123Y-27182086D01*
X342535546Y-27225710D01*
X342466047Y-27232903D01*
X342403693Y-27201381D01*
X342386973Y-27182085D01*
X342256967Y-26996417D01*
X342256962Y-26996411D01*
X342089936Y-26829385D01*
X341896432Y-26693890D01*
X341682346Y-26594061D01*
X341682340Y-26594058D01*
X341468854Y-26536855D01*
X341468854Y-27434479D01*
X341411847Y-27401566D01*
X341284680Y-27367491D01*
X341153028Y-27367491D01*
X341025861Y-27401566D01*
X340968854Y-27434479D01*
X340968854Y-26536855D01*
X340968853Y-26536855D01*
X340755367Y-26594058D01*
X340755361Y-26594061D01*
X340541276Y-26693890D01*
X340541274Y-26693891D01*
X340347780Y-26829377D01*
X340347774Y-26829382D01*
X340180745Y-26996411D01*
X340180740Y-26996417D01*
X340045254Y-27189911D01*
X340045253Y-27189913D01*
X339945424Y-27403998D01*
X339945421Y-27404004D01*
X339888218Y-27617490D01*
X339888218Y-27617491D01*
X340785842Y-27617491D01*
X340752929Y-27674498D01*
X340718854Y-27801665D01*
X340718854Y-27933317D01*
X340752929Y-28060484D01*
X340785842Y-28117491D01*
X339888218Y-28117491D01*
X339945421Y-28330977D01*
X339945424Y-28330983D01*
X340045253Y-28545069D01*
X340180748Y-28738573D01*
X340347771Y-28905596D01*
X340533449Y-29035610D01*
X340577073Y-29090187D01*
X340584266Y-29159686D01*
X340552744Y-29222040D01*
X340533449Y-29238760D01*
X340347448Y-29368999D01*
X340180359Y-29536088D01*
X340044819Y-29729660D01*
X340044818Y-29729662D01*
X339944952Y-29943826D01*
X339944948Y-29943835D01*
X339883792Y-30172077D01*
X339883790Y-30172087D01*
X339863195Y-30407490D01*
X339863195Y-30407491D01*
X339883790Y-30642894D01*
X339883792Y-30642904D01*
X339944948Y-30871146D01*
X339944950Y-30871150D01*
X339944951Y-30871154D01*
X339948854Y-30879523D01*
X340044819Y-31085321D01*
X340044821Y-31085325D01*
X340153135Y-31240012D01*
X340180359Y-31278892D01*
X340347453Y-31445986D01*
X340444238Y-31513756D01*
X340541019Y-31581523D01*
X340541021Y-31581524D01*
X340541024Y-31581526D01*
X340755191Y-31681394D01*
X340983446Y-31742554D01*
X341091092Y-31751972D01*
X341156160Y-31777425D01*
X341197139Y-31834016D01*
X341201017Y-31903778D01*
X341166563Y-31964562D01*
X341104716Y-31997069D01*
X341080284Y-31999500D01*
X336374500Y-31999500D01*
X336307461Y-31979815D01*
X336261706Y-31927011D01*
X336250500Y-31875500D01*
X336250500Y-28181491D01*
X336270185Y-28114452D01*
X336322989Y-28068697D01*
X336374500Y-28057491D01*
X336608854Y-28057491D01*
X336608854Y-27681990D01*
X336628539Y-27614951D01*
X336681343Y-27569196D01*
X336732851Y-27557990D01*
X336864855Y-27557990D01*
X336931893Y-27577675D01*
X336977648Y-27630479D01*
X336988854Y-27681990D01*
X336988854Y-28057491D01*
X337346682Y-28057491D01*
X337346698Y-28057490D01*
X337406226Y-28051089D01*
X337406233Y-28051087D01*
X337540940Y-28000845D01*
X337540947Y-28000841D01*
X337656041Y-27914681D01*
X337656044Y-27914678D01*
X337742204Y-27799584D01*
X337742208Y-27799577D01*
X337792450Y-27664870D01*
X337792452Y-27664863D01*
X337798853Y-27605335D01*
X337798854Y-27605318D01*
X337798854Y-27557491D01*
X337797481Y-27557491D01*
X337730442Y-27537806D01*
X337684687Y-27485002D01*
X337674743Y-27415844D01*
X337698211Y-27359183D01*
X337716137Y-27335238D01*
X337772068Y-27293370D01*
X337829285Y-27286331D01*
X337999996Y-27305565D01*
X338000000Y-27305565D01*
X338000004Y-27305565D01*
X338179249Y-27285369D01*
X338179252Y-27285368D01*
X338179255Y-27285368D01*
X338349522Y-27225789D01*
X338502262Y-27129816D01*
X338629816Y-27002262D01*
X338725789Y-26849522D01*
X338785368Y-26679255D01*
X338794967Y-26594061D01*
X338805565Y-26500003D01*
X338805565Y-26499996D01*
X338785369Y-26320750D01*
X338785368Y-26320745D01*
X338725788Y-26150476D01*
X338642528Y-26017969D01*
X338629816Y-25997738D01*
X338502262Y-25870184D01*
X338494375Y-25865228D01*
X338402484Y-25807488D01*
X338380776Y-25790176D01*
X338364397Y-25773797D01*
X338364374Y-25773776D01*
X338096444Y-25505846D01*
X338096442Y-25505843D01*
X337977571Y-25386972D01*
X337977570Y-25386971D01*
X337890758Y-25336851D01*
X337890758Y-25336849D01*
X337890753Y-25336848D01*
X337861350Y-25319871D01*
X337859077Y-25317487D01*
X338993289Y-25317487D01*
X338993289Y-25317494D01*
X339013484Y-25496740D01*
X339013485Y-25496745D01*
X339073065Y-25667014D01*
X339156662Y-25800057D01*
X339169038Y-25819753D01*
X339296592Y-25947307D01*
X339348920Y-25980187D01*
X339409046Y-26017967D01*
X339449332Y-26043280D01*
X339619599Y-26102859D01*
X339619604Y-26102860D01*
X339798850Y-26123056D01*
X339798854Y-26123056D01*
X339798858Y-26123056D01*
X339978103Y-26102860D01*
X339978106Y-26102859D01*
X339978109Y-26102859D01*
X340148376Y-26043280D01*
X340301116Y-25947307D01*
X340428670Y-25819753D01*
X340524643Y-25667013D01*
X340584222Y-25496746D01*
X340584223Y-25496740D01*
X340598786Y-25367490D01*
X355823576Y-25367490D01*
X355823576Y-25367491D01*
X355842616Y-25524309D01*
X355887138Y-25641702D01*
X355898634Y-25672014D01*
X355988371Y-25802021D01*
X356106614Y-25906774D01*
X356106616Y-25906775D01*
X356246488Y-25980187D01*
X356399868Y-26017991D01*
X356399869Y-26017991D01*
X356557839Y-26017991D01*
X356711219Y-25980187D01*
X356851094Y-25906774D01*
X356969337Y-25802021D01*
X357059074Y-25672014D01*
X357115091Y-25524309D01*
X357134132Y-25367491D01*
X357130412Y-25336849D01*
X357115091Y-25210672D01*
X357084349Y-25129614D01*
X357059074Y-25062968D01*
X356969337Y-24932961D01*
X356851094Y-24828208D01*
X356851092Y-24828207D01*
X356851091Y-24828206D01*
X356711219Y-24754794D01*
X356557840Y-24716991D01*
X356557839Y-24716991D01*
X356399869Y-24716991D01*
X356399868Y-24716991D01*
X356246488Y-24754794D01*
X356106616Y-24828206D01*
X355988370Y-24932962D01*
X355898635Y-25062966D01*
X355898634Y-25062967D01*
X355842616Y-25210672D01*
X355823576Y-25367490D01*
X340598786Y-25367490D01*
X340604419Y-25317494D01*
X340604419Y-25317487D01*
X340584223Y-25138241D01*
X340584222Y-25138236D01*
X340560348Y-25070007D01*
X340524643Y-24967969D01*
X340428670Y-24815229D01*
X340301116Y-24687675D01*
X340203499Y-24626338D01*
X340148377Y-24591702D01*
X339978108Y-24532122D01*
X339978103Y-24532121D01*
X339798858Y-24511926D01*
X339798850Y-24511926D01*
X339619604Y-24532121D01*
X339619599Y-24532122D01*
X339449330Y-24591702D01*
X339296591Y-24687675D01*
X339169038Y-24815228D01*
X339073065Y-24967967D01*
X339013485Y-25138236D01*
X339013484Y-25138241D01*
X338993289Y-25317487D01*
X337859077Y-25317487D01*
X337813136Y-25269303D01*
X337799353Y-25212486D01*
X337799353Y-25129620D01*
X337799352Y-25129614D01*
X337792945Y-25070007D01*
X337742651Y-24935162D01*
X337742647Y-24935155D01*
X337656401Y-24819946D01*
X337656398Y-24819943D01*
X337541189Y-24733697D01*
X337541180Y-24733692D01*
X337541128Y-24733673D01*
X337541083Y-24733639D01*
X337533400Y-24729444D01*
X337534003Y-24728339D01*
X337485194Y-24691802D01*
X337460776Y-24626338D01*
X337475627Y-24558065D01*
X337525032Y-24508659D01*
X337541128Y-24501309D01*
X337541180Y-24501289D01*
X337541180Y-24501288D01*
X337541185Y-24501287D01*
X337656400Y-24415037D01*
X337742650Y-24299822D01*
X337762923Y-24245464D01*
X337804792Y-24189533D01*
X337865221Y-24165578D01*
X337899682Y-24161695D01*
X337978104Y-24152860D01*
X337978107Y-24152859D01*
X337978109Y-24152859D01*
X338148376Y-24093280D01*
X338301116Y-23997307D01*
X338428670Y-23869753D01*
X338524643Y-23717013D01*
X338584222Y-23546746D01*
X338589234Y-23502262D01*
X338604419Y-23367494D01*
X338604419Y-23367487D01*
X342493289Y-23367487D01*
X342493289Y-23367494D01*
X342513484Y-23546740D01*
X342513485Y-23546745D01*
X342573065Y-23717014D01*
X342621773Y-23794531D01*
X342669038Y-23869753D01*
X342796592Y-23997307D01*
X342949332Y-24093280D01*
X343119599Y-24152859D01*
X343119604Y-24152860D01*
X343298850Y-24173056D01*
X343298854Y-24173056D01*
X343298858Y-24173056D01*
X343478103Y-24152860D01*
X343478106Y-24152859D01*
X343478109Y-24152859D01*
X343648376Y-24093280D01*
X343801116Y-23997307D01*
X343928670Y-23869753D01*
X344024643Y-23717013D01*
X344084222Y-23546746D01*
X344089235Y-23502260D01*
X344092276Y-23475265D01*
X344119342Y-23410850D01*
X344176936Y-23371295D01*
X344246773Y-23369156D01*
X344306680Y-23405114D01*
X344320489Y-23423174D01*
X344370182Y-23502260D01*
X344370184Y-23502262D01*
X344497738Y-23629816D01*
X344552977Y-23664525D01*
X344636512Y-23717014D01*
X344650478Y-23725789D01*
X344769424Y-23767410D01*
X344820745Y-23785368D01*
X344820750Y-23785369D01*
X344999996Y-23805565D01*
X345000000Y-23805565D01*
X345000004Y-23805565D01*
X345179249Y-23785369D01*
X345179252Y-23785368D01*
X345179255Y-23785368D01*
X345349522Y-23725789D01*
X345502262Y-23629816D01*
X345629816Y-23502262D01*
X345719205Y-23360000D01*
X353594722Y-23360000D01*
X353594722Y-23360001D01*
X353613762Y-23516819D01*
X353656617Y-23629816D01*
X353669780Y-23664524D01*
X353759517Y-23794531D01*
X353877760Y-23899284D01*
X353877762Y-23899285D01*
X354017634Y-23972697D01*
X354171014Y-24010501D01*
X354171015Y-24010501D01*
X354328985Y-24010501D01*
X354482365Y-23972697D01*
X354622240Y-23899284D01*
X354740483Y-23794531D01*
X354830220Y-23664524D01*
X354886237Y-23516819D01*
X354905278Y-23360001D01*
X354905278Y-23360000D01*
X354905278Y-23352627D01*
X354924963Y-23285588D01*
X354977767Y-23239833D01*
X355046925Y-23229889D01*
X355070233Y-23235586D01*
X355119591Y-23252857D01*
X355119597Y-23252858D01*
X355119599Y-23252859D01*
X355119600Y-23252859D01*
X355119604Y-23252860D01*
X355298850Y-23273056D01*
X355298854Y-23273056D01*
X355298858Y-23273056D01*
X355478103Y-23252860D01*
X355478106Y-23252859D01*
X355478109Y-23252859D01*
X355648376Y-23193280D01*
X355801116Y-23097307D01*
X355916385Y-22982038D01*
X374784434Y-22982038D01*
X374784434Y-22982045D01*
X374804629Y-23161291D01*
X374804630Y-23161296D01*
X374864210Y-23331565D01*
X374921772Y-23423174D01*
X374960183Y-23484304D01*
X375087737Y-23611858D01*
X375240477Y-23707831D01*
X375410744Y-23767410D01*
X375410749Y-23767411D01*
X375589995Y-23787607D01*
X375589999Y-23787607D01*
X375590003Y-23787607D01*
X375769248Y-23767411D01*
X375769251Y-23767410D01*
X375769254Y-23767410D01*
X375939521Y-23707831D01*
X376092261Y-23611858D01*
X376219815Y-23484304D01*
X376315788Y-23331564D01*
X376375367Y-23161297D01*
X376387290Y-23055476D01*
X376395564Y-22982045D01*
X376395564Y-22982038D01*
X376375368Y-22802792D01*
X376375367Y-22802787D01*
X376339887Y-22701391D01*
X376315788Y-22632520D01*
X376314088Y-22629815D01*
X376232518Y-22499997D01*
X376219815Y-22479780D01*
X376092261Y-22352226D01*
X375990422Y-22288236D01*
X375939522Y-22256253D01*
X375769253Y-22196673D01*
X375769248Y-22196672D01*
X375590003Y-22176477D01*
X375589995Y-22176477D01*
X375410749Y-22196672D01*
X375410744Y-22196673D01*
X375240475Y-22256253D01*
X375087736Y-22352226D01*
X374960183Y-22479779D01*
X374864210Y-22632518D01*
X374804630Y-22802787D01*
X374804629Y-22802792D01*
X374784434Y-22982038D01*
X355916385Y-22982038D01*
X355928670Y-22969753D01*
X356024643Y-22817013D01*
X356084222Y-22646746D01*
X356084223Y-22646740D01*
X356104419Y-22467494D01*
X356104419Y-22467487D01*
X356084223Y-22288241D01*
X356084222Y-22288236D01*
X356054199Y-22202436D01*
X356024643Y-22117969D01*
X355928670Y-21965229D01*
X355801116Y-21837675D01*
X355772261Y-21819544D01*
X355648377Y-21741702D01*
X355478108Y-21682122D01*
X355478103Y-21682121D01*
X355298858Y-21661926D01*
X355298850Y-21661926D01*
X355119604Y-21682121D01*
X355119599Y-21682122D01*
X354949330Y-21741702D01*
X354796591Y-21837675D01*
X354669038Y-21965228D01*
X354573065Y-22117967D01*
X354513485Y-22288236D01*
X354513484Y-22288241D01*
X354493289Y-22467487D01*
X354493289Y-22467494D01*
X354506099Y-22581190D01*
X354494044Y-22650012D01*
X354446695Y-22701391D01*
X354379085Y-22719015D01*
X354353206Y-22715470D01*
X354328988Y-22709501D01*
X354328985Y-22709501D01*
X354171015Y-22709501D01*
X354171014Y-22709501D01*
X354017634Y-22747304D01*
X353877762Y-22820716D01*
X353759516Y-22925472D01*
X353669781Y-23055476D01*
X353669780Y-23055477D01*
X353613762Y-23203182D01*
X353594722Y-23360000D01*
X345719205Y-23360000D01*
X345725789Y-23349522D01*
X345785368Y-23179255D01*
X345785369Y-23179249D01*
X345805565Y-23000003D01*
X345805565Y-22999997D01*
X345798285Y-22935389D01*
X345810339Y-22866567D01*
X345857688Y-22815188D01*
X345925298Y-22797563D01*
X345935385Y-22798284D01*
X345961857Y-22801267D01*
X345999998Y-22805565D01*
X346000000Y-22805565D01*
X346000004Y-22805565D01*
X346179249Y-22785369D01*
X346179252Y-22785368D01*
X346179255Y-22785368D01*
X346349522Y-22725789D01*
X346502262Y-22629816D01*
X346629816Y-22502262D01*
X346725789Y-22349522D01*
X346785368Y-22179255D01*
X346786151Y-22172305D01*
X346805565Y-22000003D01*
X346805565Y-21999996D01*
X346785369Y-21820750D01*
X346785368Y-21820745D01*
X346774462Y-21789577D01*
X346725789Y-21650478D01*
X346629816Y-21497738D01*
X346502262Y-21370184D01*
X346486132Y-21360049D01*
X346985851Y-21360049D01*
X346985851Y-21360056D01*
X347006046Y-21539302D01*
X347006047Y-21539307D01*
X347065627Y-21709576D01*
X347134725Y-21819544D01*
X347161600Y-21862315D01*
X347289154Y-21989869D01*
X347441894Y-22085842D01*
X347533702Y-22117967D01*
X347612161Y-22145421D01*
X347612166Y-22145422D01*
X347791412Y-22165618D01*
X347791416Y-22165618D01*
X347791420Y-22165618D01*
X347970665Y-22145422D01*
X347970668Y-22145421D01*
X347970671Y-22145421D01*
X348140938Y-22085842D01*
X348293678Y-21989869D01*
X348421232Y-21862315D01*
X348517205Y-21709575D01*
X348576784Y-21539308D01*
X348581468Y-21497737D01*
X348596981Y-21360056D01*
X348596981Y-21360049D01*
X348576785Y-21180803D01*
X348576784Y-21180798D01*
X348532237Y-21053491D01*
X348517205Y-21010531D01*
X348421232Y-20857791D01*
X348293678Y-20730237D01*
X348286599Y-20725789D01*
X348140939Y-20634264D01*
X347970670Y-20574684D01*
X347970665Y-20574683D01*
X347791420Y-20554488D01*
X347791412Y-20554488D01*
X347612166Y-20574683D01*
X347612161Y-20574684D01*
X347441892Y-20634264D01*
X347289153Y-20730237D01*
X347161600Y-20857790D01*
X347065627Y-21010529D01*
X347006047Y-21180798D01*
X347006046Y-21180803D01*
X346985851Y-21360049D01*
X346486132Y-21360049D01*
X346349523Y-21274211D01*
X346179254Y-21214631D01*
X346179249Y-21214630D01*
X346000004Y-21194435D01*
X345999996Y-21194435D01*
X345820750Y-21214630D01*
X345820745Y-21214631D01*
X345650476Y-21274211D01*
X345497737Y-21370184D01*
X345370184Y-21497737D01*
X345274211Y-21650476D01*
X345214631Y-21820745D01*
X345214630Y-21820750D01*
X345194435Y-21999996D01*
X345194435Y-22000004D01*
X345201714Y-22064611D01*
X345189659Y-22133433D01*
X345142310Y-22184812D01*
X345074699Y-22202436D01*
X345064611Y-22201714D01*
X345000004Y-22194435D01*
X344999996Y-22194435D01*
X344820750Y-22214630D01*
X344820745Y-22214631D01*
X344650476Y-22274211D01*
X344497737Y-22370184D01*
X344370184Y-22497737D01*
X344274211Y-22650476D01*
X344214631Y-22820745D01*
X344214630Y-22820749D01*
X344206577Y-22892227D01*
X344179510Y-22956641D01*
X344121915Y-22996196D01*
X344052078Y-22998333D01*
X343992172Y-22962375D01*
X343978363Y-22944315D01*
X343966523Y-22925472D01*
X343928670Y-22865229D01*
X343801116Y-22737675D01*
X343765777Y-22715470D01*
X343648377Y-22641702D01*
X343478108Y-22582122D01*
X343478103Y-22582121D01*
X343298858Y-22561926D01*
X343298850Y-22561926D01*
X343119604Y-22582121D01*
X343119599Y-22582122D01*
X342949330Y-22641702D01*
X342796591Y-22737675D01*
X342669038Y-22865228D01*
X342573065Y-23017967D01*
X342513485Y-23188236D01*
X342513484Y-23188241D01*
X342493289Y-23367487D01*
X338604419Y-23367487D01*
X338584223Y-23188243D01*
X338584222Y-23188242D01*
X338584222Y-23188236D01*
X338582882Y-23184408D01*
X338582748Y-23181781D01*
X338582673Y-23181451D01*
X338582730Y-23181437D01*
X338579317Y-23114634D01*
X338580148Y-23111355D01*
X338583912Y-23097307D01*
X338600500Y-23035403D01*
X338600500Y-22990662D01*
X338619507Y-22924689D01*
X338639904Y-22892227D01*
X338680456Y-22827690D01*
X338736313Y-22668059D01*
X338755249Y-22500000D01*
X338752971Y-22479779D01*
X338736314Y-22331943D01*
X338688981Y-22196673D01*
X338680456Y-22172310D01*
X338680455Y-22172309D01*
X338680454Y-22172305D01*
X338680452Y-22172302D01*
X338586773Y-22023214D01*
X338588457Y-22022155D01*
X338565742Y-21966540D01*
X338578488Y-21897843D01*
X338589830Y-21879583D01*
X338657206Y-21789580D01*
X338657208Y-21789577D01*
X338707450Y-21654870D01*
X338707452Y-21654863D01*
X338713853Y-21595335D01*
X338713854Y-21595318D01*
X338713854Y-21447491D01*
X337512854Y-21447491D01*
X337445815Y-21427806D01*
X337400060Y-21375002D01*
X337388854Y-21323491D01*
X337388854Y-20947491D01*
X337888854Y-20947491D01*
X338713854Y-20947491D01*
X338713854Y-20799663D01*
X338713853Y-20799646D01*
X338707452Y-20740118D01*
X338707450Y-20740111D01*
X338657208Y-20605404D01*
X338657204Y-20605397D01*
X338571044Y-20490303D01*
X338571041Y-20490300D01*
X338455947Y-20404140D01*
X338455940Y-20404136D01*
X338321233Y-20353894D01*
X338321226Y-20353892D01*
X338261698Y-20347491D01*
X337888854Y-20347491D01*
X337888854Y-20947491D01*
X337388854Y-20947491D01*
X337388854Y-20347491D01*
X337016009Y-20347491D01*
X336956481Y-20353892D01*
X336956474Y-20353894D01*
X336821767Y-20404136D01*
X336821760Y-20404140D01*
X336706666Y-20490300D01*
X336706663Y-20490303D01*
X336620503Y-20605397D01*
X336620499Y-20605404D01*
X336570257Y-20740111D01*
X336570255Y-20740118D01*
X336563854Y-20799646D01*
X336563854Y-21053491D01*
X336544169Y-21120530D01*
X336491365Y-21166285D01*
X336439854Y-21177491D01*
X336374500Y-21177491D01*
X336307461Y-21157806D01*
X336261706Y-21105002D01*
X336250500Y-21053491D01*
X336250500Y-19499996D01*
X349585580Y-19499996D01*
X349585580Y-19500003D01*
X349605775Y-19679249D01*
X349605776Y-19679254D01*
X349665356Y-19849523D01*
X349720930Y-19937968D01*
X349761329Y-20002262D01*
X349888883Y-20129816D01*
X350041623Y-20225789D01*
X350123740Y-20254523D01*
X350211890Y-20285368D01*
X350211895Y-20285369D01*
X350391141Y-20305565D01*
X350391145Y-20305565D01*
X350391149Y-20305565D01*
X350570394Y-20285369D01*
X350570397Y-20285368D01*
X350570400Y-20285368D01*
X350692935Y-20242491D01*
X353093576Y-20242491D01*
X353093576Y-20242492D01*
X353112616Y-20399310D01*
X353168634Y-20547015D01*
X353258371Y-20677022D01*
X353376614Y-20781775D01*
X353376616Y-20781776D01*
X353516488Y-20855188D01*
X353669868Y-20892992D01*
X353669869Y-20892992D01*
X353827839Y-20892992D01*
X353981219Y-20855188D01*
X354121094Y-20781775D01*
X354239337Y-20677022D01*
X354329074Y-20547015D01*
X354353164Y-20483493D01*
X354395342Y-20427791D01*
X354460939Y-20403734D01*
X354529130Y-20418961D01*
X354578263Y-20468637D01*
X354586148Y-20486510D01*
X354623065Y-20592014D01*
X354684866Y-20690369D01*
X354719038Y-20744753D01*
X354846592Y-20872307D01*
X354879512Y-20892992D01*
X354966246Y-20947491D01*
X354999332Y-20968280D01*
X355169599Y-21027859D01*
X355169604Y-21027860D01*
X355348850Y-21048056D01*
X355348854Y-21048056D01*
X355348858Y-21048056D01*
X355528103Y-21027860D01*
X355528106Y-21027859D01*
X355528109Y-21027859D01*
X355698376Y-20968280D01*
X355851116Y-20872307D01*
X355978670Y-20744753D01*
X356074643Y-20592013D01*
X356134222Y-20421746D01*
X356136206Y-20404136D01*
X356154419Y-20242494D01*
X356154419Y-20242487D01*
X356134223Y-20063241D01*
X356134222Y-20063236D01*
X356090388Y-19937967D01*
X356078851Y-19904996D01*
X360064435Y-19904996D01*
X360064435Y-19905003D01*
X360084630Y-20084249D01*
X360084631Y-20084254D01*
X360144211Y-20254523D01*
X360235187Y-20399310D01*
X360240184Y-20407262D01*
X360367738Y-20534816D01*
X360431189Y-20574685D01*
X360518927Y-20629815D01*
X360520478Y-20630789D01*
X360690745Y-20690368D01*
X360690750Y-20690369D01*
X360869996Y-20710565D01*
X360870000Y-20710565D01*
X360870004Y-20710565D01*
X361049249Y-20690369D01*
X361049252Y-20690368D01*
X361049255Y-20690368D01*
X361219522Y-20630789D01*
X361372262Y-20534816D01*
X361499816Y-20407262D01*
X361595789Y-20254522D01*
X361655368Y-20084255D01*
X361655369Y-20084249D01*
X361675565Y-19905003D01*
X361675565Y-19904996D01*
X361655369Y-19725750D01*
X361655368Y-19725745D01*
X361621794Y-19629796D01*
X361595789Y-19555478D01*
X361592346Y-19549999D01*
X361499815Y-19402737D01*
X361372262Y-19275184D01*
X361219523Y-19179211D01*
X361049254Y-19119631D01*
X361049249Y-19119630D01*
X360870004Y-19099435D01*
X360869996Y-19099435D01*
X360690750Y-19119630D01*
X360690745Y-19119631D01*
X360520476Y-19179211D01*
X360367737Y-19275184D01*
X360240184Y-19402737D01*
X360144211Y-19555476D01*
X360084631Y-19725745D01*
X360084630Y-19725750D01*
X360064435Y-19904996D01*
X356078851Y-19904996D01*
X356074643Y-19892969D01*
X355978670Y-19740229D01*
X355851116Y-19612675D01*
X355698377Y-19516702D01*
X355528108Y-19457122D01*
X355528103Y-19457121D01*
X355348858Y-19436926D01*
X355348850Y-19436926D01*
X355169604Y-19457121D01*
X355169599Y-19457122D01*
X354999330Y-19516702D01*
X354846591Y-19612675D01*
X354719038Y-19740228D01*
X354623062Y-19892971D01*
X354586146Y-19998472D01*
X354545424Y-20055248D01*
X354480471Y-20080995D01*
X354411910Y-20067538D01*
X354361507Y-20019151D01*
X354353165Y-20001493D01*
X354329074Y-19937969D01*
X354306314Y-19904996D01*
X354268024Y-19849523D01*
X354239337Y-19807962D01*
X354121094Y-19703209D01*
X354121092Y-19703208D01*
X354121091Y-19703207D01*
X353981219Y-19629795D01*
X353827840Y-19591992D01*
X353827839Y-19591992D01*
X353669869Y-19591992D01*
X353669868Y-19591992D01*
X353516488Y-19629795D01*
X353376616Y-19703207D01*
X353258370Y-19807963D01*
X353168635Y-19937967D01*
X353168634Y-19937968D01*
X353112616Y-20085673D01*
X353093576Y-20242491D01*
X350692935Y-20242491D01*
X350740667Y-20225789D01*
X350893407Y-20129816D01*
X351020961Y-20002262D01*
X351116934Y-19849522D01*
X351176513Y-19679255D01*
X351179146Y-19655889D01*
X351196710Y-19500003D01*
X351196710Y-19499996D01*
X351176514Y-19320750D01*
X351176513Y-19320745D01*
X351163325Y-19283056D01*
X351116934Y-19150478D01*
X351101915Y-19126576D01*
X351077727Y-19088080D01*
X351020961Y-18997738D01*
X350893407Y-18870184D01*
X350860524Y-18849522D01*
X350740668Y-18774211D01*
X350570399Y-18714631D01*
X350570394Y-18714630D01*
X350391149Y-18694435D01*
X350391141Y-18694435D01*
X350211895Y-18714630D01*
X350211890Y-18714631D01*
X350041621Y-18774211D01*
X349888882Y-18870184D01*
X349761329Y-18997737D01*
X349665356Y-19150476D01*
X349605776Y-19320745D01*
X349605775Y-19320750D01*
X349585580Y-19499996D01*
X336250500Y-19499996D01*
X336250500Y-18367487D01*
X355493289Y-18367487D01*
X355493289Y-18367494D01*
X355513484Y-18546740D01*
X355513485Y-18546745D01*
X355573065Y-18717014D01*
X355609005Y-18774211D01*
X355669038Y-18869753D01*
X355796592Y-18997307D01*
X355949332Y-19093280D01*
X356119599Y-19152859D01*
X356119604Y-19152860D01*
X356298850Y-19173056D01*
X356298854Y-19173056D01*
X356298858Y-19173056D01*
X356478103Y-19152860D01*
X356478106Y-19152859D01*
X356478109Y-19152859D01*
X356648376Y-19093280D01*
X356801116Y-18997307D01*
X356928670Y-18869753D01*
X357024643Y-18717013D01*
X357084222Y-18546746D01*
X357084223Y-18546740D01*
X357089490Y-18499996D01*
X365694435Y-18499996D01*
X365694435Y-18500003D01*
X365714630Y-18679249D01*
X365714631Y-18679254D01*
X365774211Y-18849523D01*
X365813772Y-18912483D01*
X365870184Y-19002262D01*
X365997738Y-19129816D01*
X366021911Y-19145005D01*
X366021913Y-19145006D01*
X366068204Y-19197341D01*
X366078852Y-19266395D01*
X366050477Y-19330243D01*
X366021913Y-19354994D01*
X365997737Y-19370184D01*
X365870184Y-19497737D01*
X365774211Y-19650476D01*
X365714631Y-19820745D01*
X365714630Y-19820750D01*
X365694435Y-19999996D01*
X365694435Y-20000003D01*
X365714630Y-20179249D01*
X365714631Y-20179254D01*
X365774211Y-20349523D01*
X365844348Y-20461145D01*
X365870184Y-20502262D01*
X365997738Y-20629816D01*
X366150478Y-20725789D01*
X366258716Y-20763663D01*
X366320745Y-20785368D01*
X366320750Y-20785369D01*
X366499996Y-20805565D01*
X366500000Y-20805565D01*
X366500004Y-20805565D01*
X366679249Y-20785369D01*
X366679252Y-20785368D01*
X366679255Y-20785368D01*
X366849522Y-20725789D01*
X367002262Y-20629816D01*
X367129816Y-20502262D01*
X367225789Y-20349522D01*
X367285368Y-20179255D01*
X367287814Y-20157546D01*
X367305565Y-20000003D01*
X367305565Y-19999996D01*
X367285369Y-19820750D01*
X367285368Y-19820745D01*
X367244240Y-19703209D01*
X367225789Y-19650478D01*
X367129816Y-19497738D01*
X367002262Y-19370184D01*
X366978084Y-19354992D01*
X366931796Y-19302661D01*
X366921146Y-19233607D01*
X366949521Y-19169758D01*
X366978082Y-19145009D01*
X367002262Y-19129816D01*
X367129816Y-19002262D01*
X367225789Y-18849522D01*
X367285368Y-18679255D01*
X367294644Y-18596928D01*
X367305565Y-18500003D01*
X367305565Y-18499996D01*
X367285369Y-18320750D01*
X367285368Y-18320745D01*
X367239001Y-18188236D01*
X367225789Y-18150478D01*
X367220709Y-18142394D01*
X367142528Y-18017969D01*
X367129816Y-17997738D01*
X367002262Y-17870184D01*
X366897765Y-17804524D01*
X366849523Y-17774211D01*
X366679254Y-17714631D01*
X366679249Y-17714630D01*
X366500004Y-17694435D01*
X366499996Y-17694435D01*
X366320750Y-17714630D01*
X366320745Y-17714631D01*
X366150476Y-17774211D01*
X365997737Y-17870184D01*
X365870184Y-17997737D01*
X365774211Y-18150476D01*
X365714631Y-18320745D01*
X365714630Y-18320750D01*
X365694435Y-18499996D01*
X357089490Y-18499996D01*
X357104419Y-18367494D01*
X357104419Y-18367487D01*
X357084223Y-18188241D01*
X357084222Y-18188236D01*
X357024642Y-18017967D01*
X356928669Y-17865228D01*
X356801116Y-17737675D01*
X356648377Y-17641702D01*
X356478108Y-17582122D01*
X356478103Y-17582121D01*
X356298858Y-17561926D01*
X356298850Y-17561926D01*
X356119604Y-17582121D01*
X356119599Y-17582122D01*
X355949330Y-17641702D01*
X355796591Y-17737675D01*
X355669038Y-17865228D01*
X355573065Y-18017967D01*
X355513485Y-18188236D01*
X355513484Y-18188241D01*
X355493289Y-18367487D01*
X336250500Y-18367487D01*
X336250500Y-16702735D01*
X349635896Y-16702735D01*
X349635896Y-16702740D01*
X349654830Y-16870794D01*
X349710690Y-17030432D01*
X349710692Y-17030435D01*
X349800663Y-17173622D01*
X349800668Y-17173628D01*
X349920254Y-17293214D01*
X349920260Y-17293219D01*
X350063447Y-17383190D01*
X350063450Y-17383192D01*
X350063454Y-17383193D01*
X350063455Y-17383194D01*
X350108938Y-17399109D01*
X350223088Y-17439052D01*
X350391142Y-17457987D01*
X350391145Y-17457987D01*
X350391148Y-17457987D01*
X350559201Y-17439052D01*
X350559204Y-17439051D01*
X350718835Y-17383194D01*
X350862035Y-17293215D01*
X350928050Y-17227198D01*
X350989372Y-17193713D01*
X351029614Y-17191659D01*
X351104009Y-17200041D01*
X351168422Y-17227108D01*
X351207977Y-17284702D01*
X351213220Y-17338207D01*
X351193576Y-17499999D01*
X351193576Y-17500000D01*
X351212616Y-17656818D01*
X351257138Y-17774211D01*
X351268634Y-17804523D01*
X351358371Y-17934530D01*
X351476614Y-18039283D01*
X351476616Y-18039284D01*
X351616488Y-18112696D01*
X351769868Y-18150500D01*
X351769869Y-18150500D01*
X351927839Y-18150500D01*
X352081219Y-18112696D01*
X352221094Y-18039283D01*
X352339337Y-17934530D01*
X352429074Y-17804523D01*
X352459329Y-17724746D01*
X352501506Y-17669046D01*
X352567103Y-17644988D01*
X352616225Y-17651678D01*
X352619599Y-17652859D01*
X352619605Y-17652859D01*
X352619607Y-17652860D01*
X352798850Y-17673056D01*
X352798854Y-17673056D01*
X352798858Y-17673056D01*
X352978103Y-17652860D01*
X352978106Y-17652859D01*
X352978109Y-17652859D01*
X353148376Y-17593280D01*
X353301116Y-17497307D01*
X353428670Y-17369753D01*
X353441084Y-17349997D01*
X371739484Y-17349997D01*
X371739484Y-17350001D01*
X371743453Y-17385224D01*
X371744233Y-17399109D01*
X371744233Y-18400896D01*
X371743453Y-18414779D01*
X371739485Y-18449997D01*
X371739485Y-18450002D01*
X371743453Y-18485220D01*
X371744233Y-18499103D01*
X371744233Y-19500878D01*
X371743454Y-19514758D01*
X371743235Y-19516702D01*
X371739484Y-19550000D01*
X371743452Y-19585226D01*
X371743454Y-19585239D01*
X371744233Y-19599120D01*
X371744233Y-19847869D01*
X371744234Y-19847876D01*
X371750641Y-19907483D01*
X371800935Y-20042328D01*
X371800939Y-20042335D01*
X371887185Y-20157544D01*
X371887188Y-20157547D01*
X372002397Y-20243793D01*
X372002404Y-20243797D01*
X372047351Y-20260561D01*
X372137250Y-20294091D01*
X372196860Y-20300500D01*
X372445619Y-20300499D01*
X372459505Y-20301279D01*
X372494733Y-20305249D01*
X372529961Y-20301279D01*
X372543847Y-20300499D01*
X373545626Y-20300499D01*
X373559511Y-20301279D01*
X373594732Y-20305248D01*
X373594733Y-20305248D01*
X373629955Y-20301278D01*
X373643839Y-20300499D01*
X374645615Y-20300499D01*
X374659498Y-20301278D01*
X374671869Y-20302672D01*
X374694732Y-20305249D01*
X374694733Y-20305249D01*
X374694734Y-20305249D01*
X374715394Y-20302920D01*
X374729966Y-20301278D01*
X374743850Y-20300499D01*
X374992604Y-20300499D01*
X374992605Y-20300499D01*
X375052216Y-20294091D01*
X375187064Y-20243796D01*
X375302279Y-20157546D01*
X375388529Y-20042331D01*
X375438824Y-19907483D01*
X375445233Y-19847873D01*
X375445232Y-19599112D01*
X375446012Y-19585226D01*
X375449982Y-19549999D01*
X375446012Y-19514772D01*
X375445232Y-19500886D01*
X375445232Y-18499106D01*
X375446012Y-18485220D01*
X375449981Y-18450000D01*
X375449981Y-18449999D01*
X375446012Y-18414777D01*
X375445232Y-18400892D01*
X375445232Y-17399117D01*
X375446012Y-17385232D01*
X375449982Y-17350000D01*
X375449982Y-17349998D01*
X375446012Y-17314767D01*
X375445232Y-17300882D01*
X375445232Y-17052129D01*
X375445231Y-17052123D01*
X375445230Y-17052116D01*
X375438824Y-16992517D01*
X375393425Y-16870797D01*
X375388530Y-16857671D01*
X375388526Y-16857664D01*
X375302280Y-16742455D01*
X375302277Y-16742452D01*
X375187068Y-16656206D01*
X375187061Y-16656202D01*
X375052215Y-16605908D01*
X375052216Y-16605908D01*
X374992616Y-16599501D01*
X374992614Y-16599500D01*
X374992606Y-16599500D01*
X374992598Y-16599500D01*
X374743843Y-16599500D01*
X374729959Y-16598720D01*
X374694735Y-16594751D01*
X374694731Y-16594751D01*
X374659507Y-16598720D01*
X374645623Y-16599500D01*
X373643836Y-16599500D01*
X373629953Y-16598720D01*
X373594736Y-16594752D01*
X373594730Y-16594752D01*
X373565353Y-16598061D01*
X373559511Y-16598720D01*
X373545630Y-16599500D01*
X372543854Y-16599500D01*
X372529973Y-16598721D01*
X372529964Y-16598720D01*
X372494733Y-16594751D01*
X372494732Y-16594751D01*
X372459491Y-16598721D01*
X372445611Y-16599500D01*
X372196863Y-16599500D01*
X372196856Y-16599501D01*
X372137249Y-16605908D01*
X372002404Y-16656202D01*
X372002397Y-16656206D01*
X371887188Y-16742452D01*
X371887185Y-16742455D01*
X371800939Y-16857664D01*
X371800935Y-16857671D01*
X371750641Y-16992517D01*
X371744234Y-17052116D01*
X371744234Y-17052123D01*
X371744233Y-17052135D01*
X371744233Y-17300890D01*
X371743453Y-17314774D01*
X371739484Y-17349997D01*
X353441084Y-17349997D01*
X353524643Y-17217013D01*
X353584222Y-17046746D01*
X353590332Y-16992517D01*
X353604419Y-16867494D01*
X353604419Y-16867487D01*
X353584223Y-16688241D01*
X353584222Y-16688236D01*
X353573014Y-16656206D01*
X353524643Y-16517969D01*
X353513352Y-16500000D01*
X353471764Y-16433813D01*
X353436372Y-16377487D01*
X356493289Y-16377487D01*
X356493289Y-16377494D01*
X356513484Y-16556740D01*
X356513485Y-16556745D01*
X356573065Y-16727014D01*
X356655162Y-16857669D01*
X356669038Y-16879753D01*
X356796592Y-17007307D01*
X356949332Y-17103280D01*
X357025165Y-17129815D01*
X357119599Y-17162859D01*
X357119604Y-17162860D01*
X357298850Y-17183056D01*
X357298854Y-17183056D01*
X357298858Y-17183056D01*
X357478103Y-17162860D01*
X357478106Y-17162859D01*
X357478109Y-17162859D01*
X357648376Y-17103280D01*
X357801116Y-17007307D01*
X357928670Y-16879753D01*
X358024643Y-16727013D01*
X358084222Y-16556746D01*
X358086708Y-16534681D01*
X358090616Y-16499996D01*
X361694435Y-16499996D01*
X361694435Y-16500003D01*
X361714630Y-16679249D01*
X361714631Y-16679254D01*
X361774211Y-16849523D01*
X361793206Y-16879753D01*
X361870184Y-17002262D01*
X361997738Y-17129816D01*
X362050326Y-17162859D01*
X362136512Y-17217014D01*
X362150478Y-17225789D01*
X362154508Y-17227199D01*
X362320745Y-17285368D01*
X362320750Y-17285369D01*
X362499996Y-17305565D01*
X362500000Y-17305565D01*
X362500004Y-17305565D01*
X362679249Y-17285369D01*
X362679252Y-17285368D01*
X362679255Y-17285368D01*
X362849522Y-17225789D01*
X363002262Y-17129816D01*
X363129816Y-17002262D01*
X363225789Y-16849522D01*
X363285368Y-16679255D01*
X363285369Y-16679249D01*
X363305565Y-16500003D01*
X363305565Y-16499996D01*
X363285369Y-16320750D01*
X363285368Y-16320745D01*
X363226391Y-16152198D01*
X377109020Y-16152198D01*
X377109020Y-17947933D01*
X377109021Y-17947939D01*
X377115428Y-18007546D01*
X377165722Y-18142391D01*
X377165726Y-18142398D01*
X377251972Y-18257607D01*
X377251975Y-18257610D01*
X377367184Y-18343856D01*
X377367191Y-18343860D01*
X377367194Y-18343861D01*
X377499118Y-18393065D01*
X377555051Y-18434936D01*
X377579469Y-18500400D01*
X377564618Y-18568673D01*
X377543467Y-18596928D01*
X377421406Y-18718989D01*
X377285920Y-18912483D01*
X377285919Y-18912485D01*
X377186090Y-19126570D01*
X377186087Y-19126576D01*
X377128884Y-19340062D01*
X377128884Y-19340063D01*
X378026508Y-19340063D01*
X377993595Y-19397070D01*
X377959520Y-19524237D01*
X377959520Y-19655889D01*
X377993595Y-19783056D01*
X378026508Y-19840063D01*
X377128884Y-19840063D01*
X377186087Y-20053549D01*
X377186090Y-20053555D01*
X377285919Y-20267641D01*
X377421414Y-20461145D01*
X377588437Y-20628168D01*
X377781941Y-20763663D01*
X377996027Y-20863492D01*
X377996036Y-20863496D01*
X378209520Y-20920697D01*
X378209520Y-20023075D01*
X378266527Y-20055988D01*
X378393694Y-20090063D01*
X378525346Y-20090063D01*
X378652513Y-20055988D01*
X378709520Y-20023075D01*
X378709520Y-20920696D01*
X378923003Y-20863496D01*
X378923012Y-20863492D01*
X379137098Y-20763663D01*
X379330602Y-20628168D01*
X379497625Y-20461145D01*
X379633120Y-20267641D01*
X379732949Y-20053555D01*
X379732952Y-20053549D01*
X379790156Y-19840063D01*
X378892532Y-19840063D01*
X378925445Y-19783056D01*
X378959520Y-19655889D01*
X378959520Y-19524237D01*
X378925445Y-19397070D01*
X378892532Y-19340063D01*
X379790156Y-19340063D01*
X379790155Y-19340062D01*
X379732952Y-19126576D01*
X379732949Y-19126570D01*
X379633120Y-18912485D01*
X379633119Y-18912483D01*
X379497633Y-18718989D01*
X379497628Y-18718983D01*
X379375573Y-18596928D01*
X379342088Y-18535605D01*
X379347072Y-18465913D01*
X379388944Y-18409980D01*
X379419920Y-18393065D01*
X379551851Y-18343859D01*
X379667066Y-18257609D01*
X379753316Y-18142394D01*
X379803611Y-18007546D01*
X379810020Y-17947936D01*
X379810019Y-16152191D01*
X379803611Y-16092580D01*
X379799710Y-16082122D01*
X379753317Y-15957734D01*
X379753313Y-15957727D01*
X379667067Y-15842518D01*
X379667064Y-15842515D01*
X379551855Y-15756269D01*
X379551848Y-15756265D01*
X379417002Y-15705971D01*
X379417003Y-15705971D01*
X379357403Y-15699564D01*
X379357401Y-15699563D01*
X379357393Y-15699563D01*
X379357384Y-15699563D01*
X377561649Y-15699563D01*
X377561643Y-15699564D01*
X377502036Y-15705971D01*
X377367191Y-15756265D01*
X377367184Y-15756269D01*
X377251975Y-15842515D01*
X377251972Y-15842518D01*
X377165726Y-15957727D01*
X377165722Y-15957734D01*
X377115428Y-16092580D01*
X377109204Y-16150476D01*
X377109021Y-16152186D01*
X377109020Y-16152198D01*
X363226391Y-16152198D01*
X363225789Y-16150478D01*
X363129816Y-15997738D01*
X363002262Y-15870184D01*
X362958232Y-15842518D01*
X362849523Y-15774211D01*
X362679254Y-15714631D01*
X362679249Y-15714630D01*
X362500004Y-15694435D01*
X362499996Y-15694435D01*
X362320750Y-15714630D01*
X362320745Y-15714631D01*
X362150476Y-15774211D01*
X361997737Y-15870184D01*
X361870184Y-15997737D01*
X361774211Y-16150476D01*
X361714631Y-16320745D01*
X361714630Y-16320750D01*
X361694435Y-16499996D01*
X358090616Y-16499996D01*
X358104419Y-16377494D01*
X358104419Y-16377487D01*
X358084223Y-16198241D01*
X358084222Y-16198236D01*
X358068113Y-16152198D01*
X358024643Y-16027969D01*
X357928670Y-15875229D01*
X357801116Y-15747675D01*
X357648377Y-15651702D01*
X357478108Y-15592122D01*
X357478103Y-15592121D01*
X357298858Y-15571926D01*
X357298850Y-15571926D01*
X357119604Y-15592121D01*
X357119599Y-15592122D01*
X356949330Y-15651702D01*
X356796591Y-15747675D01*
X356669038Y-15875228D01*
X356573065Y-16027967D01*
X356513485Y-16198236D01*
X356513484Y-16198241D01*
X356493289Y-16377487D01*
X353436372Y-16377487D01*
X353428670Y-16365229D01*
X353301116Y-16237675D01*
X353256411Y-16209585D01*
X353148377Y-16141702D01*
X352978108Y-16082122D01*
X352978103Y-16082121D01*
X352798858Y-16061926D01*
X352798850Y-16061926D01*
X352619604Y-16082121D01*
X352619599Y-16082122D01*
X352449330Y-16141702D01*
X352296591Y-16237675D01*
X352169036Y-16365230D01*
X352125943Y-16433813D01*
X352073608Y-16480103D01*
X352004555Y-16490751D01*
X351940707Y-16462376D01*
X351902335Y-16403986D01*
X351897730Y-16381723D01*
X351886487Y-16281940D01*
X351885890Y-16279324D01*
X351885996Y-16277583D01*
X351885707Y-16275014D01*
X351886156Y-16274963D01*
X351890158Y-16209585D01*
X351919098Y-16164042D01*
X351941438Y-16141702D01*
X352013596Y-16069544D01*
X352027925Y-16046740D01*
X352103571Y-15926351D01*
X352103573Y-15926348D01*
X352103573Y-15926346D01*
X352103575Y-15926344D01*
X352159432Y-15766713D01*
X352159432Y-15766712D01*
X352159433Y-15766710D01*
X352178368Y-15598656D01*
X352178368Y-15598654D01*
X352175356Y-15571926D01*
X352174702Y-15566122D01*
X352186755Y-15497302D01*
X352234103Y-15445922D01*
X352256963Y-15435198D01*
X352327690Y-15410450D01*
X352327692Y-15410449D01*
X352327697Y-15410446D01*
X352470884Y-15320475D01*
X352470885Y-15320474D01*
X352470890Y-15320471D01*
X352590477Y-15200884D01*
X352620653Y-15152860D01*
X352680452Y-15057691D01*
X352680454Y-15057688D01*
X352680454Y-15057686D01*
X352680456Y-15057684D01*
X352736313Y-14898053D01*
X352736313Y-14898052D01*
X352736314Y-14898050D01*
X352755249Y-14729996D01*
X352755249Y-14729991D01*
X352736313Y-14561937D01*
X352736155Y-14561241D01*
X352736183Y-14560778D01*
X352735534Y-14555015D01*
X352736543Y-14554901D01*
X352740424Y-14491501D01*
X352769365Y-14445958D01*
X352789330Y-14425993D01*
X352795491Y-14416189D01*
X352864295Y-14306687D01*
X352916630Y-14260397D01*
X352985683Y-14249749D01*
X353049532Y-14278124D01*
X353087904Y-14336513D01*
X353091505Y-14360685D01*
X353092509Y-14360572D01*
X353113484Y-14546740D01*
X353113485Y-14546745D01*
X353173065Y-14717014D01*
X353224291Y-14798539D01*
X353269038Y-14869753D01*
X353396592Y-14997307D01*
X353468099Y-15042238D01*
X353531575Y-15082123D01*
X353549332Y-15093280D01*
X353647879Y-15127763D01*
X353719599Y-15152859D01*
X353719604Y-15152860D01*
X353898850Y-15173056D01*
X353898854Y-15173056D01*
X353898858Y-15173056D01*
X354078103Y-15152860D01*
X354078106Y-15152859D01*
X354078109Y-15152859D01*
X354248376Y-15093280D01*
X354401116Y-14997307D01*
X354528670Y-14869753D01*
X354624643Y-14717013D01*
X354684222Y-14546746D01*
X354696685Y-14436132D01*
X354704419Y-14367494D01*
X354704419Y-14367487D01*
X354684223Y-14188241D01*
X354684222Y-14188236D01*
X354663780Y-14129815D01*
X354624643Y-14017969D01*
X354612158Y-13998100D01*
X354530819Y-13868649D01*
X354528670Y-13865229D01*
X354401116Y-13737675D01*
X354352321Y-13707015D01*
X354248377Y-13641702D01*
X354078108Y-13582122D01*
X354078103Y-13582121D01*
X353898858Y-13561926D01*
X353898850Y-13561926D01*
X353719604Y-13582121D01*
X353719599Y-13582122D01*
X353549330Y-13641702D01*
X353396591Y-13737675D01*
X353269036Y-13865230D01*
X353181939Y-14003844D01*
X353129605Y-14050134D01*
X353060551Y-14060782D01*
X352996703Y-14032407D01*
X352958331Y-13974017D01*
X352953726Y-13951754D01*
X352935168Y-13787046D01*
X352907163Y-13707013D01*
X352879310Y-13627412D01*
X352879309Y-13627411D01*
X352879308Y-13627407D01*
X352879306Y-13627404D01*
X352789335Y-13484217D01*
X352789330Y-13484211D01*
X352669744Y-13364625D01*
X352658392Y-13357492D01*
X352632470Y-13341204D01*
X352586180Y-13288870D01*
X352575532Y-13219817D01*
X352603907Y-13155968D01*
X352662297Y-13117596D01*
X352712327Y-13112991D01*
X352798851Y-13122740D01*
X352798854Y-13122740D01*
X352798857Y-13122740D01*
X352966910Y-13103805D01*
X352969854Y-13102775D01*
X353126544Y-13047947D01*
X353126546Y-13047945D01*
X353126548Y-13047945D01*
X353126551Y-13047943D01*
X353269738Y-12957972D01*
X353269739Y-12957971D01*
X353269744Y-12957968D01*
X353389331Y-12838381D01*
X353422641Y-12785369D01*
X353479306Y-12695188D01*
X353479308Y-12695185D01*
X353479308Y-12695183D01*
X353479310Y-12695181D01*
X353535167Y-12535550D01*
X353535167Y-12535549D01*
X353535168Y-12535547D01*
X353554103Y-12367493D01*
X353554103Y-12367489D01*
X353549408Y-12325824D01*
X353561462Y-12257002D01*
X353608811Y-12205622D01*
X353676421Y-12187997D01*
X353713583Y-12194898D01*
X353831939Y-12236313D01*
X353999997Y-12255249D01*
X354000000Y-12255249D01*
X354000003Y-12255249D01*
X354168056Y-12236314D01*
X354198135Y-12225789D01*
X354327690Y-12180456D01*
X354327692Y-12180454D01*
X354327694Y-12180454D01*
X354327697Y-12180452D01*
X354470884Y-12090481D01*
X354470885Y-12090480D01*
X354470890Y-12090477D01*
X354590477Y-11970890D01*
X354600294Y-11955267D01*
X354680452Y-11827697D01*
X354680454Y-11827693D01*
X354680453Y-11827693D01*
X354680456Y-11827690D01*
X354684669Y-11815649D01*
X354725388Y-11758874D01*
X354790340Y-11733124D01*
X354829311Y-11735713D01*
X354831937Y-11736311D01*
X354831941Y-11736313D01*
X354899164Y-11743887D01*
X354999997Y-11755249D01*
X355000000Y-11755249D01*
X355000001Y-11755249D01*
X355023501Y-11752601D01*
X355060224Y-11748463D01*
X355129045Y-11760517D01*
X355180425Y-11807865D01*
X355198050Y-11875476D01*
X355197328Y-11885565D01*
X355184436Y-11999994D01*
X355184436Y-12000003D01*
X355204631Y-12179249D01*
X355204632Y-12179254D01*
X355264212Y-12349523D01*
X355310014Y-12422416D01*
X355360185Y-12502262D01*
X355487739Y-12629816D01*
X355515735Y-12647407D01*
X355638788Y-12724727D01*
X355640479Y-12725789D01*
X355717235Y-12752647D01*
X355810746Y-12785368D01*
X355810751Y-12785369D01*
X355989997Y-12805565D01*
X355990001Y-12805565D01*
X355990005Y-12805565D01*
X356169250Y-12785369D01*
X356169253Y-12785368D01*
X356169256Y-12785368D01*
X356339523Y-12725789D01*
X356341214Y-12724727D01*
X356434027Y-12666408D01*
X356501264Y-12647407D01*
X356565970Y-12666406D01*
X356611776Y-12695188D01*
X356619931Y-12700312D01*
X356666222Y-12752647D01*
X356676870Y-12821701D01*
X356658953Y-12871277D01*
X356573066Y-13007966D01*
X356513485Y-13178237D01*
X356513484Y-13178242D01*
X356493289Y-13357488D01*
X356493289Y-13357495D01*
X356513484Y-13536741D01*
X356513485Y-13536746D01*
X356573065Y-13707015D01*
X356632737Y-13801981D01*
X356669038Y-13859754D01*
X356747677Y-13938393D01*
X356755323Y-13946039D01*
X356788807Y-14007363D01*
X356783823Y-14077054D01*
X356783584Y-14077689D01*
X356770134Y-14113153D01*
X356770133Y-14113158D01*
X356751093Y-14269972D01*
X356751093Y-14269973D01*
X356770133Y-14426791D01*
X356818763Y-14555015D01*
X356826151Y-14574496D01*
X356915888Y-14704503D01*
X357034131Y-14809256D01*
X357034133Y-14809257D01*
X357174005Y-14882669D01*
X357327385Y-14920473D01*
X357327386Y-14920473D01*
X357485356Y-14920473D01*
X357638736Y-14882669D01*
X357677467Y-14862341D01*
X357778611Y-14809256D01*
X357896854Y-14704503D01*
X357986591Y-14574496D01*
X358042608Y-14426791D01*
X358061649Y-14269973D01*
X358059194Y-14249749D01*
X358042608Y-14113154D01*
X357998973Y-13998100D01*
X357986591Y-13965450D01*
X357967915Y-13938393D01*
X357946032Y-13872038D01*
X357963497Y-13804387D01*
X357964971Y-13801981D01*
X357972576Y-13789878D01*
X358024643Y-13707014D01*
X358065539Y-13590139D01*
X358106259Y-13533365D01*
X358171212Y-13507617D01*
X358239774Y-13521073D01*
X358290177Y-13569460D01*
X358305800Y-13617211D01*
X358325254Y-13789874D01*
X358325255Y-13789878D01*
X358384835Y-13960147D01*
X358437441Y-14043868D01*
X358480808Y-14112886D01*
X358608362Y-14240440D01*
X358761102Y-14336413D01*
X358931369Y-14395992D01*
X358931374Y-14395993D01*
X359110620Y-14416189D01*
X359110624Y-14416189D01*
X359110628Y-14416189D01*
X359289873Y-14395993D01*
X359289876Y-14395992D01*
X359289879Y-14395992D01*
X359460146Y-14336413D01*
X359612886Y-14240440D01*
X359740440Y-14112886D01*
X359836413Y-13960146D01*
X359895992Y-13789879D01*
X359895993Y-13789873D01*
X359916189Y-13610627D01*
X359916189Y-13610620D01*
X359895993Y-13431374D01*
X359895992Y-13431369D01*
X359872637Y-13364625D01*
X359836413Y-13261102D01*
X359740440Y-13108362D01*
X359612886Y-12980808D01*
X359576543Y-12957972D01*
X359460145Y-12884834D01*
X359388251Y-12859678D01*
X359357385Y-12848877D01*
X359300610Y-12808156D01*
X359274862Y-12743204D01*
X359281299Y-12690882D01*
X359285368Y-12679255D01*
X359286086Y-12672883D01*
X359305565Y-12500003D01*
X359305565Y-12500000D01*
X359305565Y-12499996D01*
X372694435Y-12499996D01*
X372694435Y-12500003D01*
X372714630Y-12679249D01*
X372714631Y-12679254D01*
X372774211Y-12849523D01*
X372857067Y-12981387D01*
X372870184Y-13002262D01*
X372997738Y-13129816D01*
X373078624Y-13180640D01*
X373140973Y-13219817D01*
X373150478Y-13225789D01*
X373290103Y-13274646D01*
X373320745Y-13285368D01*
X373320750Y-13285369D01*
X373499996Y-13305565D01*
X373500000Y-13305565D01*
X373500004Y-13305565D01*
X373679249Y-13285369D01*
X373679252Y-13285368D01*
X373679255Y-13285368D01*
X373849522Y-13225789D01*
X374002262Y-13129816D01*
X374129816Y-13002262D01*
X374225789Y-12849522D01*
X374285368Y-12679255D01*
X374286086Y-12672883D01*
X374305565Y-12500003D01*
X374305565Y-12499996D01*
X374285369Y-12320750D01*
X374285368Y-12320745D01*
X374236277Y-12180452D01*
X374225789Y-12150478D01*
X374225081Y-12149352D01*
X374143394Y-12019347D01*
X374129816Y-11997738D01*
X374002262Y-11870184D01*
X373969379Y-11849522D01*
X373849523Y-11774211D01*
X373679254Y-11714631D01*
X373679249Y-11714630D01*
X373500004Y-11694435D01*
X373499996Y-11694435D01*
X373320750Y-11714630D01*
X373320745Y-11714631D01*
X373150476Y-11774211D01*
X372997737Y-11870184D01*
X372870184Y-11997737D01*
X372774211Y-12150476D01*
X372714631Y-12320745D01*
X372714630Y-12320750D01*
X372694435Y-12499996D01*
X359305565Y-12499996D01*
X359304577Y-12491235D01*
X359316629Y-12422416D01*
X359363976Y-12371035D01*
X359398121Y-12356953D01*
X359517541Y-12327520D01*
X359657416Y-12254107D01*
X359775659Y-12149354D01*
X359865396Y-12019347D01*
X359921413Y-11871642D01*
X359940454Y-11714824D01*
X359940431Y-11714630D01*
X359921413Y-11558005D01*
X359889296Y-11473320D01*
X359865396Y-11410301D01*
X359775659Y-11280294D01*
X359657416Y-11175541D01*
X359657414Y-11175540D01*
X359657413Y-11175539D01*
X359517541Y-11102127D01*
X359364162Y-11064324D01*
X359364161Y-11064324D01*
X359206191Y-11064324D01*
X359206190Y-11064324D01*
X359052810Y-11102127D01*
X358912938Y-11175539D01*
X358878199Y-11206315D01*
X358805742Y-11270506D01*
X358794692Y-11280295D01*
X358704957Y-11410299D01*
X358704956Y-11410300D01*
X358648939Y-11558004D01*
X358645405Y-11587111D01*
X358617783Y-11651289D01*
X358559849Y-11690345D01*
X358508426Y-11695384D01*
X358500003Y-11694435D01*
X358499996Y-11694435D01*
X358320750Y-11714630D01*
X358320745Y-11714631D01*
X358150476Y-11774211D01*
X357997737Y-11870184D01*
X357992295Y-11874525D01*
X357990920Y-11872801D01*
X357938836Y-11901229D01*
X357869145Y-11896230D01*
X357813220Y-11854347D01*
X357795460Y-11821011D01*
X357793584Y-11815651D01*
X357735788Y-11650478D01*
X357639815Y-11497738D01*
X357512261Y-11370184D01*
X357467962Y-11342349D01*
X357421672Y-11290015D01*
X357411024Y-11220962D01*
X357439399Y-11157113D01*
X357474320Y-11130130D01*
X357473920Y-11129494D01*
X357569859Y-11069211D01*
X357632556Y-11029816D01*
X357760110Y-10902262D01*
X357786274Y-10860623D01*
X361205346Y-10860623D01*
X361205346Y-10860624D01*
X361224386Y-11017442D01*
X361267124Y-11130130D01*
X361280404Y-11165147D01*
X361370141Y-11295154D01*
X361488384Y-11399907D01*
X361488386Y-11399908D01*
X361628258Y-11473320D01*
X361781638Y-11511124D01*
X361781639Y-11511124D01*
X361939609Y-11511124D01*
X362092989Y-11473320D01*
X362232864Y-11399907D01*
X362351107Y-11295154D01*
X362440844Y-11165147D01*
X362496861Y-11017442D01*
X362515902Y-10860624D01*
X362511061Y-10820750D01*
X362496861Y-10703805D01*
X362449625Y-10579255D01*
X362440844Y-10556101D01*
X362351107Y-10426094D01*
X362232864Y-10321341D01*
X362232862Y-10321340D01*
X362232861Y-10321339D01*
X362092989Y-10247927D01*
X361939610Y-10210124D01*
X361939609Y-10210124D01*
X361781639Y-10210124D01*
X361781638Y-10210124D01*
X361628258Y-10247927D01*
X361488386Y-10321339D01*
X361370140Y-10426095D01*
X361280405Y-10556099D01*
X361280404Y-10556100D01*
X361224386Y-10703805D01*
X361205346Y-10860623D01*
X357786274Y-10860623D01*
X357856083Y-10749522D01*
X357915662Y-10579255D01*
X357918271Y-10556099D01*
X357935859Y-10400003D01*
X357935859Y-10399996D01*
X357915663Y-10220750D01*
X357915662Y-10220745D01*
X357860380Y-10062758D01*
X357856083Y-10050478D01*
X357849049Y-10039284D01*
X357783228Y-9934530D01*
X357760110Y-9897738D01*
X357632556Y-9770184D01*
X357479818Y-9674212D01*
X357479814Y-9674210D01*
X357462495Y-9668150D01*
X357405719Y-9627428D01*
X357386408Y-9592062D01*
X357354453Y-9500737D01*
X357354449Y-9500729D01*
X357264478Y-9357542D01*
X357264473Y-9357536D01*
X357144887Y-9237950D01*
X357144881Y-9237945D01*
X357001694Y-9147974D01*
X357001691Y-9147972D01*
X356842053Y-9092112D01*
X356674000Y-9073178D01*
X356673994Y-9073178D01*
X356505940Y-9092112D01*
X356346302Y-9147972D01*
X356346299Y-9147974D01*
X356203112Y-9237945D01*
X356203106Y-9237950D01*
X356083520Y-9357536D01*
X356083515Y-9357542D01*
X355993544Y-9500729D01*
X355993542Y-9500732D01*
X355937682Y-9660370D01*
X355918748Y-9828424D01*
X355918748Y-9828429D01*
X355937682Y-9996483D01*
X355993542Y-10156121D01*
X355993544Y-10156124D01*
X356083515Y-10299311D01*
X356083520Y-10299317D01*
X356203107Y-10418904D01*
X356285726Y-10470817D01*
X356332016Y-10523151D01*
X356342973Y-10561922D01*
X356344926Y-10579254D01*
X356404504Y-10749521D01*
X356500478Y-10902262D01*
X356628034Y-11029818D01*
X356672328Y-11057649D01*
X356718620Y-11109983D01*
X356729269Y-11179037D01*
X356700894Y-11242885D01*
X356665974Y-11269871D01*
X356666373Y-11270506D01*
X356565972Y-11333592D01*
X356498735Y-11352592D01*
X356434028Y-11333592D01*
X356339524Y-11274211D01*
X356169255Y-11214631D01*
X356169250Y-11214630D01*
X355990005Y-11194435D01*
X355989997Y-11194435D01*
X355884554Y-11206315D01*
X355815732Y-11194260D01*
X355764353Y-11146911D01*
X355746729Y-11079301D01*
X355747451Y-11069211D01*
X355755249Y-11000002D01*
X355755249Y-10999997D01*
X355736314Y-10831943D01*
X355691477Y-10703806D01*
X355680456Y-10672310D01*
X355680455Y-10672309D01*
X355680454Y-10672305D01*
X355680452Y-10672302D01*
X355590481Y-10529115D01*
X355590476Y-10529109D01*
X355470890Y-10409523D01*
X355470884Y-10409518D01*
X355327697Y-10319547D01*
X355327694Y-10319545D01*
X355168056Y-10263685D01*
X355000003Y-10244751D01*
X354999997Y-10244751D01*
X354831943Y-10263685D01*
X354672305Y-10319545D01*
X354672302Y-10319547D01*
X354529115Y-10409518D01*
X354529109Y-10409523D01*
X354409523Y-10529109D01*
X354409518Y-10529115D01*
X354319548Y-10672300D01*
X354319544Y-10672309D01*
X354315330Y-10684353D01*
X354274607Y-10741129D01*
X354209654Y-10766875D01*
X354170704Y-10764290D01*
X354168058Y-10763686D01*
X354000003Y-10744751D01*
X353999997Y-10744751D01*
X353831943Y-10763685D01*
X353672305Y-10819545D01*
X353672302Y-10819547D01*
X353529115Y-10909518D01*
X353529109Y-10909523D01*
X353409523Y-11029109D01*
X353409518Y-11029115D01*
X353319547Y-11172302D01*
X353319545Y-11172305D01*
X353263685Y-11331943D01*
X353244751Y-11499997D01*
X353244751Y-11500005D01*
X353249445Y-11541669D01*
X353237390Y-11610490D01*
X353190041Y-11661869D01*
X353122430Y-11679493D01*
X353085271Y-11672593D01*
X353054623Y-11661869D01*
X352966910Y-11631176D01*
X352798857Y-11612242D01*
X352798851Y-11612242D01*
X352630797Y-11631176D01*
X352471159Y-11687036D01*
X352471156Y-11687038D01*
X352327969Y-11777009D01*
X352327963Y-11777014D01*
X352208377Y-11896600D01*
X352208372Y-11896606D01*
X352118401Y-12039793D01*
X352118399Y-12039796D01*
X352062539Y-12199434D01*
X352043605Y-12367488D01*
X352043605Y-12367493D01*
X352062539Y-12535547D01*
X352118399Y-12695185D01*
X352118401Y-12695188D01*
X352208372Y-12838375D01*
X352208377Y-12838381D01*
X352327964Y-12957968D01*
X352365237Y-12981388D01*
X352411527Y-13033721D01*
X352422176Y-13102775D01*
X352393801Y-13166623D01*
X352335411Y-13204995D01*
X352285381Y-13209601D01*
X352198858Y-13199853D01*
X352198851Y-13199853D01*
X352030797Y-13218787D01*
X351871159Y-13274647D01*
X351871156Y-13274649D01*
X351727969Y-13364620D01*
X351727963Y-13364625D01*
X351608377Y-13484211D01*
X351608372Y-13484217D01*
X351518401Y-13627404D01*
X351518399Y-13627407D01*
X351462539Y-13787045D01*
X351443605Y-13955099D01*
X351443605Y-13955104D01*
X351462540Y-14123163D01*
X351462700Y-14123862D01*
X351462671Y-14124325D01*
X351463320Y-14130081D01*
X351462311Y-14130194D01*
X351458426Y-14193601D01*
X351429494Y-14239131D01*
X351409523Y-14259103D01*
X351409520Y-14259106D01*
X351319547Y-14402296D01*
X351319545Y-14402299D01*
X351263685Y-14561937D01*
X351244751Y-14729991D01*
X351244751Y-14729997D01*
X351248416Y-14762526D01*
X351236361Y-14831347D01*
X351189012Y-14882727D01*
X351166151Y-14893450D01*
X351095432Y-14918196D01*
X351095421Y-14918201D01*
X350952234Y-15008172D01*
X350952228Y-15008177D01*
X350832642Y-15127763D01*
X350832637Y-15127769D01*
X350742666Y-15270956D01*
X350742664Y-15270959D01*
X350686804Y-15430597D01*
X350667870Y-15598651D01*
X350667870Y-15598656D01*
X350686805Y-15766711D01*
X350687404Y-15769335D01*
X350687297Y-15771077D01*
X350687585Y-15773632D01*
X350687137Y-15773682D01*
X350683128Y-15839074D01*
X350654193Y-15884605D01*
X350613265Y-15925533D01*
X350551942Y-15959018D01*
X350511700Y-15961072D01*
X350391148Y-15947489D01*
X350391142Y-15947489D01*
X350223088Y-15966423D01*
X350063450Y-16022283D01*
X350063447Y-16022285D01*
X349920260Y-16112256D01*
X349920254Y-16112261D01*
X349800668Y-16231847D01*
X349800663Y-16231853D01*
X349710692Y-16375040D01*
X349710690Y-16375043D01*
X349654830Y-16534681D01*
X349635896Y-16702735D01*
X336250500Y-16702735D01*
X336250500Y-12340000D01*
X338157159Y-12340000D01*
X338176475Y-12536129D01*
X338176476Y-12536132D01*
X338230623Y-12714631D01*
X338233688Y-12724733D01*
X338326586Y-12898532D01*
X338326590Y-12898539D01*
X338451616Y-13050883D01*
X338603960Y-13175909D01*
X338603964Y-13175911D01*
X338612814Y-13180642D01*
X338662658Y-13229605D01*
X338678118Y-13297743D01*
X338654286Y-13363422D01*
X338612814Y-13399358D01*
X338603964Y-13404088D01*
X338603960Y-13404090D01*
X338451616Y-13529116D01*
X338326590Y-13681460D01*
X338326586Y-13681467D01*
X338233688Y-13855266D01*
X338176475Y-14043870D01*
X338157159Y-14240000D01*
X338176475Y-14436129D01*
X338233688Y-14624733D01*
X338326586Y-14798532D01*
X338326590Y-14798539D01*
X338451616Y-14950883D01*
X338603960Y-15075909D01*
X338603967Y-15075913D01*
X338777766Y-15168811D01*
X338777769Y-15168811D01*
X338777773Y-15168814D01*
X338966368Y-15226024D01*
X339040111Y-15233286D01*
X339104896Y-15259446D01*
X339145256Y-15316480D01*
X339148374Y-15386280D01*
X339132950Y-15422660D01*
X339073066Y-15517965D01*
X339013485Y-15688236D01*
X339013484Y-15688241D01*
X338993289Y-15867487D01*
X338993289Y-15867494D01*
X339013484Y-16046740D01*
X339013485Y-16046745D01*
X339073065Y-16217014D01*
X339113858Y-16281935D01*
X339169038Y-16369753D01*
X339296592Y-16497307D01*
X339449332Y-16593280D01*
X339619599Y-16652859D01*
X339619604Y-16652860D01*
X339798850Y-16673056D01*
X339798854Y-16673056D01*
X339798858Y-16673056D01*
X339978103Y-16652860D01*
X339978106Y-16652859D01*
X339978109Y-16652859D01*
X340148376Y-16593280D01*
X340301116Y-16497307D01*
X340428670Y-16369753D01*
X340524643Y-16217013D01*
X340584222Y-16046746D01*
X340586978Y-16022285D01*
X340604419Y-15867494D01*
X340604419Y-15867487D01*
X340584223Y-15688241D01*
X340584222Y-15688236D01*
X340571438Y-15651702D01*
X340524643Y-15517969D01*
X340524640Y-15517965D01*
X340457084Y-15410450D01*
X340428670Y-15365229D01*
X340301116Y-15237675D01*
X340198276Y-15173056D01*
X340148377Y-15141702D01*
X339980501Y-15082960D01*
X339923725Y-15042238D01*
X339897978Y-14977285D01*
X339911434Y-14908724D01*
X339925603Y-14887253D01*
X339998409Y-14798539D01*
X339998413Y-14798532D01*
X340091311Y-14624733D01*
X340091311Y-14624732D01*
X340091314Y-14624727D01*
X340148524Y-14436132D01*
X340167841Y-14240000D01*
X340148524Y-14043868D01*
X340091314Y-13855273D01*
X340091311Y-13855269D01*
X340091311Y-13855266D01*
X339998413Y-13681467D01*
X339998409Y-13681460D01*
X339873383Y-13529116D01*
X339837900Y-13499996D01*
X342694435Y-13499996D01*
X342694435Y-13500003D01*
X342714630Y-13679249D01*
X342714631Y-13679254D01*
X342774211Y-13849523D01*
X342843721Y-13960146D01*
X342870184Y-14002262D01*
X342997738Y-14129816D01*
X343150478Y-14225789D01*
X343218952Y-14249749D01*
X343320745Y-14285368D01*
X343320750Y-14285369D01*
X343499996Y-14305565D01*
X343500000Y-14305565D01*
X343500004Y-14305565D01*
X343679249Y-14285369D01*
X343679252Y-14285368D01*
X343679255Y-14285368D01*
X343849522Y-14225789D01*
X344002262Y-14129816D01*
X344129816Y-14002262D01*
X344225789Y-13849522D01*
X344285368Y-13679255D01*
X344289599Y-13641702D01*
X344305565Y-13500003D01*
X344305565Y-13499996D01*
X344285369Y-13320750D01*
X344285368Y-13320745D01*
X344269237Y-13274646D01*
X344225789Y-13150478D01*
X344129816Y-12997738D01*
X344002262Y-12870184D01*
X343951648Y-12838381D01*
X343849523Y-12774211D01*
X343679254Y-12714631D01*
X343679249Y-12714630D01*
X343500004Y-12694435D01*
X343499996Y-12694435D01*
X343320750Y-12714630D01*
X343320745Y-12714631D01*
X343150476Y-12774211D01*
X342997737Y-12870184D01*
X342870184Y-12997737D01*
X342774211Y-13150476D01*
X342714631Y-13320745D01*
X342714630Y-13320750D01*
X342694435Y-13499996D01*
X339837900Y-13499996D01*
X339721039Y-13404091D01*
X339721038Y-13404090D01*
X339712187Y-13399359D01*
X339662343Y-13350398D01*
X339646881Y-13282261D01*
X339670711Y-13216581D01*
X339712186Y-13180641D01*
X339721038Y-13175910D01*
X339873383Y-13050883D01*
X339998410Y-12898538D01*
X340071626Y-12761560D01*
X340091311Y-12724733D01*
X340091311Y-12724732D01*
X340091314Y-12724727D01*
X340148524Y-12536132D01*
X340167841Y-12340000D01*
X340148524Y-12143868D01*
X340091314Y-11955273D01*
X340076787Y-11928096D01*
X340062545Y-11859694D01*
X340087544Y-11794450D01*
X340143848Y-11753079D01*
X340213582Y-11748715D01*
X340227100Y-11752601D01*
X340320737Y-11785366D01*
X340320743Y-11785367D01*
X340320745Y-11785368D01*
X340320746Y-11785368D01*
X340320750Y-11785369D01*
X340499996Y-11805565D01*
X340500000Y-11805565D01*
X340500004Y-11805565D01*
X340679249Y-11785369D01*
X340679252Y-11785368D01*
X340679255Y-11785368D01*
X340849522Y-11725789D01*
X341002262Y-11629816D01*
X341129816Y-11502262D01*
X341131240Y-11499996D01*
X346144435Y-11499996D01*
X346144435Y-11500003D01*
X346164630Y-11679249D01*
X346164631Y-11679254D01*
X346224211Y-11849523D01*
X346273583Y-11928097D01*
X346320184Y-12002262D01*
X346447738Y-12129816D01*
X346600478Y-12225789D01*
X346684670Y-12255249D01*
X346770745Y-12285368D01*
X346770750Y-12285369D01*
X346949996Y-12305565D01*
X346950000Y-12305565D01*
X346950004Y-12305565D01*
X347129249Y-12285369D01*
X347129252Y-12285368D01*
X347129255Y-12285368D01*
X347299522Y-12225789D01*
X347452262Y-12129816D01*
X347579816Y-12002262D01*
X347675789Y-11849522D01*
X347735368Y-11679255D01*
X347736119Y-11672593D01*
X347755565Y-11500003D01*
X347755565Y-11499996D01*
X347735369Y-11320750D01*
X347735368Y-11320745D01*
X347710896Y-11250809D01*
X347675789Y-11150478D01*
X347663003Y-11130130D01*
X347631065Y-11079301D01*
X347579816Y-10997738D01*
X347452262Y-10870184D01*
X347391399Y-10831941D01*
X347299523Y-10774211D01*
X347129254Y-10714631D01*
X347129249Y-10714630D01*
X346950004Y-10694435D01*
X346949996Y-10694435D01*
X346770750Y-10714630D01*
X346770745Y-10714631D01*
X346600476Y-10774211D01*
X346447737Y-10870184D01*
X346320184Y-10997737D01*
X346224211Y-11150476D01*
X346164631Y-11320745D01*
X346164630Y-11320750D01*
X346144435Y-11499996D01*
X341131240Y-11499996D01*
X341225789Y-11349522D01*
X341285368Y-11179255D01*
X341285393Y-11179037D01*
X341305565Y-11000003D01*
X341305565Y-10999996D01*
X341285369Y-10820750D01*
X341285368Y-10820745D01*
X341266518Y-10766875D01*
X341225789Y-10650478D01*
X341129816Y-10497738D01*
X341013819Y-10381741D01*
X340980334Y-10320418D01*
X340985318Y-10250726D01*
X341001903Y-10221429D01*
X341001846Y-10221393D01*
X341002636Y-10220135D01*
X341004559Y-10216739D01*
X341005538Y-10215509D01*
X341005551Y-10215497D01*
X341101524Y-10062757D01*
X341161103Y-9892490D01*
X341161104Y-9892484D01*
X341181300Y-9713238D01*
X341181300Y-9713231D01*
X341161104Y-9533985D01*
X341161103Y-9533980D01*
X341149213Y-9500000D01*
X341149213Y-9499999D01*
X352724613Y-9499999D01*
X352724613Y-9500000D01*
X352743653Y-9656818D01*
X352778063Y-9747547D01*
X352799671Y-9804523D01*
X352889408Y-9934530D01*
X353007651Y-10039283D01*
X353007653Y-10039284D01*
X353147525Y-10112696D01*
X353300905Y-10150500D01*
X353300906Y-10150500D01*
X353458876Y-10150500D01*
X353612256Y-10112696D01*
X353752131Y-10039283D01*
X353870374Y-9934530D01*
X353960111Y-9804523D01*
X354016128Y-9656818D01*
X354035169Y-9500000D01*
X354034864Y-9497483D01*
X354016128Y-9343181D01*
X353976217Y-9237945D01*
X353960111Y-9195477D01*
X353870374Y-9065470D01*
X353752131Y-8960717D01*
X353752129Y-8960716D01*
X353752128Y-8960715D01*
X353612256Y-8887303D01*
X353458877Y-8849500D01*
X353458876Y-8849500D01*
X353300906Y-8849500D01*
X353300905Y-8849500D01*
X353147525Y-8887303D01*
X353007653Y-8960715D01*
X352889407Y-9065471D01*
X352799672Y-9195475D01*
X352799671Y-9195476D01*
X352743653Y-9343181D01*
X352724613Y-9499999D01*
X341149213Y-9499999D01*
X341101524Y-9363713D01*
X341097646Y-9357542D01*
X341022502Y-9237950D01*
X341005551Y-9210973D01*
X340877997Y-9083419D01*
X340849433Y-9065471D01*
X340725258Y-8987446D01*
X340554989Y-8927866D01*
X340554984Y-8927865D01*
X340375739Y-8907670D01*
X340375731Y-8907670D01*
X340196485Y-8927865D01*
X340196480Y-8927866D01*
X340026211Y-8987446D01*
X339873472Y-9083419D01*
X339745919Y-9210972D01*
X339649946Y-9363711D01*
X339590366Y-9533980D01*
X339590365Y-9533985D01*
X339570170Y-9713231D01*
X339570170Y-9713238D01*
X339590365Y-9892484D01*
X339590366Y-9892489D01*
X339649946Y-10062758D01*
X339745919Y-10215497D01*
X339861915Y-10331493D01*
X339895400Y-10392816D01*
X339890416Y-10462508D01*
X339873832Y-10491806D01*
X339873889Y-10491842D01*
X339873109Y-10493082D01*
X339871187Y-10496479D01*
X339870188Y-10497731D01*
X339774211Y-10650476D01*
X339714631Y-10820745D01*
X339714630Y-10820750D01*
X339694435Y-10999996D01*
X339694435Y-11000003D01*
X339714630Y-11179249D01*
X339714632Y-11179257D01*
X339747900Y-11274331D01*
X339751461Y-11344109D01*
X339716732Y-11404737D01*
X339654739Y-11436964D01*
X339585163Y-11430559D01*
X339572406Y-11424644D01*
X339547231Y-11411188D01*
X339547230Y-11411187D01*
X339547227Y-11411186D01*
X339358632Y-11353976D01*
X339358629Y-11353975D01*
X339162500Y-11334659D01*
X338966370Y-11353975D01*
X338777766Y-11411188D01*
X338603967Y-11504086D01*
X338603960Y-11504090D01*
X338451616Y-11629116D01*
X338326590Y-11781460D01*
X338326586Y-11781467D01*
X338233688Y-11955266D01*
X338176475Y-12143870D01*
X338157159Y-12340000D01*
X336250500Y-12340000D01*
X336250500Y-5999999D01*
X336644341Y-5999999D01*
X336644341Y-6000000D01*
X336664936Y-6235403D01*
X336664938Y-6235413D01*
X336726094Y-6463655D01*
X336726096Y-6463659D01*
X336726097Y-6463663D01*
X336813210Y-6650476D01*
X336825965Y-6677830D01*
X336825967Y-6677834D01*
X336890680Y-6770253D01*
X336961501Y-6871396D01*
X336961506Y-6871402D01*
X337083430Y-6993326D01*
X337116915Y-7054649D01*
X337111931Y-7124341D01*
X337070059Y-7180274D01*
X337039083Y-7197189D01*
X336907669Y-7246203D01*
X336907664Y-7246206D01*
X336792455Y-7332452D01*
X336792452Y-7332455D01*
X336706206Y-7447664D01*
X336706202Y-7447671D01*
X336655908Y-7582517D01*
X336649501Y-7642116D01*
X336649501Y-7642123D01*
X336649500Y-7642135D01*
X336649500Y-9437870D01*
X336649501Y-9437876D01*
X336655908Y-9497483D01*
X336706202Y-9632328D01*
X336706206Y-9632335D01*
X336792452Y-9747544D01*
X336792455Y-9747547D01*
X336907664Y-9833793D01*
X336907671Y-9833797D01*
X337042517Y-9884091D01*
X337042516Y-9884091D01*
X337049444Y-9884835D01*
X337102127Y-9890500D01*
X338897872Y-9890499D01*
X338957483Y-9884091D01*
X339092331Y-9833796D01*
X339207546Y-9747546D01*
X339293796Y-9632331D01*
X339344091Y-9497483D01*
X339350500Y-9437873D01*
X339350499Y-7642128D01*
X339344091Y-7582517D01*
X339327965Y-7539282D01*
X339293797Y-7447671D01*
X339293793Y-7447664D01*
X339207547Y-7332455D01*
X339207544Y-7332452D01*
X339092335Y-7246206D01*
X339092328Y-7246202D01*
X338960917Y-7197189D01*
X338904983Y-7155318D01*
X338880566Y-7089853D01*
X338895418Y-7021580D01*
X338911575Y-6999996D01*
X349694435Y-6999996D01*
X349694435Y-7000003D01*
X349714630Y-7179249D01*
X349714631Y-7179254D01*
X349774211Y-7349523D01*
X349827624Y-7434528D01*
X349870184Y-7502262D01*
X349997738Y-7629816D01*
X350150478Y-7725789D01*
X350320745Y-7785368D01*
X350320750Y-7785369D01*
X350499996Y-7805565D01*
X350500000Y-7805565D01*
X350500004Y-7805565D01*
X350679249Y-7785369D01*
X350679252Y-7785368D01*
X350679255Y-7785368D01*
X350849522Y-7725789D01*
X351002262Y-7629816D01*
X351129816Y-7502262D01*
X351223257Y-7353552D01*
X353543845Y-7353552D01*
X353543845Y-7353553D01*
X353562885Y-7510371D01*
X353608185Y-7629815D01*
X353618903Y-7658076D01*
X353708640Y-7788083D01*
X353826883Y-7892836D01*
X353826885Y-7892837D01*
X353966757Y-7966249D01*
X354120137Y-8004053D01*
X354120138Y-8004053D01*
X354278108Y-8004053D01*
X354431488Y-7966249D01*
X354571363Y-7892836D01*
X354626434Y-7844048D01*
X356437331Y-7844048D01*
X356437331Y-7844053D01*
X356456265Y-8012107D01*
X356512125Y-8171745D01*
X356512127Y-8171748D01*
X356602098Y-8314935D01*
X356602103Y-8314941D01*
X356721689Y-8434527D01*
X356721695Y-8434532D01*
X356864882Y-8524503D01*
X356864885Y-8524505D01*
X356864889Y-8524506D01*
X356864890Y-8524507D01*
X356937493Y-8549911D01*
X357024523Y-8580365D01*
X357192577Y-8599300D01*
X357192580Y-8599300D01*
X357192583Y-8599300D01*
X357360636Y-8580365D01*
X357387731Y-8570884D01*
X357520270Y-8524507D01*
X357520272Y-8524505D01*
X357520274Y-8524505D01*
X357520277Y-8524503D01*
X357663464Y-8434532D01*
X357663465Y-8434531D01*
X357663470Y-8434528D01*
X357783057Y-8314941D01*
X357873032Y-8171748D01*
X357873034Y-8171745D01*
X357873034Y-8171743D01*
X357873036Y-8171741D01*
X357928893Y-8012110D01*
X357928893Y-8012109D01*
X357928894Y-8012107D01*
X357930293Y-7999694D01*
X358232577Y-7999694D01*
X358232577Y-7999699D01*
X358251511Y-8167753D01*
X358307371Y-8327391D01*
X358307373Y-8327394D01*
X358397344Y-8470581D01*
X358397349Y-8470587D01*
X358516935Y-8590173D01*
X358516941Y-8590178D01*
X358660128Y-8680149D01*
X358660131Y-8680151D01*
X358660135Y-8680152D01*
X358660136Y-8680153D01*
X358689652Y-8690481D01*
X358819769Y-8736011D01*
X358987823Y-8754946D01*
X358987826Y-8754946D01*
X358987829Y-8754946D01*
X359155882Y-8736011D01*
X359155885Y-8736010D01*
X359315516Y-8680153D01*
X359315518Y-8680151D01*
X359315520Y-8680151D01*
X359315523Y-8680149D01*
X359458710Y-8590178D01*
X359458711Y-8590177D01*
X359458716Y-8590174D01*
X359578303Y-8470587D01*
X359600958Y-8434532D01*
X359668278Y-8327394D01*
X359668280Y-8327391D01*
X359668280Y-8327389D01*
X359668282Y-8327387D01*
X359724139Y-8167756D01*
X359724139Y-8167755D01*
X359724140Y-8167753D01*
X359731774Y-8099997D01*
X362818265Y-8099997D01*
X362818265Y-8100002D01*
X362837199Y-8268056D01*
X362893059Y-8427694D01*
X362893061Y-8427697D01*
X362983032Y-8570884D01*
X362983037Y-8570890D01*
X363102623Y-8690476D01*
X363102629Y-8690481D01*
X363245816Y-8780452D01*
X363245819Y-8780454D01*
X363245823Y-8780455D01*
X363245824Y-8780456D01*
X363318427Y-8805860D01*
X363405457Y-8836314D01*
X363573511Y-8855249D01*
X363573514Y-8855249D01*
X363573517Y-8855249D01*
X363741570Y-8836314D01*
X363741573Y-8836313D01*
X363901204Y-8780456D01*
X363901206Y-8780454D01*
X363901208Y-8780454D01*
X363901211Y-8780452D01*
X364044398Y-8690481D01*
X364044399Y-8690480D01*
X364044404Y-8690477D01*
X364163991Y-8570890D01*
X364249671Y-8434532D01*
X364253966Y-8427697D01*
X364253968Y-8427694D01*
X364253968Y-8427692D01*
X364253970Y-8427690D01*
X364309827Y-8268059D01*
X364309827Y-8268058D01*
X364309828Y-8268056D01*
X364328763Y-8100002D01*
X364328763Y-8099997D01*
X364309828Y-7931943D01*
X364259488Y-7788081D01*
X364253970Y-7772310D01*
X364253969Y-7772309D01*
X364253968Y-7772305D01*
X364253966Y-7772302D01*
X364163995Y-7629115D01*
X364163990Y-7629109D01*
X364044404Y-7509523D01*
X364044398Y-7509518D01*
X363901211Y-7419547D01*
X363901208Y-7419545D01*
X363741570Y-7363685D01*
X363573517Y-7344751D01*
X363573511Y-7344751D01*
X363405457Y-7363685D01*
X363245819Y-7419545D01*
X363245816Y-7419547D01*
X363102629Y-7509518D01*
X363102623Y-7509523D01*
X362983037Y-7629109D01*
X362983032Y-7629115D01*
X362893061Y-7772302D01*
X362893059Y-7772305D01*
X362837199Y-7931943D01*
X362818265Y-8099997D01*
X359731774Y-8099997D01*
X359743075Y-7999699D01*
X359743075Y-7999694D01*
X359724140Y-7831640D01*
X359668280Y-7672002D01*
X359668278Y-7671999D01*
X359578307Y-7528812D01*
X359578302Y-7528806D01*
X359458716Y-7409220D01*
X359458710Y-7409215D01*
X359370123Y-7353552D01*
X360491169Y-7353552D01*
X360491169Y-7353553D01*
X360510209Y-7510371D01*
X360555509Y-7629815D01*
X360566227Y-7658076D01*
X360655964Y-7788083D01*
X360774207Y-7892836D01*
X360774209Y-7892837D01*
X360914081Y-7966249D01*
X361067461Y-8004053D01*
X361067462Y-8004053D01*
X361225432Y-8004053D01*
X361378812Y-7966249D01*
X361518687Y-7892836D01*
X361636930Y-7788083D01*
X361726667Y-7658076D01*
X361730062Y-7649125D01*
X361772238Y-7593421D01*
X361788369Y-7583301D01*
X361872240Y-7539283D01*
X361990483Y-7434530D01*
X362080220Y-7304523D01*
X362136237Y-7156818D01*
X362155278Y-7000000D01*
X362139664Y-6871401D01*
X362136237Y-6843181D01*
X362083093Y-6703053D01*
X362080220Y-6695477D01*
X361990483Y-6565470D01*
X361872240Y-6460717D01*
X361872238Y-6460716D01*
X361872237Y-6460715D01*
X361732365Y-6387303D01*
X361578986Y-6349500D01*
X361578985Y-6349500D01*
X361421015Y-6349500D01*
X361421014Y-6349500D01*
X361267634Y-6387303D01*
X361127762Y-6460715D01*
X361009516Y-6565471D01*
X360919779Y-6695477D01*
X360916382Y-6704435D01*
X360874201Y-6760135D01*
X360858070Y-6770253D01*
X360774210Y-6814268D01*
X360774207Y-6814270D01*
X360709726Y-6871395D01*
X360655963Y-6919024D01*
X360566228Y-7049028D01*
X360566227Y-7049029D01*
X360510209Y-7196734D01*
X360491169Y-7353552D01*
X359370123Y-7353552D01*
X359315523Y-7319244D01*
X359315520Y-7319242D01*
X359155882Y-7263382D01*
X358987829Y-7244448D01*
X358987823Y-7244448D01*
X358819769Y-7263382D01*
X358660131Y-7319242D01*
X358660128Y-7319244D01*
X358516941Y-7409215D01*
X358516935Y-7409220D01*
X358397349Y-7528806D01*
X358397344Y-7528812D01*
X358307373Y-7671999D01*
X358307371Y-7672002D01*
X358251511Y-7831640D01*
X358232577Y-7999694D01*
X357930293Y-7999694D01*
X357947829Y-7844053D01*
X357947829Y-7844048D01*
X357928894Y-7675994D01*
X357896185Y-7582517D01*
X357873036Y-7516361D01*
X357873035Y-7516360D01*
X357873034Y-7516356D01*
X357873032Y-7516353D01*
X357783061Y-7373166D01*
X357783056Y-7373160D01*
X357663470Y-7253574D01*
X357663464Y-7253569D01*
X357520277Y-7163598D01*
X357520274Y-7163596D01*
X357360636Y-7107736D01*
X357192583Y-7088802D01*
X357192577Y-7088802D01*
X357024523Y-7107736D01*
X356864885Y-7163596D01*
X356864882Y-7163598D01*
X356721695Y-7253569D01*
X356721689Y-7253574D01*
X356602103Y-7373160D01*
X356602098Y-7373166D01*
X356512127Y-7516353D01*
X356512125Y-7516356D01*
X356456265Y-7675994D01*
X356437331Y-7844048D01*
X354626434Y-7844048D01*
X354689606Y-7788083D01*
X354779343Y-7658076D01*
X354835360Y-7510371D01*
X354854401Y-7353553D01*
X354842262Y-7253574D01*
X354835360Y-7196734D01*
X354794426Y-7088802D01*
X354779343Y-7049030D01*
X354689606Y-6919023D01*
X354571363Y-6814270D01*
X354571361Y-6814269D01*
X354571360Y-6814268D01*
X354431488Y-6740856D01*
X354278109Y-6703053D01*
X354278108Y-6703053D01*
X354120138Y-6703053D01*
X354120137Y-6703053D01*
X353966757Y-6740856D01*
X353826885Y-6814268D01*
X353708639Y-6919024D01*
X353618904Y-7049028D01*
X353618903Y-7049029D01*
X353562885Y-7196734D01*
X353543845Y-7353552D01*
X351223257Y-7353552D01*
X351225789Y-7349522D01*
X351285368Y-7179255D01*
X351287132Y-7163598D01*
X351305565Y-7000003D01*
X351305565Y-6999996D01*
X351285369Y-6820750D01*
X351285368Y-6820745D01*
X351257414Y-6740857D01*
X351225789Y-6650478D01*
X351129816Y-6497738D01*
X351002262Y-6370184D01*
X350969344Y-6349500D01*
X350849523Y-6274211D01*
X350679254Y-6214631D01*
X350679249Y-6214630D01*
X350500004Y-6194435D01*
X350499996Y-6194435D01*
X350320750Y-6214630D01*
X350320745Y-6214631D01*
X350150476Y-6274211D01*
X349997737Y-6370184D01*
X349870184Y-6497737D01*
X349774211Y-6650476D01*
X349714631Y-6820745D01*
X349714630Y-6820750D01*
X349694435Y-6999996D01*
X338911575Y-6999996D01*
X338916563Y-6993332D01*
X339038495Y-6871401D01*
X339174035Y-6677830D01*
X339273903Y-6463663D01*
X339335063Y-6235408D01*
X339355659Y-6000000D01*
X339340412Y-5825732D01*
X364070486Y-5825732D01*
X364070486Y-5825737D01*
X364089420Y-5993791D01*
X364145280Y-6153429D01*
X364145282Y-6153432D01*
X364235253Y-6296619D01*
X364235258Y-6296625D01*
X364354844Y-6416211D01*
X364354850Y-6416216D01*
X364498037Y-6506187D01*
X364498040Y-6506189D01*
X364498044Y-6506190D01*
X364498045Y-6506191D01*
X364570648Y-6531595D01*
X364657678Y-6562049D01*
X364825732Y-6580984D01*
X364825735Y-6580984D01*
X364825738Y-6580984D01*
X364993791Y-6562049D01*
X364993794Y-6562048D01*
X365153425Y-6506191D01*
X365153427Y-6506189D01*
X365153429Y-6506189D01*
X365153432Y-6506187D01*
X365296619Y-6416216D01*
X365296620Y-6416215D01*
X365296625Y-6416212D01*
X365416212Y-6296625D01*
X365430296Y-6274211D01*
X365506187Y-6153432D01*
X365506189Y-6153429D01*
X365506189Y-6153427D01*
X365506191Y-6153425D01*
X365562048Y-5993794D01*
X365562048Y-5993793D01*
X365562049Y-5993791D01*
X365580984Y-5825737D01*
X365580984Y-5825732D01*
X365562049Y-5657678D01*
X365517308Y-5529815D01*
X365506191Y-5498045D01*
X365506190Y-5498044D01*
X365506189Y-5498040D01*
X365506187Y-5498037D01*
X365416216Y-5354850D01*
X365416211Y-5354844D01*
X365296625Y-5235258D01*
X365296619Y-5235253D01*
X365153432Y-5145282D01*
X365153429Y-5145280D01*
X364993791Y-5089420D01*
X364825738Y-5070486D01*
X364825732Y-5070486D01*
X364657678Y-5089420D01*
X364498040Y-5145280D01*
X364498037Y-5145282D01*
X364354850Y-5235253D01*
X364354844Y-5235258D01*
X364235258Y-5354844D01*
X364235253Y-5354850D01*
X364145282Y-5498037D01*
X364145280Y-5498040D01*
X364089420Y-5657678D01*
X364070486Y-5825732D01*
X339340412Y-5825732D01*
X339335063Y-5764592D01*
X339273903Y-5536337D01*
X339174035Y-5322171D01*
X339113179Y-5235258D01*
X339038494Y-5128597D01*
X338886862Y-4976966D01*
X353344722Y-4976966D01*
X353344722Y-4976967D01*
X353363762Y-5133785D01*
X353419780Y-5281490D01*
X353509517Y-5411497D01*
X353627760Y-5516250D01*
X353627762Y-5516251D01*
X353767634Y-5589663D01*
X353921014Y-5627467D01*
X353921015Y-5627467D01*
X354078985Y-5627467D01*
X354232365Y-5589663D01*
X354372240Y-5516250D01*
X354490483Y-5411497D01*
X354580220Y-5281490D01*
X354636237Y-5133785D01*
X354655278Y-4976967D01*
X354645932Y-4899996D01*
X359194435Y-4899996D01*
X359194435Y-4900003D01*
X359214630Y-5079249D01*
X359214631Y-5079254D01*
X359274211Y-5249523D01*
X359294298Y-5281491D01*
X359370184Y-5402262D01*
X359497738Y-5529816D01*
X359650478Y-5625789D01*
X359741606Y-5657676D01*
X359820745Y-5685368D01*
X359820750Y-5685369D01*
X359999996Y-5705565D01*
X360000000Y-5705565D01*
X360000004Y-5705565D01*
X360179249Y-5685369D01*
X360179252Y-5685368D01*
X360179255Y-5685368D01*
X360349522Y-5625789D01*
X360502262Y-5529816D01*
X360629816Y-5402262D01*
X360725789Y-5249522D01*
X360785368Y-5079255D01*
X360795988Y-4984999D01*
X377144341Y-4984999D01*
X377144341Y-4985000D01*
X377164936Y-5220403D01*
X377164938Y-5220413D01*
X377226094Y-5448655D01*
X377226096Y-5448659D01*
X377226097Y-5448663D01*
X377309475Y-5627467D01*
X377325965Y-5662830D01*
X377325967Y-5662834D01*
X377397222Y-5764596D01*
X377461501Y-5856396D01*
X377461506Y-5856402D01*
X377583430Y-5978326D01*
X377616915Y-6039649D01*
X377611931Y-6109341D01*
X377570059Y-6165274D01*
X377539083Y-6182189D01*
X377407669Y-6231203D01*
X377407664Y-6231206D01*
X377292455Y-6317452D01*
X377292452Y-6317455D01*
X377206206Y-6432664D01*
X377206202Y-6432671D01*
X377155908Y-6567517D01*
X377149501Y-6627116D01*
X377149501Y-6627123D01*
X377149500Y-6627135D01*
X377149500Y-8422870D01*
X377149501Y-8422876D01*
X377155908Y-8482483D01*
X377206202Y-8617328D01*
X377206206Y-8617335D01*
X377292452Y-8732544D01*
X377292455Y-8732547D01*
X377407664Y-8818793D01*
X377407671Y-8818797D01*
X377542517Y-8869091D01*
X377542516Y-8869091D01*
X377549444Y-8869835D01*
X377602127Y-8875500D01*
X379397872Y-8875499D01*
X379457483Y-8869091D01*
X379592331Y-8818796D01*
X379707546Y-8732546D01*
X379793796Y-8617331D01*
X379844091Y-8482483D01*
X379850500Y-8422873D01*
X379850499Y-6627128D01*
X379844091Y-6567517D01*
X379842051Y-6562048D01*
X379793797Y-6432671D01*
X379793793Y-6432664D01*
X379707547Y-6317455D01*
X379707544Y-6317452D01*
X379592335Y-6231206D01*
X379592328Y-6231202D01*
X379460917Y-6182189D01*
X379404983Y-6140318D01*
X379380566Y-6074853D01*
X379395418Y-6006580D01*
X379416563Y-5978332D01*
X379538495Y-5856401D01*
X379674035Y-5662830D01*
X379773903Y-5448663D01*
X379835063Y-5220408D01*
X379855659Y-4985000D01*
X379853603Y-4961506D01*
X379851539Y-4937918D01*
X379835063Y-4749592D01*
X379773903Y-4521337D01*
X379674035Y-4307171D01*
X379539219Y-4114632D01*
X379538494Y-4113597D01*
X379371402Y-3946506D01*
X379371396Y-3946501D01*
X379185406Y-3816270D01*
X379141781Y-3761693D01*
X379134587Y-3692195D01*
X379166110Y-3629840D01*
X379185405Y-3613120D01*
X379371082Y-3483106D01*
X379538105Y-3316083D01*
X379673600Y-3122579D01*
X379773429Y-2908493D01*
X379773432Y-2908487D01*
X379830636Y-2695001D01*
X378933012Y-2695001D01*
X378965925Y-2637994D01*
X379000000Y-2510827D01*
X379000000Y-2379175D01*
X378965925Y-2252008D01*
X378933012Y-2195001D01*
X379830636Y-2195001D01*
X379830635Y-2195000D01*
X379773432Y-1981514D01*
X379773429Y-1981508D01*
X379673600Y-1767423D01*
X379673599Y-1767421D01*
X379538113Y-1573927D01*
X379538108Y-1573921D01*
X379371082Y-1406895D01*
X379177578Y-1271400D01*
X378963492Y-1171571D01*
X378963486Y-1171568D01*
X378750000Y-1114365D01*
X378750000Y-2011989D01*
X378692993Y-1979076D01*
X378565826Y-1945001D01*
X378434174Y-1945001D01*
X378307007Y-1979076D01*
X378250000Y-2011989D01*
X378250000Y-1114365D01*
X378249999Y-1114365D01*
X378036513Y-1171568D01*
X378036507Y-1171571D01*
X377822422Y-1271400D01*
X377822420Y-1271401D01*
X377628926Y-1406887D01*
X377628920Y-1406892D01*
X377461891Y-1573921D01*
X377461886Y-1573927D01*
X377326400Y-1767421D01*
X377326399Y-1767423D01*
X377226570Y-1981508D01*
X377226567Y-1981514D01*
X377169364Y-2195000D01*
X377169364Y-2195001D01*
X378066988Y-2195001D01*
X378034075Y-2252008D01*
X378000000Y-2379175D01*
X378000000Y-2510827D01*
X378034075Y-2637994D01*
X378066988Y-2695001D01*
X377169364Y-2695001D01*
X377226567Y-2908487D01*
X377226570Y-2908493D01*
X377326399Y-3122579D01*
X377461894Y-3316083D01*
X377628917Y-3483106D01*
X377814594Y-3613120D01*
X377858219Y-3667698D01*
X377865411Y-3737196D01*
X377833889Y-3799551D01*
X377814594Y-3816270D01*
X377628594Y-3946508D01*
X377461505Y-4113597D01*
X377325965Y-4307169D01*
X377325964Y-4307171D01*
X377226098Y-4521335D01*
X377226094Y-4521344D01*
X377164938Y-4749586D01*
X377164936Y-4749596D01*
X377144341Y-4984999D01*
X360795988Y-4984999D01*
X360805565Y-4900000D01*
X360797821Y-4831270D01*
X360785369Y-4720750D01*
X360785368Y-4720745D01*
X360725788Y-4550476D01*
X360654916Y-4437684D01*
X360629816Y-4397738D01*
X360502262Y-4270184D01*
X360349523Y-4174211D01*
X360179254Y-4114631D01*
X360179249Y-4114630D01*
X360000004Y-4094435D01*
X359999996Y-4094435D01*
X359820750Y-4114630D01*
X359820745Y-4114631D01*
X359650476Y-4174211D01*
X359497737Y-4270184D01*
X359370184Y-4397737D01*
X359274211Y-4550476D01*
X359214631Y-4720745D01*
X359214630Y-4720750D01*
X359194435Y-4899996D01*
X354645932Y-4899996D01*
X354636237Y-4820149D01*
X354580220Y-4672444D01*
X354490483Y-4542437D01*
X354372240Y-4437684D01*
X354372238Y-4437683D01*
X354372237Y-4437682D01*
X354232365Y-4364270D01*
X354078986Y-4326467D01*
X354078985Y-4326467D01*
X353921015Y-4326467D01*
X353921014Y-4326467D01*
X353767634Y-4364270D01*
X353627762Y-4437682D01*
X353627760Y-4437684D01*
X353533337Y-4521335D01*
X353509516Y-4542438D01*
X353419781Y-4672442D01*
X353419780Y-4672443D01*
X353363762Y-4820148D01*
X353344722Y-4976966D01*
X338886862Y-4976966D01*
X338871402Y-4961506D01*
X338871396Y-4961501D01*
X338685406Y-4831270D01*
X338641781Y-4776693D01*
X338634587Y-4707195D01*
X338666110Y-4644840D01*
X338685405Y-4628120D01*
X338871082Y-4498106D01*
X339038105Y-4331083D01*
X339173600Y-4137579D01*
X339273429Y-3923493D01*
X339273432Y-3923487D01*
X339330636Y-3710001D01*
X338433012Y-3710001D01*
X338465925Y-3652994D01*
X338500000Y-3525827D01*
X338500000Y-3394175D01*
X338465925Y-3267008D01*
X338447246Y-3234655D01*
X352836738Y-3234655D01*
X352836738Y-3234656D01*
X352855778Y-3391474D01*
X352890530Y-3483106D01*
X352911796Y-3539179D01*
X353001533Y-3669186D01*
X353119776Y-3773939D01*
X353119778Y-3773940D01*
X353259650Y-3847352D01*
X353413030Y-3885156D01*
X353413031Y-3885156D01*
X353571001Y-3885156D01*
X353724381Y-3847352D01*
X353783602Y-3816270D01*
X353864256Y-3773939D01*
X353982499Y-3669186D01*
X354072236Y-3539179D01*
X354128253Y-3391474D01*
X354147294Y-3234656D01*
X354133686Y-3122579D01*
X354128253Y-3077837D01*
X354097411Y-2996514D01*
X354072236Y-2930133D01*
X353982499Y-2800126D01*
X353864256Y-2695373D01*
X353864254Y-2695372D01*
X353864253Y-2695371D01*
X353724381Y-2621959D01*
X353571002Y-2584156D01*
X353571001Y-2584156D01*
X353413031Y-2584156D01*
X353413030Y-2584156D01*
X353259650Y-2621959D01*
X353119778Y-2695371D01*
X353001532Y-2800127D01*
X352911797Y-2930131D01*
X352911796Y-2930132D01*
X352855778Y-3077837D01*
X352836738Y-3234655D01*
X338447246Y-3234655D01*
X338433012Y-3210001D01*
X339330636Y-3210001D01*
X339330635Y-3210000D01*
X339273432Y-2996514D01*
X339273429Y-2996508D01*
X339173600Y-2782423D01*
X339173599Y-2782421D01*
X339038113Y-2588927D01*
X339038108Y-2588921D01*
X338871082Y-2421895D01*
X338677578Y-2286400D01*
X338463492Y-2186571D01*
X338463486Y-2186568D01*
X338250000Y-2129365D01*
X338250000Y-3026989D01*
X338192993Y-2994076D01*
X338065826Y-2960001D01*
X337934174Y-2960001D01*
X337807007Y-2994076D01*
X337750000Y-3026989D01*
X337750000Y-2129365D01*
X337749999Y-2129365D01*
X337536513Y-2186568D01*
X337536507Y-2186571D01*
X337322422Y-2286400D01*
X337322420Y-2286401D01*
X337128926Y-2421887D01*
X337128920Y-2421892D01*
X336961891Y-2588921D01*
X336961886Y-2588927D01*
X336826400Y-2782421D01*
X336826399Y-2782423D01*
X336726570Y-2996508D01*
X336726567Y-2996514D01*
X336669364Y-3210000D01*
X336669364Y-3210001D01*
X337566988Y-3210001D01*
X337534075Y-3267008D01*
X337500000Y-3394175D01*
X337500000Y-3525827D01*
X337534075Y-3652994D01*
X337566988Y-3710001D01*
X336669364Y-3710001D01*
X336726567Y-3923487D01*
X336726570Y-3923493D01*
X336826399Y-4137579D01*
X336961894Y-4331083D01*
X337128917Y-4498106D01*
X337314594Y-4628120D01*
X337358219Y-4682698D01*
X337365411Y-4752196D01*
X337333889Y-4814551D01*
X337314594Y-4831270D01*
X337128594Y-4961508D01*
X336961505Y-5128597D01*
X336825965Y-5322169D01*
X336825964Y-5322171D01*
X336726098Y-5536335D01*
X336726094Y-5536344D01*
X336664938Y-5764586D01*
X336664936Y-5764596D01*
X336644341Y-5999999D01*
X336250500Y-5999999D01*
X336250500Y-1499999D01*
X349844722Y-1499999D01*
X349844722Y-1500000D01*
X349863762Y-1656818D01*
X349905709Y-1767421D01*
X349919780Y-1804523D01*
X350009517Y-1934530D01*
X350127760Y-2039283D01*
X350127762Y-2039284D01*
X350267634Y-2112696D01*
X350421014Y-2150500D01*
X350421015Y-2150500D01*
X350578985Y-2150500D01*
X350732365Y-2112696D01*
X350872240Y-2039283D01*
X350990483Y-1934530D01*
X351080220Y-1804523D01*
X351136237Y-1656818D01*
X351155278Y-1500000D01*
X351136237Y-1343182D01*
X351080220Y-1195477D01*
X350990483Y-1065470D01*
X350872240Y-960717D01*
X350872238Y-960716D01*
X350872237Y-960715D01*
X350732365Y-887303D01*
X350578986Y-849500D01*
X350578985Y-849500D01*
X350421015Y-849500D01*
X350421014Y-849500D01*
X350267634Y-887303D01*
X350127762Y-960715D01*
X350009516Y-1065471D01*
X349919781Y-1195475D01*
X349919780Y-1195476D01*
X349863762Y-1343181D01*
X349844722Y-1499999D01*
X336250500Y-1499999D01*
X336250500Y750003D01*
X354444435Y750003D01*
X354444435Y749996D01*
X354464630Y570750D01*
X354464631Y570745D01*
X354524211Y400476D01*
X354620184Y247737D01*
X354747737Y120184D01*
X354900476Y24211D01*
X355070745Y-35368D01*
X355070750Y-35369D01*
X355249996Y-55565D01*
X355250000Y-55565D01*
X355250004Y-55565D01*
X355429249Y-35369D01*
X355429252Y-35368D01*
X355429255Y-35368D01*
X355514388Y-5578D01*
X355599523Y24211D01*
X355752262Y120184D01*
X355879815Y247737D01*
X355975789Y400478D01*
X356005166Y484432D01*
X356045888Y541209D01*
X356081252Y560519D01*
X356165210Y589898D01*
X356165211Y589899D01*
X356317949Y685871D01*
X356445502Y813424D01*
X356541475Y966163D01*
X356601055Y1136432D01*
X356601056Y1136437D01*
X356621252Y1315683D01*
X356621252Y1315690D01*
X356601056Y1494936D01*
X356601055Y1494941D01*
X356597477Y1505166D01*
X356541476Y1665209D01*
X356445503Y1817949D01*
X356317949Y1945503D01*
X356165209Y2041476D01*
X355994942Y2101055D01*
X355994939Y2101055D01*
X355994936Y2101056D01*
X355815691Y2121252D01*
X355815683Y2121252D01*
X355636437Y2101056D01*
X355636432Y2101055D01*
X355466165Y2041476D01*
X355313425Y1945503D01*
X355313424Y1945502D01*
X355185871Y1817949D01*
X355089899Y1665211D01*
X355089898Y1665210D01*
X355060519Y1581252D01*
X355019796Y1524476D01*
X354984432Y1505166D01*
X354900478Y1475789D01*
X354747738Y1379816D01*
X354747737Y1379815D01*
X354620184Y1252262D01*
X354524211Y1099523D01*
X354464631Y929254D01*
X354464630Y929249D01*
X354444435Y750003D01*
X336250500Y750003D01*
X336250500Y4000003D01*
X351194435Y4000003D01*
X351194435Y3999996D01*
X351214630Y3820750D01*
X351214631Y3820745D01*
X351274211Y3650476D01*
X351370184Y3497737D01*
X351497737Y3370184D01*
X351650476Y3274211D01*
X351820745Y3214631D01*
X351820750Y3214630D01*
X351999996Y3194435D01*
X352000000Y3194435D01*
X352000004Y3194435D01*
X352179249Y3214630D01*
X352179254Y3214631D01*
X352349523Y3274211D01*
X352502262Y3370184D01*
X352629815Y3497737D01*
X352725788Y3650476D01*
X352785368Y3820745D01*
X352785369Y3820750D01*
X352805565Y3999996D01*
X352805565Y4000003D01*
X352785369Y4179249D01*
X352785368Y4179254D01*
X352785368Y4179255D01*
X352725789Y4349522D01*
X352629816Y4502262D01*
X352502262Y4629816D01*
X352349522Y4725789D01*
X352179255Y4785368D01*
X352179252Y4785368D01*
X352179249Y4785369D01*
X352000004Y4805565D01*
X351999996Y4805565D01*
X351820750Y4785369D01*
X351820745Y4785368D01*
X351650478Y4725789D01*
X351497738Y4629816D01*
X351497737Y4629815D01*
X351370184Y4502262D01*
X351274211Y4349523D01*
X351214631Y4179254D01*
X351214630Y4179249D01*
X351194435Y4000003D01*
X336250500Y4000003D01*
X336250500Y8928658D01*
X336250534Y8931558D01*
X336263831Y9500003D01*
X359363969Y9500003D01*
X359363969Y9499996D01*
X359384164Y9320750D01*
X359384165Y9320745D01*
X359443745Y9150476D01*
X359539718Y8997737D01*
X359667271Y8870184D01*
X359820010Y8774211D01*
X359990279Y8714631D01*
X359990284Y8714630D01*
X360169530Y8694435D01*
X360169534Y8694435D01*
X360169538Y8694435D01*
X360348783Y8714630D01*
X360348788Y8714631D01*
X360519057Y8774211D01*
X360671796Y8870184D01*
X360799349Y8997737D01*
X360895322Y9150476D01*
X360954902Y9320745D01*
X360954903Y9320750D01*
X360975099Y9499996D01*
X360975099Y9500003D01*
X360954903Y9679249D01*
X360954902Y9679254D01*
X360929386Y9752175D01*
X360895323Y9849522D01*
X360800768Y10000005D01*
X368865142Y10000005D01*
X368865142Y9999994D01*
X368885675Y9752187D01*
X368885677Y9752175D01*
X368946721Y9511118D01*
X369046611Y9283393D01*
X369182618Y9075217D01*
X369351042Y8892261D01*
X369547278Y8739524D01*
X369765973Y8621172D01*
X369765982Y8621169D01*
X370001168Y8540429D01*
X370246450Y8499500D01*
X370495120Y8499500D01*
X370740401Y8540429D01*
X370975587Y8621169D01*
X370975596Y8621172D01*
X371194291Y8739524D01*
X371194294Y8739526D01*
X371390529Y8892262D01*
X371558949Y9075215D01*
X371558951Y9075217D01*
X371694958Y9283393D01*
X371794848Y9511118D01*
X371855892Y9752175D01*
X371855894Y9752187D01*
X371876428Y9999994D01*
X371876428Y10000005D01*
X371855894Y10247812D01*
X371855893Y10247815D01*
X371855893Y10247821D01*
X371794848Y10488881D01*
X371694958Y10716607D01*
X371558949Y10924785D01*
X371445647Y11047864D01*
X373870285Y11047864D01*
X373870285Y8952129D01*
X373870286Y8952123D01*
X373876693Y8892516D01*
X373926987Y8757671D01*
X373926991Y8757664D01*
X374013237Y8642455D01*
X374013240Y8642452D01*
X374128449Y8556206D01*
X374128456Y8556202D01*
X374263302Y8505908D01*
X374263301Y8505908D01*
X374322901Y8499501D01*
X374322904Y8499500D01*
X374322912Y8499500D01*
X374322919Y8499500D01*
X374322920Y8499500D01*
X376418655Y8499500D01*
X376418661Y8499501D01*
X376478268Y8505908D01*
X376613113Y8556202D01*
X376613120Y8556206D01*
X376728329Y8642452D01*
X376728332Y8642455D01*
X376814578Y8757664D01*
X376814582Y8757671D01*
X376864876Y8892517D01*
X376871285Y8952127D01*
X376871284Y11047872D01*
X376864876Y11107483D01*
X376814581Y11242331D01*
X376728331Y11357546D01*
X376613116Y11443796D01*
X376478268Y11494091D01*
X376418658Y11500500D01*
X374322913Y11500499D01*
X374274542Y11495299D01*
X374263301Y11494091D01*
X374128456Y11443797D01*
X374128449Y11443793D01*
X374013240Y11357547D01*
X374013237Y11357544D01*
X373926991Y11242335D01*
X373926987Y11242328D01*
X373876693Y11107482D01*
X373870286Y11047883D01*
X373870286Y11047876D01*
X373870285Y11047864D01*
X371445647Y11047864D01*
X371390529Y11107738D01*
X371194294Y11260474D01*
X370975595Y11378828D01*
X370740399Y11459571D01*
X370495120Y11500500D01*
X370246450Y11500500D01*
X370001171Y11459571D01*
X369765975Y11378828D01*
X369547276Y11260474D01*
X369351041Y11107738D01*
X369249779Y10997738D01*
X369182618Y10924782D01*
X369046611Y10716606D01*
X368946721Y10488881D01*
X368885677Y10247824D01*
X368885675Y10247812D01*
X368865142Y10000005D01*
X360800768Y10000005D01*
X360799350Y10002262D01*
X360671796Y10129816D01*
X360519056Y10225789D01*
X360348789Y10285368D01*
X360348786Y10285368D01*
X360348783Y10285369D01*
X360169538Y10305565D01*
X360169530Y10305565D01*
X359990284Y10285369D01*
X359990279Y10285368D01*
X359820012Y10225789D01*
X359667272Y10129816D01*
X359667271Y10129815D01*
X359539718Y10002262D01*
X359443745Y9849523D01*
X359384165Y9679254D01*
X359384164Y9679249D01*
X359363969Y9500003D01*
X336263831Y9500003D01*
X336280808Y10225788D01*
X336291199Y10670003D01*
X356636935Y10670003D01*
X356636935Y10669996D01*
X356657130Y10490750D01*
X356657131Y10490745D01*
X356716711Y10320476D01*
X356812684Y10167737D01*
X356940237Y10040184D01*
X357092976Y9944211D01*
X357263245Y9884631D01*
X357263250Y9884630D01*
X357442496Y9864435D01*
X357442500Y9864435D01*
X357442504Y9864435D01*
X357621749Y9884630D01*
X357621754Y9884631D01*
X357792023Y9944211D01*
X357944762Y10040184D01*
X358072315Y10167737D01*
X358122636Y10247821D01*
X358168289Y10320478D01*
X358227868Y10490745D01*
X358248065Y10670000D01*
X358243036Y10714630D01*
X358227869Y10849249D01*
X358227868Y10849254D01*
X358227868Y10849255D01*
X358168289Y11019522D01*
X358072316Y11172262D01*
X358026009Y11218569D01*
X357992524Y11279892D01*
X357997508Y11349584D01*
X358026009Y11393931D01*
X358129815Y11497737D01*
X358131235Y11499996D01*
X358131239Y11500003D01*
X359194435Y11500003D01*
X359194435Y11499996D01*
X359214630Y11320750D01*
X359214631Y11320745D01*
X359274211Y11150476D01*
X359370184Y10997737D01*
X359497737Y10870184D01*
X359650476Y10774211D01*
X359820745Y10714631D01*
X359820750Y10714630D01*
X359999996Y10694435D01*
X360000000Y10694435D01*
X360000004Y10694435D01*
X360179249Y10714630D01*
X360179254Y10714631D01*
X360349523Y10774211D01*
X360502262Y10870184D01*
X360629815Y10997737D01*
X360725788Y11150476D01*
X360733412Y11172262D01*
X360785368Y11320745D01*
X360785369Y11320750D01*
X360805565Y11499996D01*
X360805565Y11500003D01*
X360785369Y11679249D01*
X360785368Y11679254D01*
X360785368Y11679255D01*
X360725789Y11849522D01*
X360629816Y12002262D01*
X360502262Y12129816D01*
X360349522Y12225789D01*
X360179255Y12285368D01*
X360179252Y12285368D01*
X360179249Y12285369D01*
X360000004Y12305565D01*
X359999996Y12305565D01*
X359820750Y12285369D01*
X359820745Y12285368D01*
X359650478Y12225789D01*
X359497738Y12129816D01*
X359497737Y12129815D01*
X359370184Y12002262D01*
X359274211Y11849523D01*
X359214631Y11679254D01*
X359214630Y11679249D01*
X359194435Y11500003D01*
X358131239Y11500003D01*
X358225789Y11650478D01*
X358285368Y11820745D01*
X358285369Y11820750D01*
X358305565Y11999996D01*
X358305565Y12000003D01*
X358285369Y12179249D01*
X358285368Y12179254D01*
X358241170Y12305565D01*
X358225789Y12349522D01*
X358129816Y12502262D01*
X358002262Y12629816D01*
X357849522Y12725789D01*
X357679255Y12785368D01*
X357679252Y12785368D01*
X357679249Y12785369D01*
X357500004Y12805565D01*
X357499996Y12805565D01*
X357320750Y12785369D01*
X357320745Y12785368D01*
X357150478Y12725789D01*
X356997738Y12629816D01*
X356997737Y12629815D01*
X356870184Y12502262D01*
X356774211Y12349523D01*
X356714631Y12179254D01*
X356714630Y12179249D01*
X356694435Y12000003D01*
X356694435Y11999996D01*
X356714630Y11820750D01*
X356714631Y11820745D01*
X356774211Y11650476D01*
X356870184Y11497737D01*
X356916491Y11451431D01*
X356949976Y11390108D01*
X356944992Y11320416D01*
X356916491Y11276069D01*
X356812684Y11172262D01*
X356716711Y11019523D01*
X356657131Y10849254D01*
X356657130Y10849249D01*
X356636935Y10670003D01*
X336291199Y10670003D01*
X336380322Y14480000D01*
X356787222Y14480000D01*
X356787222Y14479999D01*
X356806262Y14323181D01*
X356862280Y14175476D01*
X356862281Y14175475D01*
X356952016Y14045471D01*
X357070262Y13940715D01*
X357210134Y13867303D01*
X357363514Y13829500D01*
X357363515Y13829500D01*
X357521486Y13829500D01*
X357674865Y13867303D01*
X357814737Y13940715D01*
X357814738Y13940716D01*
X357814740Y13940717D01*
X357932983Y14045470D01*
X358022720Y14175477D01*
X358078737Y14323182D01*
X358097778Y14480000D01*
X358078737Y14636818D01*
X358022720Y14784523D01*
X357932983Y14914530D01*
X357814740Y15019283D01*
X357674865Y15092696D01*
X357521486Y15130500D01*
X357521485Y15130500D01*
X357363515Y15130500D01*
X357363514Y15130500D01*
X357210134Y15092696D01*
X357082360Y15025633D01*
X357070260Y15019283D01*
X356952017Y14914530D01*
X356952016Y14914528D01*
X356862281Y14784524D01*
X356862280Y14784523D01*
X356806262Y14636818D01*
X356787222Y14480000D01*
X336380322Y14480000D01*
X336494904Y19378402D01*
X336516151Y19444961D01*
X336570010Y19489468D01*
X336618870Y19499500D01*
X380125500Y19499500D01*
X380192539Y19479815D01*
G37*
%TD.AperFunction*%
%TD*%
M02*
