M48
; DRILL file {KiCad 8.0.5} date 2024-10-25T00:01:26-0700
; FORMAT={-:-/ absolute / inch / decimal}
; #@! TF.CreationDate,2024-10-25T00:01:26-07:00
; #@! TF.GenerationSoftware,Kicad,Pcbnew,8.0.5
; #@! TF.FileFunction,Plated,1,4,PTH
FMAT,2
INCH
; #@! TA.AperFunction,Plated,PTH,ViaDrill
T1C0.0039
; #@! TA.AperFunction,Plated,PTH,ViaDrill
T2C0.0079
; #@! TA.AperFunction,Plated,PTH,ComponentDrill
T3C0.0079
; #@! TA.AperFunction,Plated,PTH,ViaDrill
T4C0.0118
; #@! TA.AperFunction,Plated,PTH,ComponentDrill
T5C0.0197
; #@! TA.AperFunction,Plated,PTH,ComponentDrill
T6C0.0394
%
G90
G05
T1
X13.248Y-1.0827
X13.7992Y-0.0591
X13.8523Y-0.689
X13.9126Y-0.374
X13.917Y-0.1273
X13.9271Y-0.7969
X13.937Y-0.1959
X13.9448Y-0.2895
X13.9469Y-0.9197
X14.0346Y-0.9987
X14.0711Y-0.5618
X14.0725Y0.5701
X14.1451Y-0.4612
X14.2184Y-0.2895
X14.2323Y-0.2756
X14.2465Y-0.4276
T2
X13.3071Y-0.8858
T3
X14.6651Y-0.6831
X14.6651Y-0.7697
X14.6651Y-0.7264
X14.7085Y-0.6831
X14.7085Y-0.7264
X14.7085Y-0.7697
X14.7518Y-0.7264
X14.7518Y-0.6831
X14.7518Y-0.7697
T4
X13.25Y-0.8071
X13.2677Y-0.6102
X13.2929Y-0.8345
X13.2992Y-0.92
X13.3071Y-1.0433
X13.3465Y-1.0971
X13.3779Y-0.6247
X13.3779Y-0.9968
X13.3858Y0.4465
X13.4006Y-0.3824
X13.4055Y-0.4331
X13.4316Y-0.3174
X13.4449Y-0.1378
X13.4763Y-1.1562
X13.4938Y-0.5181
X13.5157Y-0.92
X13.5236Y-0.5315
X13.5428Y-0.9838
X13.5748Y-1.1562
X13.5827Y-0.9055
X13.622Y-0.8661
X13.6417Y-0.5315
X13.6535Y-1.0381
X13.6594Y-0.4528
X13.6926Y-0.8409
X13.7949Y-0.6576
X13.7949Y-0.7677
X13.7992Y-0.2756
X13.7992Y-0.5419
X13.8189Y0.2362
X13.8248Y-0.6476
X13.8356Y-0.6141
X13.8583Y0.1575
X13.8583Y-0.5799
X13.8661Y-0.5494
X13.8897Y-0.4869
X13.8897Y-0.6641
X13.933Y-0.5656
X13.937Y-0.4528
X13.9764Y-0.4331
X13.9862Y0.0295
X13.9881Y-0.8845
X13.9901Y-0.7969
X14.0056Y-0.2848
X14.0085Y0.0518
X14.0154Y-0.4724
X14.0155Y-0.0923
X14.0275Y-0.7231
X14.0423Y-0.3869
X14.0555Y-0.4724
X14.0602Y-0.4094
X14.0627Y-0.3088
X14.0669Y-0.5259
X14.0669Y-0.6448
X14.0725Y0.4201
X14.0748Y0.4724
X14.1142Y-0.4921
X14.1334Y-0.3149
X14.1382Y-0.5359
X14.1732Y0.4528
X14.1732Y-0.1929
X14.1799Y0.374
X14.2075Y-0.7837
X14.2323Y-0.9252
X14.2717Y-0.6496
X14.2717Y-1.1614
X14.2913Y-0.0984
X14.3139Y-0.3189
X14.3252Y-1.1038
X14.3632Y-0.2294
X14.4291Y-0.7283
X14.4291Y-0.7874
X14.4479Y0.0965
X14.4488Y-1.028
X14.4685Y-1.1614
X14.4882Y-0.6299
X14.5472Y-1.0433
X14.5866Y-0.7313
X14.6063Y-0.9449
X14.6957Y-0.8325
X14.6997Y-0.6102
X14.7047Y-0.1378
X14.7047Y-0.4921
X14.7835Y-1.0039
X14.787Y-0.9048
X14.8389Y-0.7717
T5
X13.3529Y-0.4858
X13.3529Y-0.5606
T6
X13.3071Y-0.1362
X13.3071Y-0.2362
X13.3071Y-0.3362
X13.4338Y-1.0971
X13.4338Y-1.1971
X13.5338Y-1.0971
X13.5338Y-1.1971
X13.6338Y-1.0971
X13.6338Y-1.1971
X14.5815Y0.3937
X14.7784Y0.3937
X14.9Y-0.6713
X14.9Y-0.7713
X14.9016Y-0.0963
X14.9016Y-0.1963
X14.9016Y-0.2963
M30
