%TF.GenerationSoftware,KiCad,Pcbnew,8.0.5*%
%TF.CreationDate,2024-10-25T00:02:52-07:00*%
%TF.ProjectId,Vanguard_new,56616e67-7561-4726-945f-6e65772e6b69,rev?*%
%TF.SameCoordinates,Original*%
%TF.FileFunction,Paste,Top*%
%TF.FilePolarity,Positive*%
%FSLAX46Y46*%
G04 Gerber Fmt 4.6, Leading zero omitted, Abs format (unit mm)*
G04 Created by KiCad (PCBNEW 8.0.5) date 2024-10-25 00:02:52*
%MOMM*%
%LPD*%
G01*
G04 APERTURE LIST*
G04 Aperture macros list*
%AMRoundRect*
0 Rectangle with rounded corners*
0 $1 Rounding radius*
0 $2 $3 $4 $5 $6 $7 $8 $9 X,Y pos of 4 corners*
0 Add a 4 corners polygon primitive as box body*
4,1,4,$2,$3,$4,$5,$6,$7,$8,$9,$2,$3,0*
0 Add four circle primitives for the rounded corners*
1,1,$1+$1,$2,$3*
1,1,$1+$1,$4,$5*
1,1,$1+$1,$6,$7*
1,1,$1+$1,$8,$9*
0 Add four rect primitives between the rounded corners*
20,1,$1+$1,$2,$3,$4,$5,0*
20,1,$1+$1,$4,$5,$6,$7,0*
20,1,$1+$1,$6,$7,$8,$9,0*
20,1,$1+$1,$8,$9,$2,$3,0*%
G04 Aperture macros list end*
%ADD10RoundRect,0.135000X-0.135000X-0.185000X0.135000X-0.185000X0.135000X0.185000X-0.135000X0.185000X0*%
%ADD11RoundRect,0.079500X0.100500X-0.079500X0.100500X0.079500X-0.100500X0.079500X-0.100500X-0.079500X0*%
%ADD12RoundRect,0.135000X0.185000X-0.135000X0.185000X0.135000X-0.185000X0.135000X-0.185000X-0.135000X0*%
%ADD13RoundRect,0.079500X-0.079500X-0.100500X0.079500X-0.100500X0.079500X0.100500X-0.079500X0.100500X0*%
%ADD14RoundRect,0.150000X0.150000X-0.587500X0.150000X0.587500X-0.150000X0.587500X-0.150000X-0.587500X0*%
%ADD15R,1.000000X0.380000*%
%ADD16R,1.150000X0.700000*%
%ADD17RoundRect,0.135000X-0.185000X0.135000X-0.185000X-0.135000X0.185000X-0.135000X0.185000X0.135000X0*%
%ADD18RoundRect,0.147500X-0.147500X-0.172500X0.147500X-0.172500X0.147500X0.172500X-0.147500X0.172500X0*%
%ADD19RoundRect,0.075000X0.521491X-0.415425X-0.415425X0.521491X-0.521491X0.415425X0.415425X-0.521491X0*%
%ADD20RoundRect,0.075000X0.521491X0.415425X0.415425X0.521491X-0.521491X-0.415425X-0.415425X-0.521491X0*%
%ADD21RoundRect,0.079500X0.079500X0.100500X-0.079500X0.100500X-0.079500X-0.100500X0.079500X-0.100500X0*%
%ADD22RoundRect,0.135000X0.135000X0.185000X-0.135000X0.185000X-0.135000X-0.185000X0.135000X-0.185000X0*%
%ADD23RoundRect,0.087500X-0.325000X0.087500X-0.325000X-0.087500X0.325000X-0.087500X0.325000X0.087500X0*%
%ADD24RoundRect,0.087500X-0.087500X0.325000X-0.087500X-0.325000X0.087500X-0.325000X0.087500X0.325000X0*%
%ADD25RoundRect,0.238649X-0.238648X0.238648X-0.238648X-0.238648X0.238648X-0.238648X0.238648X0.238648X0*%
%ADD26RoundRect,0.072500X0.782500X0.217500X-0.782500X0.217500X-0.782500X-0.217500X0.782500X-0.217500X0*%
%ADD27RoundRect,0.079500X-0.100500X0.079500X-0.100500X-0.079500X0.100500X-0.079500X0.100500X0.079500X0*%
%ADD28RoundRect,0.150000X-0.512500X-0.150000X0.512500X-0.150000X0.512500X0.150000X-0.512500X0.150000X0*%
%ADD29RoundRect,0.160000X0.565000X0.240000X-0.565000X0.240000X-0.565000X-0.240000X0.565000X-0.240000X0*%
%ADD30RoundRect,0.120000X0.605000X0.180000X-0.605000X0.180000X-0.605000X-0.180000X0.605000X-0.180000X0*%
%ADD31R,1.200000X1.200000*%
%ADD32R,1.950000X0.600000*%
%ADD33R,0.700000X0.250000*%
%ADD34R,1.100000X0.250000*%
%ADD35R,0.250000X0.700000*%
%ADD36R,0.250000X1.100000*%
%ADD37R,0.250000X0.800000*%
%ADD38RoundRect,0.135000X0.226274X0.035355X0.035355X0.226274X-0.226274X-0.035355X-0.035355X-0.226274X0*%
%ADD39R,1.800000X1.170000*%
%ADD40R,1.350000X1.900000*%
%ADD41R,1.350000X1.550000*%
%ADD42R,1.000000X1.200000*%
%ADD43R,1.100000X0.750000*%
%ADD44R,1.100000X0.850000*%
%ADD45RoundRect,0.160000X-0.565000X-0.240000X0.565000X-0.240000X0.565000X0.240000X-0.565000X0.240000X0*%
%ADD46RoundRect,0.120000X-0.605000X-0.180000X0.605000X-0.180000X0.605000X0.180000X-0.605000X0.180000X0*%
%ADD47RoundRect,0.175000X0.175000X0.325000X-0.175000X0.325000X-0.175000X-0.325000X0.175000X-0.325000X0*%
%ADD48RoundRect,0.150000X0.200000X0.150000X-0.200000X0.150000X-0.200000X-0.150000X0.200000X-0.150000X0*%
%ADD49RoundRect,0.250000X-0.388909X0.000000X0.000000X-0.388909X0.388909X0.000000X0.000000X0.388909X0*%
%ADD50RoundRect,0.062500X-0.291682X0.203293X0.203293X-0.291682X0.291682X-0.203293X-0.203293X0.291682X0*%
%ADD51RoundRect,0.062500X-0.291682X-0.203293X-0.203293X-0.291682X0.291682X0.203293X0.203293X0.291682X0*%
%ADD52R,0.675000X0.250000*%
%ADD53R,0.250000X0.575000*%
%ADD54RoundRect,0.150000X-0.150000X0.587500X-0.150000X-0.587500X0.150000X-0.587500X0.150000X0.587500X0*%
%ADD55RoundRect,0.150000X0.587500X0.150000X-0.587500X0.150000X-0.587500X-0.150000X0.587500X-0.150000X0*%
%ADD56RoundRect,0.150000X-0.825000X-0.150000X0.825000X-0.150000X0.825000X0.150000X-0.825000X0.150000X0*%
G04 APERTURE END LIST*
D10*
%TO.C,R16*%
X370500000Y-24500000D03*
X369480002Y-24500000D03*
%TD*%
D11*
%TO.C,C4*%
X361500000Y-24155000D03*
X361500000Y-24845000D03*
%TD*%
D12*
%TO.C,R7*%
X357298854Y-14377490D03*
X357298854Y-13357492D03*
%TD*%
%TO.C,R11*%
X350500000Y-20509999D03*
X350500000Y-19490001D03*
%TD*%
D13*
%TO.C,D5*%
X378345000Y-25500000D03*
X377655000Y-25500000D03*
%TD*%
D14*
%TO.C,Q1*%
X355348854Y-20242491D03*
X357248854Y-20242491D03*
X356298854Y-18367491D03*
%TD*%
D10*
%TO.C,R13*%
X351298854Y-12367491D03*
X352318852Y-12367491D03*
%TD*%
D13*
%TO.C,D2*%
X357143854Y-25367491D03*
X356453854Y-25367491D03*
%TD*%
D15*
%TO.C,J1*%
X336798854Y-27367491D03*
X336798854Y-26867491D03*
X336798854Y-26367491D03*
X336798854Y-25867491D03*
X336798854Y-25367491D03*
X336798854Y-24867491D03*
X336798854Y-24367491D03*
X336798854Y-23867491D03*
X336798854Y-23367491D03*
X336798854Y-22867491D03*
X336798854Y-22367491D03*
X336798854Y-21867491D03*
D16*
X337638854Y-28037491D03*
%TD*%
D13*
%TO.C,C7*%
X345637500Y-13040000D03*
X346327500Y-13040000D03*
%TD*%
D17*
%TO.C,R5*%
X358298854Y-22877490D03*
X358298854Y-21857492D03*
%TD*%
%TO.C,R1*%
X343298854Y-25377491D03*
X343298854Y-24357491D03*
%TD*%
D10*
%TO.C,R21*%
X358990000Y-13500000D03*
X360010000Y-13500000D03*
%TD*%
%TO.C,R24*%
X342500000Y-16000000D03*
X343519998Y-16000000D03*
%TD*%
D18*
%TO.C,L1*%
X371382399Y-15005582D03*
X370412399Y-15005582D03*
%TD*%
D19*
%TO.C,U2*%
X358671573Y-9828427D03*
X359025127Y-9474873D03*
X359378680Y-9121320D03*
X359732234Y-8767766D03*
X360085787Y-8414213D03*
X360439340Y-8060660D03*
X360792894Y-7707106D03*
X361146447Y-7353553D03*
X361500000Y-7000000D03*
X361853554Y-6646446D03*
X362207107Y-6292893D03*
X362560661Y-5939339D03*
D20*
X362560661Y-3941763D03*
X362207107Y-3588209D03*
X361853554Y-3234656D03*
X361500000Y-2881102D03*
X361146447Y-2527549D03*
X360792894Y-2173996D03*
X360439340Y-1820442D03*
X360085787Y-1466889D03*
X359732234Y-1113336D03*
X359378680Y-759782D03*
X359025127Y-406229D03*
X358671573Y-52675D03*
D19*
X356673997Y-52675D03*
X356320443Y-406229D03*
X355966890Y-759782D03*
X355613336Y-1113336D03*
X355259783Y-1466889D03*
X354906230Y-1820442D03*
X354552676Y-2173996D03*
X354199123Y-2527549D03*
X353845570Y-2881102D03*
X353492016Y-3234656D03*
X353138463Y-3588209D03*
X352784909Y-3941763D03*
D20*
X352784909Y-5939339D03*
X353138463Y-6292893D03*
X353492016Y-6646446D03*
X353845570Y-7000000D03*
X354199123Y-7353553D03*
X354552676Y-7707106D03*
X354906230Y-8060660D03*
X355259783Y-8414213D03*
X355613336Y-8767766D03*
X355966890Y-9121320D03*
X356320443Y-9474873D03*
X356673997Y-9828427D03*
%TD*%
D21*
%TO.C,C10*%
X373734380Y-13944923D03*
X374424380Y-13944923D03*
%TD*%
D10*
%TO.C,R18*%
X345930000Y-12457500D03*
X346950000Y-12457500D03*
%TD*%
D22*
%TO.C,R23*%
X345092500Y-7490000D03*
X344072500Y-7490000D03*
%TD*%
D10*
%TO.C,R26*%
X366934999Y-3430000D03*
X365915001Y-3430000D03*
%TD*%
D12*
%TO.C,R10*%
X354250000Y-24379999D03*
X354250000Y-23360001D03*
%TD*%
D10*
%TO.C,R29*%
X349000000Y-3500000D03*
X347980002Y-3500000D03*
%TD*%
D23*
%TO.C,U8*%
X375557233Y-17475000D03*
X375557233Y-18125000D03*
X375557233Y-18775000D03*
X375557233Y-19425000D03*
D24*
X374569733Y-20412500D03*
X373919733Y-20412500D03*
X373269733Y-20412500D03*
X372619733Y-20412500D03*
D23*
X371632233Y-19425000D03*
X371632233Y-18775000D03*
X371632233Y-18125000D03*
X371632233Y-17475000D03*
D24*
X372619733Y-16487500D03*
X373269733Y-16487500D03*
X373919733Y-16487500D03*
X374569733Y-16487500D03*
D25*
X373044733Y-19000000D03*
X374144733Y-19000000D03*
X373044733Y-17900000D03*
X374144733Y-17900000D03*
%TD*%
D11*
%TO.C,C2*%
X337000000Y-12845000D03*
X337000000Y-12155000D03*
%TD*%
D22*
%TO.C,R9*%
X357009999Y-12000000D03*
X355990001Y-12000000D03*
%TD*%
D26*
%TO.C,U3*%
X360870000Y-19905000D03*
X360870000Y-18635000D03*
X360870000Y-17365000D03*
X360870000Y-16095000D03*
X368130000Y-16095000D03*
X368130000Y-17365000D03*
X368130000Y-18635000D03*
X368130000Y-19905000D03*
%TD*%
D10*
%TO.C,R17*%
X378509999Y-24500000D03*
X377490001Y-24500000D03*
%TD*%
D12*
%TO.C,R6*%
X357298854Y-21857492D03*
X357298854Y-22877490D03*
%TD*%
D11*
%TO.C,C8*%
X369836739Y-18549670D03*
X369836739Y-19239670D03*
%TD*%
D27*
%TO.C,D3*%
X353000000Y-23655000D03*
X353000000Y-24345000D03*
%TD*%
D28*
%TO.C,U4*%
X376137500Y-24550001D03*
X376137500Y-26449999D03*
X373862500Y-26449999D03*
X373862500Y-25500000D03*
X373862500Y-24550001D03*
%TD*%
D27*
%TO.C,C3*%
X337000000Y-13835000D03*
X337000000Y-14525000D03*
%TD*%
D17*
%TO.C,R12*%
X357298854Y-15357491D03*
X357298854Y-16377491D03*
%TD*%
D29*
%TO.C,PORTSIDE_RGB1*%
X343475000Y-4550000D03*
D30*
X343475000Y-3500000D03*
D29*
X343475000Y-2450000D03*
X346525000Y-2450000D03*
D30*
X346525000Y-3500000D03*
D29*
X346525000Y-4550000D03*
%TD*%
D10*
%TO.C,R25*%
X366934999Y-2320000D03*
X365915001Y-2320000D03*
%TD*%
D31*
%TO.C,D6*%
X363600001Y-29500000D03*
X366399999Y-29500000D03*
%TD*%
D10*
%TO.C,R19*%
X345910000Y-10227500D03*
X346930000Y-10227500D03*
%TD*%
D32*
%TO.C,U5*%
X366610000Y-24910000D03*
X366610000Y-26910000D03*
D33*
X362910000Y-27160000D03*
X362909999Y-26660000D03*
D34*
X363110000Y-26160000D03*
X363110000Y-25660000D03*
D33*
X362909999Y-25160000D03*
X362910000Y-24660000D03*
D35*
X363810000Y-24460000D03*
D36*
X364459999Y-24660000D03*
X365110000Y-24660000D03*
D35*
X365760000Y-24460000D03*
X366610000Y-24460000D03*
X367460000Y-24460000D03*
X367460000Y-27360000D03*
X366610000Y-27360000D03*
X365760000Y-27360000D03*
D36*
X365110000Y-27160000D03*
X364459999Y-27160000D03*
D37*
X363810000Y-27310000D03*
%TD*%
D38*
%TO.C,R22*%
X361139376Y-10139376D03*
X361860624Y-10860624D03*
%TD*%
D10*
%TO.C,R27*%
X366934999Y-4580000D03*
X365915001Y-4580000D03*
%TD*%
%TO.C,R28*%
X349000000Y-4520000D03*
X347980002Y-4520000D03*
%TD*%
D17*
%TO.C,R14*%
X361500000Y-27010000D03*
X361500000Y-25990000D03*
%TD*%
D10*
%TO.C,R30*%
X349010000Y-2450001D03*
X347990002Y-2450001D03*
%TD*%
D27*
%TO.C,C1*%
X344500000Y-24500000D03*
X344500000Y-23810000D03*
%TD*%
D10*
%TO.C,R20*%
X344312500Y-8640000D03*
X345332500Y-8640000D03*
%TD*%
D21*
%TO.C,C9*%
X373734380Y-14652029D03*
X374424380Y-14652029D03*
%TD*%
D39*
%TO.C,J3*%
X337987500Y16255000D03*
D40*
X348462500Y14230000D03*
X348462500Y8260000D03*
D41*
X337762500Y4935000D03*
D42*
X347487500Y4760000D03*
X343787500Y4760000D03*
D43*
X337637500Y15045000D03*
D44*
X337637500Y13995000D03*
X337637500Y12895000D03*
X337637500Y11795000D03*
X337637500Y10695000D03*
X337637500Y9594999D03*
X337637500Y8495000D03*
X337637500Y7394999D03*
%TD*%
D45*
%TO.C,STARBOARD_RGB1*%
X371500000Y-2450000D03*
D46*
X371500000Y-3500000D03*
D45*
X371500000Y-4550000D03*
X368450000Y-4550000D03*
D46*
X368450000Y-3500000D03*
D45*
X368450000Y-2450000D03*
%TD*%
D12*
%TO.C,R2*%
X346500000Y-24490001D03*
X346500000Y-25509999D03*
%TD*%
D47*
%TO.C,D1*%
X341798854Y-25117491D03*
D48*
X341798854Y-23417491D03*
X339798854Y-23417491D03*
X339798854Y-25317491D03*
%TD*%
D49*
%TO.C,U1*%
X348048854Y-15385752D03*
X347129615Y-16304991D03*
X348968093Y-16304991D03*
X348048854Y-17224230D03*
D50*
X347562718Y-14051088D03*
X347209165Y-14404642D03*
X346855611Y-14758195D03*
X346502058Y-15111748D03*
X346148505Y-15465302D03*
X345794951Y-15818855D03*
D51*
X345794951Y-16791127D03*
X346148505Y-17144680D03*
X346502058Y-17498234D03*
X346855611Y-17851787D03*
X347209165Y-18205340D03*
X347562718Y-18558894D03*
D50*
X348534990Y-18558894D03*
X348888543Y-18205340D03*
X349242097Y-17851787D03*
X349595650Y-17498234D03*
X349949203Y-17144680D03*
X350302757Y-16791127D03*
D51*
X350302757Y-15818855D03*
X349949203Y-15465302D03*
X349595650Y-15111748D03*
X349242097Y-14758195D03*
X348888543Y-14404642D03*
X348534990Y-14051088D03*
%TD*%
D52*
%TO.C,U6*%
X341500000Y-14500000D03*
D53*
X342312499Y-14562500D03*
X342812500Y-14562500D03*
X343312500Y-14562500D03*
X343812501Y-14562500D03*
D52*
X344625000Y-14500000D03*
X344625000Y-14000000D03*
X344625000Y-13500000D03*
X344625000Y-13000000D03*
X344625000Y-12500000D03*
X344625000Y-12000000D03*
X344625000Y-11500000D03*
X344625000Y-11000000D03*
X344625000Y-10500000D03*
X344625000Y-10000000D03*
D53*
X343812501Y-9937500D03*
X343312500Y-9937500D03*
X342812500Y-9937500D03*
X342312499Y-9937500D03*
D52*
X341500000Y-10000000D03*
X341500000Y-10500000D03*
X341500000Y-11000000D03*
X341500000Y-11500000D03*
X341500000Y-12000000D03*
X341500000Y-12500000D03*
X341500000Y-13000000D03*
X341500000Y-13500000D03*
X341500000Y-14000000D03*
%TD*%
D17*
%TO.C,R4*%
X356298854Y-24377491D03*
X356298854Y-23357491D03*
%TD*%
D22*
%TO.C,R15*%
X369480002Y-25500000D03*
X370500000Y-25500000D03*
%TD*%
D54*
%TO.C,Q3*%
X355798854Y-14367491D03*
X353898854Y-14367491D03*
X354848854Y-16242492D03*
%TD*%
D55*
%TO.C,Q4*%
X368850785Y1500000D03*
X368850785Y3400000D03*
X366975785Y2450000D03*
%TD*%
D12*
%TO.C,R8*%
X358798854Y-19367491D03*
X358798854Y-20387489D03*
%TD*%
D11*
%TO.C,C5*%
X371500000Y-24835000D03*
X371500000Y-25525000D03*
%TD*%
D14*
%TO.C,Q2*%
X351848854Y-20242492D03*
X353748854Y-20242492D03*
X352798854Y-18367491D03*
%TD*%
D17*
%TO.C,R3*%
X355298854Y-23360000D03*
X355298854Y-24380000D03*
%TD*%
D56*
%TO.C,U7*%
X357442500Y15750000D03*
X357442500Y14480000D03*
X357442500Y13210000D03*
X357442500Y11940000D03*
X357442500Y10670000D03*
X357442500Y9400000D03*
X357442500Y8130000D03*
X352492500Y8130000D03*
X352492500Y9400000D03*
X352492500Y10670000D03*
X352492500Y11940000D03*
X352492500Y13210000D03*
X352492500Y14480000D03*
X352492500Y15750000D03*
%TD*%
D21*
%TO.C,C6*%
X374835000Y-23000000D03*
X375525000Y-23000000D03*
%TD*%
M02*
