%TF.GenerationSoftware,KiCad,Pcbnew,8.0.5*%
%TF.CreationDate,2024-10-25T00:02:52-07:00*%
%TF.ProjectId,Vanguard_new,56616e67-7561-4726-945f-6e65772e6b69,rev?*%
%TF.SameCoordinates,Original*%
%TF.FileFunction,Copper,L2,Inr*%
%TF.FilePolarity,Positive*%
%FSLAX46Y46*%
G04 Gerber Fmt 4.6, Leading zero omitted, Abs format (unit mm)*
G04 Created by KiCad (PCBNEW 8.0.5) date 2024-10-25 00:02:52*
%MOMM*%
%LPD*%
G01*
G04 APERTURE LIST*
%TA.AperFunction,ComponentPad*%
%ADD10O,1.700000X1.700000*%
%TD*%
%TA.AperFunction,ComponentPad*%
%ADD11R,1.700000X1.700000*%
%TD*%
%TA.AperFunction,ComponentPad*%
%ADD12C,1.000000*%
%TD*%
%TA.AperFunction,HeatsinkPad*%
%ADD13C,0.500000*%
%TD*%
%TA.AperFunction,ComponentPad*%
%ADD14C,2.000000*%
%TD*%
%TA.AperFunction,ComponentPad*%
%ADD15R,2.000000X2.000000*%
%TD*%
%TA.AperFunction,ViaPad*%
%ADD16C,0.600000*%
%TD*%
%TA.AperFunction,ViaPad*%
%ADD17C,0.500000*%
%TD*%
%TA.AperFunction,ViaPad*%
%ADD18C,0.300000*%
%TD*%
%TA.AperFunction,Conductor*%
%ADD19C,0.200000*%
%TD*%
G04 APERTURE END LIST*
D10*
%TO.N,GND*%
%TO.C,J6*%
X378459520Y-19590063D03*
D11*
%TO.N,VBUS_out*%
X378459520Y-17050063D03*
%TD*%
%TO.N,RST*%
%TO.C,J2*%
X346298854Y-27867491D03*
D10*
%TO.N,Net-(J2-Pin_2)*%
X346298854Y-30407491D03*
%TO.N,Net-(J2-Pin_3)*%
X343758854Y-27867491D03*
%TO.N,UPDI*%
X343758854Y-30407491D03*
%TO.N,GND*%
X341218854Y-27867491D03*
%TO.N,Net-(J2-Pin_6)*%
X341218854Y-30407491D03*
%TD*%
D12*
%TO.N,Net-(U6-XOUT32{slash}CLKSEL1)*%
%TO.C,Y1*%
X339162500Y-12340000D03*
%TO.N,Net-(U6-XIN32)*%
X339162500Y-14240000D03*
%TD*%
D10*
%TO.N,GND*%
%TO.C,J4*%
X378500000Y-2445001D03*
%TO.N,+5V*%
X378500000Y-4985000D03*
D11*
%TO.N,STAR_SERVO*%
X378500000Y-7525000D03*
%TD*%
D10*
%TO.N,GND*%
%TO.C,J5*%
X338000000Y-3460001D03*
%TO.N,+5V*%
X338000000Y-6000000D03*
D11*
%TO.N,PORT_SERVO*%
X338000000Y-8540000D03*
%TD*%
D13*
%TO.N,unconnected-(U8-PAD-Pad17)*%
%TO.C,U8*%
X372494733Y-19550000D03*
X374694733Y-19550000D03*
X373594733Y-19549999D03*
X372494734Y-18450000D03*
X373594733Y-18450000D03*
X374694732Y-18450000D03*
X373594733Y-17350001D03*
X372494733Y-17350000D03*
X374694733Y-17350000D03*
%TD*%
D14*
%TO.N,Net-(BZ1--)*%
%TO.C,BZ1*%
X370370785Y10000000D03*
D15*
%TO.N,+5V*%
X375370785Y10000000D03*
%TD*%
D16*
%TO.N,Net-(J2-Pin_6)*%
X350391145Y-19500000D03*
%TO.N,RST*%
X359110624Y-13610624D03*
%TO.N,VBUS_out*%
X338000000Y-26500000D03*
%TO.N,GND*%
X336550000Y-20500000D03*
X337638854Y-21197491D03*
D17*
%TO.N,VBUS_out*%
X338000000Y-22500000D03*
D16*
%TO.N,SDA*%
X358500000Y-12500000D03*
X357130294Y-10400000D03*
D18*
%TO.N,TX0*%
X361146447Y-7353553D03*
X359285176Y-11714824D03*
D17*
%TO.N,SDA*%
X356673997Y-9828427D03*
D16*
%TO.N,GND*%
X363000000Y-2500000D03*
D17*
%TO.N,SCL*%
X358987826Y-7999697D03*
D16*
X340375735Y-9713235D03*
%TO.N,SDA*%
X340500000Y-11000000D03*
D18*
%TO.N,UPDI*%
X354199123Y-7353553D03*
D16*
X357298854Y-13357492D03*
%TO.N,GND*%
X368000000Y-16000000D03*
X355992540Y-2343687D03*
X355741403Y-7233386D03*
X337000000Y-15500000D03*
X342742500Y-13160000D03*
%TO.N,RST*%
X346950000Y-11500000D03*
X343500000Y-13500000D03*
%TO.N,GND*%
X341162500Y-8062500D03*
D18*
%TO.N,RST*%
X353379891Y-9500000D03*
D16*
X357009999Y-12000000D03*
%TO.N,Net-(D2-K)*%
X355990001Y-12000000D03*
X353898854Y-14367491D03*
D18*
%TO.N,RX0*%
X361500000Y-7000000D03*
D16*
X357298854Y-16377491D03*
%TO.N,PORT_SERVO*%
X360000000Y-4900000D03*
D18*
%TO.N,STAR_SERVO*%
X354000000Y-4976967D03*
D17*
%TO.N,STAR_RED*%
X363573514Y-8100000D03*
X364825735Y-5825735D03*
D18*
%TO.N,RST*%
X357406371Y-14269973D03*
X361860624Y-10860624D03*
%TO.N,PORT_GREEN*%
X353492016Y-3234656D03*
X350500000Y-1500000D03*
D16*
%TO.N,GND*%
X373500000Y-3500000D03*
X341500000Y-3500000D03*
%TO.N,+5V*%
X373500000Y-12500000D03*
X350500000Y-7000000D03*
%TO.N,D5*%
X357442500Y10670000D03*
X360169534Y9500000D03*
%TO.N,D4*%
X357500000Y12000000D03*
X360000000Y11500000D03*
D18*
%TO.N,D7*%
X357442500Y14480000D03*
D16*
X355815687Y1315687D03*
%TO.N,CD*%
X355250000Y750000D03*
X352000000Y4000000D03*
%TO.N,GND*%
X340000000Y11340000D03*
X351000000Y6000000D03*
%TO.N,RST*%
X360870000Y-19905000D03*
X375589999Y-22982042D03*
%TO.N,PA3{slash}SS*%
X366500000Y-20000000D03*
D17*
%TO.N,PA0{slash}MISO*%
X357192580Y-7844051D03*
D16*
X366500000Y-18500000D03*
D17*
%TO.N,PA2{slash}SCK*%
X354000000Y-11500000D03*
D16*
X362500000Y-16500000D03*
%TO.N,GND*%
X350500000Y-13763449D03*
D17*
%TO.N,Net-(D1-I{slash}O1)*%
X352198854Y-13955102D03*
D16*
%TO.N,GND*%
X367000000Y-26109998D03*
X373372273Y-15500000D03*
X370500000Y-18574670D03*
D17*
X373269733Y-21144543D03*
D16*
X376907807Y-19601777D03*
D17*
%TO.N,Net-(J2-Pin_3)*%
X351150173Y-16449994D03*
D16*
X346000000Y-22000000D03*
%TO.N,GND*%
X343987500Y-24987500D03*
X339000000Y-27867491D03*
%TO.N,VBUS_out*%
X362500000Y-29500000D03*
X345000000Y-23000000D03*
D17*
%TO.N,TX0*%
X352798854Y-12367491D03*
D16*
X352798854Y-16867491D03*
D17*
%TO.N,Net-(D1-I{slash}O2)*%
X352000000Y-14729994D03*
D16*
X339798854Y-15867491D03*
%TO.N,VBUS_out*%
X337798854Y-23367491D03*
X339798854Y-25317491D03*
D18*
%TO.N,Net-(D2-K)*%
X351848854Y-17500000D03*
X356478854Y-25367491D03*
%TO.N,Net-(D3-K)*%
X353748854Y-20242492D03*
X354250000Y-23360001D03*
D16*
%TO.N,RST*%
X355298854Y-22467491D03*
X355348854Y-20242491D03*
X346798854Y-26367491D03*
D17*
%TO.N,Net-(J2-Pin_2)*%
X351423119Y-15598654D03*
D16*
X347791416Y-21360053D03*
%TO.N,UPDI*%
X356298854Y-18367491D03*
X344798854Y-29367491D03*
D17*
%TO.N,Net-(J2-Pin_6)*%
X350391145Y-16702738D03*
D16*
X342298854Y-29367491D03*
%TO.N,Net-(D1-I{slash}O1)*%
X343298854Y-23367491D03*
%TO.N,GND*%
X366975785Y2450000D03*
X375500000Y-25500000D03*
X371000000Y-24000000D03*
X361500000Y-23500000D03*
X367500000Y-29500000D03*
%TO.N,Net-(U5-FB)*%
X363859999Y-28037252D03*
X369500000Y-26500000D03*
D17*
%TO.N,PA3{slash}SS*%
X355000000Y-11000000D03*
D16*
%TO.N,GND*%
X346500000Y-13500000D03*
D18*
X336500000Y-27500000D03*
%TD*%
D19*
%TO.N,Net-(J2-Pin_6)*%
X350391145Y-19500000D02*
X350391145Y-16702738D01*
X350391145Y-19608854D02*
X350391145Y-19500000D01*
%TO.N,STAR_SERVO*%
X376350735Y-5375735D02*
X378500000Y-7525000D01*
X354500000Y-5500000D02*
X364515073Y-5500000D01*
X354500000Y-5476967D02*
X354500000Y-5500000D01*
X364515073Y-5500000D02*
X364639338Y-5375735D01*
X354000000Y-4976967D02*
X354500000Y-5476967D01*
X364639338Y-5375735D02*
X376350735Y-5375735D01*
%TO.N,PORT_SERVO*%
X342540000Y-4000000D02*
X359100000Y-4000000D01*
X338000000Y-8540000D02*
X342540000Y-4000000D01*
X359100000Y-4000000D02*
X360000000Y-4900000D01*
%TO.N,SDA*%
X341000000Y-10500000D02*
X340500000Y-11000000D01*
X356673997Y-9828427D02*
X356002424Y-10500000D01*
X356002424Y-10500000D02*
X341000000Y-10500000D01*
%TO.N,SCL*%
X358394051Y-7394051D02*
X358999697Y-7999697D01*
X356566848Y-7833386D02*
X357006183Y-7394051D01*
X354197976Y-7833386D02*
X356566848Y-7833386D01*
X352318127Y-9713235D02*
X354197976Y-7833386D01*
X358999697Y-7999697D02*
X358987826Y-7999697D01*
X340375735Y-9713235D02*
X352318127Y-9713235D01*
X357006183Y-7394051D02*
X358394051Y-7394051D01*
%TO.N,RST*%
X346500000Y-11500000D02*
X344500000Y-13500000D01*
X346950000Y-11500000D02*
X346500000Y-11500000D01*
X344500000Y-13500000D02*
X343500000Y-13500000D01*
%TO.N,STAR_RED*%
X365000000Y-6000000D02*
X365000000Y-6673514D01*
X364825735Y-5825735D02*
X365000000Y-6000000D01*
X365000000Y-6673514D02*
X363573514Y-8100000D01*
%TO.N,PORT_GREEN*%
X351757360Y-1500000D02*
X350500000Y-1500000D01*
X353492016Y-3234656D02*
X351757360Y-1500000D01*
%TO.N,D4*%
X359500000Y12000000D02*
X357500000Y12000000D01*
X360000000Y11500000D02*
X359500000Y12000000D01*
%TO.N,D5*%
X358612500Y9500000D02*
X357442500Y10670000D01*
X360169534Y9500000D02*
X358612500Y9500000D01*
%TO.N,D7*%
X355815687Y13815687D02*
X356500000Y14500000D01*
X355815687Y1315687D02*
X355815687Y13815687D01*
X357422500Y14500000D02*
X357442500Y14480000D01*
X356500000Y14500000D02*
X357422500Y14500000D01*
%TO.N,CD*%
X352000000Y4000000D02*
X355250000Y750000D01*
%TO.N,RST*%
X360905000Y-19905000D02*
X360870000Y-19905000D01*
X363982042Y-22982042D02*
X360905000Y-19905000D01*
X375589999Y-22982042D02*
X363982042Y-22982042D01*
%TO.N,PA3{slash}SS*%
X357848529Y-11000000D02*
X355000000Y-11000000D01*
X366500000Y-19651471D02*
X357848529Y-11000000D01*
X366500000Y-20000000D02*
X366500000Y-19651471D01*
%TO.N,PA0{slash}MISO*%
X366500000Y-17000000D02*
X366500000Y-18500000D01*
X357344051Y-7844051D02*
X366500000Y-17000000D01*
X357192580Y-7844051D02*
X357344051Y-7844051D01*
%TO.N,PA2{slash}SCK*%
X359000000Y-16500000D02*
X354000000Y-11500000D01*
X362500000Y-16500000D02*
X359000000Y-16500000D01*
%TO.N,Net-(D1-I{slash}O1)*%
X347798854Y-18867491D02*
X343298854Y-23367491D01*
X350000000Y-15000000D02*
X347798854Y-17201146D01*
X351400000Y-14481465D02*
X351400000Y-14753956D01*
X351400000Y-14753956D02*
X351153956Y-15000000D01*
X351153956Y-15000000D02*
X350000000Y-15000000D01*
X351926363Y-13955102D02*
X351400000Y-14481465D01*
X352198854Y-13955102D02*
X351926363Y-13955102D01*
X347798854Y-17201146D02*
X347798854Y-18867491D01*
%TO.N,VBUS_out*%
X339748854Y-25317491D02*
X337798854Y-23367491D01*
X339798854Y-25317491D02*
X339748854Y-25317491D01*
%TO.N,TX0*%
X352798854Y-16867491D02*
X352798854Y-12367491D01*
%TO.N,Net-(J2-Pin_2)*%
X349791145Y-19360324D02*
X347791416Y-21360053D01*
X349791145Y-16454209D02*
X349791145Y-19360324D01*
X350646700Y-15598654D02*
X349791145Y-16454209D01*
X351423119Y-15598654D02*
X350646700Y-15598654D01*
%TO.N,RST*%
X355298854Y-22467491D02*
X355298854Y-21367491D01*
X355298854Y-21367491D02*
X354147383Y-21367491D01*
X355298854Y-20292491D02*
X355298854Y-21367491D01*
X355348854Y-20242491D02*
X355298854Y-20292491D01*
X354147383Y-21367491D02*
X349147383Y-26367491D01*
X349147383Y-26367491D02*
X346798854Y-26367491D01*
%TO.N,UPDI*%
X345148854Y-26717491D02*
X353498854Y-18367491D01*
X353498854Y-18367491D02*
X356298854Y-18367491D01*
X345148854Y-28517491D02*
X345148854Y-26717491D01*
X344798854Y-28867491D02*
X345148854Y-28517491D01*
X344798854Y-29367491D02*
X344798854Y-28867491D01*
%TO.N,Net-(J2-Pin_6)*%
X342608854Y-27391145D02*
X350391145Y-19608854D01*
X342608854Y-29057491D02*
X342608854Y-27391145D01*
X342298854Y-29367491D02*
X342608854Y-29057491D01*
%TO.N,Net-(U5-FB)*%
X363859999Y-28037252D02*
X367962748Y-28037252D01*
X367962748Y-28037252D02*
X369500000Y-26500000D01*
%TD*%
%TA.AperFunction,Conductor*%
%TO.N,Net-(J2-Pin_2)*%
G36*
X351326132Y-15371712D02*
G01*
X351331604Y-15377615D01*
X351422228Y-15594137D01*
X351422261Y-15603091D01*
X351422228Y-15603171D01*
X351331604Y-15819692D01*
X351325248Y-15826001D01*
X351317206Y-15826306D01*
X350931214Y-15701276D01*
X350924399Y-15695466D01*
X350923119Y-15690145D01*
X350923119Y-15507162D01*
X350926546Y-15498889D01*
X350931210Y-15496032D01*
X351317207Y-15371001D01*
X351326132Y-15371712D01*
G37*
%TD.AperFunction*%
%TD*%
M02*
