%TF.GenerationSoftware,KiCad,Pcbnew,8.0.4*%
%TF.CreationDate,2024-11-08T09:04:54-08:00*%
%TF.ProjectId,Vanguard_new,56616e67-7561-4726-945f-6e65772e6b69,rev?*%
%TF.SameCoordinates,Original*%
%TF.FileFunction,Copper,L3,Inr*%
%TF.FilePolarity,Positive*%
%FSLAX46Y46*%
G04 Gerber Fmt 4.6, Leading zero omitted, Abs format (unit mm)*
G04 Created by KiCad (PCBNEW 8.0.4) date 2024-11-08 09:04:54*
%MOMM*%
%LPD*%
G01*
G04 APERTURE LIST*
%TA.AperFunction,ComponentPad*%
%ADD10C,0.650000*%
%TD*%
%TA.AperFunction,ComponentPad*%
%ADD11O,1.400000X0.800000*%
%TD*%
%TA.AperFunction,ComponentPad*%
%ADD12R,1.700000X1.700000*%
%TD*%
%TA.AperFunction,ComponentPad*%
%ADD13O,1.700000X1.700000*%
%TD*%
%TA.AperFunction,ComponentPad*%
%ADD14C,1.000000*%
%TD*%
%TA.AperFunction,HeatsinkPad*%
%ADD15C,0.500000*%
%TD*%
%TA.AperFunction,ComponentPad*%
%ADD16R,2.000000X2.000000*%
%TD*%
%TA.AperFunction,ComponentPad*%
%ADD17C,2.000000*%
%TD*%
%TA.AperFunction,ViaPad*%
%ADD18C,0.600000*%
%TD*%
G04 APERTURE END LIST*
D10*
%TO.N,GND*%
%TO.C,J1*%
X150940000Y-107717500D03*
%TO.N,N/C*%
X150240000Y-107317500D03*
X150240000Y-106517500D03*
%TO.N,Net-(D1-GND)*%
X150940000Y-106117500D03*
%TO.N,Net-(J1-CC2)*%
X150240000Y-105717500D03*
%TO.N,Net-(D1-I{slash}O1)*%
X150940000Y-105317500D03*
%TO.N,Net-(D1-I{slash}O2)*%
X150940000Y-104517500D03*
%TO.N,unconnected-(J1-SBU2-PadB8)*%
X150240000Y-104117500D03*
%TO.N,Net-(D1-GND)*%
X150940000Y-103717500D03*
%TO.N,N/C*%
X150240000Y-103317500D03*
X150240000Y-102517500D03*
%TO.N,GND*%
X150940000Y-102117500D03*
D11*
X144390000Y-100427500D03*
X150340000Y-100787500D03*
X150340000Y-109047500D03*
X144390000Y-109407500D03*
%TD*%
D12*
%TO.N,+3.3V*%
%TO.C,J2*%
X159365000Y-97962500D03*
D13*
%TO.N,Net-(J2-Pin_2)*%
X159365000Y-95422500D03*
%TO.N,Net-(J2-Pin_3)*%
X161905000Y-97962500D03*
%TO.N,UPDI*%
X161905000Y-95422500D03*
%TO.N,GND*%
X164445000Y-97962500D03*
%TO.N,Net-(J2-Pin_6)*%
X164445000Y-95422500D03*
%TD*%
D12*
%TO.N,EJEC_SERVO*%
%TO.C,J7*%
X153460000Y-126440000D03*
D13*
%TO.N,+5V*%
X153460000Y-128980000D03*
%TO.N,GND*%
X153460000Y-131520000D03*
%TD*%
D14*
%TO.N,Net-(U6-XOUT32{slash}CLKSEL1)*%
%TO.C,Y1*%
X185732500Y-123947500D03*
%TO.N,Net-(U6-XIN32)*%
X183832500Y-123947500D03*
%TD*%
D12*
%TO.N,Net-(D1-GND)*%
%TO.C,J6*%
X151037500Y-119480000D03*
D13*
%TO.N,GND*%
X151037500Y-122020000D03*
%TD*%
D12*
%TO.N,PORT_SERVO*%
%TO.C,J5*%
X149530000Y-131980000D03*
D13*
%TO.N,+5V*%
X146990000Y-131980000D03*
%TO.N,GND*%
X144450000Y-131980000D03*
%TD*%
D15*
%TO.N,Net-(D1-GND)*%
%TO.C,U8*%
X156262500Y-122030000D03*
X156262500Y-121090000D03*
X156262500Y-120150000D03*
X155112500Y-122030000D03*
X155112500Y-121090000D03*
X155112500Y-120150000D03*
%TD*%
D12*
%TO.N,STAR_SERVO*%
%TO.C,J4*%
X149500000Y-125730000D03*
D13*
%TO.N,+5V*%
X146960000Y-125730000D03*
%TO.N,GND*%
X144420000Y-125730000D03*
%TD*%
D16*
%TO.N,+5V*%
%TO.C,BZ1*%
X176010785Y-126990000D03*
D17*
%TO.N,Net-(BZ1--)*%
X171010785Y-126990000D03*
%TD*%
D18*
%TO.N,GND*%
X149170000Y-107990000D03*
X154770000Y-104987500D03*
X184110000Y-130850000D03*
X149732964Y-116431078D03*
X167676782Y-115045311D03*
X190910000Y-98610000D03*
X153740000Y-114650000D03*
X145700000Y-100427500D03*
X145000000Y-98200000D03*
X185640000Y-127870000D03*
X151500000Y-111000000D03*
X190100000Y-124800000D03*
X180009999Y-111111471D03*
X176220000Y-98310000D03*
X151460000Y-116550000D03*
X157031985Y-119228015D03*
X157582113Y-109482115D03*
X157890000Y-118315000D03*
X144380000Y-127510000D03*
X182610000Y-100634315D03*
X159940000Y-121110000D03*
X146135001Y-118832500D03*
X152395221Y-109453150D03*
X144420000Y-130580000D03*
X153480000Y-123040000D03*
X163350000Y-126410000D03*
X163540000Y-114643918D03*
X183789265Y-121916765D03*
X143480000Y-114140000D03*
X157310000Y-104307531D03*
X182160000Y-126840000D03*
X187800000Y-117700000D03*
X165300000Y-96817500D03*
X149150000Y-101820000D03*
X147190000Y-112132500D03*
X186324963Y-122365037D03*
X145920000Y-114300000D03*
X153787500Y-119109057D03*
X145870000Y-109407500D03*
X147542883Y-119508658D03*
X155160000Y-131970000D03*
X157710735Y-123380735D03*
X169808272Y-121861725D03*
X158500000Y-129500000D03*
%TO.N,Net-(D1-GND)*%
X153100002Y-102110000D03*
X154879057Y-118509057D03*
X153441985Y-106608015D03*
X155510000Y-117115000D03*
%TO.N,+3.3V*%
X179930000Y-125980000D03*
X160870000Y-100400000D03*
X149550000Y-117840000D03*
X165885735Y-110775735D03*
X172180000Y-100540000D03*
X164650735Y-113670735D03*
X166668883Y-117158883D03*
X164882501Y-101597500D03*
X179710000Y-123750000D03*
X178040000Y-95300000D03*
X145800000Y-116570000D03*
X181142500Y-104030000D03*
X182830000Y-108130000D03*
%TO.N,Net-(D1-I{slash}O1)*%
X155742260Y-105693922D03*
X153890000Y-101937500D03*
%TO.N,Net-(D1-I{slash}O2)*%
X152690000Y-100457500D03*
X156710000Y-105297500D03*
X157140000Y-106497500D03*
%TO.N,UPDI*%
X163013225Y-111672565D03*
%TO.N,RX0*%
X165909265Y-114109265D03*
X169000000Y-103600000D03*
%TO.N,Net-(U9-EN)*%
X149730000Y-114077500D03*
X152460000Y-114980000D03*
%TO.N,SCL*%
X166760933Y-121519067D03*
X166062403Y-122517597D03*
%TO.N,EJEC_SERVO*%
X155672720Y-126192722D03*
X165495735Y-112480000D03*
%TO.N,PA3{slash}SS*%
X172920000Y-97390000D03*
X161848917Y-109013024D03*
X168057868Y-107123603D03*
X173419835Y-100242230D03*
%TO.N,PA1{slash}MOSI*%
X168315735Y-108345735D03*
X176545000Y-100650000D03*
X163310000Y-109530000D03*
X174945000Y-100720000D03*
%TO.N,D5*%
X185291986Y-102905558D03*
X172870000Y-120130000D03*
%TO.N,D6*%
X174910000Y-120490000D03*
X187040000Y-103020000D03*
%TO.N,BUZZER*%
X167287403Y-123742597D03*
X170610000Y-121640000D03*
%TO.N,PA0{slash}MISO*%
X164150000Y-109620000D03*
X169269265Y-109089265D03*
%TO.N,D4*%
X186220735Y-102990735D03*
X174000000Y-120380000D03*
%TO.N,D7*%
X187880000Y-102970000D03*
X175610000Y-120970000D03*
%TO.N,PA2{slash}SCK*%
X162712970Y-108997500D03*
X176583518Y-99762953D03*
X174270388Y-100290000D03*
X167350000Y-107745735D03*
%TO.N,PORT_SERVO*%
X168015198Y-121924802D03*
%TO.N,STAR_BLUE*%
X162560000Y-116160000D03*
X150680000Y-97340000D03*
%TO.N,STAR_SERVO*%
X167460000Y-113980000D03*
%TO.N,STAR_GREEN*%
X150700000Y-94920000D03*
X158340000Y-108542943D03*
X165931498Y-119678990D03*
X158850000Y-109730000D03*
%TO.N,PORT_GREEN*%
X182597680Y-97962798D03*
X178753554Y-101464973D03*
%TO.N,STAR_RED*%
X150680000Y-96210000D03*
X165740000Y-118800000D03*
%TO.N,PORT_BLUE*%
X181094999Y-97768421D03*
X179871642Y-100041642D03*
%TO.N,+5V*%
X160790000Y-125980000D03*
X167887403Y-125650000D03*
%TO.N,Net-(J1-CC2)*%
X148340000Y-110867500D03*
%TO.N,/TX_UPDI*%
X165460000Y-105980000D03*
%TD*%
%TA.AperFunction,Conductor*%
%TO.N,GND*%
G36*
X191702539Y-93770185D02*
G01*
X191748294Y-93822989D01*
X191759500Y-93874500D01*
X191759500Y-133865500D01*
X191739815Y-133932539D01*
X191687011Y-133978294D01*
X191635500Y-133989500D01*
X142884500Y-133989500D01*
X142817461Y-133969815D01*
X142771706Y-133917011D01*
X142760500Y-133865500D01*
X142760500Y-131729999D01*
X143119364Y-131729999D01*
X143119364Y-131730000D01*
X144016988Y-131730000D01*
X143984075Y-131787007D01*
X143950000Y-131914174D01*
X143950000Y-132045826D01*
X143984075Y-132172993D01*
X144016988Y-132230000D01*
X143119364Y-132230000D01*
X143176567Y-132443486D01*
X143176570Y-132443492D01*
X143276399Y-132657578D01*
X143411894Y-132851082D01*
X143578917Y-133018105D01*
X143772421Y-133153600D01*
X143986507Y-133253429D01*
X143986516Y-133253433D01*
X144200000Y-133310634D01*
X144200000Y-132413012D01*
X144257007Y-132445925D01*
X144384174Y-132480000D01*
X144515826Y-132480000D01*
X144642993Y-132445925D01*
X144700000Y-132413012D01*
X144700000Y-133310633D01*
X144913483Y-133253433D01*
X144913492Y-133253429D01*
X145127578Y-133153600D01*
X145321082Y-133018105D01*
X145488105Y-132851082D01*
X145623600Y-132657578D01*
X145723429Y-132443492D01*
X145723433Y-132443483D01*
X145756158Y-132321350D01*
X145792522Y-132261690D01*
X145855369Y-132231160D01*
X145924745Y-132239454D01*
X145978623Y-132283939D01*
X145994593Y-132317447D01*
X146014768Y-132383954D01*
X146112315Y-132566450D01*
X146112317Y-132566452D01*
X146243589Y-132726410D01*
X146325253Y-132793429D01*
X146403550Y-132857685D01*
X146586046Y-132955232D01*
X146784066Y-133015300D01*
X146784065Y-133015300D01*
X146802529Y-133017118D01*
X146990000Y-133035583D01*
X147195934Y-133015300D01*
X147393954Y-132955232D01*
X147576450Y-132857685D01*
X147736410Y-132726410D01*
X147867685Y-132566450D01*
X147965232Y-132383954D01*
X148025300Y-132185934D01*
X148045583Y-131980000D01*
X148025300Y-131774066D01*
X147965232Y-131576046D01*
X147867685Y-131393550D01*
X147766290Y-131269999D01*
X147736410Y-131233589D01*
X147586121Y-131110252D01*
X147586115Y-131110247D01*
X148479500Y-131110247D01*
X148479500Y-132849752D01*
X148491131Y-132908229D01*
X148491132Y-132908230D01*
X148535447Y-132974552D01*
X148601769Y-133018867D01*
X148601770Y-133018868D01*
X148660247Y-133030499D01*
X148660250Y-133030500D01*
X148660252Y-133030500D01*
X150399750Y-133030500D01*
X150399751Y-133030499D01*
X150414568Y-133027552D01*
X150458229Y-133018868D01*
X150458229Y-133018867D01*
X150458231Y-133018867D01*
X150524552Y-132974552D01*
X150568867Y-132908231D01*
X150568867Y-132908229D01*
X150568868Y-132908229D01*
X150578922Y-132857682D01*
X150580500Y-132849748D01*
X150580500Y-131269999D01*
X152129364Y-131269999D01*
X152129364Y-131270000D01*
X153026988Y-131270000D01*
X152994075Y-131327007D01*
X152960000Y-131454174D01*
X152960000Y-131585826D01*
X152994075Y-131712993D01*
X153026988Y-131770000D01*
X152129364Y-131770000D01*
X152186567Y-131983486D01*
X152186570Y-131983492D01*
X152286399Y-132197578D01*
X152421894Y-132391082D01*
X152588917Y-132558105D01*
X152782421Y-132693600D01*
X152996507Y-132793429D01*
X152996516Y-132793433D01*
X153210000Y-132850634D01*
X153210000Y-131953012D01*
X153267007Y-131985925D01*
X153394174Y-132020000D01*
X153525826Y-132020000D01*
X153652993Y-131985925D01*
X153710000Y-131953012D01*
X153710000Y-132850633D01*
X153923483Y-132793433D01*
X153923492Y-132793429D01*
X154137578Y-132693600D01*
X154331082Y-132558105D01*
X154498105Y-132391082D01*
X154633600Y-132197578D01*
X154733429Y-131983492D01*
X154733432Y-131983486D01*
X154755380Y-131901577D01*
X164249500Y-131901577D01*
X164249500Y-132098422D01*
X164280290Y-132292826D01*
X164341117Y-132480029D01*
X164380899Y-132558105D01*
X164430476Y-132655405D01*
X164546172Y-132814646D01*
X164685354Y-132953828D01*
X164844595Y-133069524D01*
X164927455Y-133111743D01*
X165019970Y-133158882D01*
X165019972Y-133158882D01*
X165019975Y-133158884D01*
X165120317Y-133191487D01*
X165207173Y-133219709D01*
X165401578Y-133250500D01*
X165401583Y-133250500D01*
X165598422Y-133250500D01*
X165792826Y-133219709D01*
X165980025Y-133158884D01*
X166155405Y-133069524D01*
X166314646Y-132953828D01*
X166453828Y-132814646D01*
X166569524Y-132655405D01*
X166658884Y-132480025D01*
X166719709Y-132292826D01*
X166721117Y-132283939D01*
X166750500Y-132098422D01*
X166750500Y-131901577D01*
X179749500Y-131901577D01*
X179749500Y-132098422D01*
X179780290Y-132292826D01*
X179841117Y-132480029D01*
X179880899Y-132558105D01*
X179930476Y-132655405D01*
X180046172Y-132814646D01*
X180185354Y-132953828D01*
X180344595Y-133069524D01*
X180427455Y-133111743D01*
X180519970Y-133158882D01*
X180519972Y-133158882D01*
X180519975Y-133158884D01*
X180620317Y-133191487D01*
X180707173Y-133219709D01*
X180901578Y-133250500D01*
X180901583Y-133250500D01*
X181098422Y-133250500D01*
X181292826Y-133219709D01*
X181480025Y-133158884D01*
X181655405Y-133069524D01*
X181814646Y-132953828D01*
X181953828Y-132814646D01*
X182069524Y-132655405D01*
X182158884Y-132480025D01*
X182219709Y-132292826D01*
X182221117Y-132283939D01*
X182250500Y-132098422D01*
X182250500Y-131901577D01*
X182219709Y-131707173D01*
X182158882Y-131519970D01*
X182111743Y-131427455D01*
X182069524Y-131344595D01*
X181953828Y-131185354D01*
X181814646Y-131046172D01*
X181655405Y-130930476D01*
X181480029Y-130841117D01*
X181292826Y-130780290D01*
X181098422Y-130749500D01*
X181098417Y-130749500D01*
X180901583Y-130749500D01*
X180901578Y-130749500D01*
X180707173Y-130780290D01*
X180519970Y-130841117D01*
X180344594Y-130930476D01*
X180325017Y-130944700D01*
X180185354Y-131046172D01*
X180185352Y-131046174D01*
X180185351Y-131046174D01*
X180046174Y-131185351D01*
X180046174Y-131185352D01*
X180046172Y-131185354D01*
X180026091Y-131212993D01*
X179930476Y-131344594D01*
X179841117Y-131519970D01*
X179780290Y-131707173D01*
X179749500Y-131901577D01*
X166750500Y-131901577D01*
X166719709Y-131707173D01*
X166658882Y-131519970D01*
X166611743Y-131427455D01*
X166569524Y-131344595D01*
X166453828Y-131185354D01*
X166314646Y-131046172D01*
X166155405Y-130930476D01*
X165980029Y-130841117D01*
X165792826Y-130780290D01*
X165598422Y-130749500D01*
X165598417Y-130749500D01*
X165401583Y-130749500D01*
X165401578Y-130749500D01*
X165207173Y-130780290D01*
X165019970Y-130841117D01*
X164844594Y-130930476D01*
X164825017Y-130944700D01*
X164685354Y-131046172D01*
X164685352Y-131046174D01*
X164685351Y-131046174D01*
X164546174Y-131185351D01*
X164546174Y-131185352D01*
X164546172Y-131185354D01*
X164526091Y-131212993D01*
X164430476Y-131344594D01*
X164341117Y-131519970D01*
X164280290Y-131707173D01*
X164249500Y-131901577D01*
X154755380Y-131901577D01*
X154790636Y-131770000D01*
X153893012Y-131770000D01*
X153925925Y-131712993D01*
X153960000Y-131585826D01*
X153960000Y-131454174D01*
X153925925Y-131327007D01*
X153893012Y-131270000D01*
X154790636Y-131270000D01*
X154790635Y-131269999D01*
X154733432Y-131056513D01*
X154733429Y-131056507D01*
X154633600Y-130842422D01*
X154633599Y-130842420D01*
X154498113Y-130648926D01*
X154498108Y-130648920D01*
X154331082Y-130481894D01*
X154137578Y-130346399D01*
X153923492Y-130246570D01*
X153923486Y-130246567D01*
X153801349Y-130213841D01*
X153741689Y-130177476D01*
X153711160Y-130114629D01*
X153719455Y-130045253D01*
X153763940Y-129991375D01*
X153797444Y-129975407D01*
X153863954Y-129955232D01*
X154046450Y-129857685D01*
X154206410Y-129726410D01*
X154337685Y-129566450D01*
X154435232Y-129383954D01*
X154495300Y-129185934D01*
X154515583Y-128980000D01*
X154495300Y-128774066D01*
X154435232Y-128576046D01*
X154337685Y-128393550D01*
X154285702Y-128330209D01*
X154206410Y-128233589D01*
X154046452Y-128102317D01*
X154046453Y-128102317D01*
X154046450Y-128102315D01*
X153863954Y-128004768D01*
X153665934Y-127944700D01*
X153665932Y-127944699D01*
X153665934Y-127944699D01*
X153460000Y-127924417D01*
X153254067Y-127944699D01*
X153056043Y-128004769D01*
X152945898Y-128063643D01*
X152873550Y-128102315D01*
X152873548Y-128102316D01*
X152873547Y-128102317D01*
X152713589Y-128233589D01*
X152582317Y-128393547D01*
X152484769Y-128576043D01*
X152424699Y-128774067D01*
X152404417Y-128980000D01*
X152424699Y-129185932D01*
X152424700Y-129185934D01*
X152484768Y-129383954D01*
X152582315Y-129566450D01*
X152582317Y-129566452D01*
X152713589Y-129726410D01*
X152810209Y-129805702D01*
X152873550Y-129857685D01*
X153056046Y-129955232D01*
X153122551Y-129975405D01*
X153180989Y-130013702D01*
X153209446Y-130077514D01*
X153198887Y-130146581D01*
X153152663Y-130198975D01*
X153118650Y-130213841D01*
X152996514Y-130246567D01*
X152996507Y-130246570D01*
X152782422Y-130346399D01*
X152782420Y-130346400D01*
X152588926Y-130481886D01*
X152588920Y-130481891D01*
X152421891Y-130648920D01*
X152421886Y-130648926D01*
X152286400Y-130842420D01*
X152286399Y-130842422D01*
X152186570Y-131056507D01*
X152186567Y-131056513D01*
X152129364Y-131269999D01*
X150580500Y-131269999D01*
X150580500Y-131110252D01*
X150580500Y-131110249D01*
X150580499Y-131110247D01*
X150568868Y-131051770D01*
X150568867Y-131051769D01*
X150524552Y-130985447D01*
X150458230Y-130941132D01*
X150458229Y-130941131D01*
X150399752Y-130929500D01*
X150399748Y-130929500D01*
X148660252Y-130929500D01*
X148660247Y-130929500D01*
X148601770Y-130941131D01*
X148601769Y-130941132D01*
X148535447Y-130985447D01*
X148491132Y-131051769D01*
X148491131Y-131051770D01*
X148479500Y-131110247D01*
X147586115Y-131110247D01*
X147576450Y-131102315D01*
X147393954Y-131004768D01*
X147195934Y-130944700D01*
X147195932Y-130944699D01*
X147195934Y-130944699D01*
X146990000Y-130924417D01*
X146784067Y-130944699D01*
X146586043Y-131004769D01*
X146498114Y-131051769D01*
X146403550Y-131102315D01*
X146403548Y-131102316D01*
X146403547Y-131102317D01*
X146243589Y-131233589D01*
X146112317Y-131393547D01*
X146014767Y-131576046D01*
X145994593Y-131642552D01*
X145956296Y-131700990D01*
X145892483Y-131729447D01*
X145823416Y-131718886D01*
X145771023Y-131672661D01*
X145756158Y-131638649D01*
X145723433Y-131516516D01*
X145723429Y-131516507D01*
X145623600Y-131302422D01*
X145623599Y-131302420D01*
X145488113Y-131108926D01*
X145488108Y-131108920D01*
X145321082Y-130941894D01*
X145127578Y-130806399D01*
X144913492Y-130706570D01*
X144913486Y-130706567D01*
X144700000Y-130649364D01*
X144700000Y-131546988D01*
X144642993Y-131514075D01*
X144515826Y-131480000D01*
X144384174Y-131480000D01*
X144257007Y-131514075D01*
X144200000Y-131546988D01*
X144200000Y-130649364D01*
X144199999Y-130649364D01*
X143986513Y-130706567D01*
X143986507Y-130706570D01*
X143772422Y-130806399D01*
X143772420Y-130806400D01*
X143578926Y-130941886D01*
X143578920Y-130941891D01*
X143411891Y-131108920D01*
X143411886Y-131108926D01*
X143276400Y-131302420D01*
X143276399Y-131302422D01*
X143176570Y-131516507D01*
X143176567Y-131516513D01*
X143119364Y-131729999D01*
X142760500Y-131729999D01*
X142760500Y-125479999D01*
X143089364Y-125479999D01*
X143089364Y-125480000D01*
X143986988Y-125480000D01*
X143954075Y-125537007D01*
X143920000Y-125664174D01*
X143920000Y-125795826D01*
X143954075Y-125922993D01*
X143986988Y-125980000D01*
X143089364Y-125980000D01*
X143146567Y-126193486D01*
X143146570Y-126193492D01*
X143246399Y-126407578D01*
X143381894Y-126601082D01*
X143548917Y-126768105D01*
X143742421Y-126903600D01*
X143956507Y-127003429D01*
X143956516Y-127003433D01*
X144170000Y-127060634D01*
X144170000Y-126163012D01*
X144227007Y-126195925D01*
X144354174Y-126230000D01*
X144485826Y-126230000D01*
X144612993Y-126195925D01*
X144670000Y-126163012D01*
X144670000Y-127060633D01*
X144883483Y-127003433D01*
X144883492Y-127003429D01*
X145097578Y-126903600D01*
X145291082Y-126768105D01*
X145458105Y-126601082D01*
X145593600Y-126407578D01*
X145693429Y-126193492D01*
X145693433Y-126193483D01*
X145726158Y-126071350D01*
X145762522Y-126011690D01*
X145825369Y-125981160D01*
X145894745Y-125989454D01*
X145948623Y-126033939D01*
X145964593Y-126067447D01*
X145984768Y-126133954D01*
X146082315Y-126316450D01*
X146114205Y-126355308D01*
X146213589Y-126476410D01*
X146308696Y-126554461D01*
X146373550Y-126607685D01*
X146556046Y-126705232D01*
X146754066Y-126765300D01*
X146754065Y-126765300D01*
X146772529Y-126767118D01*
X146960000Y-126785583D01*
X147165934Y-126765300D01*
X147363954Y-126705232D01*
X147546450Y-126607685D01*
X147706410Y-126476410D01*
X147837685Y-126316450D01*
X147935232Y-126133954D01*
X147995300Y-125935934D01*
X148015583Y-125730000D01*
X147995300Y-125524066D01*
X147935232Y-125326046D01*
X147837685Y-125143550D01*
X147762897Y-125052420D01*
X147706410Y-124983589D01*
X147556121Y-124860252D01*
X147556115Y-124860247D01*
X148449500Y-124860247D01*
X148449500Y-126599752D01*
X148461131Y-126658229D01*
X148461132Y-126658230D01*
X148505447Y-126724552D01*
X148571769Y-126768867D01*
X148571770Y-126768868D01*
X148630247Y-126780499D01*
X148630250Y-126780500D01*
X148630252Y-126780500D01*
X150369750Y-126780500D01*
X150369751Y-126780499D01*
X150384568Y-126777552D01*
X150428229Y-126768868D01*
X150428229Y-126768867D01*
X150428231Y-126768867D01*
X150494552Y-126724552D01*
X150538867Y-126658231D01*
X150538867Y-126658229D01*
X150538868Y-126658229D01*
X150548922Y-126607682D01*
X150550500Y-126599748D01*
X150550500Y-125570247D01*
X152409500Y-125570247D01*
X152409500Y-127309752D01*
X152421131Y-127368229D01*
X152421132Y-127368230D01*
X152465447Y-127434552D01*
X152531769Y-127478867D01*
X152531770Y-127478868D01*
X152590247Y-127490499D01*
X152590250Y-127490500D01*
X152590252Y-127490500D01*
X154329750Y-127490500D01*
X154329751Y-127490499D01*
X154344568Y-127487552D01*
X154388229Y-127478868D01*
X154388229Y-127478867D01*
X154388231Y-127478867D01*
X154454552Y-127434552D01*
X154498867Y-127368231D01*
X154498867Y-127368229D01*
X154498868Y-127368229D01*
X154510499Y-127309752D01*
X154510500Y-127309750D01*
X154510500Y-126989999D01*
X169805142Y-126989999D01*
X169805142Y-126990000D01*
X169825669Y-127211535D01*
X169825670Y-127211537D01*
X169886554Y-127425523D01*
X169886560Y-127425538D01*
X169985723Y-127624683D01*
X169985728Y-127624691D01*
X170119805Y-127802238D01*
X170284222Y-127952123D01*
X170284224Y-127952125D01*
X170473380Y-128069245D01*
X170473381Y-128069245D01*
X170473384Y-128069247D01*
X170680845Y-128149618D01*
X170899542Y-128190500D01*
X170899544Y-128190500D01*
X171122026Y-128190500D01*
X171122028Y-128190500D01*
X171340725Y-128149618D01*
X171548186Y-128069247D01*
X171737347Y-127952124D01*
X171901766Y-127802236D01*
X172035843Y-127624689D01*
X172135014Y-127425528D01*
X172195900Y-127211536D01*
X172216428Y-126990000D01*
X172195900Y-126768464D01*
X172135014Y-126554472D01*
X172135009Y-126554461D01*
X172035846Y-126355316D01*
X172035841Y-126355308D01*
X171901764Y-126177761D01*
X171737347Y-126027876D01*
X171737345Y-126027874D01*
X171644274Y-125970247D01*
X174810285Y-125970247D01*
X174810285Y-128009752D01*
X174821916Y-128068229D01*
X174821917Y-128068230D01*
X174866232Y-128134552D01*
X174932554Y-128178867D01*
X174932555Y-128178868D01*
X174991032Y-128190499D01*
X174991035Y-128190500D01*
X174991037Y-128190500D01*
X177030535Y-128190500D01*
X177030536Y-128190499D01*
X177045353Y-128187552D01*
X177089014Y-128178868D01*
X177089014Y-128178867D01*
X177089016Y-128178867D01*
X177155337Y-128134552D01*
X177199652Y-128068231D01*
X177199652Y-128068229D01*
X177199653Y-128068229D01*
X177211284Y-128009752D01*
X177211285Y-128009750D01*
X177211285Y-125980000D01*
X179424353Y-125980000D01*
X179444834Y-126122456D01*
X179470093Y-126177764D01*
X179504623Y-126253373D01*
X179598872Y-126362143D01*
X179719947Y-126439953D01*
X179719950Y-126439954D01*
X179719949Y-126439954D01*
X179858036Y-126480499D01*
X179858038Y-126480500D01*
X179858039Y-126480500D01*
X180001962Y-126480500D01*
X180001962Y-126480499D01*
X180140053Y-126439953D01*
X180261128Y-126362143D01*
X180355377Y-126253373D01*
X180415165Y-126122457D01*
X180435647Y-125980000D01*
X180415165Y-125837543D01*
X180355377Y-125706627D01*
X180261128Y-125597857D01*
X180140053Y-125520047D01*
X180140051Y-125520046D01*
X180140049Y-125520045D01*
X180140050Y-125520045D01*
X180001963Y-125479500D01*
X180001961Y-125479500D01*
X179858039Y-125479500D01*
X179858036Y-125479500D01*
X179719949Y-125520045D01*
X179598873Y-125597856D01*
X179504623Y-125706626D01*
X179504622Y-125706628D01*
X179444834Y-125837543D01*
X179424353Y-125980000D01*
X177211285Y-125980000D01*
X177211285Y-125970249D01*
X177211284Y-125970247D01*
X177199653Y-125911770D01*
X177199652Y-125911769D01*
X177155337Y-125845447D01*
X177089015Y-125801132D01*
X177089014Y-125801131D01*
X177030537Y-125789500D01*
X177030533Y-125789500D01*
X174991037Y-125789500D01*
X174991032Y-125789500D01*
X174932555Y-125801131D01*
X174932554Y-125801132D01*
X174866232Y-125845447D01*
X174821917Y-125911769D01*
X174821916Y-125911770D01*
X174810285Y-125970247D01*
X171644274Y-125970247D01*
X171548189Y-125910754D01*
X171548183Y-125910752D01*
X171340725Y-125830382D01*
X171122028Y-125789500D01*
X170899542Y-125789500D01*
X170680845Y-125830382D01*
X170549649Y-125881207D01*
X170473386Y-125910752D01*
X170473380Y-125910754D01*
X170284224Y-126027874D01*
X170284222Y-126027876D01*
X170119805Y-126177761D01*
X169985728Y-126355308D01*
X169985723Y-126355316D01*
X169886560Y-126554461D01*
X169886554Y-126554476D01*
X169825670Y-126768462D01*
X169825669Y-126768464D01*
X169805142Y-126989999D01*
X154510500Y-126989999D01*
X154510500Y-126192722D01*
X155167073Y-126192722D01*
X155187554Y-126335178D01*
X155247342Y-126466093D01*
X155247343Y-126466095D01*
X155341592Y-126574865D01*
X155462667Y-126652675D01*
X155462670Y-126652676D01*
X155462669Y-126652676D01*
X155600756Y-126693221D01*
X155600758Y-126693222D01*
X155600759Y-126693222D01*
X155744682Y-126693222D01*
X155744682Y-126693221D01*
X155882773Y-126652675D01*
X156003848Y-126574865D01*
X156098097Y-126466095D01*
X156157885Y-126335179D01*
X156178367Y-126192722D01*
X156157885Y-126050265D01*
X156125796Y-125980000D01*
X160284353Y-125980000D01*
X160304834Y-126122456D01*
X160330093Y-126177764D01*
X160364623Y-126253373D01*
X160458872Y-126362143D01*
X160579947Y-126439953D01*
X160579950Y-126439954D01*
X160579949Y-126439954D01*
X160718036Y-126480499D01*
X160718038Y-126480500D01*
X160718039Y-126480500D01*
X160861962Y-126480500D01*
X160861962Y-126480499D01*
X161000053Y-126439953D01*
X161121128Y-126362143D01*
X161215377Y-126253373D01*
X161275165Y-126122457D01*
X161295647Y-125980000D01*
X161275165Y-125837543D01*
X161215377Y-125706627D01*
X161166310Y-125650000D01*
X167381756Y-125650000D01*
X167402237Y-125792456D01*
X167456727Y-125911770D01*
X167462026Y-125923373D01*
X167556275Y-126032143D01*
X167677350Y-126109953D01*
X167677353Y-126109954D01*
X167677352Y-126109954D01*
X167815439Y-126150499D01*
X167815441Y-126150500D01*
X167815442Y-126150500D01*
X167959365Y-126150500D01*
X167959365Y-126150499D01*
X168097456Y-126109953D01*
X168218531Y-126032143D01*
X168312780Y-125923373D01*
X168372568Y-125792457D01*
X168393050Y-125650000D01*
X168372568Y-125507543D01*
X168312780Y-125376627D01*
X168218531Y-125267857D01*
X168097456Y-125190047D01*
X168097454Y-125190046D01*
X168097452Y-125190045D01*
X168097453Y-125190045D01*
X167959366Y-125149500D01*
X167959364Y-125149500D01*
X167815442Y-125149500D01*
X167815439Y-125149500D01*
X167677352Y-125190045D01*
X167556276Y-125267856D01*
X167462026Y-125376626D01*
X167462025Y-125376628D01*
X167402237Y-125507543D01*
X167381756Y-125650000D01*
X161166310Y-125650000D01*
X161121128Y-125597857D01*
X161000053Y-125520047D01*
X161000051Y-125520046D01*
X161000049Y-125520045D01*
X161000050Y-125520045D01*
X160861963Y-125479500D01*
X160861961Y-125479500D01*
X160718039Y-125479500D01*
X160718036Y-125479500D01*
X160579949Y-125520045D01*
X160458873Y-125597856D01*
X160364623Y-125706626D01*
X160364622Y-125706628D01*
X160304834Y-125837543D01*
X160284353Y-125980000D01*
X156125796Y-125980000D01*
X156098097Y-125919349D01*
X156003848Y-125810579D01*
X155882773Y-125732769D01*
X155882771Y-125732768D01*
X155882769Y-125732767D01*
X155882770Y-125732767D01*
X155744683Y-125692222D01*
X155744681Y-125692222D01*
X155600759Y-125692222D01*
X155600756Y-125692222D01*
X155462669Y-125732767D01*
X155341593Y-125810578D01*
X155247343Y-125919348D01*
X155247342Y-125919350D01*
X155187554Y-126050265D01*
X155167073Y-126192722D01*
X154510500Y-126192722D01*
X154510500Y-125570249D01*
X154510499Y-125570247D01*
X154498868Y-125511770D01*
X154498867Y-125511769D01*
X154454552Y-125445447D01*
X154388230Y-125401132D01*
X154388229Y-125401131D01*
X154329752Y-125389500D01*
X154329748Y-125389500D01*
X152590252Y-125389500D01*
X152590247Y-125389500D01*
X152531770Y-125401131D01*
X152531769Y-125401132D01*
X152465447Y-125445447D01*
X152421132Y-125511769D01*
X152421131Y-125511770D01*
X152409500Y-125570247D01*
X150550500Y-125570247D01*
X150550500Y-124860252D01*
X150550500Y-124860249D01*
X150550499Y-124860247D01*
X150538868Y-124801770D01*
X150538867Y-124801769D01*
X150494552Y-124735447D01*
X150428230Y-124691132D01*
X150428229Y-124691131D01*
X150369752Y-124679500D01*
X150369748Y-124679500D01*
X148630252Y-124679500D01*
X148630247Y-124679500D01*
X148571770Y-124691131D01*
X148571769Y-124691132D01*
X148505447Y-124735447D01*
X148461132Y-124801769D01*
X148461131Y-124801770D01*
X148449500Y-124860247D01*
X147556115Y-124860247D01*
X147546450Y-124852315D01*
X147363954Y-124754768D01*
X147165934Y-124694700D01*
X147165932Y-124694699D01*
X147165934Y-124694699D01*
X146960000Y-124674417D01*
X146754067Y-124694699D01*
X146556043Y-124754769D01*
X146468114Y-124801769D01*
X146373550Y-124852315D01*
X146373548Y-124852316D01*
X146373547Y-124852317D01*
X146213589Y-124983589D01*
X146082317Y-125143547D01*
X145984767Y-125326046D01*
X145964593Y-125392552D01*
X145926296Y-125450990D01*
X145862483Y-125479447D01*
X145793416Y-125468886D01*
X145741023Y-125422661D01*
X145726158Y-125388649D01*
X145693433Y-125266516D01*
X145693429Y-125266507D01*
X145593600Y-125052422D01*
X145593599Y-125052420D01*
X145458113Y-124858926D01*
X145458108Y-124858920D01*
X145291082Y-124691894D01*
X145097578Y-124556399D01*
X144883492Y-124456570D01*
X144883486Y-124456567D01*
X144670000Y-124399364D01*
X144670000Y-125296988D01*
X144612993Y-125264075D01*
X144485826Y-125230000D01*
X144354174Y-125230000D01*
X144227007Y-125264075D01*
X144170000Y-125296988D01*
X144170000Y-124399364D01*
X144169999Y-124399364D01*
X143956513Y-124456567D01*
X143956507Y-124456570D01*
X143742422Y-124556399D01*
X143742420Y-124556400D01*
X143548926Y-124691886D01*
X143548920Y-124691891D01*
X143381891Y-124858920D01*
X143381886Y-124858926D01*
X143246400Y-125052420D01*
X143246399Y-125052422D01*
X143146570Y-125266507D01*
X143146567Y-125266513D01*
X143089364Y-125479999D01*
X142760500Y-125479999D01*
X142760500Y-123742597D01*
X166781756Y-123742597D01*
X166802237Y-123885053D01*
X166830756Y-123947500D01*
X166862026Y-124015970D01*
X166956275Y-124124740D01*
X167077350Y-124202550D01*
X167077353Y-124202551D01*
X167077352Y-124202551D01*
X167215439Y-124243096D01*
X167215441Y-124243097D01*
X167215442Y-124243097D01*
X167359365Y-124243097D01*
X167359365Y-124243096D01*
X167497456Y-124202550D01*
X167618531Y-124124740D01*
X167712780Y-124015970D01*
X167772568Y-123885054D01*
X167791986Y-123750000D01*
X179204353Y-123750000D01*
X179224834Y-123892456D01*
X179281241Y-124015968D01*
X179284623Y-124023373D01*
X179378872Y-124132143D01*
X179499947Y-124209953D01*
X179499950Y-124209954D01*
X179499949Y-124209954D01*
X179638036Y-124250499D01*
X179638038Y-124250500D01*
X179638039Y-124250500D01*
X179781962Y-124250500D01*
X179781962Y-124250499D01*
X179920053Y-124209953D01*
X180041128Y-124132143D01*
X180135377Y-124023373D01*
X180170027Y-123947500D01*
X183126855Y-123947500D01*
X183147359Y-124116369D01*
X183147360Y-124116374D01*
X183207682Y-124275431D01*
X183269975Y-124365677D01*
X183304317Y-124415429D01*
X183350756Y-124456570D01*
X183431650Y-124528236D01*
X183582273Y-124607289D01*
X183582275Y-124607290D01*
X183747444Y-124648000D01*
X183917556Y-124648000D01*
X184082725Y-124607290D01*
X184179689Y-124556399D01*
X184233349Y-124528236D01*
X184233350Y-124528234D01*
X184233352Y-124528234D01*
X184360683Y-124415429D01*
X184457318Y-124275430D01*
X184517640Y-124116372D01*
X184538145Y-123947500D01*
X185026855Y-123947500D01*
X185047359Y-124116369D01*
X185047360Y-124116374D01*
X185107682Y-124275431D01*
X185169975Y-124365677D01*
X185204317Y-124415429D01*
X185250756Y-124456570D01*
X185331650Y-124528236D01*
X185482273Y-124607289D01*
X185482275Y-124607290D01*
X185647444Y-124648000D01*
X185817556Y-124648000D01*
X185982725Y-124607290D01*
X186079689Y-124556399D01*
X186133349Y-124528236D01*
X186133350Y-124528234D01*
X186133352Y-124528234D01*
X186260683Y-124415429D01*
X186357318Y-124275430D01*
X186417640Y-124116372D01*
X186438145Y-123947500D01*
X186417640Y-123778628D01*
X186357318Y-123619570D01*
X186349016Y-123607543D01*
X186322976Y-123569818D01*
X186260683Y-123479571D01*
X186165816Y-123395526D01*
X186133349Y-123366763D01*
X185982726Y-123287710D01*
X185817556Y-123247000D01*
X185647444Y-123247000D01*
X185482273Y-123287710D01*
X185331650Y-123366763D01*
X185204316Y-123479572D01*
X185107682Y-123619568D01*
X185047360Y-123778625D01*
X185047359Y-123778630D01*
X185026855Y-123947500D01*
X184538145Y-123947500D01*
X184517640Y-123778628D01*
X184457318Y-123619570D01*
X184449016Y-123607543D01*
X184422976Y-123569818D01*
X184360683Y-123479571D01*
X184265816Y-123395526D01*
X184233349Y-123366763D01*
X184082726Y-123287710D01*
X183917556Y-123247000D01*
X183747444Y-123247000D01*
X183582273Y-123287710D01*
X183431650Y-123366763D01*
X183304316Y-123479572D01*
X183207682Y-123619568D01*
X183147360Y-123778625D01*
X183147359Y-123778630D01*
X183126855Y-123947500D01*
X180170027Y-123947500D01*
X180195165Y-123892457D01*
X180215647Y-123750000D01*
X180195165Y-123607543D01*
X180135377Y-123476627D01*
X180041128Y-123367857D01*
X179920053Y-123290047D01*
X179920051Y-123290046D01*
X179920049Y-123290045D01*
X179920050Y-123290045D01*
X179781963Y-123249500D01*
X179781961Y-123249500D01*
X179638039Y-123249500D01*
X179638036Y-123249500D01*
X179499949Y-123290045D01*
X179378873Y-123367856D01*
X179284623Y-123476626D01*
X179284622Y-123476628D01*
X179224834Y-123607543D01*
X179204353Y-123750000D01*
X167791986Y-123750000D01*
X167793050Y-123742597D01*
X167772568Y-123600140D01*
X167712780Y-123469224D01*
X167618531Y-123360454D01*
X167497456Y-123282644D01*
X167497454Y-123282643D01*
X167497452Y-123282642D01*
X167497453Y-123282642D01*
X167359366Y-123242097D01*
X167359364Y-123242097D01*
X167215442Y-123242097D01*
X167215439Y-123242097D01*
X167077352Y-123282642D01*
X166956276Y-123360453D01*
X166862026Y-123469223D01*
X166862025Y-123469225D01*
X166802237Y-123600140D01*
X166781756Y-123742597D01*
X142760500Y-123742597D01*
X142760500Y-121769999D01*
X149706864Y-121769999D01*
X149706864Y-121770000D01*
X150604488Y-121770000D01*
X150571575Y-121827007D01*
X150537500Y-121954174D01*
X150537500Y-122085826D01*
X150571575Y-122212993D01*
X150604488Y-122270000D01*
X149706864Y-122270000D01*
X149764067Y-122483486D01*
X149764070Y-122483492D01*
X149863899Y-122697578D01*
X149999394Y-122891082D01*
X150166417Y-123058105D01*
X150359921Y-123193600D01*
X150574007Y-123293429D01*
X150574016Y-123293433D01*
X150787500Y-123350634D01*
X150787500Y-122453012D01*
X150844507Y-122485925D01*
X150971674Y-122520000D01*
X151103326Y-122520000D01*
X151230493Y-122485925D01*
X151287500Y-122453012D01*
X151287500Y-123350633D01*
X151500983Y-123293433D01*
X151500992Y-123293429D01*
X151715078Y-123193600D01*
X151908582Y-123058105D01*
X152075605Y-122891082D01*
X152211100Y-122697578D01*
X152295026Y-122517597D01*
X165556756Y-122517597D01*
X165577237Y-122660053D01*
X165637025Y-122790968D01*
X165637026Y-122790970D01*
X165731275Y-122899740D01*
X165852350Y-122977550D01*
X165852353Y-122977551D01*
X165852352Y-122977551D01*
X165990439Y-123018096D01*
X165990441Y-123018097D01*
X165990442Y-123018097D01*
X166134365Y-123018097D01*
X166134365Y-123018096D01*
X166272456Y-122977550D01*
X166393531Y-122899740D01*
X166487780Y-122790970D01*
X166547568Y-122660054D01*
X166568050Y-122517597D01*
X166547568Y-122375140D01*
X166487780Y-122244224D01*
X166434576Y-122182822D01*
X166405552Y-122119269D01*
X166415496Y-122050111D01*
X166461250Y-121997307D01*
X166528290Y-121977622D01*
X166563225Y-121982645D01*
X166688971Y-122019567D01*
X166688972Y-122019567D01*
X166832895Y-122019567D01*
X166832895Y-122019566D01*
X166970986Y-121979020D01*
X167055351Y-121924802D01*
X167509551Y-121924802D01*
X167530032Y-122067258D01*
X167582811Y-122182825D01*
X167589821Y-122198175D01*
X167684070Y-122306945D01*
X167805145Y-122384755D01*
X167805148Y-122384756D01*
X167805147Y-122384756D01*
X167943234Y-122425301D01*
X167943236Y-122425302D01*
X167943237Y-122425302D01*
X168087160Y-122425302D01*
X168087160Y-122425301D01*
X168225251Y-122384755D01*
X168346326Y-122306945D01*
X168440575Y-122198175D01*
X168500363Y-122067259D01*
X168520845Y-121924802D01*
X168500363Y-121782345D01*
X168440575Y-121651429D01*
X168430672Y-121640000D01*
X170104353Y-121640000D01*
X170124834Y-121782456D01*
X170157434Y-121853838D01*
X170184623Y-121913373D01*
X170278872Y-122022143D01*
X170399947Y-122099953D01*
X170399950Y-122099954D01*
X170399949Y-122099954D01*
X170538036Y-122140499D01*
X170538038Y-122140500D01*
X170538039Y-122140500D01*
X170681962Y-122140500D01*
X170681962Y-122140499D01*
X170820053Y-122099953D01*
X170941128Y-122022143D01*
X171035377Y-121913373D01*
X171095165Y-121782457D01*
X171115647Y-121640000D01*
X171095165Y-121497543D01*
X171035377Y-121366627D01*
X170941128Y-121257857D01*
X170820053Y-121180047D01*
X170820051Y-121180046D01*
X170820049Y-121180045D01*
X170820050Y-121180045D01*
X170681963Y-121139500D01*
X170681961Y-121139500D01*
X170538039Y-121139500D01*
X170538036Y-121139500D01*
X170399949Y-121180045D01*
X170278873Y-121257856D01*
X170184623Y-121366626D01*
X170184622Y-121366628D01*
X170124834Y-121497543D01*
X170104353Y-121640000D01*
X168430672Y-121640000D01*
X168346326Y-121542659D01*
X168225251Y-121464849D01*
X168225249Y-121464848D01*
X168225247Y-121464847D01*
X168225248Y-121464847D01*
X168087161Y-121424302D01*
X168087159Y-121424302D01*
X167943237Y-121424302D01*
X167943234Y-121424302D01*
X167805147Y-121464847D01*
X167684071Y-121542658D01*
X167589821Y-121651428D01*
X167589820Y-121651430D01*
X167530032Y-121782345D01*
X167509551Y-121924802D01*
X167055351Y-121924802D01*
X167092061Y-121901210D01*
X167186310Y-121792440D01*
X167246098Y-121661524D01*
X167266580Y-121519067D01*
X167246098Y-121376610D01*
X167186310Y-121245694D01*
X167092061Y-121136924D01*
X166970986Y-121059114D01*
X166970984Y-121059113D01*
X166970982Y-121059112D01*
X166970983Y-121059112D01*
X166832896Y-121018567D01*
X166832894Y-121018567D01*
X166688972Y-121018567D01*
X166688969Y-121018567D01*
X166550882Y-121059112D01*
X166429806Y-121136923D01*
X166429805Y-121136923D01*
X166429805Y-121136924D01*
X166419405Y-121148926D01*
X166335556Y-121245693D01*
X166335555Y-121245695D01*
X166275767Y-121376610D01*
X166255286Y-121519067D01*
X166275767Y-121661523D01*
X166286961Y-121686033D01*
X166335556Y-121792440D01*
X166388758Y-121853839D01*
X166417783Y-121917394D01*
X166407839Y-121986552D01*
X166362085Y-122039356D01*
X166295045Y-122059041D01*
X166260111Y-122054018D01*
X166134367Y-122017097D01*
X166134364Y-122017097D01*
X165990442Y-122017097D01*
X165990439Y-122017097D01*
X165852352Y-122057642D01*
X165731276Y-122135453D01*
X165637026Y-122244223D01*
X165637025Y-122244225D01*
X165577237Y-122375140D01*
X165556756Y-122517597D01*
X152295026Y-122517597D01*
X152310929Y-122483492D01*
X152310932Y-122483486D01*
X152368136Y-122270000D01*
X151470512Y-122270000D01*
X151503425Y-122212993D01*
X151537500Y-122085826D01*
X151537500Y-121954174D01*
X151503425Y-121827007D01*
X151470512Y-121770000D01*
X152368136Y-121770000D01*
X152368135Y-121769999D01*
X152310932Y-121556513D01*
X152310929Y-121556507D01*
X152211100Y-121342422D01*
X152211099Y-121342420D01*
X152075613Y-121148926D01*
X152075608Y-121148920D01*
X151908582Y-120981894D01*
X151715078Y-120846399D01*
X151544552Y-120766882D01*
X151492113Y-120720710D01*
X151472961Y-120653516D01*
X151493177Y-120586635D01*
X151546342Y-120541300D01*
X151596957Y-120530500D01*
X151907250Y-120530500D01*
X151907251Y-120530499D01*
X151922068Y-120527552D01*
X151965729Y-120518868D01*
X151965729Y-120518867D01*
X151965731Y-120518867D01*
X152032052Y-120474552D01*
X152076367Y-120408231D01*
X152076367Y-120408229D01*
X152076368Y-120408229D01*
X152087999Y-120349752D01*
X152088000Y-120349750D01*
X152088000Y-120150000D01*
X154657367Y-120150000D01*
X154675802Y-120278225D01*
X154722282Y-120380000D01*
X154729618Y-120396063D01*
X154797628Y-120474552D01*
X154814451Y-120493967D01*
X154848244Y-120515685D01*
X154893999Y-120568489D01*
X154903942Y-120637648D01*
X154874917Y-120701203D01*
X154848244Y-120724315D01*
X154814451Y-120746032D01*
X154729618Y-120843937D01*
X154729617Y-120843938D01*
X154675802Y-120961774D01*
X154657367Y-121090000D01*
X154675802Y-121218225D01*
X154693902Y-121257857D01*
X154729618Y-121336063D01*
X154764752Y-121376610D01*
X154814451Y-121433967D01*
X154848244Y-121455685D01*
X154893999Y-121508489D01*
X154903942Y-121577648D01*
X154874917Y-121641203D01*
X154848244Y-121664315D01*
X154814451Y-121686032D01*
X154729618Y-121783937D01*
X154729617Y-121783938D01*
X154675802Y-121901774D01*
X154657367Y-122030000D01*
X154675802Y-122158225D01*
X154715077Y-122244223D01*
X154729618Y-122276063D01*
X154814451Y-122373967D01*
X154923431Y-122444004D01*
X155047725Y-122480499D01*
X155047727Y-122480500D01*
X155047728Y-122480500D01*
X155177273Y-122480500D01*
X155177273Y-122480499D01*
X155301569Y-122444004D01*
X155410549Y-122373967D01*
X155495382Y-122276063D01*
X155549197Y-122158226D01*
X155564762Y-122049967D01*
X155573881Y-122029999D01*
X155564762Y-122010031D01*
X155549197Y-121901774D01*
X155527305Y-121853838D01*
X155495382Y-121783937D01*
X155410549Y-121686033D01*
X155376755Y-121664315D01*
X155331001Y-121611512D01*
X155321057Y-121542354D01*
X155350082Y-121478798D01*
X155376754Y-121455685D01*
X155410549Y-121433967D01*
X155495382Y-121336063D01*
X155549197Y-121218226D01*
X155564762Y-121109967D01*
X155573881Y-121089999D01*
X155564762Y-121070031D01*
X155549197Y-120961774D01*
X155512080Y-120880500D01*
X155495382Y-120843937D01*
X155410549Y-120746033D01*
X155376755Y-120724315D01*
X155331001Y-120671512D01*
X155321057Y-120602354D01*
X155350082Y-120538798D01*
X155376754Y-120515685D01*
X155410549Y-120493967D01*
X155495382Y-120396063D01*
X155549197Y-120278226D01*
X155564762Y-120169967D01*
X155573881Y-120149999D01*
X155801118Y-120149999D01*
X155810238Y-120169968D01*
X155825802Y-120278225D01*
X155872282Y-120380000D01*
X155879618Y-120396063D01*
X155947628Y-120474552D01*
X155964451Y-120493967D01*
X155998244Y-120515685D01*
X156043999Y-120568489D01*
X156053942Y-120637648D01*
X156024917Y-120701203D01*
X155998244Y-120724315D01*
X155964451Y-120746032D01*
X155879618Y-120843937D01*
X155879617Y-120843938D01*
X155825802Y-120961774D01*
X155810238Y-121070031D01*
X155801118Y-121089999D01*
X155810238Y-121109968D01*
X155825802Y-121218225D01*
X155843902Y-121257857D01*
X155879618Y-121336063D01*
X155914752Y-121376610D01*
X155964451Y-121433967D01*
X155998244Y-121455685D01*
X156043999Y-121508489D01*
X156053942Y-121577648D01*
X156024917Y-121641203D01*
X155998244Y-121664315D01*
X155964451Y-121686032D01*
X155879618Y-121783937D01*
X155879617Y-121783938D01*
X155825802Y-121901774D01*
X155810238Y-122010031D01*
X155801118Y-122029999D01*
X155810238Y-122049968D01*
X155825802Y-122158225D01*
X155865077Y-122244223D01*
X155879618Y-122276063D01*
X155964451Y-122373967D01*
X156073431Y-122444004D01*
X156197725Y-122480499D01*
X156197727Y-122480500D01*
X156197728Y-122480500D01*
X156327273Y-122480500D01*
X156327273Y-122480499D01*
X156451569Y-122444004D01*
X156560549Y-122373967D01*
X156645382Y-122276063D01*
X156699197Y-122158226D01*
X156717633Y-122030000D01*
X156699197Y-121901774D01*
X156645382Y-121783937D01*
X156560549Y-121686033D01*
X156526755Y-121664315D01*
X156481001Y-121611512D01*
X156471057Y-121542354D01*
X156500082Y-121478798D01*
X156526754Y-121455685D01*
X156560549Y-121433967D01*
X156645382Y-121336063D01*
X156699197Y-121218226D01*
X156717633Y-121090000D01*
X156699197Y-120961774D01*
X156645382Y-120843937D01*
X156560549Y-120746033D01*
X156526755Y-120724315D01*
X156481001Y-120671512D01*
X156471057Y-120602354D01*
X156500082Y-120538798D01*
X156526754Y-120515685D01*
X156560549Y-120493967D01*
X156645382Y-120396063D01*
X156699197Y-120278226D01*
X156717633Y-120150000D01*
X156699197Y-120021774D01*
X156645382Y-119903937D01*
X156560549Y-119806033D01*
X156451569Y-119735996D01*
X156451565Y-119735994D01*
X156451564Y-119735994D01*
X156327274Y-119699500D01*
X156327272Y-119699500D01*
X156197728Y-119699500D01*
X156197726Y-119699500D01*
X156073435Y-119735994D01*
X156073432Y-119735995D01*
X156073431Y-119735996D01*
X156054975Y-119747857D01*
X155964450Y-119806033D01*
X155879618Y-119903937D01*
X155879617Y-119903938D01*
X155825802Y-120021774D01*
X155810238Y-120130031D01*
X155801118Y-120149999D01*
X155573881Y-120149999D01*
X155564762Y-120130031D01*
X155549197Y-120021774D01*
X155533564Y-119987543D01*
X155495382Y-119903937D01*
X155410549Y-119806033D01*
X155301569Y-119735996D01*
X155301565Y-119735994D01*
X155301564Y-119735994D01*
X155177274Y-119699500D01*
X155177272Y-119699500D01*
X155047728Y-119699500D01*
X155047726Y-119699500D01*
X154923435Y-119735994D01*
X154923432Y-119735995D01*
X154923431Y-119735996D01*
X154904975Y-119747857D01*
X154814450Y-119806033D01*
X154729618Y-119903937D01*
X154729617Y-119903938D01*
X154675802Y-120021774D01*
X154657367Y-120150000D01*
X152088000Y-120150000D01*
X152088000Y-118610249D01*
X152087999Y-118610247D01*
X152076368Y-118551770D01*
X152076367Y-118551769D01*
X152047828Y-118509057D01*
X154373410Y-118509057D01*
X154393891Y-118651513D01*
X154396645Y-118657543D01*
X154453680Y-118782430D01*
X154547929Y-118891200D01*
X154669004Y-118969010D01*
X154669007Y-118969011D01*
X154669006Y-118969011D01*
X154807093Y-119009556D01*
X154807095Y-119009557D01*
X154807096Y-119009557D01*
X154951019Y-119009557D01*
X154951019Y-119009556D01*
X155089110Y-118969010D01*
X155210185Y-118891200D01*
X155289210Y-118800000D01*
X165234353Y-118800000D01*
X165254834Y-118942456D01*
X165285478Y-119009556D01*
X165314623Y-119073373D01*
X165408872Y-119182143D01*
X165475329Y-119224852D01*
X165521083Y-119277655D01*
X165531027Y-119346813D01*
X165508341Y-119396501D01*
X165510916Y-119398156D01*
X165506120Y-119405618D01*
X165446332Y-119536533D01*
X165425851Y-119678990D01*
X165446332Y-119821446D01*
X165506120Y-119952361D01*
X165506121Y-119952363D01*
X165600370Y-120061133D01*
X165721445Y-120138943D01*
X165721448Y-120138944D01*
X165721447Y-120138944D01*
X165859534Y-120179489D01*
X165859536Y-120179490D01*
X165859537Y-120179490D01*
X166003460Y-120179490D01*
X166003460Y-120179489D01*
X166110619Y-120148025D01*
X166141548Y-120138944D01*
X166141548Y-120138943D01*
X166141551Y-120138943D01*
X166155467Y-120130000D01*
X172364353Y-120130000D01*
X172384834Y-120272456D01*
X172444622Y-120403371D01*
X172444623Y-120403373D01*
X172538872Y-120512143D01*
X172659947Y-120589953D01*
X172659950Y-120589954D01*
X172659949Y-120589954D01*
X172798036Y-120630499D01*
X172798038Y-120630500D01*
X172798039Y-120630500D01*
X172941962Y-120630500D01*
X172941962Y-120630499D01*
X173080053Y-120589953D01*
X173201128Y-120512143D01*
X173291110Y-120408296D01*
X173349885Y-120370524D01*
X173419755Y-120370524D01*
X173478533Y-120408298D01*
X173507559Y-120471853D01*
X173514834Y-120522456D01*
X173568287Y-120639500D01*
X173574623Y-120653373D01*
X173668872Y-120762143D01*
X173789947Y-120839953D01*
X173789950Y-120839954D01*
X173789949Y-120839954D01*
X173928036Y-120880499D01*
X173928038Y-120880500D01*
X173928039Y-120880500D01*
X174071962Y-120880500D01*
X174071962Y-120880499D01*
X174210053Y-120839953D01*
X174331128Y-120762143D01*
X174331128Y-120762142D01*
X174338589Y-120757348D01*
X174340796Y-120760783D01*
X174385725Y-120739235D01*
X174455058Y-120747875D01*
X174499390Y-120780415D01*
X174578872Y-120872143D01*
X174699947Y-120949953D01*
X174699950Y-120949954D01*
X174699949Y-120949954D01*
X174807107Y-120981417D01*
X174838008Y-120990491D01*
X174838036Y-120990499D01*
X174838038Y-120990500D01*
X174838039Y-120990500D01*
X174981960Y-120990500D01*
X174981961Y-120990500D01*
X174981961Y-120990499D01*
X174982023Y-120990491D01*
X174982086Y-120990500D01*
X174990830Y-120990500D01*
X174990830Y-120991757D01*
X175051181Y-121000435D01*
X175103985Y-121046190D01*
X175122407Y-121095579D01*
X175124833Y-121112451D01*
X175124834Y-121112455D01*
X175124835Y-121112457D01*
X175184623Y-121243373D01*
X175278872Y-121352143D01*
X175399947Y-121429953D01*
X175399950Y-121429954D01*
X175399949Y-121429954D01*
X175487583Y-121455685D01*
X175518786Y-121464847D01*
X175538036Y-121470499D01*
X175538038Y-121470500D01*
X175538039Y-121470500D01*
X175681962Y-121470500D01*
X175681962Y-121470499D01*
X175789121Y-121439035D01*
X175820050Y-121429954D01*
X175820050Y-121429953D01*
X175820053Y-121429953D01*
X175941128Y-121352143D01*
X176035377Y-121243373D01*
X176095165Y-121112457D01*
X176115647Y-120970000D01*
X176095165Y-120827543D01*
X176035377Y-120696627D01*
X175941128Y-120587857D01*
X175820053Y-120510047D01*
X175820051Y-120510046D01*
X175820049Y-120510045D01*
X175820050Y-120510045D01*
X175681963Y-120469500D01*
X175681961Y-120469500D01*
X175538039Y-120469500D01*
X175538035Y-120469500D01*
X175537972Y-120469509D01*
X175537909Y-120469500D01*
X175529171Y-120469500D01*
X175529171Y-120468243D01*
X175468814Y-120459564D01*
X175416011Y-120413807D01*
X175397591Y-120364416D01*
X175396915Y-120359721D01*
X175395165Y-120347543D01*
X175335377Y-120216627D01*
X175241128Y-120107857D01*
X175120053Y-120030047D01*
X175120051Y-120030046D01*
X175120049Y-120030045D01*
X175120050Y-120030045D01*
X174981963Y-119989500D01*
X174981961Y-119989500D01*
X174838039Y-119989500D01*
X174838036Y-119989500D01*
X174699949Y-120030045D01*
X174571411Y-120112652D01*
X174569387Y-120109502D01*
X174521704Y-120131156D01*
X174452567Y-120121063D01*
X174410608Y-120089583D01*
X174331128Y-119997857D01*
X174210053Y-119920047D01*
X174210051Y-119920046D01*
X174210049Y-119920045D01*
X174210050Y-119920045D01*
X174071963Y-119879500D01*
X174071961Y-119879500D01*
X173928039Y-119879500D01*
X173928036Y-119879500D01*
X173789949Y-119920045D01*
X173668873Y-119997856D01*
X173578891Y-120101701D01*
X173520113Y-120139475D01*
X173450243Y-120139475D01*
X173391465Y-120101701D01*
X173362440Y-120038145D01*
X173362440Y-120038144D01*
X173360086Y-120021774D01*
X173355165Y-119987543D01*
X173295377Y-119856627D01*
X173201128Y-119747857D01*
X173080053Y-119670047D01*
X173080051Y-119670046D01*
X173080049Y-119670045D01*
X173080050Y-119670045D01*
X172941963Y-119629500D01*
X172941961Y-119629500D01*
X172798039Y-119629500D01*
X172798036Y-119629500D01*
X172659949Y-119670045D01*
X172538873Y-119747856D01*
X172444623Y-119856626D01*
X172444622Y-119856628D01*
X172384834Y-119987543D01*
X172364353Y-120130000D01*
X166155467Y-120130000D01*
X166262626Y-120061133D01*
X166356875Y-119952363D01*
X166416663Y-119821447D01*
X166437145Y-119678990D01*
X166416663Y-119536533D01*
X166356875Y-119405617D01*
X166262626Y-119296847D01*
X166196168Y-119254137D01*
X166150414Y-119201334D01*
X166140470Y-119132175D01*
X166163159Y-119082490D01*
X166160582Y-119080834D01*
X166165372Y-119073378D01*
X166165377Y-119073373D01*
X166225165Y-118942457D01*
X166245647Y-118800000D01*
X166225165Y-118657543D01*
X166165377Y-118526627D01*
X166071128Y-118417857D01*
X165950053Y-118340047D01*
X165950051Y-118340046D01*
X165950049Y-118340045D01*
X165950050Y-118340045D01*
X165811963Y-118299500D01*
X165811961Y-118299500D01*
X165668039Y-118299500D01*
X165668036Y-118299500D01*
X165529949Y-118340045D01*
X165408873Y-118417856D01*
X165314623Y-118526626D01*
X165314622Y-118526628D01*
X165254834Y-118657543D01*
X165234353Y-118800000D01*
X155289210Y-118800000D01*
X155304434Y-118782430D01*
X155364222Y-118651514D01*
X155384704Y-118509057D01*
X155364222Y-118366600D01*
X155304434Y-118235684D01*
X155210185Y-118126914D01*
X155089110Y-118049104D01*
X155089108Y-118049103D01*
X155089106Y-118049102D01*
X155089107Y-118049102D01*
X154951020Y-118008557D01*
X154951018Y-118008557D01*
X154807096Y-118008557D01*
X154807093Y-118008557D01*
X154669006Y-118049102D01*
X154547930Y-118126913D01*
X154453680Y-118235683D01*
X154453679Y-118235685D01*
X154393891Y-118366600D01*
X154373410Y-118509057D01*
X152047828Y-118509057D01*
X152032052Y-118485447D01*
X151965730Y-118441132D01*
X151965729Y-118441131D01*
X151907252Y-118429500D01*
X151907248Y-118429500D01*
X150167752Y-118429500D01*
X150167747Y-118429500D01*
X150109270Y-118441131D01*
X150109269Y-118441132D01*
X150042947Y-118485447D01*
X149998632Y-118551769D01*
X149998631Y-118551770D01*
X149987000Y-118610247D01*
X149987000Y-120349752D01*
X149998631Y-120408229D01*
X149998632Y-120408230D01*
X150042947Y-120474552D01*
X150109269Y-120518867D01*
X150109270Y-120518868D01*
X150167747Y-120530499D01*
X150167750Y-120530500D01*
X150478043Y-120530500D01*
X150545082Y-120550185D01*
X150590837Y-120602989D01*
X150600781Y-120672147D01*
X150571756Y-120735703D01*
X150530448Y-120766882D01*
X150359922Y-120846399D01*
X150359920Y-120846400D01*
X150166426Y-120981886D01*
X150166420Y-120981891D01*
X149999391Y-121148920D01*
X149999386Y-121148926D01*
X149863900Y-121342420D01*
X149863899Y-121342422D01*
X149764070Y-121556507D01*
X149764067Y-121556513D01*
X149706864Y-121769999D01*
X142760500Y-121769999D01*
X142760500Y-117840000D01*
X149044353Y-117840000D01*
X149064834Y-117982456D01*
X149095271Y-118049102D01*
X149124623Y-118113373D01*
X149218872Y-118222143D01*
X149339947Y-118299953D01*
X149339950Y-118299954D01*
X149339949Y-118299954D01*
X149447107Y-118331417D01*
X149476496Y-118340047D01*
X149478036Y-118340499D01*
X149478038Y-118340500D01*
X149478039Y-118340500D01*
X149621962Y-118340500D01*
X149621962Y-118340499D01*
X149760053Y-118299953D01*
X149881128Y-118222143D01*
X149975377Y-118113373D01*
X150035165Y-117982457D01*
X150055647Y-117840000D01*
X150035165Y-117697543D01*
X149975377Y-117566627D01*
X149881128Y-117457857D01*
X149760053Y-117380047D01*
X149760051Y-117380046D01*
X149760049Y-117380045D01*
X149760050Y-117380045D01*
X149621963Y-117339500D01*
X149621961Y-117339500D01*
X149478039Y-117339500D01*
X149478036Y-117339500D01*
X149339949Y-117380045D01*
X149218873Y-117457856D01*
X149124623Y-117566626D01*
X149124622Y-117566628D01*
X149064834Y-117697543D01*
X149044353Y-117840000D01*
X142760500Y-117840000D01*
X142760500Y-117115000D01*
X155004353Y-117115000D01*
X155024834Y-117257456D01*
X155084622Y-117388371D01*
X155084623Y-117388373D01*
X155178872Y-117497143D01*
X155299947Y-117574953D01*
X155299950Y-117574954D01*
X155299949Y-117574954D01*
X155438036Y-117615499D01*
X155438038Y-117615500D01*
X155438039Y-117615500D01*
X155581962Y-117615500D01*
X155581962Y-117615499D01*
X155720053Y-117574953D01*
X155841128Y-117497143D01*
X155935377Y-117388373D01*
X155995165Y-117257457D01*
X156009338Y-117158883D01*
X166163236Y-117158883D01*
X166183717Y-117301339D01*
X166223464Y-117388371D01*
X166243506Y-117432256D01*
X166337755Y-117541026D01*
X166458830Y-117618836D01*
X166458833Y-117618837D01*
X166458832Y-117618837D01*
X166596919Y-117659382D01*
X166596921Y-117659383D01*
X166596922Y-117659383D01*
X166740845Y-117659383D01*
X166740845Y-117659382D01*
X166878936Y-117618836D01*
X167000011Y-117541026D01*
X167094260Y-117432256D01*
X167154048Y-117301340D01*
X167174530Y-117158883D01*
X167154048Y-117016426D01*
X167094260Y-116885510D01*
X167000011Y-116776740D01*
X166878936Y-116698930D01*
X166878934Y-116698929D01*
X166878932Y-116698928D01*
X166878933Y-116698928D01*
X166740846Y-116658383D01*
X166740844Y-116658383D01*
X166596922Y-116658383D01*
X166596919Y-116658383D01*
X166458832Y-116698928D01*
X166337756Y-116776739D01*
X166243506Y-116885509D01*
X166243505Y-116885511D01*
X166183717Y-117016426D01*
X166163236Y-117158883D01*
X156009338Y-117158883D01*
X156015647Y-117115000D01*
X155995165Y-116972543D01*
X155935377Y-116841627D01*
X155841128Y-116732857D01*
X155720053Y-116655047D01*
X155720051Y-116655046D01*
X155720049Y-116655045D01*
X155720050Y-116655045D01*
X155581963Y-116614500D01*
X155581961Y-116614500D01*
X155438039Y-116614500D01*
X155438036Y-116614500D01*
X155299949Y-116655045D01*
X155178873Y-116732856D01*
X155084623Y-116841626D01*
X155084622Y-116841628D01*
X155024834Y-116972543D01*
X155004353Y-117115000D01*
X142760500Y-117115000D01*
X142760500Y-116570000D01*
X145294353Y-116570000D01*
X145314834Y-116712456D01*
X145324151Y-116732856D01*
X145374623Y-116843373D01*
X145468872Y-116952143D01*
X145589947Y-117029953D01*
X145589950Y-117029954D01*
X145589949Y-117029954D01*
X145728036Y-117070499D01*
X145728038Y-117070500D01*
X145728039Y-117070500D01*
X145871962Y-117070500D01*
X145871962Y-117070499D01*
X146010053Y-117029953D01*
X146131128Y-116952143D01*
X146225377Y-116843373D01*
X146285165Y-116712457D01*
X146305647Y-116570000D01*
X146285165Y-116427543D01*
X146225377Y-116296627D01*
X146131128Y-116187857D01*
X146087782Y-116160000D01*
X162054353Y-116160000D01*
X162074834Y-116302456D01*
X162131960Y-116427543D01*
X162134623Y-116433373D01*
X162228872Y-116542143D01*
X162349947Y-116619953D01*
X162349950Y-116619954D01*
X162349949Y-116619954D01*
X162488036Y-116660499D01*
X162488038Y-116660500D01*
X162488039Y-116660500D01*
X162631962Y-116660500D01*
X162631962Y-116660499D01*
X162770053Y-116619953D01*
X162891128Y-116542143D01*
X162985377Y-116433373D01*
X163045165Y-116302457D01*
X163065647Y-116160000D01*
X163045165Y-116017543D01*
X162985377Y-115886627D01*
X162891128Y-115777857D01*
X162770053Y-115700047D01*
X162770051Y-115700046D01*
X162770049Y-115700045D01*
X162770050Y-115700045D01*
X162631963Y-115659500D01*
X162631961Y-115659500D01*
X162488039Y-115659500D01*
X162488036Y-115659500D01*
X162349949Y-115700045D01*
X162228873Y-115777856D01*
X162134623Y-115886626D01*
X162134622Y-115886628D01*
X162074834Y-116017543D01*
X162054353Y-116160000D01*
X146087782Y-116160000D01*
X146010053Y-116110047D01*
X146010051Y-116110046D01*
X146010049Y-116110045D01*
X146010050Y-116110045D01*
X145871963Y-116069500D01*
X145871961Y-116069500D01*
X145728039Y-116069500D01*
X145728036Y-116069500D01*
X145589949Y-116110045D01*
X145468873Y-116187856D01*
X145374623Y-116296626D01*
X145374622Y-116296628D01*
X145314834Y-116427543D01*
X145294353Y-116570000D01*
X142760500Y-116570000D01*
X142760500Y-114980000D01*
X151954353Y-114980000D01*
X151974834Y-115122456D01*
X152034622Y-115253371D01*
X152034623Y-115253373D01*
X152128872Y-115362143D01*
X152249947Y-115439953D01*
X152249950Y-115439954D01*
X152249949Y-115439954D01*
X152388036Y-115480499D01*
X152388038Y-115480500D01*
X152388039Y-115480500D01*
X152531962Y-115480500D01*
X152531962Y-115480499D01*
X152670053Y-115439953D01*
X152791128Y-115362143D01*
X152885377Y-115253373D01*
X152945165Y-115122457D01*
X152965647Y-114980000D01*
X152945165Y-114837543D01*
X152885377Y-114706627D01*
X152791128Y-114597857D01*
X152670053Y-114520047D01*
X152670051Y-114520046D01*
X152670049Y-114520045D01*
X152670050Y-114520045D01*
X152531963Y-114479500D01*
X152531961Y-114479500D01*
X152388039Y-114479500D01*
X152388036Y-114479500D01*
X152249949Y-114520045D01*
X152128873Y-114597856D01*
X152034623Y-114706626D01*
X152034622Y-114706628D01*
X151974834Y-114837543D01*
X151954353Y-114980000D01*
X142760500Y-114980000D01*
X142760500Y-114077500D01*
X149224353Y-114077500D01*
X149244834Y-114219956D01*
X149304622Y-114350871D01*
X149304623Y-114350873D01*
X149398872Y-114459643D01*
X149519947Y-114537453D01*
X149519950Y-114537454D01*
X149519949Y-114537454D01*
X149658036Y-114577999D01*
X149658038Y-114578000D01*
X149658039Y-114578000D01*
X149801962Y-114578000D01*
X149801962Y-114577999D01*
X149940053Y-114537453D01*
X150061128Y-114459643D01*
X150155377Y-114350873D01*
X150215165Y-114219957D01*
X150235647Y-114077500D01*
X150215165Y-113935043D01*
X150155377Y-113804127D01*
X150061128Y-113695357D01*
X150022815Y-113670735D01*
X164145088Y-113670735D01*
X164165569Y-113813191D01*
X164221218Y-113935043D01*
X164225358Y-113944108D01*
X164319607Y-114052878D01*
X164440682Y-114130688D01*
X164440685Y-114130689D01*
X164440684Y-114130689D01*
X164578771Y-114171234D01*
X164578773Y-114171235D01*
X164578774Y-114171235D01*
X164722697Y-114171235D01*
X164722697Y-114171234D01*
X164860788Y-114130688D01*
X164894123Y-114109265D01*
X165403618Y-114109265D01*
X165424099Y-114251721D01*
X165469380Y-114350871D01*
X165483888Y-114382638D01*
X165578137Y-114491408D01*
X165699212Y-114569218D01*
X165699215Y-114569219D01*
X165699214Y-114569219D01*
X165837301Y-114609764D01*
X165837303Y-114609765D01*
X165837304Y-114609765D01*
X165981227Y-114609765D01*
X165981227Y-114609764D01*
X166119318Y-114569218D01*
X166240393Y-114491408D01*
X166334642Y-114382638D01*
X166394430Y-114251722D01*
X166414912Y-114109265D01*
X166396327Y-113980000D01*
X166954353Y-113980000D01*
X166974834Y-114122456D01*
X167033869Y-114251722D01*
X167034623Y-114253373D01*
X167128872Y-114362143D01*
X167249947Y-114439953D01*
X167249950Y-114439954D01*
X167249949Y-114439954D01*
X167357107Y-114471417D01*
X167384633Y-114479500D01*
X167388036Y-114480499D01*
X167388038Y-114480500D01*
X167388039Y-114480500D01*
X167531962Y-114480500D01*
X167531962Y-114480499D01*
X167670053Y-114439953D01*
X167791128Y-114362143D01*
X167885377Y-114253373D01*
X167945165Y-114122457D01*
X167965647Y-113980000D01*
X167945165Y-113837543D01*
X167885377Y-113706627D01*
X167791128Y-113597857D01*
X167670053Y-113520047D01*
X167670051Y-113520046D01*
X167670049Y-113520045D01*
X167670050Y-113520045D01*
X167531963Y-113479500D01*
X167531961Y-113479500D01*
X167388039Y-113479500D01*
X167388036Y-113479500D01*
X167249949Y-113520045D01*
X167128873Y-113597856D01*
X167034623Y-113706626D01*
X167034622Y-113706628D01*
X166974834Y-113837543D01*
X166954353Y-113980000D01*
X166396327Y-113980000D01*
X166394430Y-113966808D01*
X166334642Y-113835892D01*
X166240393Y-113727122D01*
X166119318Y-113649312D01*
X166119316Y-113649311D01*
X166119314Y-113649310D01*
X166119315Y-113649310D01*
X165981228Y-113608765D01*
X165981226Y-113608765D01*
X165837304Y-113608765D01*
X165837301Y-113608765D01*
X165699214Y-113649310D01*
X165578138Y-113727121D01*
X165483888Y-113835891D01*
X165483887Y-113835893D01*
X165424099Y-113966808D01*
X165403618Y-114109265D01*
X164894123Y-114109265D01*
X164981863Y-114052878D01*
X165076112Y-113944108D01*
X165135900Y-113813192D01*
X165156382Y-113670735D01*
X165135900Y-113528278D01*
X165076112Y-113397362D01*
X164981863Y-113288592D01*
X164860788Y-113210782D01*
X164860786Y-113210781D01*
X164860784Y-113210780D01*
X164860785Y-113210780D01*
X164722698Y-113170235D01*
X164722696Y-113170235D01*
X164578774Y-113170235D01*
X164578771Y-113170235D01*
X164440684Y-113210780D01*
X164319608Y-113288591D01*
X164225358Y-113397361D01*
X164225357Y-113397363D01*
X164165569Y-113528278D01*
X164145088Y-113670735D01*
X150022815Y-113670735D01*
X149940053Y-113617547D01*
X149940051Y-113617546D01*
X149940049Y-113617545D01*
X149940050Y-113617545D01*
X149801963Y-113577000D01*
X149801961Y-113577000D01*
X149658039Y-113577000D01*
X149658036Y-113577000D01*
X149519949Y-113617545D01*
X149398873Y-113695356D01*
X149304623Y-113804126D01*
X149304622Y-113804128D01*
X149244834Y-113935043D01*
X149224353Y-114077500D01*
X142760500Y-114077500D01*
X142760500Y-112480000D01*
X164990088Y-112480000D01*
X165010569Y-112622456D01*
X165070357Y-112753371D01*
X165070358Y-112753373D01*
X165164607Y-112862143D01*
X165285682Y-112939953D01*
X165285685Y-112939954D01*
X165285684Y-112939954D01*
X165423771Y-112980499D01*
X165423773Y-112980500D01*
X165423774Y-112980500D01*
X165567697Y-112980500D01*
X165567697Y-112980499D01*
X165705788Y-112939953D01*
X165826863Y-112862143D01*
X165921112Y-112753373D01*
X165980900Y-112622457D01*
X166001382Y-112480000D01*
X165980900Y-112337543D01*
X165921112Y-112206627D01*
X165826863Y-112097857D01*
X165705788Y-112020047D01*
X165705786Y-112020046D01*
X165705784Y-112020045D01*
X165705785Y-112020045D01*
X165567698Y-111979500D01*
X165567696Y-111979500D01*
X165423774Y-111979500D01*
X165423771Y-111979500D01*
X165285684Y-112020045D01*
X165164608Y-112097856D01*
X165070358Y-112206626D01*
X165070357Y-112206628D01*
X165010569Y-112337543D01*
X164990088Y-112480000D01*
X142760500Y-112480000D01*
X142760500Y-111672565D01*
X162507578Y-111672565D01*
X162528059Y-111815021D01*
X162587847Y-111945936D01*
X162587848Y-111945938D01*
X162682097Y-112054708D01*
X162803172Y-112132518D01*
X162803175Y-112132519D01*
X162803174Y-112132519D01*
X162941261Y-112173064D01*
X162941263Y-112173065D01*
X162941264Y-112173065D01*
X163085187Y-112173065D01*
X163085187Y-112173064D01*
X163223278Y-112132518D01*
X163344353Y-112054708D01*
X163438602Y-111945938D01*
X163498390Y-111815022D01*
X163518872Y-111672565D01*
X163498390Y-111530108D01*
X163438602Y-111399192D01*
X163344353Y-111290422D01*
X163223278Y-111212612D01*
X163223276Y-111212611D01*
X163223274Y-111212610D01*
X163223275Y-111212610D01*
X163085188Y-111172065D01*
X163085186Y-111172065D01*
X162941264Y-111172065D01*
X162941261Y-111172065D01*
X162803174Y-111212610D01*
X162682098Y-111290421D01*
X162587848Y-111399191D01*
X162587847Y-111399193D01*
X162528059Y-111530108D01*
X162507578Y-111672565D01*
X142760500Y-111672565D01*
X142760500Y-110867500D01*
X147834353Y-110867500D01*
X147854834Y-111009956D01*
X147914622Y-111140871D01*
X147914623Y-111140873D01*
X148008872Y-111249643D01*
X148129947Y-111327453D01*
X148129950Y-111327454D01*
X148129949Y-111327454D01*
X148268036Y-111367999D01*
X148268038Y-111368000D01*
X148268039Y-111368000D01*
X148411962Y-111368000D01*
X148411962Y-111367999D01*
X148550053Y-111327453D01*
X148671128Y-111249643D01*
X148765377Y-111140873D01*
X148825165Y-111009957D01*
X148845647Y-110867500D01*
X148832453Y-110775735D01*
X165380088Y-110775735D01*
X165400569Y-110918191D01*
X165442478Y-111009957D01*
X165460358Y-111049108D01*
X165554607Y-111157878D01*
X165675682Y-111235688D01*
X165675685Y-111235689D01*
X165675684Y-111235689D01*
X165813771Y-111276234D01*
X165813773Y-111276235D01*
X165813774Y-111276235D01*
X165957697Y-111276235D01*
X165957697Y-111276234D01*
X166095788Y-111235688D01*
X166216863Y-111157878D01*
X166311112Y-111049108D01*
X166370900Y-110918192D01*
X166391382Y-110775735D01*
X166370900Y-110633278D01*
X166311112Y-110502362D01*
X166216863Y-110393592D01*
X166095788Y-110315782D01*
X166095786Y-110315781D01*
X166095784Y-110315780D01*
X166095785Y-110315780D01*
X165957698Y-110275235D01*
X165957696Y-110275235D01*
X165813774Y-110275235D01*
X165813771Y-110275235D01*
X165675684Y-110315780D01*
X165554608Y-110393591D01*
X165460358Y-110502361D01*
X165460357Y-110502363D01*
X165400569Y-110633278D01*
X165380088Y-110775735D01*
X148832453Y-110775735D01*
X148825165Y-110725043D01*
X148765377Y-110594127D01*
X148671128Y-110485357D01*
X148550053Y-110407547D01*
X148550051Y-110407546D01*
X148550049Y-110407545D01*
X148550050Y-110407545D01*
X148411963Y-110367000D01*
X148411961Y-110367000D01*
X148268039Y-110367000D01*
X148268036Y-110367000D01*
X148129949Y-110407545D01*
X148008873Y-110485356D01*
X147914623Y-110594126D01*
X147914622Y-110594128D01*
X147854834Y-110725043D01*
X147834353Y-110867500D01*
X142760500Y-110867500D01*
X142760500Y-109157500D01*
X143222096Y-109157500D01*
X144040272Y-109157500D01*
X143948386Y-109195560D01*
X143878060Y-109265886D01*
X143840000Y-109357772D01*
X143840000Y-109457228D01*
X143878060Y-109549114D01*
X143948386Y-109619440D01*
X144040272Y-109657500D01*
X143222096Y-109657500D01*
X143224584Y-109670016D01*
X143224587Y-109670023D01*
X143292428Y-109833806D01*
X143292433Y-109833816D01*
X143390923Y-109981216D01*
X143390926Y-109981220D01*
X143516279Y-110106573D01*
X143516283Y-110106576D01*
X143663683Y-110205066D01*
X143663692Y-110205071D01*
X143827479Y-110272913D01*
X143827487Y-110272915D01*
X144001353Y-110307499D01*
X144001357Y-110307500D01*
X144140000Y-110307500D01*
X144140000Y-109657500D01*
X144640000Y-109657500D01*
X144640000Y-110307500D01*
X144778643Y-110307500D01*
X144778646Y-110307499D01*
X144952512Y-110272915D01*
X144952520Y-110272913D01*
X145116307Y-110205071D01*
X145116316Y-110205066D01*
X145263716Y-110106576D01*
X145263720Y-110106573D01*
X145389073Y-109981220D01*
X145389076Y-109981216D01*
X145487566Y-109833816D01*
X145487571Y-109833806D01*
X145555412Y-109670023D01*
X145555415Y-109670016D01*
X145557904Y-109657500D01*
X144739728Y-109657500D01*
X144831614Y-109619440D01*
X144901940Y-109549114D01*
X144940000Y-109457228D01*
X144940000Y-109357772D01*
X144901940Y-109265886D01*
X144831614Y-109195560D01*
X144739728Y-109157500D01*
X145557904Y-109157500D01*
X145555415Y-109144983D01*
X145555412Y-109144976D01*
X145487571Y-108981193D01*
X145487566Y-108981183D01*
X145389076Y-108833783D01*
X145389073Y-108833779D01*
X145263720Y-108708426D01*
X145263716Y-108708423D01*
X145116316Y-108609933D01*
X145116307Y-108609928D01*
X144952520Y-108542086D01*
X144952512Y-108542084D01*
X144778646Y-108507500D01*
X144640000Y-108507500D01*
X144640000Y-109157500D01*
X144140000Y-109157500D01*
X144140000Y-108507500D01*
X144001353Y-108507500D01*
X143827487Y-108542084D01*
X143827479Y-108542086D01*
X143663692Y-108609928D01*
X143663683Y-108609933D01*
X143516283Y-108708423D01*
X143516279Y-108708426D01*
X143390926Y-108833779D01*
X143390923Y-108833783D01*
X143292433Y-108981183D01*
X143292428Y-108981193D01*
X143224587Y-109144976D01*
X143224584Y-109144983D01*
X143222096Y-109157500D01*
X142760500Y-109157500D01*
X142760500Y-100177500D01*
X143222096Y-100177500D01*
X144040272Y-100177500D01*
X143948386Y-100215560D01*
X143878060Y-100285886D01*
X143840000Y-100377772D01*
X143840000Y-100477228D01*
X143878060Y-100569114D01*
X143948386Y-100639440D01*
X144040272Y-100677500D01*
X143222096Y-100677500D01*
X143224584Y-100690016D01*
X143224587Y-100690023D01*
X143292428Y-100853806D01*
X143292433Y-100853816D01*
X143390923Y-101001216D01*
X143390926Y-101001220D01*
X143516279Y-101126573D01*
X143516283Y-101126576D01*
X143663683Y-101225066D01*
X143663692Y-101225071D01*
X143827479Y-101292913D01*
X143827487Y-101292915D01*
X144001353Y-101327499D01*
X144001357Y-101327500D01*
X144140000Y-101327500D01*
X144140000Y-100677500D01*
X144640000Y-100677500D01*
X144640000Y-101327500D01*
X144778643Y-101327500D01*
X144778646Y-101327499D01*
X144952512Y-101292915D01*
X144952520Y-101292913D01*
X145116307Y-101225071D01*
X145116316Y-101225066D01*
X145263716Y-101126576D01*
X145263720Y-101126573D01*
X145389073Y-101001220D01*
X145389076Y-101001216D01*
X145487566Y-100853816D01*
X145487571Y-100853806D01*
X145555412Y-100690023D01*
X145555415Y-100690016D01*
X145557904Y-100677500D01*
X144739728Y-100677500D01*
X144831614Y-100639440D01*
X144901940Y-100569114D01*
X144915035Y-100537500D01*
X149172096Y-100537500D01*
X149990272Y-100537500D01*
X149898386Y-100575560D01*
X149828060Y-100645886D01*
X149790000Y-100737772D01*
X149790000Y-100837228D01*
X149828060Y-100929114D01*
X149898386Y-100999440D01*
X149990272Y-101037500D01*
X149172096Y-101037500D01*
X149174584Y-101050016D01*
X149174587Y-101050023D01*
X149242428Y-101213806D01*
X149242433Y-101213816D01*
X149340923Y-101361216D01*
X149340926Y-101361220D01*
X149466279Y-101486573D01*
X149466283Y-101486576D01*
X149613683Y-101585066D01*
X149613692Y-101585071D01*
X149777479Y-101652913D01*
X149777487Y-101652915D01*
X149951353Y-101687499D01*
X149951357Y-101687500D01*
X150041588Y-101687500D01*
X150108627Y-101707185D01*
X150154382Y-101759989D01*
X150164326Y-101829147D01*
X150159519Y-101849818D01*
X150127542Y-101948234D01*
X150088105Y-102005909D01*
X150057064Y-102024477D01*
X149974984Y-102058475D01*
X149865209Y-102142709D01*
X149780974Y-102252485D01*
X149728027Y-102380313D01*
X149728026Y-102380318D01*
X149713304Y-102492142D01*
X149709965Y-102517500D01*
X149727398Y-102649915D01*
X149728026Y-102654681D01*
X149728027Y-102654686D01*
X149780974Y-102782515D01*
X149780975Y-102782517D01*
X149780976Y-102782518D01*
X149826629Y-102842013D01*
X149851823Y-102907183D01*
X149837785Y-102975627D01*
X149826629Y-102992986D01*
X149780976Y-103052482D01*
X149780974Y-103052484D01*
X149728027Y-103180313D01*
X149728026Y-103180316D01*
X149728026Y-103180317D01*
X149709965Y-103317500D01*
X149727736Y-103452483D01*
X149728026Y-103454681D01*
X149728027Y-103454686D01*
X149780974Y-103582515D01*
X149826629Y-103642013D01*
X149851823Y-103707183D01*
X149837785Y-103775627D01*
X149826629Y-103792986D01*
X149780976Y-103852482D01*
X149780974Y-103852484D01*
X149728027Y-103980313D01*
X149728026Y-103980316D01*
X149728026Y-103980317D01*
X149709965Y-104117500D01*
X149727736Y-104252483D01*
X149728026Y-104254681D01*
X149728027Y-104254686D01*
X149780974Y-104382515D01*
X149780975Y-104382517D01*
X149780976Y-104382518D01*
X149865209Y-104492291D01*
X149974982Y-104576524D01*
X150102817Y-104629474D01*
X150240000Y-104647535D01*
X150321161Y-104636849D01*
X150390193Y-104647614D01*
X150442450Y-104693993D01*
X150451906Y-104712336D01*
X150480974Y-104782515D01*
X150480975Y-104782517D01*
X150480976Y-104782518D01*
X150523202Y-104837547D01*
X150526629Y-104842013D01*
X150551823Y-104907183D01*
X150537785Y-104975627D01*
X150526629Y-104992986D01*
X150480976Y-105052482D01*
X150451906Y-105122664D01*
X150408065Y-105177067D01*
X150341771Y-105199132D01*
X150321159Y-105198150D01*
X150240001Y-105187465D01*
X150239999Y-105187465D01*
X150194753Y-105193422D01*
X150102817Y-105205526D01*
X150102816Y-105205526D01*
X150102813Y-105205527D01*
X149974985Y-105258474D01*
X149865209Y-105342709D01*
X149780974Y-105452485D01*
X149728027Y-105580313D01*
X149728026Y-105580318D01*
X149713131Y-105693456D01*
X149709965Y-105717500D01*
X149727736Y-105852483D01*
X149728026Y-105854681D01*
X149728027Y-105854686D01*
X149780974Y-105982515D01*
X149780975Y-105982517D01*
X149780976Y-105982518D01*
X149823202Y-106037547D01*
X149826629Y-106042013D01*
X149851823Y-106107183D01*
X149837785Y-106175627D01*
X149826629Y-106192986D01*
X149780976Y-106252482D01*
X149780974Y-106252484D01*
X149728027Y-106380313D01*
X149728026Y-106380316D01*
X149728026Y-106380317D01*
X149709965Y-106517500D01*
X149722249Y-106610807D01*
X149728026Y-106654681D01*
X149728027Y-106654686D01*
X149780974Y-106782515D01*
X149826629Y-106842013D01*
X149851823Y-106907183D01*
X149837785Y-106975627D01*
X149826629Y-106992986D01*
X149780976Y-107052482D01*
X149780974Y-107052484D01*
X149728027Y-107180313D01*
X149728026Y-107180316D01*
X149728026Y-107180317D01*
X149719479Y-107245235D01*
X149709965Y-107317499D01*
X149709965Y-107317500D01*
X149728026Y-107454681D01*
X149728027Y-107454686D01*
X149780974Y-107582515D01*
X149780975Y-107582517D01*
X149780976Y-107582518D01*
X149865209Y-107692291D01*
X149974982Y-107776524D01*
X150057064Y-107810523D01*
X150111466Y-107854362D01*
X150127542Y-107886766D01*
X150159519Y-107985183D01*
X150161514Y-108055024D01*
X150125433Y-108114856D01*
X150062732Y-108145684D01*
X150041588Y-108147500D01*
X149951353Y-108147500D01*
X149777487Y-108182084D01*
X149777479Y-108182086D01*
X149613692Y-108249928D01*
X149613683Y-108249933D01*
X149466283Y-108348423D01*
X149466279Y-108348426D01*
X149340926Y-108473779D01*
X149340923Y-108473783D01*
X149242433Y-108621183D01*
X149242428Y-108621193D01*
X149174587Y-108784976D01*
X149174584Y-108784983D01*
X149172096Y-108797500D01*
X149990272Y-108797500D01*
X149898386Y-108835560D01*
X149828060Y-108905886D01*
X149790000Y-108997772D01*
X149790000Y-109097228D01*
X149828060Y-109189114D01*
X149898386Y-109259440D01*
X149990272Y-109297500D01*
X149172096Y-109297500D01*
X149174584Y-109310016D01*
X149174587Y-109310023D01*
X149242428Y-109473806D01*
X149242433Y-109473816D01*
X149340923Y-109621216D01*
X149340926Y-109621220D01*
X149466279Y-109746573D01*
X149466283Y-109746576D01*
X149613683Y-109845066D01*
X149613692Y-109845071D01*
X149777479Y-109912913D01*
X149777487Y-109912915D01*
X149951353Y-109947499D01*
X149951357Y-109947500D01*
X150090000Y-109947500D01*
X150090000Y-109297500D01*
X150590000Y-109297500D01*
X150590000Y-109947500D01*
X150728643Y-109947500D01*
X150728646Y-109947499D01*
X150902512Y-109912915D01*
X150902520Y-109912913D01*
X151066307Y-109845071D01*
X151066316Y-109845066D01*
X151213716Y-109746576D01*
X151213720Y-109746573D01*
X151230293Y-109730000D01*
X158344353Y-109730000D01*
X158364834Y-109872456D01*
X158399106Y-109947499D01*
X158424623Y-110003373D01*
X158518872Y-110112143D01*
X158639947Y-110189953D01*
X158639950Y-110189954D01*
X158639949Y-110189954D01*
X158778036Y-110230499D01*
X158778038Y-110230500D01*
X158778039Y-110230500D01*
X158921962Y-110230500D01*
X158921962Y-110230499D01*
X159060053Y-110189953D01*
X159181128Y-110112143D01*
X159275377Y-110003373D01*
X159335165Y-109872457D01*
X159355647Y-109730000D01*
X159335165Y-109587543D01*
X159275377Y-109456627D01*
X159181128Y-109347857D01*
X159060053Y-109270047D01*
X159060051Y-109270046D01*
X159060049Y-109270045D01*
X159060050Y-109270045D01*
X158921963Y-109229500D01*
X158921961Y-109229500D01*
X158778039Y-109229500D01*
X158778036Y-109229500D01*
X158639949Y-109270045D01*
X158518873Y-109347856D01*
X158424623Y-109456626D01*
X158424622Y-109456628D01*
X158364834Y-109587543D01*
X158344353Y-109730000D01*
X151230293Y-109730000D01*
X151339073Y-109621220D01*
X151339076Y-109621216D01*
X151437566Y-109473816D01*
X151437571Y-109473807D01*
X151505412Y-109310022D01*
X151505415Y-109310013D01*
X151508838Y-109292808D01*
X151541223Y-109230897D01*
X151601939Y-109196323D01*
X151630455Y-109193000D01*
X151659181Y-109193000D01*
X151659183Y-109193000D01*
X151792836Y-109157188D01*
X151912665Y-109088005D01*
X152010505Y-108990165D01*
X152079688Y-108870336D01*
X152115500Y-108736683D01*
X152115500Y-108542943D01*
X157834353Y-108542943D01*
X157854834Y-108685399D01*
X157906030Y-108797500D01*
X157914623Y-108816316D01*
X158008872Y-108925086D01*
X158129947Y-109002896D01*
X158129950Y-109002897D01*
X158129949Y-109002897D01*
X158268036Y-109043442D01*
X158268038Y-109043443D01*
X158268039Y-109043443D01*
X158411962Y-109043443D01*
X158411962Y-109043442D01*
X158515559Y-109013024D01*
X161343270Y-109013024D01*
X161363751Y-109155480D01*
X161398570Y-109231721D01*
X161423540Y-109286397D01*
X161517789Y-109395167D01*
X161638864Y-109472977D01*
X161638867Y-109472978D01*
X161638866Y-109472978D01*
X161776953Y-109513523D01*
X161776955Y-109513524D01*
X161776956Y-109513524D01*
X161920879Y-109513524D01*
X161920879Y-109513523D01*
X162028038Y-109482059D01*
X162058967Y-109472978D01*
X162058967Y-109472977D01*
X162058970Y-109472977D01*
X162180045Y-109395167D01*
X162193957Y-109379110D01*
X162252731Y-109341338D01*
X162322601Y-109341336D01*
X162374438Y-109374648D01*
X162375142Y-109373837D01*
X162380783Y-109378725D01*
X162381378Y-109379107D01*
X162381842Y-109379643D01*
X162502917Y-109457453D01*
X162502920Y-109457454D01*
X162502919Y-109457454D01*
X162641006Y-109497999D01*
X162641008Y-109498000D01*
X162692305Y-109498000D01*
X162759344Y-109517685D01*
X162805099Y-109570489D01*
X162815043Y-109604353D01*
X162824834Y-109672456D01*
X162865937Y-109762457D01*
X162884623Y-109803373D01*
X162978872Y-109912143D01*
X163099947Y-109989953D01*
X163099950Y-109989954D01*
X163099949Y-109989954D01*
X163238036Y-110030499D01*
X163238038Y-110030500D01*
X163238039Y-110030500D01*
X163381962Y-110030500D01*
X163381962Y-110030499D01*
X163520050Y-109989954D01*
X163520051Y-109989954D01*
X163520053Y-109989953D01*
X163614816Y-109929052D01*
X163681853Y-109909368D01*
X163748893Y-109929052D01*
X163775567Y-109952166D01*
X163818872Y-110002143D01*
X163939947Y-110079953D01*
X163939950Y-110079954D01*
X163939949Y-110079954D01*
X164078036Y-110120499D01*
X164078038Y-110120500D01*
X164078039Y-110120500D01*
X164221962Y-110120500D01*
X164221962Y-110120499D01*
X164360053Y-110079953D01*
X164481128Y-110002143D01*
X164575377Y-109893373D01*
X164635165Y-109762457D01*
X164655647Y-109620000D01*
X164635165Y-109477543D01*
X164575377Y-109346627D01*
X164481128Y-109237857D01*
X164360053Y-109160047D01*
X164360051Y-109160046D01*
X164360049Y-109160045D01*
X164360050Y-109160045D01*
X164221963Y-109119500D01*
X164221961Y-109119500D01*
X164078039Y-109119500D01*
X164078036Y-109119500D01*
X163939949Y-109160045D01*
X163845184Y-109220947D01*
X163778144Y-109240631D01*
X163711105Y-109220946D01*
X163684432Y-109197833D01*
X163682462Y-109195560D01*
X163649213Y-109157188D01*
X163641129Y-109147858D01*
X163641128Y-109147857D01*
X163520053Y-109070047D01*
X163520051Y-109070046D01*
X163520049Y-109070045D01*
X163520050Y-109070045D01*
X163381963Y-109029500D01*
X163381961Y-109029500D01*
X163330665Y-109029500D01*
X163263626Y-109009815D01*
X163217871Y-108957011D01*
X163207927Y-108923147D01*
X163198135Y-108855043D01*
X163180448Y-108816314D01*
X163138347Y-108724127D01*
X163044098Y-108615357D01*
X162923023Y-108537547D01*
X162923021Y-108537546D01*
X162923019Y-108537545D01*
X162923020Y-108537545D01*
X162784933Y-108497000D01*
X162784931Y-108497000D01*
X162641009Y-108497000D01*
X162641006Y-108497000D01*
X162502919Y-108537545D01*
X162381842Y-108615357D01*
X162381841Y-108615357D01*
X162367928Y-108631414D01*
X162309149Y-108669187D01*
X162239279Y-108669185D01*
X162187448Y-108635874D01*
X162186745Y-108636687D01*
X162181095Y-108631791D01*
X162180505Y-108631411D01*
X162180045Y-108630881D01*
X162058970Y-108553071D01*
X162058968Y-108553070D01*
X162058966Y-108553069D01*
X162058967Y-108553069D01*
X161920880Y-108512524D01*
X161920878Y-108512524D01*
X161776956Y-108512524D01*
X161776953Y-108512524D01*
X161638866Y-108553069D01*
X161517790Y-108630880D01*
X161517789Y-108630880D01*
X161517789Y-108630881D01*
X161513463Y-108635874D01*
X161423540Y-108739650D01*
X161423539Y-108739652D01*
X161363751Y-108870567D01*
X161343270Y-109013024D01*
X158515559Y-109013024D01*
X158550053Y-109002896D01*
X158671128Y-108925086D01*
X158765377Y-108816316D01*
X158825165Y-108685400D01*
X158845647Y-108542943D01*
X158825165Y-108400486D01*
X158765377Y-108269570D01*
X158671128Y-108160800D01*
X158550053Y-108082990D01*
X158550051Y-108082989D01*
X158550049Y-108082988D01*
X158550050Y-108082988D01*
X158411963Y-108042443D01*
X158411961Y-108042443D01*
X158268039Y-108042443D01*
X158268036Y-108042443D01*
X158129949Y-108082988D01*
X158008873Y-108160799D01*
X158008872Y-108160799D01*
X158008872Y-108160800D01*
X158005524Y-108164664D01*
X157914623Y-108269569D01*
X157914622Y-108269571D01*
X157854834Y-108400486D01*
X157834353Y-108542943D01*
X152115500Y-108542943D01*
X152115500Y-108298317D01*
X152079688Y-108164664D01*
X152010505Y-108044835D01*
X151912665Y-107946995D01*
X151912664Y-107946994D01*
X151912661Y-107946992D01*
X151824728Y-107896224D01*
X151776512Y-107845657D01*
X151763289Y-107777050D01*
X151763408Y-107775873D01*
X151766576Y-107745735D01*
X166844353Y-107745735D01*
X166864834Y-107888191D01*
X166924622Y-108019106D01*
X166924623Y-108019108D01*
X167018872Y-108127878D01*
X167139947Y-108205688D01*
X167139950Y-108205689D01*
X167139949Y-108205689D01*
X167278036Y-108246234D01*
X167278038Y-108246235D01*
X167278039Y-108246235D01*
X167421962Y-108246235D01*
X167421962Y-108246234D01*
X167560050Y-108205689D01*
X167560051Y-108205689D01*
X167563803Y-108203278D01*
X167629311Y-108161178D01*
X167696348Y-108141494D01*
X167763388Y-108161178D01*
X167809143Y-108213982D01*
X167819087Y-108283140D01*
X167816905Y-108298319D01*
X167810088Y-108345735D01*
X167810475Y-108348426D01*
X167830569Y-108488191D01*
X167886168Y-108609933D01*
X167890358Y-108619108D01*
X167984607Y-108727878D01*
X168105682Y-108805688D01*
X168105685Y-108805689D01*
X168105684Y-108805689D01*
X168243771Y-108846234D01*
X168243773Y-108846235D01*
X168243774Y-108846235D01*
X168387697Y-108846235D01*
X168387697Y-108846234D01*
X168525785Y-108805689D01*
X168525786Y-108805689D01*
X168525788Y-108805688D01*
X168627362Y-108740410D01*
X168694399Y-108720726D01*
X168761439Y-108740410D01*
X168807194Y-108793214D01*
X168817138Y-108862372D01*
X168807195Y-108896236D01*
X168784099Y-108946808D01*
X168763618Y-109089265D01*
X168784099Y-109231721D01*
X168836575Y-109346626D01*
X168843888Y-109362638D01*
X168938137Y-109471408D01*
X169059212Y-109549218D01*
X169059215Y-109549219D01*
X169059214Y-109549219D01*
X169131655Y-109570489D01*
X169189736Y-109587543D01*
X169197301Y-109589764D01*
X169197303Y-109589765D01*
X169197304Y-109589765D01*
X169341227Y-109589765D01*
X169341227Y-109589764D01*
X169479318Y-109549218D01*
X169600393Y-109471408D01*
X169694642Y-109362638D01*
X169754430Y-109231722D01*
X169774912Y-109089265D01*
X169754430Y-108946808D01*
X169694642Y-108815892D01*
X169600393Y-108707122D01*
X169479318Y-108629312D01*
X169479316Y-108629311D01*
X169479314Y-108629310D01*
X169479315Y-108629310D01*
X169341228Y-108588765D01*
X169341226Y-108588765D01*
X169197304Y-108588765D01*
X169197301Y-108588765D01*
X169059214Y-108629310D01*
X168957638Y-108694589D01*
X168890598Y-108714273D01*
X168823559Y-108694588D01*
X168777804Y-108641784D01*
X168767861Y-108572625D01*
X168777802Y-108538766D01*
X168800900Y-108488192D01*
X168821382Y-108345735D01*
X168800900Y-108203278D01*
X168767435Y-108130000D01*
X182324353Y-108130000D01*
X182344834Y-108272456D01*
X182404622Y-108403371D01*
X182404623Y-108403373D01*
X182498872Y-108512143D01*
X182619947Y-108589953D01*
X182619950Y-108589954D01*
X182619949Y-108589954D01*
X182706466Y-108615357D01*
X182753986Y-108629310D01*
X182758036Y-108630499D01*
X182758038Y-108630500D01*
X182758039Y-108630500D01*
X182901962Y-108630500D01*
X182901962Y-108630499D01*
X183040053Y-108589953D01*
X183161128Y-108512143D01*
X183255377Y-108403373D01*
X183315165Y-108272457D01*
X183335647Y-108130000D01*
X183315165Y-107987543D01*
X183255377Y-107856627D01*
X183161128Y-107747857D01*
X183040053Y-107670047D01*
X183040051Y-107670046D01*
X183040049Y-107670045D01*
X183040050Y-107670045D01*
X182901963Y-107629500D01*
X182901961Y-107629500D01*
X182758039Y-107629500D01*
X182758036Y-107629500D01*
X182619949Y-107670045D01*
X182498873Y-107747856D01*
X182404623Y-107856626D01*
X182404622Y-107856628D01*
X182344834Y-107987543D01*
X182324353Y-108130000D01*
X168767435Y-108130000D01*
X168741112Y-108072362D01*
X168646863Y-107963592D01*
X168525788Y-107885782D01*
X168525786Y-107885781D01*
X168525784Y-107885780D01*
X168525785Y-107885780D01*
X168387698Y-107845235D01*
X168387696Y-107845235D01*
X168243774Y-107845235D01*
X168239163Y-107845235D01*
X168172124Y-107825550D01*
X168126369Y-107772746D01*
X168116425Y-107703588D01*
X168145450Y-107640032D01*
X168204228Y-107602258D01*
X168204229Y-107602258D01*
X168267918Y-107583557D01*
X168267918Y-107583556D01*
X168267921Y-107583556D01*
X168388996Y-107505746D01*
X168483245Y-107396976D01*
X168543033Y-107266060D01*
X168563515Y-107123603D01*
X168543033Y-106981146D01*
X168483245Y-106850230D01*
X168388996Y-106741460D01*
X168267921Y-106663650D01*
X168267919Y-106663649D01*
X168267917Y-106663648D01*
X168267918Y-106663648D01*
X168129831Y-106623103D01*
X168129829Y-106623103D01*
X167985907Y-106623103D01*
X167985904Y-106623103D01*
X167847817Y-106663648D01*
X167726741Y-106741459D01*
X167632491Y-106850229D01*
X167632490Y-106850231D01*
X167572702Y-106981146D01*
X167550959Y-107132381D01*
X167549029Y-107132103D01*
X167532536Y-107188274D01*
X167479732Y-107234029D01*
X167428221Y-107245235D01*
X167278036Y-107245235D01*
X167139949Y-107285780D01*
X167018873Y-107363591D01*
X166924623Y-107472361D01*
X166924622Y-107472363D01*
X166864834Y-107603278D01*
X166844353Y-107745735D01*
X151766576Y-107745735D01*
X151769544Y-107717503D01*
X151751415Y-107545026D01*
X151751414Y-107545023D01*
X151697826Y-107380095D01*
X151673349Y-107337702D01*
X150940000Y-108071053D01*
X150590000Y-108421052D01*
X150590000Y-108797500D01*
X150090000Y-108797500D01*
X150090000Y-108223335D01*
X150109685Y-108156296D01*
X150162489Y-108110541D01*
X150198854Y-108105091D01*
X150595566Y-107708379D01*
X150607755Y-107697689D01*
X150614791Y-107692291D01*
X150620189Y-107685255D01*
X150626799Y-107677718D01*
X150740000Y-107677718D01*
X150740000Y-107757282D01*
X150770448Y-107830791D01*
X150826709Y-107887052D01*
X150900218Y-107917500D01*
X150979782Y-107917500D01*
X151053291Y-107887052D01*
X151109552Y-107830791D01*
X151140000Y-107757282D01*
X151140000Y-107677718D01*
X151109552Y-107604209D01*
X151053291Y-107547948D01*
X150979782Y-107517500D01*
X150900218Y-107517500D01*
X150826709Y-107547948D01*
X150770448Y-107604209D01*
X150740000Y-107677718D01*
X150626799Y-107677718D01*
X150630879Y-107673065D01*
X150940000Y-107363946D01*
X151320231Y-106983715D01*
X151196340Y-106928556D01*
X151026711Y-106892500D01*
X150971180Y-106892500D01*
X150904141Y-106872815D01*
X150858386Y-106820011D01*
X150848442Y-106750853D01*
X150877467Y-106687297D01*
X150936245Y-106649523D01*
X150954994Y-106645561D01*
X150959992Y-106644902D01*
X151077183Y-106629474D01*
X151128991Y-106608015D01*
X152936338Y-106608015D01*
X152956819Y-106750471D01*
X152998626Y-106842013D01*
X153016608Y-106881388D01*
X153110857Y-106990158D01*
X153231932Y-107067968D01*
X153231935Y-107067969D01*
X153231934Y-107067969D01*
X153370021Y-107108514D01*
X153370023Y-107108515D01*
X153370024Y-107108515D01*
X153513947Y-107108515D01*
X153513947Y-107108514D01*
X153652038Y-107067968D01*
X153773113Y-106990158D01*
X153867362Y-106881388D01*
X153927150Y-106750472D01*
X153947632Y-106608015D01*
X153931743Y-106497500D01*
X156634353Y-106497500D01*
X156654834Y-106639956D01*
X156705306Y-106750472D01*
X156714623Y-106770873D01*
X156808872Y-106879643D01*
X156929947Y-106957453D01*
X156929950Y-106957454D01*
X156929949Y-106957454D01*
X157068036Y-106997999D01*
X157068038Y-106998000D01*
X157068039Y-106998000D01*
X157211962Y-106998000D01*
X157211962Y-106997999D01*
X157350053Y-106957453D01*
X157471128Y-106879643D01*
X157565377Y-106770873D01*
X157625165Y-106639957D01*
X157645647Y-106497500D01*
X157625165Y-106355043D01*
X157565377Y-106224127D01*
X157471128Y-106115357D01*
X157350053Y-106037547D01*
X157350051Y-106037546D01*
X157350049Y-106037545D01*
X157350050Y-106037545D01*
X157211963Y-105997000D01*
X157211961Y-105997000D01*
X157068039Y-105997000D01*
X157068036Y-105997000D01*
X156929949Y-106037545D01*
X156808873Y-106115356D01*
X156714623Y-106224126D01*
X156714622Y-106224128D01*
X156654834Y-106355043D01*
X156634353Y-106497500D01*
X153931743Y-106497500D01*
X153927150Y-106465558D01*
X153867362Y-106334642D01*
X153773113Y-106225872D01*
X153652038Y-106148062D01*
X153652036Y-106148061D01*
X153652034Y-106148060D01*
X153652035Y-106148060D01*
X153513948Y-106107515D01*
X153513946Y-106107515D01*
X153370024Y-106107515D01*
X153370021Y-106107515D01*
X153231934Y-106148060D01*
X153110858Y-106225871D01*
X153016608Y-106334641D01*
X153016607Y-106334643D01*
X152956819Y-106465558D01*
X152936338Y-106608015D01*
X151128991Y-106608015D01*
X151205018Y-106576524D01*
X151314791Y-106492291D01*
X151399024Y-106382518D01*
X151451974Y-106254683D01*
X151470035Y-106117500D01*
X151451974Y-105980317D01*
X151399935Y-105854683D01*
X151399025Y-105852485D01*
X151399024Y-105852484D01*
X151399024Y-105852483D01*
X151353369Y-105792984D01*
X151328176Y-105727818D01*
X151335128Y-105693922D01*
X155236613Y-105693922D01*
X155257094Y-105836378D01*
X155316882Y-105967293D01*
X155316883Y-105967295D01*
X155411132Y-106076065D01*
X155532207Y-106153875D01*
X155532210Y-106153876D01*
X155532209Y-106153876D01*
X155606288Y-106175627D01*
X155665408Y-106192986D01*
X155670296Y-106194421D01*
X155670298Y-106194422D01*
X155670299Y-106194422D01*
X155814222Y-106194422D01*
X155814222Y-106194421D01*
X155952313Y-106153875D01*
X156073388Y-106076065D01*
X156156628Y-105980000D01*
X164954353Y-105980000D01*
X164974834Y-106122456D01*
X165034217Y-106252484D01*
X165034623Y-106253373D01*
X165128872Y-106362143D01*
X165249947Y-106439953D01*
X165249950Y-106439954D01*
X165249949Y-106439954D01*
X165388036Y-106480499D01*
X165388038Y-106480500D01*
X165388039Y-106480500D01*
X165531962Y-106480500D01*
X165531962Y-106480499D01*
X165670053Y-106439953D01*
X165791128Y-106362143D01*
X165885377Y-106253373D01*
X165945165Y-106122457D01*
X165965647Y-105980000D01*
X165945165Y-105837543D01*
X165885377Y-105706627D01*
X165791128Y-105597857D01*
X165670053Y-105520047D01*
X165670051Y-105520046D01*
X165670049Y-105520045D01*
X165670050Y-105520045D01*
X165531963Y-105479500D01*
X165531961Y-105479500D01*
X165388039Y-105479500D01*
X165388036Y-105479500D01*
X165249949Y-105520045D01*
X165128873Y-105597856D01*
X165034623Y-105706626D01*
X165034622Y-105706628D01*
X164974834Y-105837543D01*
X164954353Y-105980000D01*
X156156628Y-105980000D01*
X156167637Y-105967295D01*
X156227425Y-105836379D01*
X156233404Y-105794788D01*
X156262427Y-105731233D01*
X156321205Y-105693458D01*
X156391074Y-105693456D01*
X156423182Y-105708119D01*
X156499948Y-105757454D01*
X156638036Y-105797999D01*
X156638038Y-105798000D01*
X156638039Y-105798000D01*
X156781962Y-105798000D01*
X156781962Y-105797999D01*
X156920053Y-105757453D01*
X157041128Y-105679643D01*
X157135377Y-105570873D01*
X157195165Y-105439957D01*
X157215647Y-105297500D01*
X157195165Y-105155043D01*
X157135377Y-105024127D01*
X157041128Y-104915357D01*
X156920053Y-104837547D01*
X156920051Y-104837546D01*
X156920049Y-104837545D01*
X156920050Y-104837545D01*
X156781963Y-104797000D01*
X156781961Y-104797000D01*
X156638039Y-104797000D01*
X156638036Y-104797000D01*
X156499949Y-104837545D01*
X156378873Y-104915356D01*
X156284623Y-105024126D01*
X156284622Y-105024128D01*
X156224834Y-105155043D01*
X156218855Y-105196634D01*
X156189830Y-105260190D01*
X156131052Y-105297964D01*
X156061182Y-105297964D01*
X156029078Y-105283303D01*
X155952313Y-105233969D01*
X155952311Y-105233968D01*
X155952309Y-105233967D01*
X155952310Y-105233967D01*
X155814223Y-105193422D01*
X155814221Y-105193422D01*
X155670299Y-105193422D01*
X155670296Y-105193422D01*
X155532209Y-105233967D01*
X155411133Y-105311778D01*
X155316883Y-105420548D01*
X155316882Y-105420550D01*
X155257094Y-105551465D01*
X155236613Y-105693922D01*
X151335128Y-105693922D01*
X151342214Y-105659373D01*
X151353365Y-105642019D01*
X151399024Y-105582518D01*
X151451974Y-105454683D01*
X151470035Y-105317500D01*
X151451974Y-105180317D01*
X151399024Y-105052483D01*
X151353369Y-104992984D01*
X151328176Y-104927818D01*
X151342214Y-104859373D01*
X151353365Y-104842019D01*
X151399024Y-104782518D01*
X151451974Y-104654683D01*
X151470035Y-104517500D01*
X151451974Y-104380317D01*
X151399935Y-104254683D01*
X151399025Y-104252485D01*
X151399024Y-104252484D01*
X151399024Y-104252483D01*
X151353369Y-104192984D01*
X151328176Y-104127818D01*
X151342214Y-104059373D01*
X151353365Y-104042019D01*
X151399024Y-103982518D01*
X151451974Y-103854683D01*
X151470035Y-103717500D01*
X151454565Y-103600000D01*
X168494353Y-103600000D01*
X168514834Y-103742456D01*
X168566087Y-103854683D01*
X168574623Y-103873373D01*
X168668872Y-103982143D01*
X168789947Y-104059953D01*
X168789950Y-104059954D01*
X168789949Y-104059954D01*
X168928036Y-104100499D01*
X168928038Y-104100500D01*
X168928039Y-104100500D01*
X169071962Y-104100500D01*
X169071962Y-104100499D01*
X169210053Y-104059953D01*
X169256661Y-104030000D01*
X180636853Y-104030000D01*
X180657334Y-104172456D01*
X180693882Y-104252483D01*
X180717123Y-104303373D01*
X180811372Y-104412143D01*
X180932447Y-104489953D01*
X180932450Y-104489954D01*
X180932449Y-104489954D01*
X181070536Y-104530499D01*
X181070538Y-104530500D01*
X181070539Y-104530500D01*
X181214462Y-104530500D01*
X181214462Y-104530499D01*
X181321621Y-104499035D01*
X181352550Y-104489954D01*
X181352550Y-104489953D01*
X181352553Y-104489953D01*
X181473628Y-104412143D01*
X181567877Y-104303373D01*
X181627665Y-104172457D01*
X181648147Y-104030000D01*
X181627665Y-103887543D01*
X181567877Y-103756627D01*
X181473628Y-103647857D01*
X181352553Y-103570047D01*
X181352551Y-103570046D01*
X181352549Y-103570045D01*
X181352550Y-103570045D01*
X181214463Y-103529500D01*
X181214461Y-103529500D01*
X181070539Y-103529500D01*
X181070536Y-103529500D01*
X180932449Y-103570045D01*
X180811373Y-103647856D01*
X180717123Y-103756626D01*
X180717122Y-103756628D01*
X180657334Y-103887543D01*
X180636853Y-104030000D01*
X169256661Y-104030000D01*
X169331128Y-103982143D01*
X169425377Y-103873373D01*
X169485165Y-103742457D01*
X169505647Y-103600000D01*
X169485165Y-103457543D01*
X169425377Y-103326627D01*
X169331128Y-103217857D01*
X169210053Y-103140047D01*
X169210051Y-103140046D01*
X169210049Y-103140045D01*
X169210050Y-103140045D01*
X169071963Y-103099500D01*
X169071961Y-103099500D01*
X168928039Y-103099500D01*
X168928036Y-103099500D01*
X168789949Y-103140045D01*
X168668873Y-103217856D01*
X168574623Y-103326626D01*
X168574622Y-103326628D01*
X168514834Y-103457543D01*
X168494353Y-103600000D01*
X151454565Y-103600000D01*
X151451974Y-103580317D01*
X151399935Y-103454683D01*
X151399025Y-103452485D01*
X151399024Y-103452484D01*
X151399024Y-103452483D01*
X151314791Y-103342709D01*
X151314789Y-103342708D01*
X151314789Y-103342707D01*
X151248220Y-103291627D01*
X151205018Y-103258476D01*
X151205017Y-103258475D01*
X151205015Y-103258474D01*
X151077186Y-103205527D01*
X151077184Y-103205526D01*
X151077183Y-103205526D01*
X150954994Y-103189439D01*
X150891098Y-103161172D01*
X150852627Y-103102847D01*
X150851796Y-103032983D01*
X150888868Y-102973759D01*
X150952074Y-102943981D01*
X150971180Y-102942500D01*
X151026711Y-102942500D01*
X151196342Y-102906443D01*
X151196347Y-102906441D01*
X151198330Y-102905558D01*
X184786339Y-102905558D01*
X184806820Y-103048014D01*
X184866608Y-103178929D01*
X184866609Y-103178931D01*
X184960858Y-103287701D01*
X185081933Y-103365511D01*
X185081936Y-103365512D01*
X185081935Y-103365512D01*
X185220022Y-103406057D01*
X185220024Y-103406058D01*
X185220025Y-103406058D01*
X185363948Y-103406058D01*
X185363948Y-103406057D01*
X185502039Y-103365511D01*
X185623114Y-103287701D01*
X185625742Y-103284667D01*
X185629119Y-103282497D01*
X185629814Y-103281895D01*
X185629900Y-103281994D01*
X185684516Y-103246892D01*
X185754386Y-103246888D01*
X185813164Y-103284658D01*
X185889607Y-103372878D01*
X186010682Y-103450688D01*
X186010685Y-103450689D01*
X186010684Y-103450689D01*
X186148771Y-103491234D01*
X186148773Y-103491235D01*
X186148774Y-103491235D01*
X186292697Y-103491235D01*
X186292697Y-103491234D01*
X186430785Y-103450689D01*
X186430786Y-103450689D01*
X186430788Y-103450688D01*
X186546035Y-103376623D01*
X186613073Y-103356939D01*
X186680112Y-103376623D01*
X186706786Y-103399736D01*
X186708872Y-103402143D01*
X186829947Y-103479953D01*
X186829950Y-103479954D01*
X186829949Y-103479954D01*
X186968036Y-103520499D01*
X186968038Y-103520500D01*
X186968039Y-103520500D01*
X187111962Y-103520500D01*
X187111962Y-103520499D01*
X187250053Y-103479953D01*
X187371128Y-103402143D01*
X187392169Y-103377859D01*
X187450944Y-103340085D01*
X187520814Y-103340083D01*
X187552920Y-103354744D01*
X187669947Y-103429953D01*
X187669950Y-103429954D01*
X187669949Y-103429954D01*
X187808036Y-103470499D01*
X187808038Y-103470500D01*
X187808039Y-103470500D01*
X187951962Y-103470500D01*
X187951962Y-103470499D01*
X188090053Y-103429953D01*
X188211128Y-103352143D01*
X188305377Y-103243373D01*
X188365165Y-103112457D01*
X188385647Y-102970000D01*
X188365165Y-102827543D01*
X188305377Y-102696627D01*
X188211128Y-102587857D01*
X188090053Y-102510047D01*
X188090051Y-102510046D01*
X188090049Y-102510045D01*
X188090050Y-102510045D01*
X187951963Y-102469500D01*
X187951961Y-102469500D01*
X187808039Y-102469500D01*
X187808036Y-102469500D01*
X187669949Y-102510045D01*
X187548872Y-102587856D01*
X187527829Y-102612142D01*
X187469051Y-102649915D01*
X187399181Y-102649915D01*
X187367078Y-102635254D01*
X187293326Y-102587857D01*
X187250053Y-102560047D01*
X187250051Y-102560046D01*
X187250049Y-102560045D01*
X187250050Y-102560045D01*
X187111963Y-102519500D01*
X187111961Y-102519500D01*
X186968039Y-102519500D01*
X186968036Y-102519500D01*
X186829949Y-102560045D01*
X186714700Y-102634111D01*
X186647660Y-102653795D01*
X186580621Y-102634110D01*
X186553947Y-102610997D01*
X186551863Y-102608592D01*
X186430788Y-102530782D01*
X186430786Y-102530781D01*
X186430784Y-102530780D01*
X186430785Y-102530780D01*
X186292698Y-102490235D01*
X186292696Y-102490235D01*
X186148774Y-102490235D01*
X186148771Y-102490235D01*
X186010684Y-102530780D01*
X185889607Y-102608592D01*
X185889603Y-102608594D01*
X185886971Y-102611633D01*
X185883592Y-102613803D01*
X185882907Y-102614398D01*
X185882821Y-102614299D01*
X185828191Y-102649404D01*
X185758321Y-102649400D01*
X185699550Y-102611628D01*
X185623114Y-102523415D01*
X185502039Y-102445605D01*
X185502037Y-102445604D01*
X185502035Y-102445603D01*
X185502036Y-102445603D01*
X185363949Y-102405058D01*
X185363947Y-102405058D01*
X185220025Y-102405058D01*
X185220022Y-102405058D01*
X185081935Y-102445603D01*
X184960859Y-102523414D01*
X184866609Y-102632184D01*
X184866608Y-102632186D01*
X184806820Y-102763101D01*
X184786339Y-102905558D01*
X151198330Y-102905558D01*
X151320230Y-102851284D01*
X151320230Y-102851283D01*
X150630879Y-102161932D01*
X150620186Y-102149740D01*
X150614791Y-102142709D01*
X150611303Y-102140033D01*
X150607757Y-102137311D01*
X150595567Y-102126620D01*
X150546665Y-102077718D01*
X150740000Y-102077718D01*
X150740000Y-102157282D01*
X150770448Y-102230791D01*
X150826709Y-102287052D01*
X150900218Y-102317500D01*
X150979782Y-102317500D01*
X151053291Y-102287052D01*
X151109552Y-102230791D01*
X151140000Y-102157282D01*
X151140000Y-102077718D01*
X151109552Y-102004209D01*
X151053291Y-101947948D01*
X150979782Y-101917500D01*
X150900218Y-101917500D01*
X150826709Y-101947948D01*
X150770448Y-102004209D01*
X150740000Y-102077718D01*
X150546665Y-102077718D01*
X150198627Y-101729680D01*
X150161150Y-101723836D01*
X150108894Y-101677456D01*
X150090000Y-101611662D01*
X150090000Y-101037500D01*
X150590000Y-101037500D01*
X150590000Y-101413947D01*
X151673350Y-102497297D01*
X151697827Y-102454902D01*
X151751414Y-102289976D01*
X151751415Y-102289973D01*
X151769543Y-102117500D01*
X151768755Y-102110000D01*
X152594355Y-102110000D01*
X152614836Y-102252456D01*
X152673229Y-102380317D01*
X152674625Y-102383373D01*
X152768874Y-102492143D01*
X152889949Y-102569953D01*
X152889952Y-102569954D01*
X152889951Y-102569954D01*
X153028038Y-102610499D01*
X153028040Y-102610500D01*
X153028041Y-102610500D01*
X153171964Y-102610500D01*
X153171964Y-102610499D01*
X153310055Y-102569953D01*
X153431130Y-102492143D01*
X153502466Y-102409815D01*
X153561243Y-102372041D01*
X153631113Y-102372041D01*
X153663217Y-102386702D01*
X153679946Y-102397453D01*
X153679949Y-102397454D01*
X153818036Y-102437999D01*
X153818038Y-102438000D01*
X153818039Y-102438000D01*
X153961962Y-102438000D01*
X153961962Y-102437999D01*
X154069121Y-102406535D01*
X154100050Y-102397454D01*
X154100050Y-102397453D01*
X154100053Y-102397453D01*
X154221128Y-102319643D01*
X154315377Y-102210873D01*
X154375165Y-102079957D01*
X154395647Y-101937500D01*
X154375165Y-101795043D01*
X154315377Y-101664127D01*
X154257645Y-101597500D01*
X164376854Y-101597500D01*
X164397335Y-101739956D01*
X164444395Y-101843000D01*
X164457124Y-101870873D01*
X164551373Y-101979643D01*
X164672448Y-102057453D01*
X164672451Y-102057454D01*
X164672450Y-102057454D01*
X164810537Y-102097999D01*
X164810539Y-102098000D01*
X164810540Y-102098000D01*
X164954463Y-102098000D01*
X164954463Y-102097999D01*
X165089070Y-102058476D01*
X165092551Y-102057454D01*
X165092551Y-102057453D01*
X165092554Y-102057453D01*
X165213629Y-101979643D01*
X165307878Y-101870873D01*
X165367666Y-101739957D01*
X165388148Y-101597500D01*
X165369094Y-101464973D01*
X178247907Y-101464973D01*
X178268388Y-101607429D01*
X178304956Y-101687500D01*
X178328177Y-101738346D01*
X178422426Y-101847116D01*
X178543501Y-101924926D01*
X178543504Y-101924927D01*
X178543503Y-101924927D01*
X178681590Y-101965472D01*
X178681592Y-101965473D01*
X178681593Y-101965473D01*
X178825516Y-101965473D01*
X178825516Y-101965472D01*
X178963607Y-101924926D01*
X179084682Y-101847116D01*
X179178931Y-101738346D01*
X179238719Y-101607430D01*
X179259201Y-101464973D01*
X179238719Y-101322516D01*
X179178931Y-101191600D01*
X179084682Y-101082830D01*
X178963607Y-101005020D01*
X178963605Y-101005019D01*
X178963603Y-101005018D01*
X178963604Y-101005018D01*
X178825517Y-100964473D01*
X178825515Y-100964473D01*
X178681593Y-100964473D01*
X178681590Y-100964473D01*
X178543503Y-101005018D01*
X178422427Y-101082829D01*
X178328177Y-101191599D01*
X178328176Y-101191601D01*
X178268388Y-101322516D01*
X178247907Y-101464973D01*
X165369094Y-101464973D01*
X165367666Y-101455043D01*
X165307878Y-101324127D01*
X165213629Y-101215357D01*
X165092554Y-101137547D01*
X165092552Y-101137546D01*
X165092550Y-101137545D01*
X165092551Y-101137545D01*
X164954464Y-101097000D01*
X164954462Y-101097000D01*
X164810540Y-101097000D01*
X164810537Y-101097000D01*
X164672450Y-101137545D01*
X164551374Y-101215356D01*
X164551373Y-101215356D01*
X164551373Y-101215357D01*
X164546917Y-101220500D01*
X164457124Y-101324126D01*
X164457123Y-101324128D01*
X164397335Y-101455043D01*
X164376854Y-101597500D01*
X154257645Y-101597500D01*
X154221128Y-101555357D01*
X154100053Y-101477547D01*
X154100051Y-101477546D01*
X154100049Y-101477545D01*
X154100050Y-101477545D01*
X153961963Y-101437000D01*
X153961961Y-101437000D01*
X153818039Y-101437000D01*
X153818036Y-101437000D01*
X153679949Y-101477545D01*
X153558872Y-101555357D01*
X153558869Y-101555359D01*
X153487534Y-101637684D01*
X153428756Y-101675458D01*
X153358886Y-101675458D01*
X153326785Y-101660798D01*
X153310054Y-101650046D01*
X153310052Y-101650045D01*
X153171965Y-101609500D01*
X153171963Y-101609500D01*
X153028041Y-101609500D01*
X153028038Y-101609500D01*
X152889951Y-101650045D01*
X152768875Y-101727856D01*
X152674625Y-101836626D01*
X152674624Y-101836628D01*
X152614836Y-101967543D01*
X152594355Y-102110000D01*
X151768755Y-102110000D01*
X151751415Y-101945028D01*
X151751278Y-101944606D01*
X151751270Y-101944345D01*
X151750064Y-101938669D01*
X151751101Y-101938448D01*
X151749277Y-101874765D01*
X151785352Y-101814929D01*
X151807201Y-101798894D01*
X151912665Y-101738005D01*
X152010505Y-101640165D01*
X152079688Y-101520336D01*
X152115500Y-101386683D01*
X152115500Y-101248317D01*
X152079688Y-101114664D01*
X152032045Y-101032143D01*
X152010507Y-100994838D01*
X152010503Y-100994833D01*
X151912666Y-100896996D01*
X151912661Y-100896992D01*
X151792838Y-100827813D01*
X151792837Y-100827812D01*
X151792836Y-100827812D01*
X151659183Y-100792000D01*
X151659182Y-100792000D01*
X151651123Y-100790939D01*
X151651329Y-100789368D01*
X151593252Y-100772315D01*
X151547497Y-100719511D01*
X151538674Y-100692191D01*
X151505415Y-100524986D01*
X151505413Y-100524979D01*
X151477463Y-100457500D01*
X152184353Y-100457500D01*
X152204834Y-100599956D01*
X152251521Y-100702184D01*
X152264623Y-100730873D01*
X152358872Y-100839643D01*
X152479947Y-100917453D01*
X152479950Y-100917454D01*
X152479949Y-100917454D01*
X152618036Y-100957999D01*
X152618038Y-100958000D01*
X152618039Y-100958000D01*
X152761962Y-100958000D01*
X152761962Y-100957999D01*
X152900053Y-100917453D01*
X153021128Y-100839643D01*
X153115377Y-100730873D01*
X153175165Y-100599957D01*
X153195647Y-100457500D01*
X153187380Y-100400000D01*
X160364353Y-100400000D01*
X160384834Y-100542456D01*
X160421080Y-100621822D01*
X160444623Y-100673373D01*
X160538872Y-100782143D01*
X160659947Y-100859953D01*
X160659950Y-100859954D01*
X160659949Y-100859954D01*
X160767107Y-100891417D01*
X160786105Y-100896996D01*
X160798036Y-100900499D01*
X160798038Y-100900500D01*
X160798039Y-100900500D01*
X160941962Y-100900500D01*
X160941962Y-100900499D01*
X161071525Y-100862457D01*
X161080050Y-100859954D01*
X161080050Y-100859953D01*
X161080053Y-100859953D01*
X161201128Y-100782143D01*
X161295377Y-100673373D01*
X161355165Y-100542457D01*
X161355518Y-100540000D01*
X171674353Y-100540000D01*
X171694834Y-100682456D01*
X171744862Y-100792000D01*
X171754623Y-100813373D01*
X171848872Y-100922143D01*
X171969947Y-100999953D01*
X171969950Y-100999954D01*
X171969949Y-100999954D01*
X172108036Y-101040499D01*
X172108038Y-101040500D01*
X172108039Y-101040500D01*
X172251962Y-101040500D01*
X172251962Y-101040499D01*
X172390053Y-100999953D01*
X172511128Y-100922143D01*
X172605377Y-100813373D01*
X172665165Y-100682457D01*
X172685647Y-100540000D01*
X172665165Y-100397543D01*
X172605377Y-100266627D01*
X172584237Y-100242230D01*
X172914188Y-100242230D01*
X172934669Y-100384686D01*
X172988061Y-100501595D01*
X172994458Y-100515603D01*
X173088707Y-100624373D01*
X173209782Y-100702183D01*
X173209785Y-100702184D01*
X173209784Y-100702184D01*
X173307485Y-100730871D01*
X173330988Y-100737772D01*
X173347871Y-100742729D01*
X173347873Y-100742730D01*
X173347874Y-100742730D01*
X173491797Y-100742730D01*
X173491797Y-100742729D01*
X173629885Y-100702184D01*
X173629886Y-100702184D01*
X173629888Y-100702183D01*
X173750963Y-100624373D01*
X173750964Y-100624370D01*
X173754931Y-100621822D01*
X173821970Y-100602137D01*
X173889010Y-100621821D01*
X173915681Y-100644932D01*
X173939260Y-100672143D01*
X174060335Y-100749953D01*
X174060338Y-100749954D01*
X174060337Y-100749954D01*
X174198424Y-100790499D01*
X174198426Y-100790500D01*
X174347284Y-100790500D01*
X174414323Y-100810185D01*
X174460076Y-100862986D01*
X174519623Y-100993373D01*
X174613872Y-101102143D01*
X174734947Y-101179953D01*
X174734950Y-101179954D01*
X174734949Y-101179954D01*
X174842107Y-101211417D01*
X174855523Y-101215357D01*
X174873036Y-101220499D01*
X174873038Y-101220500D01*
X174873039Y-101220500D01*
X175016962Y-101220500D01*
X175016962Y-101220499D01*
X175155053Y-101179953D01*
X175276128Y-101102143D01*
X175370377Y-100993373D01*
X175430165Y-100862457D01*
X175450647Y-100720000D01*
X175440583Y-100650000D01*
X176039353Y-100650000D01*
X176059834Y-100792456D01*
X176107575Y-100896992D01*
X176119623Y-100923373D01*
X176213872Y-101032143D01*
X176334947Y-101109953D01*
X176334950Y-101109954D01*
X176334949Y-101109954D01*
X176473036Y-101150499D01*
X176473038Y-101150500D01*
X176473039Y-101150500D01*
X176616962Y-101150500D01*
X176616962Y-101150499D01*
X176755053Y-101109953D01*
X176876128Y-101032143D01*
X176970377Y-100923373D01*
X177030165Y-100792457D01*
X177050647Y-100650000D01*
X177030165Y-100507543D01*
X176970377Y-100376627D01*
X176912561Y-100309903D01*
X176883537Y-100246349D01*
X176893481Y-100177190D01*
X176912562Y-100147499D01*
X176914641Y-100145098D01*
X176914646Y-100145096D01*
X177004289Y-100041642D01*
X179365995Y-100041642D01*
X179386476Y-100184098D01*
X179424167Y-100266628D01*
X179446265Y-100315015D01*
X179540514Y-100423785D01*
X179661589Y-100501595D01*
X179661592Y-100501596D01*
X179661591Y-100501596D01*
X179799678Y-100542141D01*
X179799680Y-100542142D01*
X179799681Y-100542142D01*
X179943604Y-100542142D01*
X179943604Y-100542141D01*
X180081695Y-100501595D01*
X180202770Y-100423785D01*
X180297019Y-100315015D01*
X180356807Y-100184099D01*
X180377289Y-100041642D01*
X180356807Y-99899185D01*
X180297019Y-99768269D01*
X180202770Y-99659499D01*
X180081695Y-99581689D01*
X180081693Y-99581688D01*
X180081691Y-99581687D01*
X180081692Y-99581687D01*
X179943605Y-99541142D01*
X179943603Y-99541142D01*
X179799681Y-99541142D01*
X179799678Y-99541142D01*
X179661591Y-99581687D01*
X179540515Y-99659498D01*
X179446265Y-99768268D01*
X179446264Y-99768270D01*
X179386476Y-99899185D01*
X179365995Y-100041642D01*
X177004289Y-100041642D01*
X177008895Y-100036326D01*
X177068683Y-99905410D01*
X177089165Y-99762953D01*
X177068683Y-99620496D01*
X177008895Y-99489580D01*
X176914646Y-99380810D01*
X176793571Y-99303000D01*
X176793569Y-99302999D01*
X176793567Y-99302998D01*
X176793568Y-99302998D01*
X176655481Y-99262453D01*
X176655479Y-99262453D01*
X176511557Y-99262453D01*
X176511554Y-99262453D01*
X176373467Y-99302998D01*
X176252391Y-99380809D01*
X176158141Y-99489579D01*
X176158140Y-99489581D01*
X176098352Y-99620496D01*
X176077871Y-99762953D01*
X176098352Y-99905409D01*
X176158140Y-100036324D01*
X176158143Y-100036330D01*
X176215954Y-100103047D01*
X176244979Y-100166602D01*
X176235035Y-100235761D01*
X176215955Y-100265450D01*
X176119628Y-100376620D01*
X176119622Y-100376628D01*
X176059834Y-100507543D01*
X176039353Y-100650000D01*
X175440583Y-100650000D01*
X175430165Y-100577543D01*
X175370377Y-100446627D01*
X175276128Y-100337857D01*
X175155053Y-100260047D01*
X175155051Y-100260046D01*
X175155049Y-100260045D01*
X175155050Y-100260045D01*
X175016963Y-100219500D01*
X175016961Y-100219500D01*
X174873039Y-100219500D01*
X174868104Y-100219500D01*
X174801065Y-100199815D01*
X174755310Y-100147012D01*
X174746000Y-100126627D01*
X174695765Y-100016627D01*
X174601516Y-99907857D01*
X174480441Y-99830047D01*
X174480439Y-99830046D01*
X174480437Y-99830045D01*
X174480438Y-99830045D01*
X174342351Y-99789500D01*
X174342349Y-99789500D01*
X174198427Y-99789500D01*
X174198424Y-99789500D01*
X174060337Y-99830045D01*
X173935290Y-99910408D01*
X173868250Y-99930092D01*
X173801211Y-99910407D01*
X173774538Y-99887294D01*
X173750964Y-99860088D01*
X173750963Y-99860087D01*
X173629888Y-99782277D01*
X173629886Y-99782276D01*
X173629884Y-99782275D01*
X173629885Y-99782275D01*
X173491798Y-99741730D01*
X173491796Y-99741730D01*
X173347874Y-99741730D01*
X173347871Y-99741730D01*
X173209784Y-99782275D01*
X173088708Y-99860086D01*
X172994458Y-99968856D01*
X172994457Y-99968858D01*
X172934669Y-100099773D01*
X172914188Y-100242230D01*
X172584237Y-100242230D01*
X172511128Y-100157857D01*
X172390053Y-100080047D01*
X172390051Y-100080046D01*
X172390049Y-100080045D01*
X172390050Y-100080045D01*
X172251963Y-100039500D01*
X172251961Y-100039500D01*
X172108039Y-100039500D01*
X172108036Y-100039500D01*
X171969949Y-100080045D01*
X171848873Y-100157856D01*
X171848872Y-100157856D01*
X171848872Y-100157857D01*
X171836290Y-100172377D01*
X171754623Y-100266626D01*
X171754622Y-100266628D01*
X171694834Y-100397543D01*
X171674353Y-100540000D01*
X161355518Y-100540000D01*
X161375647Y-100400000D01*
X161355165Y-100257543D01*
X161295377Y-100126627D01*
X161201128Y-100017857D01*
X161080053Y-99940047D01*
X161080051Y-99940046D01*
X161080049Y-99940045D01*
X161080050Y-99940045D01*
X160941963Y-99899500D01*
X160941961Y-99899500D01*
X160798039Y-99899500D01*
X160798036Y-99899500D01*
X160659949Y-99940045D01*
X160538873Y-100017856D01*
X160444623Y-100126626D01*
X160444622Y-100126628D01*
X160384834Y-100257543D01*
X160364353Y-100400000D01*
X153187380Y-100400000D01*
X153175165Y-100315043D01*
X153115377Y-100184127D01*
X153021128Y-100075357D01*
X152900053Y-99997547D01*
X152900051Y-99997546D01*
X152900049Y-99997545D01*
X152900050Y-99997545D01*
X152761963Y-99957000D01*
X152761961Y-99957000D01*
X152618039Y-99957000D01*
X152618036Y-99957000D01*
X152479949Y-99997545D01*
X152358873Y-100075356D01*
X152264623Y-100184126D01*
X152264622Y-100184128D01*
X152204834Y-100315043D01*
X152184353Y-100457500D01*
X151477463Y-100457500D01*
X151437571Y-100361192D01*
X151437566Y-100361183D01*
X151339076Y-100213783D01*
X151339073Y-100213779D01*
X151213720Y-100088426D01*
X151213716Y-100088423D01*
X151066316Y-99989933D01*
X151066307Y-99989928D01*
X150902520Y-99922086D01*
X150902512Y-99922084D01*
X150728646Y-99887500D01*
X150590000Y-99887500D01*
X150590000Y-100537500D01*
X150090000Y-100537500D01*
X150090000Y-99887500D01*
X149951353Y-99887500D01*
X149777487Y-99922084D01*
X149777479Y-99922086D01*
X149613692Y-99989928D01*
X149613683Y-99989933D01*
X149466283Y-100088423D01*
X149466279Y-100088426D01*
X149340926Y-100213779D01*
X149340923Y-100213783D01*
X149242433Y-100361183D01*
X149242428Y-100361193D01*
X149174587Y-100524976D01*
X149174584Y-100524983D01*
X149172096Y-100537500D01*
X144915035Y-100537500D01*
X144940000Y-100477228D01*
X144940000Y-100377772D01*
X144901940Y-100285886D01*
X144831614Y-100215560D01*
X144739728Y-100177500D01*
X145557904Y-100177500D01*
X145555415Y-100164983D01*
X145555412Y-100164976D01*
X145487571Y-100001193D01*
X145487566Y-100001183D01*
X145389076Y-99853783D01*
X145389073Y-99853779D01*
X145263720Y-99728426D01*
X145263716Y-99728423D01*
X145116316Y-99629933D01*
X145116307Y-99629928D01*
X144952520Y-99562086D01*
X144952512Y-99562084D01*
X144778646Y-99527500D01*
X144640000Y-99527500D01*
X144640000Y-100177500D01*
X144140000Y-100177500D01*
X144140000Y-99527500D01*
X144001353Y-99527500D01*
X143827487Y-99562084D01*
X143827479Y-99562086D01*
X143663692Y-99629928D01*
X143663683Y-99629933D01*
X143516283Y-99728423D01*
X143516279Y-99728426D01*
X143390926Y-99853779D01*
X143390923Y-99853783D01*
X143292433Y-100001183D01*
X143292428Y-100001193D01*
X143224587Y-100164976D01*
X143224584Y-100164983D01*
X143222096Y-100177500D01*
X142760500Y-100177500D01*
X142760500Y-96210000D01*
X150174353Y-96210000D01*
X150194834Y-96352456D01*
X150224724Y-96417905D01*
X150254623Y-96483373D01*
X150348872Y-96592143D01*
X150348874Y-96592144D01*
X150348873Y-96592144D01*
X150471085Y-96670685D01*
X150516839Y-96723489D01*
X150526783Y-96792647D01*
X150497758Y-96856203D01*
X150471085Y-96879315D01*
X150348874Y-96957855D01*
X150254623Y-97066626D01*
X150254622Y-97066628D01*
X150194834Y-97197543D01*
X150174353Y-97340000D01*
X150194834Y-97482456D01*
X150239681Y-97580655D01*
X150254623Y-97613373D01*
X150348872Y-97722143D01*
X150469947Y-97799953D01*
X150469950Y-97799954D01*
X150469949Y-97799954D01*
X150608036Y-97840499D01*
X150608038Y-97840500D01*
X150608039Y-97840500D01*
X150751962Y-97840500D01*
X150751962Y-97840499D01*
X150890053Y-97799953D01*
X151011128Y-97722143D01*
X151105377Y-97613373D01*
X151165165Y-97482457D01*
X151185647Y-97340000D01*
X151165165Y-97197543D01*
X151105377Y-97066627D01*
X151011128Y-96957857D01*
X150890053Y-96880047D01*
X150890052Y-96880046D01*
X150888915Y-96879316D01*
X150843160Y-96826512D01*
X150833216Y-96757353D01*
X150862241Y-96693797D01*
X150888915Y-96670684D01*
X150890051Y-96669953D01*
X150890053Y-96669953D01*
X151011128Y-96592143D01*
X151105377Y-96483373D01*
X151165165Y-96352457D01*
X151185647Y-96210000D01*
X151171496Y-96111577D01*
X153549500Y-96111577D01*
X153549500Y-96308422D01*
X153580290Y-96502826D01*
X153641117Y-96690029D01*
X153691494Y-96788899D01*
X153730476Y-96865405D01*
X153846172Y-97024646D01*
X153985354Y-97163828D01*
X154144595Y-97279524D01*
X154201401Y-97308468D01*
X154319970Y-97368882D01*
X154319972Y-97368882D01*
X154319975Y-97368884D01*
X154342030Y-97376050D01*
X154507173Y-97429709D01*
X154701578Y-97460500D01*
X154701583Y-97460500D01*
X154898422Y-97460500D01*
X155092826Y-97429709D01*
X155280025Y-97368884D01*
X155455405Y-97279524D01*
X155614646Y-97163828D01*
X155685727Y-97092747D01*
X158314500Y-97092747D01*
X158314500Y-98832252D01*
X158326131Y-98890729D01*
X158326132Y-98890730D01*
X158370447Y-98957052D01*
X158436769Y-99001367D01*
X158436770Y-99001368D01*
X158495247Y-99012999D01*
X158495250Y-99013000D01*
X158495252Y-99013000D01*
X160234750Y-99013000D01*
X160234751Y-99012999D01*
X160249568Y-99010052D01*
X160293229Y-99001368D01*
X160293229Y-99001367D01*
X160293231Y-99001367D01*
X160359552Y-98957052D01*
X160403867Y-98890731D01*
X160403867Y-98890729D01*
X160403868Y-98890729D01*
X160413922Y-98840182D01*
X160415500Y-98832248D01*
X160415500Y-97962500D01*
X160849417Y-97962500D01*
X160869699Y-98168432D01*
X160891867Y-98241510D01*
X160929768Y-98366454D01*
X161027315Y-98548950D01*
X161027317Y-98548952D01*
X161158589Y-98708910D01*
X161255209Y-98788202D01*
X161318550Y-98840185D01*
X161501046Y-98937732D01*
X161699066Y-98997800D01*
X161699065Y-98997800D01*
X161717529Y-98999618D01*
X161905000Y-99018083D01*
X162110934Y-98997800D01*
X162308954Y-98937732D01*
X162491450Y-98840185D01*
X162651410Y-98708910D01*
X162782685Y-98548950D01*
X162880232Y-98366454D01*
X162900406Y-98299946D01*
X162938702Y-98241510D01*
X163002514Y-98213053D01*
X163071581Y-98223612D01*
X163123975Y-98269836D01*
X163138841Y-98303849D01*
X163171567Y-98425986D01*
X163171570Y-98425992D01*
X163271399Y-98640078D01*
X163406894Y-98833582D01*
X163573917Y-99000605D01*
X163767421Y-99136100D01*
X163981507Y-99235929D01*
X163981516Y-99235933D01*
X164195000Y-99293134D01*
X164195000Y-98395512D01*
X164252007Y-98428425D01*
X164379174Y-98462500D01*
X164510826Y-98462500D01*
X164637993Y-98428425D01*
X164695000Y-98395512D01*
X164695000Y-99293133D01*
X164908483Y-99235933D01*
X164908492Y-99235929D01*
X165122578Y-99136100D01*
X165316082Y-99000605D01*
X165483105Y-98833582D01*
X165618600Y-98640078D01*
X165718429Y-98425992D01*
X165718432Y-98425986D01*
X165775636Y-98212500D01*
X164878012Y-98212500D01*
X164910925Y-98155493D01*
X164945000Y-98028326D01*
X164945000Y-97896674D01*
X164910925Y-97769507D01*
X164878012Y-97712500D01*
X165775636Y-97712500D01*
X165775635Y-97712499D01*
X165718432Y-97499013D01*
X165718429Y-97499007D01*
X165667598Y-97390000D01*
X172414353Y-97390000D01*
X172434834Y-97532456D01*
X172491024Y-97655493D01*
X172494623Y-97663373D01*
X172588872Y-97772143D01*
X172709947Y-97849953D01*
X172709950Y-97849954D01*
X172709949Y-97849954D01*
X172848036Y-97890499D01*
X172848038Y-97890500D01*
X172848039Y-97890500D01*
X172991962Y-97890500D01*
X172991962Y-97890499D01*
X173130053Y-97849953D01*
X173251128Y-97772143D01*
X173254353Y-97768421D01*
X180589352Y-97768421D01*
X180609833Y-97910877D01*
X180633409Y-97962500D01*
X180669622Y-98041794D01*
X180763871Y-98150564D01*
X180884946Y-98228374D01*
X180884949Y-98228375D01*
X180884948Y-98228375D01*
X181023035Y-98268920D01*
X181023037Y-98268921D01*
X181023038Y-98268921D01*
X181166961Y-98268921D01*
X181166961Y-98268920D01*
X181305052Y-98228374D01*
X181426127Y-98150564D01*
X181520376Y-98041794D01*
X181556453Y-97962798D01*
X182092033Y-97962798D01*
X182112514Y-98105254D01*
X182133207Y-98150564D01*
X182172303Y-98236171D01*
X182266552Y-98344941D01*
X182387627Y-98422751D01*
X182387630Y-98422752D01*
X182387629Y-98422752D01*
X182494787Y-98454215D01*
X182523001Y-98462500D01*
X182525716Y-98463297D01*
X182525718Y-98463298D01*
X182525719Y-98463298D01*
X182669642Y-98463298D01*
X182669642Y-98463297D01*
X182796695Y-98425992D01*
X182807730Y-98422752D01*
X182807730Y-98422751D01*
X182807733Y-98422751D01*
X182928808Y-98344941D01*
X183023057Y-98236171D01*
X183082845Y-98105255D01*
X183103327Y-97962798D01*
X183082845Y-97820341D01*
X183023057Y-97689425D01*
X182928808Y-97580655D01*
X182807733Y-97502845D01*
X182807731Y-97502844D01*
X182807729Y-97502843D01*
X182807730Y-97502843D01*
X182669643Y-97462298D01*
X182669641Y-97462298D01*
X182525719Y-97462298D01*
X182525716Y-97462298D01*
X182387629Y-97502843D01*
X182266553Y-97580654D01*
X182172303Y-97689424D01*
X182172302Y-97689426D01*
X182112514Y-97820341D01*
X182092033Y-97962798D01*
X181556453Y-97962798D01*
X181580164Y-97910878D01*
X181600646Y-97768421D01*
X181580164Y-97625964D01*
X181520376Y-97495048D01*
X181426127Y-97386278D01*
X181305052Y-97308468D01*
X181305050Y-97308467D01*
X181305048Y-97308466D01*
X181305049Y-97308466D01*
X181166962Y-97267921D01*
X181166960Y-97267921D01*
X181023038Y-97267921D01*
X181023035Y-97267921D01*
X180884948Y-97308466D01*
X180763872Y-97386277D01*
X180669622Y-97495047D01*
X180669621Y-97495049D01*
X180609833Y-97625964D01*
X180589352Y-97768421D01*
X173254353Y-97768421D01*
X173345377Y-97663373D01*
X173405165Y-97532457D01*
X173425647Y-97390000D01*
X173405165Y-97247543D01*
X173345377Y-97116627D01*
X173251128Y-97007857D01*
X173130053Y-96930047D01*
X173130051Y-96930046D01*
X173130049Y-96930045D01*
X173130050Y-96930045D01*
X172991963Y-96889500D01*
X172991961Y-96889500D01*
X172848039Y-96889500D01*
X172848036Y-96889500D01*
X172709949Y-96930045D01*
X172588873Y-97007856D01*
X172494623Y-97116626D01*
X172494622Y-97116628D01*
X172434834Y-97247543D01*
X172414353Y-97390000D01*
X165667598Y-97390000D01*
X165618600Y-97284922D01*
X165618599Y-97284920D01*
X165483113Y-97091426D01*
X165483108Y-97091420D01*
X165316082Y-96924394D01*
X165122578Y-96788899D01*
X164908492Y-96689070D01*
X164908486Y-96689067D01*
X164786349Y-96656341D01*
X164726689Y-96619976D01*
X164696160Y-96557129D01*
X164704455Y-96487753D01*
X164748940Y-96433875D01*
X164782444Y-96417907D01*
X164848954Y-96397732D01*
X165031450Y-96300185D01*
X165191410Y-96168910D01*
X165322685Y-96008950D01*
X165420232Y-95826454D01*
X165480300Y-95628434D01*
X165500583Y-95422500D01*
X165488518Y-95300000D01*
X177534353Y-95300000D01*
X177554834Y-95442456D01*
X177606047Y-95554594D01*
X177614623Y-95573373D01*
X177708872Y-95682143D01*
X177829947Y-95759953D01*
X177829950Y-95759954D01*
X177829949Y-95759954D01*
X177968036Y-95800499D01*
X177968038Y-95800500D01*
X177968039Y-95800500D01*
X178111962Y-95800500D01*
X178111962Y-95800499D01*
X178250053Y-95759953D01*
X178371128Y-95682143D01*
X178465377Y-95573373D01*
X178525165Y-95442457D01*
X178545647Y-95300000D01*
X178525165Y-95157543D01*
X178465377Y-95026627D01*
X178371128Y-94917857D01*
X178250053Y-94840047D01*
X178250051Y-94840046D01*
X178250049Y-94840045D01*
X178250050Y-94840045D01*
X178111963Y-94799500D01*
X178111961Y-94799500D01*
X177968039Y-94799500D01*
X177968036Y-94799500D01*
X177829949Y-94840045D01*
X177708873Y-94917856D01*
X177614623Y-95026626D01*
X177614622Y-95026628D01*
X177554834Y-95157543D01*
X177534353Y-95300000D01*
X165488518Y-95300000D01*
X165480300Y-95216566D01*
X165420232Y-95018546D01*
X165322685Y-94836050D01*
X165270702Y-94772709D01*
X165191410Y-94676089D01*
X165031452Y-94544817D01*
X165031453Y-94544817D01*
X165031450Y-94544815D01*
X164848954Y-94447268D01*
X164650934Y-94387200D01*
X164650932Y-94387199D01*
X164650934Y-94387199D01*
X164445000Y-94366917D01*
X164239067Y-94387199D01*
X164041043Y-94447269D01*
X163930898Y-94506143D01*
X163858550Y-94544815D01*
X163858548Y-94544816D01*
X163858547Y-94544817D01*
X163698589Y-94676089D01*
X163567317Y-94836047D01*
X163469769Y-95018543D01*
X163409699Y-95216567D01*
X163389417Y-95422500D01*
X163409699Y-95628432D01*
X163409700Y-95628434D01*
X163469768Y-95826454D01*
X163567315Y-96008950D01*
X163567317Y-96008952D01*
X163698589Y-96168910D01*
X163795209Y-96248202D01*
X163858550Y-96300185D01*
X164041046Y-96397732D01*
X164107551Y-96417905D01*
X164165989Y-96456202D01*
X164194446Y-96520014D01*
X164183887Y-96589081D01*
X164137663Y-96641475D01*
X164103650Y-96656341D01*
X163981514Y-96689067D01*
X163981507Y-96689070D01*
X163767422Y-96788899D01*
X163767420Y-96788900D01*
X163573926Y-96924386D01*
X163573920Y-96924391D01*
X163406891Y-97091420D01*
X163406886Y-97091426D01*
X163271400Y-97284920D01*
X163271399Y-97284922D01*
X163171570Y-97499007D01*
X163171567Y-97499014D01*
X163138841Y-97621150D01*
X163102476Y-97680810D01*
X163039629Y-97711339D01*
X162970253Y-97703044D01*
X162916375Y-97658559D01*
X162900406Y-97625053D01*
X162880232Y-97558546D01*
X162782685Y-97376050D01*
X162703468Y-97279523D01*
X162651410Y-97216089D01*
X162501121Y-97092752D01*
X162491450Y-97084815D01*
X162308954Y-96987268D01*
X162110934Y-96927200D01*
X162110932Y-96927199D01*
X162110934Y-96927199D01*
X161905000Y-96906917D01*
X161699067Y-96927199D01*
X161501043Y-96987269D01*
X161413114Y-97034269D01*
X161318550Y-97084815D01*
X161318548Y-97084816D01*
X161318547Y-97084817D01*
X161158589Y-97216089D01*
X161027317Y-97376047D01*
X161027315Y-97376050D01*
X160988643Y-97448398D01*
X160929769Y-97558543D01*
X160869699Y-97756567D01*
X160849417Y-97962500D01*
X160415500Y-97962500D01*
X160415500Y-97092752D01*
X160415500Y-97092749D01*
X160415499Y-97092747D01*
X160403868Y-97034270D01*
X160403867Y-97034269D01*
X160359552Y-96967947D01*
X160293230Y-96923632D01*
X160293229Y-96923631D01*
X160234752Y-96912000D01*
X160234748Y-96912000D01*
X158495252Y-96912000D01*
X158495247Y-96912000D01*
X158436770Y-96923631D01*
X158436769Y-96923632D01*
X158370447Y-96967947D01*
X158326132Y-97034269D01*
X158326131Y-97034270D01*
X158314500Y-97092747D01*
X155685727Y-97092747D01*
X155753828Y-97024646D01*
X155869524Y-96865405D01*
X155958884Y-96690025D01*
X156019709Y-96502826D01*
X156023628Y-96478082D01*
X156050500Y-96308422D01*
X156050500Y-96111577D01*
X156019709Y-95917173D01*
X155958882Y-95729970D01*
X155907146Y-95628432D01*
X155869524Y-95554595D01*
X155773551Y-95422500D01*
X158309417Y-95422500D01*
X158329699Y-95628432D01*
X158329700Y-95628434D01*
X158389768Y-95826454D01*
X158487315Y-96008950D01*
X158487317Y-96008952D01*
X158618589Y-96168910D01*
X158715209Y-96248202D01*
X158778550Y-96300185D01*
X158961046Y-96397732D01*
X159159066Y-96457800D01*
X159159065Y-96457800D01*
X159177529Y-96459618D01*
X159365000Y-96478083D01*
X159570934Y-96457800D01*
X159768954Y-96397732D01*
X159951450Y-96300185D01*
X160111410Y-96168910D01*
X160242685Y-96008950D01*
X160340232Y-95826454D01*
X160400300Y-95628434D01*
X160420583Y-95422500D01*
X160849417Y-95422500D01*
X160869699Y-95628432D01*
X160869700Y-95628434D01*
X160929768Y-95826454D01*
X161027315Y-96008950D01*
X161027317Y-96008952D01*
X161158589Y-96168910D01*
X161255209Y-96248202D01*
X161318550Y-96300185D01*
X161501046Y-96397732D01*
X161699066Y-96457800D01*
X161699065Y-96457800D01*
X161717529Y-96459618D01*
X161905000Y-96478083D01*
X162110934Y-96457800D01*
X162308954Y-96397732D01*
X162491450Y-96300185D01*
X162651410Y-96168910D01*
X162782685Y-96008950D01*
X162880232Y-95826454D01*
X162940300Y-95628434D01*
X162960583Y-95422500D01*
X162940300Y-95216566D01*
X162880232Y-95018546D01*
X162782685Y-94836050D01*
X162730702Y-94772709D01*
X162651410Y-94676089D01*
X162491452Y-94544817D01*
X162491453Y-94544817D01*
X162491450Y-94544815D01*
X162308954Y-94447268D01*
X162110934Y-94387200D01*
X162110932Y-94387199D01*
X162110934Y-94387199D01*
X161905000Y-94366917D01*
X161699067Y-94387199D01*
X161501043Y-94447269D01*
X161390898Y-94506143D01*
X161318550Y-94544815D01*
X161318548Y-94544816D01*
X161318547Y-94544817D01*
X161158589Y-94676089D01*
X161027317Y-94836047D01*
X160929769Y-95018543D01*
X160869699Y-95216567D01*
X160849417Y-95422500D01*
X160420583Y-95422500D01*
X160400300Y-95216566D01*
X160340232Y-95018546D01*
X160242685Y-94836050D01*
X160190702Y-94772709D01*
X160111410Y-94676089D01*
X159951452Y-94544817D01*
X159951453Y-94544817D01*
X159951450Y-94544815D01*
X159768954Y-94447268D01*
X159570934Y-94387200D01*
X159570932Y-94387199D01*
X159570934Y-94387199D01*
X159365000Y-94366917D01*
X159159067Y-94387199D01*
X158961043Y-94447269D01*
X158850898Y-94506143D01*
X158778550Y-94544815D01*
X158778548Y-94544816D01*
X158778547Y-94544817D01*
X158618589Y-94676089D01*
X158487317Y-94836047D01*
X158389769Y-95018543D01*
X158329699Y-95216567D01*
X158309417Y-95422500D01*
X155773551Y-95422500D01*
X155753828Y-95395354D01*
X155614646Y-95256172D01*
X155455405Y-95140476D01*
X155280029Y-95051117D01*
X155092826Y-94990290D01*
X154898422Y-94959500D01*
X154898417Y-94959500D01*
X154701583Y-94959500D01*
X154701578Y-94959500D01*
X154507173Y-94990290D01*
X154319970Y-95051117D01*
X154144594Y-95140476D01*
X154071789Y-95193373D01*
X153985354Y-95256172D01*
X153985352Y-95256174D01*
X153985351Y-95256174D01*
X153846174Y-95395351D01*
X153846174Y-95395352D01*
X153846172Y-95395354D01*
X153796485Y-95463741D01*
X153730476Y-95554594D01*
X153641117Y-95729970D01*
X153580290Y-95917173D01*
X153549500Y-96111577D01*
X151171496Y-96111577D01*
X151165165Y-96067543D01*
X151105377Y-95936627D01*
X151011128Y-95827857D01*
X150890053Y-95750047D01*
X150890051Y-95750046D01*
X150890049Y-95750045D01*
X150890050Y-95750045D01*
X150751963Y-95709500D01*
X150751961Y-95709500D01*
X150608039Y-95709500D01*
X150608036Y-95709500D01*
X150469949Y-95750045D01*
X150348873Y-95827856D01*
X150254623Y-95936626D01*
X150254622Y-95936628D01*
X150194834Y-96067543D01*
X150174353Y-96210000D01*
X142760500Y-96210000D01*
X142760500Y-94920000D01*
X150194353Y-94920000D01*
X150214834Y-95062456D01*
X150250465Y-95140476D01*
X150274623Y-95193373D01*
X150368872Y-95302143D01*
X150489947Y-95379953D01*
X150489950Y-95379954D01*
X150489949Y-95379954D01*
X150628036Y-95420499D01*
X150628038Y-95420500D01*
X150628039Y-95420500D01*
X150771962Y-95420500D01*
X150771962Y-95420499D01*
X150910053Y-95379953D01*
X151031128Y-95302143D01*
X151125377Y-95193373D01*
X151185165Y-95062457D01*
X151205647Y-94920000D01*
X151185165Y-94777543D01*
X151125377Y-94646627D01*
X151031128Y-94537857D01*
X150910053Y-94460047D01*
X150910051Y-94460046D01*
X150910049Y-94460045D01*
X150910050Y-94460045D01*
X150771963Y-94419500D01*
X150771961Y-94419500D01*
X150628039Y-94419500D01*
X150628036Y-94419500D01*
X150489949Y-94460045D01*
X150368873Y-94537856D01*
X150274623Y-94646626D01*
X150274622Y-94646628D01*
X150214834Y-94777543D01*
X150194353Y-94920000D01*
X142760500Y-94920000D01*
X142760500Y-93874500D01*
X142780185Y-93807461D01*
X142832989Y-93761706D01*
X142884500Y-93750500D01*
X191635500Y-93750500D01*
X191702539Y-93770185D01*
G37*
%TD.AperFunction*%
%TD*%
M02*
