%TF.GenerationSoftware,KiCad,Pcbnew,8.0.4*%
%TF.CreationDate,2024-11-08T09:04:55-08:00*%
%TF.ProjectId,Vanguard_new,56616e67-7561-4726-945f-6e65772e6b69,rev?*%
%TF.SameCoordinates,Original*%
%TF.FileFunction,Soldermask,Top*%
%TF.FilePolarity,Negative*%
%FSLAX46Y46*%
G04 Gerber Fmt 4.6, Leading zero omitted, Abs format (unit mm)*
G04 Created by KiCad (PCBNEW 8.0.4) date 2024-11-08 09:04:55*
%MOMM*%
%LPD*%
G01*
G04 APERTURE LIST*
G04 Aperture macros list*
%AMRoundRect*
0 Rectangle with rounded corners*
0 $1 Rounding radius*
0 $2 $3 $4 $5 $6 $7 $8 $9 X,Y pos of 4 corners*
0 Add a 4 corners polygon primitive as box body*
4,1,4,$2,$3,$4,$5,$6,$7,$8,$9,$2,$3,0*
0 Add four circle primitives for the rounded corners*
1,1,$1+$1,$2,$3*
1,1,$1+$1,$4,$5*
1,1,$1+$1,$6,$7*
1,1,$1+$1,$8,$9*
0 Add four rect primitives between the rounded corners*
20,1,$1+$1,$2,$3,$4,$5,0*
20,1,$1+$1,$4,$5,$6,$7,0*
20,1,$1+$1,$6,$7,$8,$9,0*
20,1,$1+$1,$8,$9,$2,$3,0*%
%AMFreePoly0*
4,1,13,0.320000,0.125000,0.700000,0.125000,0.700000,-0.125000,0.320000,-0.125000,0.200000,-0.350000,-0.200000,-0.350000,-0.320000,-0.125000,-0.850000,-0.125000,-0.850000,0.125000,-0.320000,0.125000,-0.200000,0.350000,0.200000,0.350000,0.320000,0.125000,0.320000,0.125000,$1*%
G04 Aperture macros list end*
%ADD10RoundRect,0.100000X0.100000X-0.130000X0.100000X0.130000X-0.100000X0.130000X-0.100000X-0.130000X0*%
%ADD11C,0.650000*%
%ADD12O,0.650000X0.950000*%
%ADD13R,0.700000X0.300000*%
%ADD14O,1.400000X0.800000*%
%ADD15RoundRect,0.135000X-0.185000X0.135000X-0.185000X-0.135000X0.185000X-0.135000X0.185000X0.135000X0*%
%ADD16RoundRect,0.150000X-0.825000X-0.150000X0.825000X-0.150000X0.825000X0.150000X-0.825000X0.150000X0*%
%ADD17C,2.100000*%
%ADD18RoundRect,0.135000X0.135000X0.185000X-0.135000X0.185000X-0.135000X-0.185000X0.135000X-0.185000X0*%
%ADD19RoundRect,0.100000X-0.130000X-0.100000X0.130000X-0.100000X0.130000X0.100000X-0.130000X0.100000X0*%
%ADD20R,1.000000X1.000000*%
%ADD21RoundRect,0.135000X0.185000X-0.135000X0.185000X0.135000X-0.185000X0.135000X-0.185000X-0.135000X0*%
%ADD22RoundRect,0.135000X-0.135000X-0.185000X0.135000X-0.185000X0.135000X0.185000X-0.135000X0.185000X0*%
%ADD23RoundRect,0.075000X-0.415425X-0.521491X0.521491X0.415425X0.415425X0.521491X-0.521491X-0.415425X0*%
%ADD24RoundRect,0.075000X0.415425X-0.521491X0.521491X-0.415425X-0.415425X0.521491X-0.521491X0.415425X0*%
%ADD25R,1.700000X1.700000*%
%ADD26O,1.700000X1.700000*%
%ADD27RoundRect,0.175000X0.175000X0.325000X-0.175000X0.325000X-0.175000X-0.325000X0.175000X-0.325000X0*%
%ADD28RoundRect,0.150000X0.200000X0.150000X-0.200000X0.150000X-0.200000X-0.150000X0.200000X-0.150000X0*%
%ADD29RoundRect,0.160000X-0.565000X-0.240000X0.565000X-0.240000X0.565000X0.240000X-0.565000X0.240000X0*%
%ADD30RoundRect,0.120000X-0.605000X-0.180000X0.605000X-0.180000X0.605000X0.180000X-0.605000X0.180000X0*%
%ADD31RoundRect,0.062500X0.123744X-0.035355X-0.035355X0.123744X-0.123744X0.035355X0.035355X-0.123744X0*%
%ADD32FreePoly0,135.000000*%
%ADD33R,0.254000X0.675000*%
%ADD34R,0.675000X0.254000*%
%ADD35RoundRect,0.150000X-0.150000X0.587500X-0.150000X-0.587500X0.150000X-0.587500X0.150000X0.587500X0*%
%ADD36R,1.100000X0.850000*%
%ADD37R,1.100000X0.750000*%
%ADD38R,1.000000X1.200000*%
%ADD39R,1.350000X1.550000*%
%ADD40R,1.350000X1.900000*%
%ADD41R,1.800000X1.170000*%
%ADD42RoundRect,0.100000X-0.100000X0.130000X-0.100000X-0.130000X0.100000X-0.130000X0.100000X0.130000X0*%
%ADD43RoundRect,0.062500X-0.062500X0.350000X-0.062500X-0.350000X0.062500X-0.350000X0.062500X0.350000X0*%
%ADD44RoundRect,0.062500X-0.350000X0.062500X-0.350000X-0.062500X0.350000X-0.062500X0.350000X0.062500X0*%
%ADD45C,1.000000*%
%ADD46RoundRect,0.150000X-0.150000X0.512500X-0.150000X-0.512500X0.150000X-0.512500X0.150000X0.512500X0*%
%ADD47R,1.500000X1.000000*%
%ADD48RoundRect,0.150000X-0.150000X0.825000X-0.150000X-0.825000X0.150000X-0.825000X0.150000X0.825000X0*%
%ADD49RoundRect,0.147500X-0.172500X0.147500X-0.172500X-0.147500X0.172500X-0.147500X0.172500X0.147500X0*%
%ADD50RoundRect,0.150000X-0.587500X-0.150000X0.587500X-0.150000X0.587500X0.150000X-0.587500X0.150000X0*%
%ADD51R,1.200000X1.200000*%
%ADD52RoundRect,0.150000X0.150000X-0.587500X0.150000X0.587500X-0.150000X0.587500X-0.150000X-0.587500X0*%
%ADD53RoundRect,0.160000X0.565000X0.240000X-0.565000X0.240000X-0.565000X-0.240000X0.565000X-0.240000X0*%
%ADD54RoundRect,0.120000X0.605000X0.180000X-0.605000X0.180000X-0.605000X-0.180000X0.605000X-0.180000X0*%
%ADD55RoundRect,0.062500X0.362500X0.062500X-0.362500X0.062500X-0.362500X-0.062500X0.362500X-0.062500X0*%
%ADD56R,1.650000X2.380000*%
%ADD57RoundRect,0.062500X0.062500X-0.350000X0.062500X0.350000X-0.062500X0.350000X-0.062500X-0.350000X0*%
%ADD58RoundRect,0.062500X0.350000X-0.062500X0.350000X0.062500X-0.350000X0.062500X-0.350000X-0.062500X0*%
%ADD59R,2.600000X2.600000*%
%ADD60R,2.000000X2.000000*%
%ADD61C,2.000000*%
%ADD62RoundRect,0.100000X0.130000X0.100000X-0.130000X0.100000X-0.130000X-0.100000X0.130000X-0.100000X0*%
%ADD63RoundRect,0.250000X-0.550000X1.500000X-0.550000X-1.500000X0.550000X-1.500000X0.550000X1.500000X0*%
G04 APERTURE END LIST*
D10*
%TO.C,D3*%
X166790000Y-99937500D03*
X166790000Y-99297500D03*
%TD*%
D11*
%TO.C,J1*%
X151590000Y-101317500D03*
D12*
X151590000Y-108517500D03*
D13*
X152250000Y-102167500D03*
X152250000Y-102667500D03*
X152250000Y-103167500D03*
X152250000Y-103667500D03*
X152250000Y-104167500D03*
X152250000Y-104667500D03*
X152250000Y-105167500D03*
X152250000Y-105667500D03*
X152250000Y-106167500D03*
X152250000Y-106667500D03*
X152250000Y-107167500D03*
X152250000Y-107667500D03*
D11*
X150940000Y-107717500D03*
X150240000Y-107317500D03*
X150240000Y-106517500D03*
X150940000Y-106117500D03*
X150240000Y-105717500D03*
X150940000Y-105317500D03*
X150940000Y-104517500D03*
X150240000Y-104117500D03*
X150940000Y-103717500D03*
X150240000Y-103317500D03*
X150240000Y-102517500D03*
X150940000Y-102117500D03*
D14*
X144390000Y-100427500D03*
X150340000Y-100787500D03*
X150340000Y-109047500D03*
X144390000Y-109407500D03*
%TD*%
D15*
%TO.C,R11*%
X159820000Y-101597500D03*
X159820000Y-102617500D03*
%TD*%
D16*
%TO.C,U3*%
X174670000Y-95280000D03*
X174670000Y-96550000D03*
X174670000Y-97820000D03*
X174670000Y-99090000D03*
X179620000Y-99090000D03*
X179620000Y-97820000D03*
X179620000Y-96550000D03*
X179620000Y-95280000D03*
%TD*%
D17*
%TO.C,REF\u002A\u002A*%
X154800000Y-96210000D03*
%TD*%
D18*
%TO.C,R27*%
X149940000Y-95060000D03*
X148920000Y-95060000D03*
%TD*%
D19*
%TO.C,D5*%
X147205000Y-118832500D03*
X147845000Y-118832500D03*
%TD*%
D20*
%TO.C,TP2*%
X154250000Y-108317500D03*
%TD*%
D21*
%TO.C,R13*%
X172660000Y-99527500D03*
X172660000Y-98507500D03*
%TD*%
D22*
%TO.C,R19*%
X188122500Y-130700000D03*
X189142500Y-130700000D03*
%TD*%
D18*
%TO.C,R16*%
X145285000Y-112952500D03*
X144265000Y-112952500D03*
%TD*%
%TO.C,R5*%
X165160000Y-104917500D03*
X164140000Y-104917500D03*
%TD*%
D23*
%TO.C,U2*%
X161282124Y-116888788D03*
X161635678Y-117242342D03*
X161989231Y-117595895D03*
X162342785Y-117949449D03*
X162696338Y-118303002D03*
X163049891Y-118656555D03*
X163403445Y-119010109D03*
X163756998Y-119363662D03*
X164110551Y-119717215D03*
X164464105Y-120070769D03*
X164817658Y-120424322D03*
X165171212Y-120777876D03*
D24*
X167168788Y-120777876D03*
X167522342Y-120424322D03*
X167875895Y-120070769D03*
X168229449Y-119717215D03*
X168583002Y-119363662D03*
X168936555Y-119010109D03*
X169290109Y-118656555D03*
X169643662Y-118303002D03*
X169997215Y-117949449D03*
X170350769Y-117595895D03*
X170704322Y-117242342D03*
X171057876Y-116888788D03*
D23*
X171057876Y-114891212D03*
X170704322Y-114537658D03*
X170350769Y-114184105D03*
X169997215Y-113830551D03*
X169643662Y-113476998D03*
X169290109Y-113123445D03*
X168936555Y-112769891D03*
X168583002Y-112416338D03*
X168229449Y-112062785D03*
X167875895Y-111709231D03*
X167522342Y-111355678D03*
X167168788Y-111002124D03*
D24*
X165171212Y-111002124D03*
X164817658Y-111355678D03*
X164464105Y-111709231D03*
X164110551Y-112062785D03*
X163756998Y-112416338D03*
X163403445Y-112769891D03*
X163049891Y-113123445D03*
X162696338Y-113476998D03*
X162342785Y-113830551D03*
X161989231Y-114184105D03*
X161635678Y-114537658D03*
X161282124Y-114891212D03*
%TD*%
D19*
%TO.C,D2*%
X162027500Y-102557500D03*
X162667500Y-102557500D03*
%TD*%
D22*
%TO.C,R21*%
X180610000Y-125950000D03*
X181630000Y-125950000D03*
%TD*%
%TO.C,R22*%
X180470000Y-123770000D03*
X181490000Y-123770000D03*
%TD*%
D25*
%TO.C,J2*%
X159365000Y-97962500D03*
D26*
X159365000Y-95422500D03*
X161905000Y-97962500D03*
X161905000Y-95422500D03*
X164445000Y-97962500D03*
X164445000Y-95422500D03*
%TD*%
D18*
%TO.C,R15*%
X147175000Y-112952500D03*
X146155000Y-112952500D03*
%TD*%
D27*
%TO.C,D1*%
X155720000Y-102727500D03*
D28*
X155720000Y-101027500D03*
X153720000Y-101027500D03*
X153720000Y-102927500D03*
%TD*%
D17*
%TO.C,REF\u002A\u002A*%
X165500000Y-132000000D03*
%TD*%
D29*
%TO.C,PORTSIDE_RGB1*%
X187230000Y-94980000D03*
D30*
X187230000Y-96030000D03*
D29*
X187230000Y-97080000D03*
X190280000Y-97080000D03*
D30*
X190280000Y-96030000D03*
D29*
X190280000Y-94980000D03*
%TD*%
D18*
%TO.C,R29*%
X185775000Y-96030000D03*
X184755000Y-96030000D03*
%TD*%
D25*
%TO.C,J7*%
X153460000Y-126440000D03*
D26*
X153460000Y-128980000D03*
X153460000Y-131520000D03*
%TD*%
D18*
%TO.C,R9*%
X164077500Y-101617500D03*
X163057500Y-101617500D03*
%TD*%
D31*
%TO.C,U5*%
X160153744Y-119650850D03*
D32*
X160030000Y-118820000D03*
D31*
X160860850Y-118943744D03*
X159906256Y-117989150D03*
X159199150Y-118696256D03*
%TD*%
D22*
%TO.C,R17*%
X146835000Y-117992500D03*
X147855000Y-117992500D03*
%TD*%
D33*
%TO.C,U6*%
X183592500Y-126267500D03*
D34*
X183455000Y-127180000D03*
X183455000Y-127680000D03*
X183455000Y-128180000D03*
X183455000Y-128680000D03*
D33*
X183592500Y-129592500D03*
X184092500Y-129592500D03*
X184592500Y-129592500D03*
X185092500Y-129592500D03*
X185592500Y-129592500D03*
X186092500Y-129592500D03*
X186592500Y-129592500D03*
X187092500Y-129592500D03*
X187592500Y-129592500D03*
X188092500Y-129592500D03*
D34*
X188230000Y-128680000D03*
X188230000Y-128180000D03*
X188230000Y-127680000D03*
X188230000Y-127180000D03*
D33*
X188092500Y-126267500D03*
X187592500Y-126267500D03*
X187092500Y-126267500D03*
X186592500Y-126267500D03*
X186092500Y-126267500D03*
X185592500Y-126267500D03*
X185092500Y-126267500D03*
X184592500Y-126267500D03*
X184092500Y-126267500D03*
%TD*%
D15*
%TO.C,R3*%
X166790000Y-97442500D03*
X166790000Y-98462500D03*
%TD*%
D10*
%TO.C,C3*%
X184522500Y-121857500D03*
X184522500Y-121217500D03*
%TD*%
D35*
%TO.C,Q3*%
X167582500Y-101350000D03*
X165682500Y-101350000D03*
X166632500Y-103225000D03*
%TD*%
D36*
%TO.C,J3*%
X178960000Y-115775000D03*
X178960000Y-114675000D03*
X178960000Y-113575000D03*
X178960000Y-112475000D03*
X178960000Y-111375000D03*
X178960000Y-110275000D03*
X178960000Y-109175000D03*
D37*
X178960000Y-108125000D03*
D38*
X185110000Y-118410000D03*
X188810000Y-118410000D03*
D39*
X179085000Y-118235000D03*
D40*
X189785000Y-114910000D03*
X189785000Y-108940000D03*
D41*
X179310000Y-106915000D03*
%TD*%
D42*
%TO.C,C9*%
X158207500Y-122065000D03*
X158207500Y-122705000D03*
%TD*%
D43*
%TO.C,U9*%
X150480000Y-112615000D03*
X149980000Y-112615000D03*
X149480000Y-112615000D03*
X148980000Y-112615000D03*
D44*
X148267500Y-113327500D03*
X148267500Y-113827500D03*
X148267500Y-114327500D03*
X148267500Y-114827500D03*
D43*
X148980000Y-115540000D03*
X149480000Y-115540000D03*
X149980000Y-115540000D03*
X150480000Y-115540000D03*
D44*
X151192500Y-114827500D03*
X151192500Y-114327500D03*
X151192500Y-113827500D03*
X151192500Y-113327500D03*
D25*
X149730000Y-114077500D03*
%TD*%
D15*
%TO.C,R14*%
X152335000Y-113342500D03*
X152335000Y-114362500D03*
%TD*%
D22*
%TO.C,R31*%
X153540000Y-104147500D03*
X154560000Y-104147500D03*
%TD*%
D18*
%TO.C,R26*%
X149940000Y-96120000D03*
X148920000Y-96120000D03*
%TD*%
D10*
%TO.C,C2*%
X185222500Y-121852500D03*
X185222500Y-121212500D03*
%TD*%
D45*
%TO.C,Y1*%
X185732500Y-123947500D03*
X183832500Y-123947500D03*
%TD*%
D18*
%TO.C,R6*%
X167040000Y-104907500D03*
X166020000Y-104907500D03*
%TD*%
D46*
%TO.C,U4*%
X146835000Y-114335000D03*
X145885000Y-114335000D03*
X144935000Y-114335000D03*
X144935000Y-116610000D03*
X146835000Y-116610000D03*
%TD*%
D18*
%TO.C,R30*%
X185785000Y-97080000D03*
X184765000Y-97080000D03*
%TD*%
D15*
%TO.C,R20*%
X189292500Y-128790000D03*
X189292500Y-129810000D03*
%TD*%
D22*
%TO.C,R24*%
X181412500Y-128190000D03*
X182432500Y-128190000D03*
%TD*%
D47*
%TO.C,ADR1*%
X190082500Y-126070000D03*
X190082500Y-127370000D03*
%TD*%
D42*
%TO.C,C8*%
X153197500Y-121575000D03*
X153197500Y-122215000D03*
%TD*%
D48*
%TO.C,U7*%
X189655000Y-99292500D03*
X188385000Y-99292500D03*
X187115000Y-99292500D03*
X185845000Y-99292500D03*
X184575000Y-99292500D03*
X183305000Y-99292500D03*
X182035000Y-99292500D03*
X182035000Y-104242500D03*
X183305000Y-104242500D03*
X184575000Y-104242500D03*
X185845000Y-104242500D03*
X187115000Y-104242500D03*
X188385000Y-104242500D03*
X189655000Y-104242500D03*
%TD*%
D49*
%TO.C,L1*%
X158350000Y-119625000D03*
X158350000Y-120595000D03*
%TD*%
D50*
%TO.C,Q2*%
X169312500Y-97555000D03*
X169312500Y-99455000D03*
X171187500Y-98505000D03*
%TD*%
D18*
%TO.C,R4*%
X164500000Y-102557500D03*
X163480000Y-102557500D03*
%TD*%
%TO.C,R12*%
X169110000Y-104707500D03*
X168090000Y-104707500D03*
%TD*%
D17*
%TO.C,REF\u002A\u002A*%
X181000000Y-132000000D03*
%TD*%
D15*
%TO.C,R10*%
X167770000Y-98617500D03*
X167770000Y-99637500D03*
%TD*%
D18*
%TO.C,R7*%
X166670000Y-109737500D03*
X165650000Y-109737500D03*
%TD*%
D25*
%TO.C,J6*%
X151037500Y-119480000D03*
D26*
X151037500Y-122020000D03*
%TD*%
D51*
%TO.C,D6*%
X155460000Y-113220000D03*
X155460000Y-110420000D03*
%TD*%
D35*
%TO.C,Q1*%
X166580000Y-106377500D03*
X164680000Y-106377500D03*
X165630000Y-108252500D03*
%TD*%
D52*
%TO.C,Q4*%
X164050000Y-127937500D03*
X165950000Y-127937500D03*
X165000000Y-126062500D03*
%TD*%
D22*
%TO.C,R1*%
X156760000Y-103177500D03*
X157780000Y-103177500D03*
%TD*%
%TO.C,R32*%
X149110000Y-110837500D03*
X150130000Y-110837500D03*
%TD*%
D21*
%TO.C,R23*%
X190232500Y-129810000D03*
X190232500Y-128790000D03*
%TD*%
D25*
%TO.C,J5*%
X149530000Y-131980000D03*
D26*
X146990000Y-131980000D03*
X144450000Y-131980000D03*
%TD*%
D53*
%TO.C,STARBOARD_RGB1*%
X147465000Y-97160000D03*
D54*
X147465000Y-96110000D03*
D53*
X147465000Y-95060000D03*
X144415000Y-95060000D03*
D54*
X144415000Y-96110000D03*
D53*
X144415000Y-97160000D03*
%TD*%
D18*
%TO.C,R25*%
X149930000Y-97160000D03*
X148910000Y-97160000D03*
%TD*%
D55*
%TO.C,U8*%
X157137500Y-122090000D03*
X157137500Y-121590000D03*
X157137500Y-121090000D03*
X157137500Y-120590000D03*
X157137500Y-120090000D03*
X154237500Y-120090000D03*
X154237500Y-120590000D03*
X154237500Y-121090000D03*
X154237500Y-121590000D03*
X154237500Y-122090000D03*
D56*
X155687500Y-121090000D03*
%TD*%
D57*
%TO.C,U1*%
X159820000Y-107585000D03*
X160320000Y-107585000D03*
X160820000Y-107585000D03*
X161320000Y-107585000D03*
X161820000Y-107585000D03*
X162320000Y-107585000D03*
D58*
X163007500Y-106897500D03*
X163007500Y-106397500D03*
X163007500Y-105897500D03*
X163007500Y-105397500D03*
X163007500Y-104897500D03*
X163007500Y-104397500D03*
D57*
X162320000Y-103710000D03*
X161820000Y-103710000D03*
X161320000Y-103710000D03*
X160820000Y-103710000D03*
X160320000Y-103710000D03*
X159820000Y-103710000D03*
D58*
X159132500Y-104397500D03*
X159132500Y-104897500D03*
X159132500Y-105397500D03*
X159132500Y-105897500D03*
X159132500Y-106397500D03*
X159132500Y-106897500D03*
D59*
X161070000Y-105647500D03*
%TD*%
D15*
%TO.C,R18*%
X186092500Y-130610000D03*
X186092500Y-131630000D03*
%TD*%
D20*
%TO.C,TP1*%
X156740000Y-108537500D03*
%TD*%
D25*
%TO.C,J4*%
X149500000Y-125730000D03*
D26*
X146960000Y-125730000D03*
X144420000Y-125730000D03*
%TD*%
D42*
%TO.C,C4*%
X153460000Y-113335000D03*
X153460000Y-113975000D03*
%TD*%
D19*
%TO.C,C1*%
X155545000Y-104220000D03*
X156185000Y-104220000D03*
%TD*%
D60*
%TO.C,BZ1*%
X176010785Y-126990000D03*
D61*
X171010785Y-126990000D03*
%TD*%
D62*
%TO.C,C6*%
X146025000Y-117882500D03*
X145385000Y-117882500D03*
%TD*%
D15*
%TO.C,R2*%
X158450000Y-101047500D03*
X158450000Y-102067500D03*
%TD*%
D42*
%TO.C,C7*%
X185092500Y-130590000D03*
X185092500Y-131230000D03*
%TD*%
D18*
%TO.C,R28*%
X185785000Y-94980000D03*
X184765000Y-94980000D03*
%TD*%
D19*
%TO.C,C5*%
X147975000Y-116572500D03*
X148615000Y-116572500D03*
%TD*%
D63*
%TO.C,C10*%
X159627500Y-123935000D03*
X159627500Y-129535000D03*
%TD*%
M02*
