%TF.GenerationSoftware,KiCad,Pcbnew,8.0.4*%
%TF.CreationDate,2024-11-08T09:04:55-08:00*%
%TF.ProjectId,Vanguard_new,56616e67-7561-4726-945f-6e65772e6b69,rev?*%
%TF.SameCoordinates,Original*%
%TF.FileFunction,Soldermask,Bot*%
%TF.FilePolarity,Negative*%
%FSLAX46Y46*%
G04 Gerber Fmt 4.6, Leading zero omitted, Abs format (unit mm)*
G04 Created by KiCad (PCBNEW 8.0.4) date 2024-11-08 09:04:55*
%MOMM*%
%LPD*%
G01*
G04 APERTURE LIST*
%ADD10C,0.650000*%
%ADD11O,0.650000X0.950000*%
%ADD12O,1.400000X0.800000*%
%ADD13C,2.100000*%
%ADD14R,1.700000X1.700000*%
%ADD15O,1.700000X1.700000*%
%ADD16C,1.000000*%
%ADD17R,2.000000X2.000000*%
%ADD18C,2.000000*%
G04 APERTURE END LIST*
D10*
%TO.C,J1*%
X151590000Y-101317500D03*
D11*
X151590000Y-108517500D03*
D10*
X150940000Y-107717500D03*
X150240000Y-107317500D03*
X150240000Y-106517500D03*
X150940000Y-106117500D03*
X150240000Y-105717500D03*
X150940000Y-105317500D03*
X150940000Y-104517500D03*
X150240000Y-104117500D03*
X150940000Y-103717500D03*
X150240000Y-103317500D03*
X150240000Y-102517500D03*
X150940000Y-102117500D03*
D12*
X144390000Y-100427500D03*
X150340000Y-100787500D03*
X150340000Y-109047500D03*
X144390000Y-109407500D03*
%TD*%
D13*
%TO.C,REF\u002A\u002A*%
X154800000Y-96210000D03*
%TD*%
D14*
%TO.C,J2*%
X159365000Y-97962500D03*
D15*
X159365000Y-95422500D03*
X161905000Y-97962500D03*
X161905000Y-95422500D03*
X164445000Y-97962500D03*
X164445000Y-95422500D03*
%TD*%
D13*
%TO.C,REF\u002A\u002A*%
X165500000Y-132000000D03*
%TD*%
D14*
%TO.C,J7*%
X153460000Y-126440000D03*
D15*
X153460000Y-128980000D03*
X153460000Y-131520000D03*
%TD*%
D16*
%TO.C,Y1*%
X185732500Y-123947500D03*
X183832500Y-123947500D03*
%TD*%
D13*
%TO.C,REF\u002A\u002A*%
X181000000Y-132000000D03*
%TD*%
D14*
%TO.C,J6*%
X151037500Y-119480000D03*
D15*
X151037500Y-122020000D03*
%TD*%
D14*
%TO.C,J5*%
X149530000Y-131980000D03*
D15*
X146990000Y-131980000D03*
X144450000Y-131980000D03*
%TD*%
D14*
%TO.C,J4*%
X149500000Y-125730000D03*
D15*
X146960000Y-125730000D03*
X144420000Y-125730000D03*
%TD*%
D17*
%TO.C,BZ1*%
X176010785Y-126990000D03*
D18*
X171010785Y-126990000D03*
%TD*%
M02*
