M48
; DRILL file {KiCad 8.0.4} date 2024-11-08T09:04:47-0800
; FORMAT={-:-/ absolute / metric / decimal}
; #@! TF.CreationDate,2024-11-08T09:04:47-08:00
; #@! TF.GenerationSoftware,Kicad,Pcbnew,8.0.4
; #@! TF.FileFunction,Plated,1,4,PTH
FMAT,2
METRIC
; #@! TA.AperFunction,Plated,PTH,ComponentDrill
T1C0.200
; #@! TA.AperFunction,Plated,PTH,ViaDrill
T2C0.300
; #@! TA.AperFunction,Plated,PTH,ComponentDrill
T3C0.400
; #@! TA.AperFunction,Plated,PTH,ComponentDrill
T4C0.500
; #@! TA.AperFunction,Plated,PTH,ComponentDrill
T5C1.000
%
G90
G05
T1
X155.112Y-120.15
X155.112Y-121.09
X155.112Y-122.03
X156.262Y-120.15
X156.262Y-121.09
X156.262Y-122.03
T2
X143.48Y-114.14
X144.38Y-127.51
X144.42Y-130.58
X145.0Y-98.2
X145.7Y-100.427
X145.8Y-116.57
X145.87Y-109.407
X145.92Y-114.3
X146.135Y-118.832
X147.19Y-112.132
X147.543Y-119.509
X148.34Y-110.867
X149.15Y-101.82
X149.17Y-107.99
X149.55Y-117.84
X149.73Y-114.078
X149.733Y-116.431
X150.68Y-96.21
X150.68Y-97.34
X150.7Y-94.92
X151.46Y-116.55
X151.5Y-111.0
X152.395Y-109.453
X152.46Y-114.98
X152.69Y-100.457
X153.1Y-102.11
X153.442Y-106.608
X153.48Y-123.04
X153.74Y-114.65
X153.787Y-119.109
X153.89Y-101.938
X154.77Y-104.987
X154.879Y-118.509
X155.16Y-131.97
X155.51Y-117.115
X155.673Y-126.193
X155.742Y-105.694
X156.71Y-105.297
X157.032Y-119.228
X157.14Y-106.498
X157.31Y-104.308
X157.582Y-109.482
X157.711Y-123.381
X157.89Y-118.315
X158.34Y-108.543
X158.5Y-129.5
X158.85Y-109.73
X159.94Y-121.11
X160.79Y-125.98
X160.87Y-100.4
X161.849Y-109.013
X162.56Y-116.16
X162.713Y-108.997
X163.013Y-111.673
X163.31Y-109.53
X163.35Y-126.41
X163.54Y-114.644
X164.15Y-109.62
X164.651Y-113.671
X164.883Y-101.597
X165.3Y-96.817
X165.46Y-105.98
X165.496Y-112.48
X165.74Y-118.8
X165.886Y-110.776
X165.909Y-114.109
X165.931Y-119.679
X166.062Y-122.518
X166.669Y-117.159
X166.761Y-121.519
X167.287Y-123.743
X167.35Y-107.746
X167.46Y-113.98
X167.677Y-115.045
X167.887Y-125.65
X168.015Y-121.925
X168.058Y-107.124
X168.316Y-108.346
X169.0Y-103.6
X169.269Y-109.089
X169.808Y-121.862
X170.61Y-121.64
X172.18Y-100.54
X172.87Y-120.13
X172.92Y-97.39
X173.42Y-100.242
X174.0Y-120.38
X174.27Y-100.29
X174.91Y-120.49
X174.945Y-100.72
X175.61Y-120.97
X176.22Y-98.31
X176.545Y-100.65
X176.584Y-99.763
X178.04Y-95.3
X178.754Y-101.465
X179.71Y-123.75
X179.872Y-100.042
X179.93Y-125.98
X180.01Y-111.111
X181.095Y-97.768
X181.142Y-104.03
X182.16Y-126.84
X182.598Y-97.963
X182.61Y-100.634
X182.83Y-108.13
X183.789Y-121.917
X184.11Y-130.85
X185.292Y-102.906
X185.64Y-127.87
X186.221Y-102.991
X186.325Y-122.365
X187.04Y-103.02
X187.8Y-117.7
X187.88Y-102.97
X190.1Y-124.8
X190.91Y-98.61
T3
X150.24Y-102.517
X150.24Y-103.317
X150.24Y-104.117
X150.24Y-105.718
X150.24Y-106.517
X150.24Y-107.317
X150.94Y-102.117
X150.94Y-103.718
X150.94Y-104.517
X150.94Y-105.317
X150.94Y-106.117
X150.94Y-107.718
T4
X183.832Y-123.947
X185.732Y-123.947
T5
X144.42Y-125.73
X144.45Y-131.98
X146.96Y-125.73
X146.99Y-131.98
X149.5Y-125.73
X149.53Y-131.98
X151.037Y-119.48
X151.037Y-122.02
X153.46Y-126.44
X153.46Y-128.98
X153.46Y-131.52
X159.365Y-95.422
X159.365Y-97.962
X161.905Y-95.422
X161.905Y-97.962
X164.445Y-95.422
X164.445Y-97.962
X171.011Y-126.99
X176.011Y-126.99
T4
G00X144.69Y-100.427
M15
G01X144.09Y-100.427
M16
G05
G00X144.69Y-109.407
M15
G01X144.09Y-109.407
M16
G05
G00X150.64Y-100.787
M15
G01X150.04Y-100.787
M16
G05
G00X150.64Y-109.047
M15
G01X150.04Y-109.047
M16
G05
M30
