G04 #@! TF.GenerationSoftware,KiCad,Pcbnew,8.0.5*
G04 #@! TF.CreationDate,2024-11-06T19:49:11-08:00*
G04 #@! TF.ProjectId,Vanguard_new,56616e67-7561-4726-945f-6e65772e6b69,rev?*
G04 #@! TF.SameCoordinates,Original*
G04 #@! TF.FileFunction,Copper,L4,Bot*
G04 #@! TF.FilePolarity,Positive*
%FSLAX46Y46*%
G04 Gerber Fmt 4.6, Leading zero omitted, Abs format (unit mm)*
G04 Created by KiCad (PCBNEW 8.0.5) date 2024-11-06 19:49:11*
%MOMM*%
%LPD*%
G01*
G04 APERTURE LIST*
G04 #@! TA.AperFunction,ComponentPad*
%ADD10C,0.650000*%
G04 #@! TD*
G04 #@! TA.AperFunction,ComponentPad*
%ADD11O,1.400000X0.800000*%
G04 #@! TD*
G04 #@! TA.AperFunction,ComponentPad*
%ADD12R,1.700000X1.700000*%
G04 #@! TD*
G04 #@! TA.AperFunction,ComponentPad*
%ADD13O,1.700000X1.700000*%
G04 #@! TD*
G04 #@! TA.AperFunction,ComponentPad*
%ADD14C,1.000000*%
G04 #@! TD*
G04 #@! TA.AperFunction,HeatsinkPad*
%ADD15C,0.500000*%
G04 #@! TD*
G04 #@! TA.AperFunction,HeatsinkPad*
%ADD16R,1.650000X2.380000*%
G04 #@! TD*
G04 #@! TA.AperFunction,ComponentPad*
%ADD17R,2.000000X2.000000*%
G04 #@! TD*
G04 #@! TA.AperFunction,ComponentPad*
%ADD18C,2.000000*%
G04 #@! TD*
G04 #@! TA.AperFunction,ViaPad*
%ADD19C,0.600000*%
G04 #@! TD*
G04 #@! TA.AperFunction,Conductor*
%ADD20C,0.200000*%
G04 #@! TD*
G04 APERTURE END LIST*
D10*
X150940000Y-107717500D03*
X150240000Y-107317500D03*
X150240000Y-106517500D03*
X150940000Y-106117500D03*
X150240000Y-105717500D03*
X150940000Y-105317500D03*
X150940000Y-104517500D03*
X150240000Y-104117500D03*
X150940000Y-103717500D03*
X150240000Y-103317500D03*
X150240000Y-102517500D03*
X150940000Y-102117500D03*
D11*
X144390000Y-100427500D03*
X150340000Y-100787500D03*
X150340000Y-109047500D03*
X144390000Y-109407500D03*
D12*
X159365000Y-97962500D03*
D13*
X159365000Y-95422500D03*
X161905000Y-97962500D03*
X161905000Y-95422500D03*
X164445000Y-97962500D03*
X164445000Y-95422500D03*
D12*
X153460000Y-126440000D03*
D13*
X153460000Y-128980000D03*
X153460000Y-131520000D03*
D14*
X185732500Y-123947500D03*
X183832500Y-123947500D03*
D12*
X151037500Y-119480000D03*
D13*
X151037500Y-122020000D03*
D12*
X149530000Y-131980000D03*
D13*
X146990000Y-131980000D03*
X144450000Y-131980000D03*
D15*
X156262500Y-122030000D03*
X156262500Y-121090000D03*
X156262500Y-120150000D03*
D16*
X155687500Y-121090000D03*
D15*
X155112500Y-122030000D03*
X155112500Y-121090000D03*
X155112500Y-120150000D03*
D12*
X149500000Y-125730000D03*
D13*
X146960000Y-125730000D03*
X144420000Y-125730000D03*
D17*
X176010785Y-126990000D03*
D18*
X171010785Y-126990000D03*
D19*
X154770000Y-104987500D03*
X184110000Y-130850000D03*
X167682115Y-116994181D03*
X186780000Y-101890000D03*
X166972365Y-116006871D03*
X190910000Y-98610000D03*
X153960000Y-112480000D03*
X173880000Y-121430000D03*
X172190000Y-96420000D03*
X185640000Y-127870000D03*
X163900000Y-126300000D03*
X190100000Y-124800000D03*
X176220000Y-98310000D03*
X164470000Y-129560000D03*
X157031985Y-119228015D03*
X157090000Y-109900000D03*
X157890000Y-118315000D03*
X182610000Y-100634315D03*
X159940000Y-121110000D03*
X179590000Y-122810000D03*
X152010000Y-95380000D03*
X163540000Y-114643918D03*
X183789265Y-121916765D03*
X143480000Y-114140000D03*
X176900000Y-95590000D03*
X183720000Y-97830000D03*
X181200000Y-126960000D03*
X189340000Y-120380000D03*
X165300000Y-96817500D03*
X147190000Y-112132500D03*
X145920000Y-114300000D03*
X156317500Y-118765000D03*
X148480000Y-104910000D03*
X155500000Y-123970000D03*
X147542883Y-119508658D03*
X169808275Y-121861725D03*
X153100002Y-102110000D03*
X154879057Y-118509057D03*
X153441985Y-106608015D03*
X155510000Y-117115000D03*
X179930000Y-125980000D03*
X160870000Y-100400000D03*
X149550000Y-117840000D03*
X165885735Y-110775735D03*
X172180000Y-100540000D03*
X164650735Y-113670735D03*
X166668883Y-117158883D03*
X164882501Y-101597500D03*
X179710000Y-123750000D03*
X178040000Y-95300000D03*
X145800000Y-116570000D03*
X181142500Y-104030000D03*
X182830000Y-108130000D03*
X155742260Y-105693922D03*
X153890000Y-101937500D03*
X152690000Y-100457500D03*
X156710000Y-104927500D03*
X157140000Y-106497500D03*
X169960000Y-101980000D03*
X163013225Y-111672565D03*
X165909265Y-114109265D03*
X169000000Y-103600000D03*
X149730000Y-114077500D03*
X152460000Y-114980000D03*
X166760933Y-121519067D03*
X166062403Y-122517597D03*
X155672720Y-126192722D03*
X165495735Y-112480000D03*
X172920000Y-97390000D03*
X161848917Y-109013024D03*
X168057868Y-107123603D03*
X173419835Y-100242230D03*
X168315735Y-108345735D03*
X176545000Y-100650000D03*
X163310000Y-109530000D03*
X174945000Y-100720000D03*
X185291986Y-102905558D03*
X172870000Y-120130000D03*
X174910000Y-120490000D03*
X187040000Y-103020000D03*
X167287403Y-123742597D03*
X170610000Y-121640000D03*
X164150000Y-109620000D03*
X169269265Y-109089265D03*
X186220735Y-102990735D03*
X174000000Y-120380000D03*
X187880000Y-102970000D03*
X175610000Y-120970000D03*
X162712970Y-108997500D03*
X176583518Y-99762953D03*
X174270388Y-100290000D03*
X167350000Y-107745735D03*
X168015198Y-121924802D03*
X162560000Y-116160000D03*
X150680000Y-97340000D03*
X167460000Y-113980000D03*
X150700000Y-94920000D03*
X158340000Y-108542943D03*
X165931498Y-119678990D03*
X158850000Y-109730000D03*
X182597680Y-97962798D03*
X178753554Y-101464973D03*
X150680000Y-96210000D03*
X165740000Y-118800000D03*
X181094999Y-97768421D03*
X179871642Y-100041642D03*
X160790000Y-125980000D03*
X167887403Y-125650000D03*
X148340000Y-110867500D03*
X165460000Y-105980000D03*
X170460000Y-102980000D03*
D20*
X166972365Y-116284431D02*
X167682115Y-116994181D01*
X166972365Y-116006871D02*
X166972365Y-116284431D01*
X153330000Y-106360000D02*
X153441985Y-106471985D01*
X153100002Y-106130002D02*
X153330000Y-106360000D01*
X153100002Y-102110000D02*
X153100002Y-106130002D01*
X155510000Y-117115000D02*
X155510000Y-117878114D01*
X153441985Y-106471985D02*
X153441985Y-106608015D01*
X155510000Y-117878114D02*
X154879057Y-118509057D01*
X172960000Y-101320000D02*
X177840000Y-101320000D01*
X164895735Y-113425735D02*
X164895735Y-111765735D01*
X179930000Y-123970000D02*
X179710000Y-123750000D01*
X149550000Y-117840000D02*
X149480000Y-117770000D01*
X181142500Y-106442500D02*
X181142500Y-104030000D01*
X164895735Y-111765735D02*
X165885735Y-110775735D01*
X164895735Y-113425735D02*
X164650735Y-113670735D01*
X182830000Y-108130000D02*
X181142500Y-106442500D01*
X164460000Y-114950000D02*
X166668883Y-117158883D01*
X179930000Y-125980000D02*
X179930000Y-123970000D01*
X178040000Y-101599948D02*
X178040000Y-101120000D01*
X164460000Y-113861470D02*
X164460000Y-114950000D01*
X172180000Y-100540000D02*
X172960000Y-101320000D01*
X164650735Y-113670735D02*
X164460000Y-113861470D01*
X160870000Y-100400000D02*
X162067500Y-101597500D01*
X162067500Y-101597500D02*
X164882501Y-101597500D01*
X159365000Y-97962500D02*
X159365000Y-98895000D01*
X159365000Y-98895000D02*
X160870000Y-100400000D01*
X180470052Y-104030000D02*
X178040000Y-101599948D01*
X177840000Y-101320000D02*
X178040000Y-101120000D01*
X149480000Y-117770000D02*
X147000000Y-117770000D01*
X181142500Y-104030000D02*
X180470052Y-104030000D01*
X147000000Y-117770000D02*
X145800000Y-116570000D01*
X178040000Y-101120000D02*
X178040000Y-95300000D01*
X155742260Y-105693922D02*
X153856182Y-107580000D01*
X151565000Y-106325000D02*
X151565000Y-105858616D01*
X155742260Y-103789760D02*
X153890000Y-101937500D01*
X151565000Y-105858616D02*
X151023884Y-105317500D01*
X155742260Y-105693922D02*
X155742260Y-103789760D01*
X151023884Y-105317500D02*
X150940000Y-105317500D01*
X153856182Y-107580000D02*
X152820000Y-107580000D01*
X152820000Y-107580000D02*
X151565000Y-106325000D01*
X156710000Y-104927500D02*
X156710000Y-103908971D01*
X156710000Y-103908971D02*
X153258529Y-100457500D01*
X153258529Y-100457500D02*
X152690000Y-100457500D01*
X156710000Y-104927500D02*
X156710000Y-106067500D01*
X156710000Y-106067500D02*
X157140000Y-106497500D01*
X163055000Y-96572500D02*
X163055000Y-98321588D01*
X167373412Y-102640000D02*
X161248917Y-108764495D01*
X163055000Y-98321588D02*
X167373412Y-102640000D01*
X161905000Y-95422500D02*
X163055000Y-96572500D01*
X161248917Y-109908257D02*
X163013225Y-111672565D01*
X169960000Y-101980000D02*
X168033412Y-101980000D01*
X168033412Y-101980000D02*
X167373412Y-102640000D01*
X161248917Y-108764495D02*
X161248917Y-109908257D01*
X170430000Y-109588530D02*
X170430000Y-105030000D01*
X170430000Y-105030000D02*
X169000000Y-103600000D01*
X165909265Y-114109265D02*
X170430000Y-109588530D01*
X150632500Y-114980000D02*
X149730000Y-114077500D01*
X152460000Y-114980000D02*
X150632500Y-114980000D01*
X166760933Y-121819067D02*
X166062403Y-122517597D01*
X166760933Y-121519067D02*
X166760933Y-121819067D01*
X162195324Y-120678990D02*
X166345713Y-120678990D01*
X167211471Y-113380000D02*
X166860000Y-113731471D01*
X166345713Y-120678990D02*
X168682115Y-118342588D01*
X168344353Y-113927778D02*
X167796575Y-113380000D01*
X168682115Y-114265540D02*
X168344353Y-113927778D01*
X166157794Y-114709265D02*
X165660736Y-114709265D01*
X156681592Y-126192722D02*
X162195324Y-120678990D01*
X165309265Y-114357794D02*
X165309265Y-112666470D01*
X166860000Y-113731471D02*
X166860000Y-114007059D01*
X165660736Y-114709265D02*
X165309265Y-114357794D01*
X155672720Y-126192722D02*
X156681592Y-126192722D01*
X166860000Y-114007059D02*
X166157794Y-114709265D01*
X165309265Y-112666470D02*
X165495735Y-112480000D01*
X168682115Y-118342588D02*
X168682115Y-114265540D01*
X167796575Y-113380000D02*
X167211471Y-113380000D01*
X173419835Y-100242230D02*
X173419835Y-97889835D01*
X173419835Y-97889835D02*
X172920000Y-97390000D01*
X161848917Y-109013024D02*
X163738338Y-107123603D01*
X163738338Y-107123603D02*
X168057868Y-107123603D01*
X168315735Y-108345735D02*
X164575736Y-108345735D01*
X164575736Y-108345735D02*
X163391471Y-109530000D01*
X175015000Y-100650000D02*
X174945000Y-100720000D01*
X163391471Y-109530000D02*
X163310000Y-109530000D01*
X176545000Y-100650000D02*
X175015000Y-100650000D01*
X185291986Y-102905558D02*
X184720000Y-103477544D01*
X184720000Y-107250000D02*
X172870000Y-119100000D01*
X172870000Y-119100000D02*
X172870000Y-120130000D01*
X184720000Y-103477544D02*
X184720000Y-107250000D01*
X187040000Y-103020000D02*
X186515000Y-103545000D01*
X174910000Y-120035686D02*
X174910000Y-120490000D01*
X186515000Y-103545000D02*
X186515000Y-108430686D01*
X186515000Y-108430686D02*
X174910000Y-120035686D01*
X167287403Y-123742597D02*
X168775932Y-123742597D01*
X170610000Y-121908529D02*
X170610000Y-121640000D01*
X168775932Y-123742597D02*
X170610000Y-121908529D01*
X164680735Y-109089265D02*
X164150000Y-109620000D01*
X169269265Y-109089265D02*
X164680735Y-109089265D01*
X185320000Y-103891470D02*
X185320000Y-109060000D01*
X185320000Y-109060000D02*
X174000000Y-120380000D01*
X186220735Y-102990735D02*
X185320000Y-103891470D01*
X188110000Y-103200000D02*
X188110000Y-108470000D01*
X187880000Y-102970000D02*
X188110000Y-103200000D01*
X188110000Y-108470000D02*
X175610000Y-120970000D01*
X176577048Y-99762953D02*
X176583518Y-99762953D01*
X174270388Y-100290000D02*
X174440388Y-100120000D01*
X174440388Y-100120000D02*
X176220001Y-100120000D01*
X162712970Y-108997500D02*
X163964735Y-107745735D01*
X163964735Y-107745735D02*
X167350000Y-107745735D01*
X176220001Y-100120000D02*
X176577048Y-99762953D01*
X152610000Y-127830000D02*
X155610000Y-127830000D01*
X160297403Y-123142597D02*
X166797403Y-123142597D01*
X149530000Y-131980000D02*
X149530000Y-130910000D01*
X166797403Y-123142597D02*
X168015198Y-121924802D01*
X149530000Y-130910000D02*
X152610000Y-127830000D01*
X155610000Y-127830000D02*
X160297403Y-123142597D01*
X162560000Y-116160000D02*
X162316998Y-116160000D01*
X150283971Y-113660000D02*
X147740000Y-111116029D01*
X147740000Y-100280000D02*
X150680000Y-97340000D01*
X159816998Y-113660000D02*
X150283971Y-113660000D01*
X162316998Y-116160000D02*
X159816998Y-113660000D01*
X147740000Y-111116029D02*
X147740000Y-100280000D01*
X168282115Y-118176902D02*
X166180027Y-120278990D01*
X168282115Y-114802115D02*
X168282115Y-118176902D01*
X151960000Y-124980000D02*
X151210000Y-125730000D01*
X156960000Y-124980000D02*
X151960000Y-124980000D01*
X166180027Y-120278990D02*
X161661010Y-120278990D01*
X151210000Y-125730000D02*
X149500000Y-125730000D01*
X167460000Y-113980000D02*
X168282115Y-114802115D01*
X161661010Y-120278990D02*
X156960000Y-124980000D01*
X158340000Y-103021471D02*
X150700000Y-95381471D01*
X158340000Y-108542943D02*
X158340000Y-103021471D01*
X165770461Y-119678990D02*
X162830000Y-116738529D01*
X163160000Y-116408529D02*
X163160000Y-115911471D01*
X150700000Y-95381471D02*
X150700000Y-94920000D01*
X165931498Y-119678990D02*
X165770461Y-119678990D01*
X160070000Y-113347316D02*
X160070000Y-110950000D01*
X163160000Y-115911471D02*
X160595845Y-113347316D01*
X160595845Y-113347316D02*
X160070000Y-113347316D01*
X160070000Y-110950000D02*
X158850000Y-109730000D01*
X162830000Y-116738529D02*
X163160000Y-116408529D01*
X182597680Y-98164133D02*
X179296840Y-101464973D01*
X179296840Y-101464973D02*
X178753554Y-101464973D01*
X182597680Y-97962798D02*
X182597680Y-98164133D01*
X157740000Y-103270000D02*
X150680000Y-96210000D01*
X159061471Y-108670000D02*
X158431471Y-109300000D01*
X158431471Y-109300000D02*
X157740000Y-109300000D01*
X160657364Y-112894680D02*
X160657364Y-108670000D01*
X163560000Y-115745785D02*
X160761531Y-112947316D01*
X163537107Y-116597107D02*
X163560000Y-116574214D01*
X160761531Y-112947316D02*
X160710000Y-112947316D01*
X160657364Y-108670000D02*
X159061471Y-108670000D01*
X165740000Y-118800000D02*
X163537107Y-116597107D01*
X163560000Y-116574214D02*
X163560000Y-115745785D01*
X157740000Y-109300000D02*
X157740000Y-103270000D01*
X160710000Y-112947316D02*
X160657364Y-112894680D01*
X181094999Y-98818285D02*
X181094999Y-97768421D01*
X179871642Y-100041642D02*
X181094999Y-98818285D01*
X167887403Y-125650000D02*
X161120000Y-125650000D01*
X161120000Y-125650000D02*
X160790000Y-125980000D01*
X150240000Y-105717500D02*
X149780381Y-105717500D01*
X148340000Y-107157881D02*
X148340000Y-110867500D01*
X149780381Y-105717500D02*
X148340000Y-107157881D01*
X168460000Y-102980000D02*
X170460000Y-102980000D01*
X165460000Y-105980000D02*
X168460000Y-102980000D01*
G04 #@! TA.AperFunction,NonConductor*
G36*
X191702539Y-93770185D02*
G01*
X191748294Y-93822989D01*
X191759500Y-93874500D01*
X191759500Y-98028841D01*
X191739815Y-98095880D01*
X191687011Y-98141635D01*
X191617853Y-98151579D01*
X191554297Y-98122554D01*
X191544770Y-98112631D01*
X191544740Y-98112662D01*
X191412262Y-97980184D01*
X191259523Y-97884211D01*
X191089254Y-97824631D01*
X191089249Y-97824630D01*
X190910004Y-97804435D01*
X190909996Y-97804435D01*
X190730750Y-97824630D01*
X190730745Y-97824631D01*
X190560476Y-97884211D01*
X190407737Y-97980184D01*
X190280184Y-98107737D01*
X190184211Y-98260476D01*
X190124631Y-98430745D01*
X190124630Y-98430750D01*
X190104435Y-98609996D01*
X190104435Y-98610003D01*
X190124630Y-98789249D01*
X190124631Y-98789254D01*
X190184211Y-98959523D01*
X190244100Y-99054835D01*
X190280184Y-99112262D01*
X190407738Y-99239816D01*
X190449628Y-99266137D01*
X190555534Y-99332683D01*
X190560478Y-99335789D01*
X190599142Y-99349318D01*
X190730745Y-99395368D01*
X190730750Y-99395369D01*
X190909996Y-99415565D01*
X190910000Y-99415565D01*
X190910004Y-99415565D01*
X191089249Y-99395369D01*
X191089252Y-99395368D01*
X191089255Y-99395368D01*
X191259522Y-99335789D01*
X191412262Y-99239816D01*
X191539816Y-99112262D01*
X191539816Y-99112261D01*
X191544740Y-99107338D01*
X191546011Y-99108609D01*
X191595740Y-99073705D01*
X191665552Y-99070855D01*
X191725822Y-99106200D01*
X191757416Y-99168518D01*
X191759500Y-99191158D01*
X191759500Y-133865500D01*
X191739815Y-133932539D01*
X191687011Y-133978294D01*
X191635500Y-133989500D01*
X142884500Y-133989500D01*
X142817461Y-133969815D01*
X142771706Y-133917011D01*
X142760500Y-133865500D01*
X142760500Y-125729999D01*
X143064341Y-125729999D01*
X143064341Y-125730000D01*
X143084936Y-125965403D01*
X143084938Y-125965413D01*
X143146094Y-126193655D01*
X143146096Y-126193659D01*
X143146097Y-126193663D01*
X143229358Y-126372217D01*
X143245965Y-126407830D01*
X143245967Y-126407834D01*
X143340083Y-126542244D01*
X143381505Y-126601401D01*
X143548599Y-126768495D01*
X143625779Y-126822537D01*
X143742165Y-126904032D01*
X143742167Y-126904033D01*
X143742170Y-126904035D01*
X143956337Y-127003903D01*
X144184592Y-127065063D01*
X144361034Y-127080500D01*
X144419999Y-127085659D01*
X144420000Y-127085659D01*
X144420001Y-127085659D01*
X144478966Y-127080500D01*
X144655408Y-127065063D01*
X144883663Y-127003903D01*
X145097830Y-126904035D01*
X145291401Y-126768495D01*
X145458495Y-126601401D01*
X145588425Y-126415842D01*
X145643002Y-126372217D01*
X145712500Y-126365023D01*
X145774855Y-126396546D01*
X145791575Y-126415842D01*
X145921500Y-126601395D01*
X145921505Y-126601401D01*
X146088599Y-126768495D01*
X146165779Y-126822537D01*
X146282165Y-126904032D01*
X146282167Y-126904033D01*
X146282170Y-126904035D01*
X146496337Y-127003903D01*
X146724592Y-127065063D01*
X146901034Y-127080500D01*
X146959999Y-127085659D01*
X146960000Y-127085659D01*
X146960001Y-127085659D01*
X147018966Y-127080500D01*
X147195408Y-127065063D01*
X147423663Y-127003903D01*
X147637830Y-126904035D01*
X147831401Y-126768495D01*
X147953329Y-126646566D01*
X148014648Y-126613084D01*
X148084340Y-126618068D01*
X148140274Y-126659939D01*
X148157189Y-126690917D01*
X148206202Y-126822328D01*
X148206206Y-126822335D01*
X148292452Y-126937544D01*
X148292455Y-126937547D01*
X148407664Y-127023793D01*
X148407671Y-127023797D01*
X148542517Y-127074091D01*
X148542516Y-127074091D01*
X148549444Y-127074835D01*
X148602127Y-127080500D01*
X150397872Y-127080499D01*
X150457483Y-127074091D01*
X150592331Y-127023796D01*
X150707546Y-126937546D01*
X150793796Y-126822331D01*
X150844091Y-126687483D01*
X150850500Y-126627873D01*
X150850500Y-126454500D01*
X150870185Y-126387461D01*
X150922989Y-126341706D01*
X150974500Y-126330500D01*
X151123331Y-126330500D01*
X151123347Y-126330501D01*
X151130943Y-126330501D01*
X151289054Y-126330501D01*
X151289057Y-126330501D01*
X151441785Y-126289577D01*
X151509468Y-126250500D01*
X151578716Y-126210520D01*
X151690520Y-126098716D01*
X151690520Y-126098714D01*
X151700724Y-126088511D01*
X151700728Y-126088506D01*
X151897821Y-125891412D01*
X151959142Y-125857929D01*
X152028834Y-125862913D01*
X152084767Y-125904785D01*
X152109184Y-125970249D01*
X152109500Y-125979095D01*
X152109500Y-127337870D01*
X152109501Y-127337876D01*
X152116738Y-127405196D01*
X152114117Y-127405477D01*
X152111044Y-127462563D01*
X152081798Y-127508964D01*
X149161286Y-130429478D01*
X149049481Y-130541282D01*
X149049477Y-130541287D01*
X149034342Y-130567502D01*
X148983774Y-130615717D01*
X148926956Y-130629500D01*
X148632130Y-130629500D01*
X148632123Y-130629501D01*
X148572516Y-130635908D01*
X148437671Y-130686202D01*
X148437664Y-130686206D01*
X148322455Y-130772452D01*
X148322452Y-130772455D01*
X148236206Y-130887664D01*
X148236203Y-130887669D01*
X148187189Y-131019083D01*
X148145317Y-131075016D01*
X148079853Y-131099433D01*
X148011580Y-131084581D01*
X147983326Y-131063430D01*
X147861402Y-130941506D01*
X147861395Y-130941501D01*
X147667834Y-130805967D01*
X147667830Y-130805965D01*
X147667828Y-130805964D01*
X147453663Y-130706097D01*
X147453659Y-130706096D01*
X147453655Y-130706094D01*
X147225413Y-130644938D01*
X147225403Y-130644936D01*
X146990001Y-130624341D01*
X146989999Y-130624341D01*
X146754596Y-130644936D01*
X146754586Y-130644938D01*
X146526344Y-130706094D01*
X146526335Y-130706098D01*
X146312171Y-130805964D01*
X146312169Y-130805965D01*
X146118597Y-130941505D01*
X145951505Y-131108597D01*
X145821575Y-131294158D01*
X145766998Y-131337783D01*
X145697500Y-131344977D01*
X145635145Y-131313454D01*
X145618425Y-131294158D01*
X145488494Y-131108597D01*
X145321402Y-130941506D01*
X145321395Y-130941501D01*
X145127834Y-130805967D01*
X145127830Y-130805965D01*
X145127828Y-130805964D01*
X144913663Y-130706097D01*
X144913659Y-130706096D01*
X144913655Y-130706094D01*
X144685413Y-130644938D01*
X144685403Y-130644936D01*
X144450001Y-130624341D01*
X144449999Y-130624341D01*
X144214596Y-130644936D01*
X144214586Y-130644938D01*
X143986344Y-130706094D01*
X143986335Y-130706098D01*
X143772171Y-130805964D01*
X143772169Y-130805965D01*
X143578597Y-130941505D01*
X143411505Y-131108597D01*
X143275965Y-131302169D01*
X143275964Y-131302171D01*
X143176098Y-131516335D01*
X143176094Y-131516344D01*
X143114938Y-131744586D01*
X143114936Y-131744596D01*
X143094341Y-131979999D01*
X143094341Y-131980000D01*
X143114936Y-132215403D01*
X143114938Y-132215413D01*
X143176094Y-132443655D01*
X143176096Y-132443659D01*
X143176097Y-132443663D01*
X143229644Y-132558495D01*
X143275965Y-132657830D01*
X143275967Y-132657834D01*
X143371243Y-132793901D01*
X143411505Y-132851401D01*
X143578599Y-133018495D01*
X143675384Y-133086265D01*
X143772165Y-133154032D01*
X143772167Y-133154033D01*
X143772170Y-133154035D01*
X143986337Y-133253903D01*
X144214592Y-133315063D01*
X144391034Y-133330500D01*
X144449999Y-133335659D01*
X144450000Y-133335659D01*
X144450001Y-133335659D01*
X144508966Y-133330500D01*
X144685408Y-133315063D01*
X144913663Y-133253903D01*
X145127830Y-133154035D01*
X145321401Y-133018495D01*
X145488495Y-132851401D01*
X145618425Y-132665842D01*
X145673002Y-132622217D01*
X145742500Y-132615023D01*
X145804855Y-132646546D01*
X145821575Y-132665842D01*
X145951500Y-132851395D01*
X145951505Y-132851401D01*
X146118599Y-133018495D01*
X146215384Y-133086265D01*
X146312165Y-133154032D01*
X146312167Y-133154033D01*
X146312170Y-133154035D01*
X146526337Y-133253903D01*
X146754592Y-133315063D01*
X146931034Y-133330500D01*
X146989999Y-133335659D01*
X146990000Y-133335659D01*
X146990001Y-133335659D01*
X147048966Y-133330500D01*
X147225408Y-133315063D01*
X147453663Y-133253903D01*
X147667830Y-133154035D01*
X147861401Y-133018495D01*
X147983329Y-132896566D01*
X148044648Y-132863084D01*
X148114340Y-132868068D01*
X148170274Y-132909939D01*
X148187189Y-132940917D01*
X148236202Y-133072328D01*
X148236206Y-133072335D01*
X148322452Y-133187544D01*
X148322455Y-133187547D01*
X148437664Y-133273793D01*
X148437671Y-133273797D01*
X148572517Y-133324091D01*
X148572516Y-133324091D01*
X148579444Y-133324835D01*
X148632127Y-133330500D01*
X150427872Y-133330499D01*
X150487483Y-133324091D01*
X150622331Y-133273796D01*
X150737546Y-133187546D01*
X150823796Y-133072331D01*
X150874091Y-132937483D01*
X150880500Y-132877873D01*
X150880499Y-131082128D01*
X150874091Y-131022517D01*
X150872810Y-131019083D01*
X150823797Y-130887671D01*
X150823793Y-130887664D01*
X150737547Y-130772455D01*
X150737545Y-130772453D01*
X150725850Y-130763698D01*
X150683980Y-130707764D01*
X150678997Y-130638072D01*
X150712480Y-130576754D01*
X151962269Y-129326965D01*
X152023590Y-129293482D01*
X152093282Y-129298466D01*
X152149215Y-129340338D01*
X152169723Y-129382555D01*
X152186094Y-129443655D01*
X152186096Y-129443659D01*
X152186097Y-129443663D01*
X152285965Y-129657830D01*
X152285967Y-129657834D01*
X152421501Y-129851395D01*
X152421506Y-129851402D01*
X152588597Y-130018493D01*
X152588603Y-130018498D01*
X152774158Y-130148425D01*
X152817783Y-130203002D01*
X152824977Y-130272500D01*
X152793454Y-130334855D01*
X152774158Y-130351575D01*
X152588597Y-130481505D01*
X152421505Y-130648597D01*
X152285965Y-130842169D01*
X152285964Y-130842171D01*
X152186098Y-131056335D01*
X152186094Y-131056344D01*
X152124938Y-131284586D01*
X152124936Y-131284596D01*
X152104341Y-131519999D01*
X152104341Y-131520000D01*
X152124936Y-131755403D01*
X152124938Y-131755413D01*
X152186094Y-131983655D01*
X152186096Y-131983659D01*
X152186097Y-131983663D01*
X152285965Y-132197830D01*
X152285967Y-132197834D01*
X152394281Y-132352521D01*
X152421505Y-132391401D01*
X152588599Y-132558495D01*
X152669329Y-132615023D01*
X152782165Y-132694032D01*
X152782167Y-132694033D01*
X152782170Y-132694035D01*
X152996337Y-132793903D01*
X153224592Y-132855063D01*
X153412918Y-132871539D01*
X153459999Y-132875659D01*
X153460000Y-132875659D01*
X153460001Y-132875659D01*
X153499234Y-132872226D01*
X153695408Y-132855063D01*
X153923663Y-132793903D01*
X154137830Y-132694035D01*
X154331401Y-132558495D01*
X154498495Y-132391401D01*
X154634035Y-132197830D01*
X154733903Y-131983663D01*
X154795063Y-131755408D01*
X154815659Y-131520000D01*
X154795063Y-131284592D01*
X154733903Y-131056337D01*
X154637683Y-130849995D01*
X183304435Y-130849995D01*
X183304435Y-130850003D01*
X183324630Y-131029249D01*
X183324631Y-131029254D01*
X183384211Y-131199523D01*
X183480184Y-131352262D01*
X183607738Y-131479816D01*
X183760478Y-131575789D01*
X183930745Y-131635368D01*
X183930750Y-131635369D01*
X184109996Y-131655565D01*
X184110000Y-131655565D01*
X184110004Y-131655565D01*
X184289249Y-131635369D01*
X184289252Y-131635368D01*
X184289255Y-131635368D01*
X184459522Y-131575789D01*
X184612262Y-131479816D01*
X184739816Y-131352262D01*
X184835789Y-131199522D01*
X184895368Y-131029255D01*
X184895369Y-131029249D01*
X184915565Y-130850003D01*
X184915565Y-130849995D01*
X184895369Y-130670750D01*
X184895368Y-130670745D01*
X184880444Y-130628095D01*
X184835789Y-130500478D01*
X184823867Y-130481505D01*
X184739815Y-130347737D01*
X184612262Y-130220184D01*
X184459523Y-130124211D01*
X184289254Y-130064631D01*
X184289249Y-130064630D01*
X184110004Y-130044435D01*
X184109996Y-130044435D01*
X183930750Y-130064630D01*
X183930745Y-130064631D01*
X183760476Y-130124211D01*
X183607737Y-130220184D01*
X183480184Y-130347737D01*
X183384211Y-130500476D01*
X183324631Y-130670745D01*
X183324630Y-130670750D01*
X183304435Y-130849995D01*
X154637683Y-130849995D01*
X154634035Y-130842171D01*
X154608684Y-130805965D01*
X154498494Y-130648597D01*
X154331402Y-130481506D01*
X154331396Y-130481501D01*
X154145842Y-130351575D01*
X154102217Y-130296998D01*
X154095023Y-130227500D01*
X154126546Y-130165145D01*
X154145842Y-130148425D01*
X154180423Y-130124211D01*
X154331401Y-130018495D01*
X154498495Y-129851401D01*
X154634035Y-129657830D01*
X154679656Y-129559996D01*
X163664435Y-129559996D01*
X163664435Y-129560003D01*
X163684630Y-129739249D01*
X163684631Y-129739254D01*
X163744211Y-129909523D01*
X163840184Y-130062262D01*
X163967738Y-130189816D01*
X164027712Y-130227500D01*
X164099328Y-130272500D01*
X164120478Y-130285789D01*
X164260701Y-130334855D01*
X164290745Y-130345368D01*
X164290750Y-130345369D01*
X164469996Y-130365565D01*
X164470000Y-130365565D01*
X164470004Y-130365565D01*
X164649249Y-130345369D01*
X164649252Y-130345368D01*
X164649255Y-130345368D01*
X164819522Y-130285789D01*
X164972262Y-130189816D01*
X165099816Y-130062262D01*
X165195789Y-129909522D01*
X165255368Y-129739255D01*
X165264542Y-129657834D01*
X165275565Y-129560003D01*
X165275565Y-129559996D01*
X165255369Y-129380750D01*
X165255368Y-129380745D01*
X165195788Y-129210476D01*
X165099815Y-129057737D01*
X164972262Y-128930184D01*
X164819523Y-128834211D01*
X164649254Y-128774631D01*
X164649249Y-128774630D01*
X164470004Y-128754435D01*
X164469996Y-128754435D01*
X164290750Y-128774630D01*
X164290745Y-128774631D01*
X164120476Y-128834211D01*
X163967737Y-128930184D01*
X163840184Y-129057737D01*
X163744211Y-129210476D01*
X163684631Y-129380745D01*
X163684630Y-129380750D01*
X163664435Y-129559996D01*
X154679656Y-129559996D01*
X154733903Y-129443663D01*
X154795063Y-129215408D01*
X154815659Y-128980000D01*
X154795063Y-128744592D01*
X154752728Y-128586593D01*
X154754391Y-128516743D01*
X154793554Y-128458881D01*
X154857782Y-128431377D01*
X154872503Y-128430500D01*
X155523331Y-128430500D01*
X155523347Y-128430501D01*
X155530943Y-128430501D01*
X155689054Y-128430501D01*
X155689057Y-128430501D01*
X155841785Y-128389577D01*
X155914584Y-128347546D01*
X155978716Y-128310520D01*
X156090520Y-128198716D01*
X156090520Y-128198714D01*
X156100724Y-128188511D01*
X156100727Y-128188506D01*
X158309238Y-125979996D01*
X159984435Y-125979996D01*
X159984435Y-125980003D01*
X160004630Y-126159249D01*
X160004631Y-126159254D01*
X160064211Y-126329523D01*
X160158291Y-126479250D01*
X160160184Y-126482262D01*
X160287738Y-126609816D01*
X160324301Y-126632790D01*
X160411342Y-126687482D01*
X160440478Y-126705789D01*
X160582624Y-126755528D01*
X160610745Y-126765368D01*
X160610750Y-126765369D01*
X160789996Y-126785565D01*
X160790000Y-126785565D01*
X160790004Y-126785565D01*
X160969249Y-126765369D01*
X160969252Y-126765368D01*
X160969255Y-126765368D01*
X161139522Y-126705789D01*
X161292262Y-126609816D01*
X161419816Y-126482262D01*
X161515789Y-126329522D01*
X161515789Y-126329519D01*
X161515792Y-126329516D01*
X161518812Y-126323247D01*
X161521010Y-126324305D01*
X161555093Y-126276777D01*
X161620044Y-126251023D01*
X161631423Y-126250500D01*
X162978044Y-126250500D01*
X163045083Y-126270185D01*
X163090838Y-126322989D01*
X163101264Y-126360616D01*
X163114630Y-126479250D01*
X163114631Y-126479254D01*
X163174211Y-126649523D01*
X163248967Y-126768495D01*
X163270184Y-126802262D01*
X163397738Y-126929816D01*
X163474566Y-126978090D01*
X163547307Y-127023797D01*
X163550478Y-127025789D01*
X163660922Y-127064435D01*
X163720745Y-127085368D01*
X163720750Y-127085369D01*
X163899996Y-127105565D01*
X163900000Y-127105565D01*
X163900004Y-127105565D01*
X164079249Y-127085369D01*
X164079252Y-127085368D01*
X164079255Y-127085368D01*
X164249522Y-127025789D01*
X164306489Y-126989994D01*
X169505142Y-126989994D01*
X169505142Y-126990005D01*
X169525675Y-127237812D01*
X169525677Y-127237824D01*
X169586721Y-127478881D01*
X169686611Y-127706606D01*
X169822618Y-127914782D01*
X169822621Y-127914785D01*
X169991041Y-128097738D01*
X170187276Y-128250474D01*
X170405975Y-128368828D01*
X170641171Y-128449571D01*
X170886450Y-128490500D01*
X171135120Y-128490500D01*
X171380399Y-128449571D01*
X171615595Y-128368828D01*
X171834294Y-128250474D01*
X172030529Y-128097738D01*
X172198949Y-127914785D01*
X172334958Y-127706607D01*
X172434848Y-127478881D01*
X172495893Y-127237821D01*
X172495894Y-127237812D01*
X172516428Y-126990005D01*
X172516428Y-126989994D01*
X172495894Y-126742187D01*
X172495892Y-126742175D01*
X172434848Y-126501118D01*
X172334958Y-126273393D01*
X172198951Y-126065217D01*
X172177342Y-126041744D01*
X172085646Y-125942135D01*
X174510285Y-125942135D01*
X174510285Y-128037870D01*
X174510286Y-128037876D01*
X174516693Y-128097483D01*
X174566987Y-128232328D01*
X174566991Y-128232335D01*
X174653237Y-128347544D01*
X174653239Y-128347546D01*
X174768449Y-128433793D01*
X174768456Y-128433797D01*
X174903302Y-128484091D01*
X174903301Y-128484091D01*
X174910229Y-128484835D01*
X174962912Y-128490500D01*
X177058657Y-128490499D01*
X177118268Y-128484091D01*
X177253116Y-128433796D01*
X177368331Y-128347546D01*
X177454581Y-128232331D01*
X177504876Y-128097483D01*
X177511285Y-128037873D01*
X177511285Y-127869996D01*
X184834435Y-127869996D01*
X184834435Y-127870003D01*
X184854630Y-128049249D01*
X184854631Y-128049254D01*
X184914211Y-128219523D01*
X184971389Y-128310520D01*
X185010184Y-128372262D01*
X185137738Y-128499816D01*
X185228080Y-128556582D01*
X185275842Y-128586593D01*
X185290478Y-128595789D01*
X185460745Y-128655368D01*
X185460750Y-128655369D01*
X185639996Y-128675565D01*
X185640000Y-128675565D01*
X185640004Y-128675565D01*
X185819249Y-128655369D01*
X185819252Y-128655368D01*
X185819255Y-128655368D01*
X185989522Y-128595789D01*
X186142262Y-128499816D01*
X186269816Y-128372262D01*
X186365789Y-128219522D01*
X186425368Y-128049255D01*
X186425369Y-128049249D01*
X186445565Y-127870003D01*
X186445565Y-127869996D01*
X186425369Y-127690750D01*
X186425368Y-127690745D01*
X186365788Y-127520476D01*
X186269815Y-127367737D01*
X186142262Y-127240184D01*
X185989523Y-127144211D01*
X185819254Y-127084631D01*
X185819249Y-127084630D01*
X185640004Y-127064435D01*
X185639996Y-127064435D01*
X185460750Y-127084630D01*
X185460745Y-127084631D01*
X185290476Y-127144211D01*
X185137737Y-127240184D01*
X185010184Y-127367737D01*
X184914211Y-127520476D01*
X184854631Y-127690745D01*
X184854630Y-127690750D01*
X184834435Y-127869996D01*
X177511285Y-127869996D01*
X177511284Y-125942128D01*
X177504876Y-125882517D01*
X177497564Y-125862913D01*
X177454582Y-125747671D01*
X177454578Y-125747664D01*
X177368332Y-125632455D01*
X177368329Y-125632452D01*
X177253120Y-125546206D01*
X177253113Y-125546202D01*
X177118267Y-125495908D01*
X177118268Y-125495908D01*
X177058668Y-125489501D01*
X177058666Y-125489500D01*
X177058658Y-125489500D01*
X177058649Y-125489500D01*
X174962914Y-125489500D01*
X174962908Y-125489501D01*
X174903301Y-125495908D01*
X174768456Y-125546202D01*
X174768449Y-125546206D01*
X174653240Y-125632452D01*
X174653237Y-125632455D01*
X174566991Y-125747664D01*
X174566987Y-125747671D01*
X174516693Y-125882517D01*
X174510286Y-125942116D01*
X174510286Y-125942123D01*
X174510285Y-125942135D01*
X172085646Y-125942135D01*
X172030529Y-125882262D01*
X171834294Y-125729526D01*
X171834292Y-125729525D01*
X171834291Y-125729524D01*
X171615596Y-125611172D01*
X171615587Y-125611169D01*
X171380401Y-125530429D01*
X171135120Y-125489500D01*
X170886450Y-125489500D01*
X170641168Y-125530429D01*
X170405982Y-125611169D01*
X170405973Y-125611172D01*
X170187278Y-125729524D01*
X169991042Y-125882261D01*
X169822618Y-126065217D01*
X169686611Y-126273393D01*
X169586721Y-126501118D01*
X169525677Y-126742175D01*
X169525675Y-126742187D01*
X169505142Y-126989994D01*
X164306489Y-126989994D01*
X164402262Y-126929816D01*
X164529816Y-126802262D01*
X164625789Y-126649522D01*
X164685368Y-126479255D01*
X164685369Y-126479250D01*
X164698736Y-126360616D01*
X164725803Y-126296202D01*
X164783397Y-126256647D01*
X164821956Y-126250500D01*
X167304991Y-126250500D01*
X167372030Y-126270185D01*
X167382306Y-126277555D01*
X167385139Y-126279814D01*
X167385141Y-126279816D01*
X167537881Y-126375789D01*
X167652346Y-126415842D01*
X167708148Y-126435368D01*
X167708153Y-126435369D01*
X167887399Y-126455565D01*
X167887403Y-126455565D01*
X167887407Y-126455565D01*
X168066652Y-126435369D01*
X168066655Y-126435368D01*
X168066658Y-126435368D01*
X168236925Y-126375789D01*
X168389665Y-126279816D01*
X168517219Y-126152262D01*
X168613192Y-125999522D01*
X168672771Y-125829255D01*
X168675983Y-125800750D01*
X168692968Y-125650003D01*
X168692968Y-125649996D01*
X168672772Y-125470750D01*
X168672771Y-125470745D01*
X168658449Y-125429815D01*
X168613192Y-125300478D01*
X168584120Y-125254211D01*
X168530026Y-125168120D01*
X168517219Y-125147738D01*
X168389665Y-125020184D01*
X168324527Y-124979255D01*
X168236926Y-124924211D01*
X168066657Y-124864631D01*
X168066652Y-124864630D01*
X167887407Y-124844435D01*
X167887399Y-124844435D01*
X167708153Y-124864630D01*
X167708148Y-124864631D01*
X167537879Y-124924211D01*
X167385139Y-125020185D01*
X167382306Y-125022445D01*
X167380127Y-125023334D01*
X167379245Y-125023889D01*
X167379147Y-125023734D01*
X167317620Y-125048855D01*
X167304991Y-125049500D01*
X161040941Y-125049500D01*
X161005274Y-125059056D01*
X161005275Y-125059057D01*
X160888215Y-125090423D01*
X160753639Y-125168120D01*
X160705524Y-125183952D01*
X160610750Y-125194630D01*
X160440478Y-125254210D01*
X160287737Y-125350184D01*
X160160184Y-125477737D01*
X160064211Y-125630476D01*
X160004631Y-125800745D01*
X160004630Y-125800750D01*
X159984435Y-125979996D01*
X158309238Y-125979996D01*
X160509819Y-123779416D01*
X160571142Y-123745931D01*
X160597500Y-123743097D01*
X166371081Y-123743097D01*
X166438120Y-123762782D01*
X166483875Y-123815586D01*
X166494301Y-123853214D01*
X166502033Y-123921846D01*
X166561613Y-124092118D01*
X166638539Y-124214545D01*
X166657587Y-124244859D01*
X166785141Y-124372413D01*
X166860656Y-124419862D01*
X166918324Y-124456098D01*
X166937881Y-124468386D01*
X167092401Y-124522455D01*
X167108148Y-124527965D01*
X167108153Y-124527966D01*
X167287399Y-124548162D01*
X167287403Y-124548162D01*
X167287407Y-124548162D01*
X167466652Y-124527966D01*
X167466655Y-124527965D01*
X167466658Y-124527965D01*
X167636925Y-124468386D01*
X167789665Y-124372413D01*
X167789670Y-124372407D01*
X167792500Y-124370152D01*
X167794678Y-124369262D01*
X167795561Y-124368708D01*
X167795658Y-124368862D01*
X167857186Y-124343742D01*
X167869815Y-124343097D01*
X168689263Y-124343097D01*
X168689279Y-124343098D01*
X168696875Y-124343098D01*
X168854986Y-124343098D01*
X168854989Y-124343098D01*
X169007717Y-124302174D01*
X169079522Y-124260717D01*
X169144648Y-124223117D01*
X169256452Y-124111313D01*
X169256452Y-124111311D01*
X169266656Y-124101108D01*
X169266660Y-124101103D01*
X170557766Y-122809996D01*
X178784435Y-122809996D01*
X178784435Y-122810003D01*
X178804630Y-122989249D01*
X178804631Y-122989254D01*
X178851226Y-123122412D01*
X178864211Y-123159522D01*
X178948648Y-123293903D01*
X178963673Y-123317814D01*
X178982673Y-123385050D01*
X178975721Y-123424741D01*
X178924631Y-123570745D01*
X178924630Y-123570750D01*
X178904435Y-123749996D01*
X178904435Y-123750003D01*
X178924630Y-123929249D01*
X178924631Y-123929254D01*
X178984211Y-124099523D01*
X179015460Y-124149255D01*
X179080184Y-124252262D01*
X179207738Y-124379816D01*
X179271473Y-124419863D01*
X179317763Y-124472196D01*
X179329500Y-124524856D01*
X179329500Y-125397587D01*
X179309815Y-125464626D01*
X179302450Y-125474896D01*
X179300186Y-125477734D01*
X179204211Y-125630476D01*
X179144631Y-125800745D01*
X179144630Y-125800750D01*
X179124435Y-125979996D01*
X179124435Y-125980003D01*
X179144630Y-126159249D01*
X179144631Y-126159254D01*
X179204211Y-126329523D01*
X179298291Y-126479250D01*
X179300184Y-126482262D01*
X179427738Y-126609816D01*
X179464301Y-126632790D01*
X179551342Y-126687482D01*
X179580478Y-126705789D01*
X179722624Y-126755528D01*
X179750745Y-126765368D01*
X179750750Y-126765369D01*
X179929996Y-126785565D01*
X179930000Y-126785565D01*
X179930004Y-126785565D01*
X180109249Y-126765369D01*
X180109251Y-126765368D01*
X180109255Y-126765368D01*
X180109258Y-126765366D01*
X180109262Y-126765366D01*
X180242698Y-126718675D01*
X180312477Y-126715113D01*
X180373104Y-126749841D01*
X180405332Y-126811835D01*
X180406873Y-126849599D01*
X180394435Y-126959995D01*
X180394435Y-126960003D01*
X180414630Y-127139249D01*
X180414631Y-127139254D01*
X180474211Y-127309523D01*
X180564890Y-127453836D01*
X180570184Y-127462262D01*
X180697738Y-127589816D01*
X180850478Y-127685789D01*
X181020745Y-127745368D01*
X181020750Y-127745369D01*
X181199996Y-127765565D01*
X181200000Y-127765565D01*
X181200004Y-127765565D01*
X181379249Y-127745369D01*
X181379252Y-127745368D01*
X181379255Y-127745368D01*
X181549522Y-127685789D01*
X181702262Y-127589816D01*
X181829816Y-127462262D01*
X181925789Y-127309522D01*
X181985368Y-127139255D01*
X181989164Y-127105565D01*
X182005565Y-126960003D01*
X182005565Y-126959996D01*
X181985369Y-126780750D01*
X181985368Y-126780745D01*
X181952734Y-126687482D01*
X181925789Y-126610478D01*
X181925372Y-126609815D01*
X181829815Y-126457737D01*
X181702262Y-126330184D01*
X181549523Y-126234211D01*
X181379254Y-126174631D01*
X181379249Y-126174630D01*
X181200004Y-126154435D01*
X181199996Y-126154435D01*
X181020750Y-126174630D01*
X181020742Y-126174632D01*
X180887300Y-126221325D01*
X180817521Y-126224886D01*
X180756894Y-126190157D01*
X180724667Y-126128163D01*
X180723126Y-126090399D01*
X180735565Y-125980002D01*
X180735565Y-125979996D01*
X180715369Y-125800750D01*
X180715368Y-125800745D01*
X180690447Y-125729524D01*
X180655789Y-125630478D01*
X180643656Y-125611169D01*
X180590008Y-125525788D01*
X180559816Y-125477738D01*
X180559814Y-125477736D01*
X180559813Y-125477734D01*
X180557550Y-125474896D01*
X180556659Y-125472715D01*
X180556111Y-125471842D01*
X180556264Y-125471745D01*
X180531144Y-125410209D01*
X180530500Y-125397587D01*
X180530500Y-124059059D01*
X180530501Y-124059046D01*
X180530501Y-123947500D01*
X182827159Y-123947500D01*
X182846475Y-124143629D01*
X182865546Y-124206497D01*
X182894569Y-124302174D01*
X182903688Y-124332233D01*
X182996586Y-124506032D01*
X182996590Y-124506039D01*
X183121616Y-124658383D01*
X183273960Y-124783409D01*
X183273967Y-124783413D01*
X183447766Y-124876311D01*
X183447769Y-124876311D01*
X183447773Y-124876314D01*
X183636368Y-124933524D01*
X183832500Y-124952841D01*
X184028632Y-124933524D01*
X184217227Y-124876314D01*
X184239083Y-124864632D01*
X184313199Y-124825016D01*
X184391038Y-124783410D01*
X184543383Y-124658383D01*
X184668410Y-124506038D01*
X184673140Y-124497187D01*
X184722102Y-124447343D01*
X184790239Y-124431881D01*
X184855919Y-124455711D01*
X184891858Y-124497186D01*
X184893085Y-124499481D01*
X184896591Y-124506039D01*
X185021616Y-124658383D01*
X185173960Y-124783409D01*
X185173967Y-124783413D01*
X185347766Y-124876311D01*
X185347769Y-124876311D01*
X185347773Y-124876314D01*
X185536368Y-124933524D01*
X185732500Y-124952841D01*
X185928632Y-124933524D01*
X186117227Y-124876314D01*
X186139083Y-124864632D01*
X186213199Y-124825016D01*
X186260008Y-124799996D01*
X189294435Y-124799996D01*
X189294435Y-124800003D01*
X189314630Y-124979249D01*
X189314631Y-124979254D01*
X189374211Y-125149523D01*
X189447611Y-125266337D01*
X189470184Y-125302262D01*
X189597738Y-125429816D01*
X189750478Y-125525789D01*
X189906833Y-125580500D01*
X189920745Y-125585368D01*
X189920750Y-125585369D01*
X190099996Y-125605565D01*
X190100000Y-125605565D01*
X190100004Y-125605565D01*
X190279249Y-125585369D01*
X190279252Y-125585368D01*
X190279255Y-125585368D01*
X190449522Y-125525789D01*
X190602262Y-125429816D01*
X190729816Y-125302262D01*
X190825789Y-125149522D01*
X190885368Y-124979255D01*
X190888344Y-124952841D01*
X190905565Y-124800003D01*
X190905565Y-124799996D01*
X190885369Y-124620750D01*
X190885368Y-124620745D01*
X190850974Y-124522452D01*
X190825789Y-124450478D01*
X190729816Y-124297738D01*
X190602262Y-124170184D01*
X190560000Y-124143629D01*
X190449523Y-124074211D01*
X190279254Y-124014631D01*
X190279249Y-124014630D01*
X190100004Y-123994435D01*
X190099996Y-123994435D01*
X189920750Y-124014630D01*
X189920745Y-124014631D01*
X189750476Y-124074211D01*
X189597737Y-124170184D01*
X189470184Y-124297737D01*
X189374211Y-124450476D01*
X189314631Y-124620745D01*
X189314630Y-124620750D01*
X189294435Y-124799996D01*
X186260008Y-124799996D01*
X186291038Y-124783410D01*
X186443383Y-124658383D01*
X186568410Y-124506038D01*
X186635878Y-124379815D01*
X186661311Y-124332233D01*
X186661311Y-124332232D01*
X186661314Y-124332227D01*
X186718524Y-124143632D01*
X186737841Y-123947500D01*
X186718524Y-123751368D01*
X186661314Y-123562773D01*
X186661311Y-123562769D01*
X186661311Y-123562766D01*
X186568413Y-123388967D01*
X186568409Y-123388960D01*
X186443383Y-123236616D01*
X186291039Y-123111590D01*
X186291032Y-123111586D01*
X186117233Y-123018688D01*
X186117227Y-123018686D01*
X185928632Y-122961476D01*
X185928629Y-122961475D01*
X185732500Y-122942159D01*
X185536370Y-122961475D01*
X185347766Y-123018688D01*
X185173967Y-123111586D01*
X185173960Y-123111590D01*
X185021616Y-123236616D01*
X184896590Y-123388960D01*
X184896588Y-123388964D01*
X184891858Y-123397814D01*
X184842895Y-123447658D01*
X184774757Y-123463118D01*
X184709078Y-123439286D01*
X184673142Y-123397814D01*
X184668411Y-123388964D01*
X184668409Y-123388960D01*
X184543383Y-123236616D01*
X184391039Y-123111590D01*
X184391032Y-123111586D01*
X184217233Y-123018688D01*
X184217227Y-123018686D01*
X184028632Y-122961476D01*
X184028629Y-122961475D01*
X183937244Y-122952475D01*
X183872457Y-122926314D01*
X183832098Y-122869280D01*
X183828981Y-122799480D01*
X183864096Y-122739075D01*
X183926293Y-122707244D01*
X183935516Y-122705852D01*
X183968514Y-122702134D01*
X183968517Y-122702133D01*
X183968520Y-122702133D01*
X184138787Y-122642554D01*
X184291527Y-122546581D01*
X184419081Y-122419027D01*
X184515054Y-122266287D01*
X184574633Y-122096020D01*
X184579229Y-122055230D01*
X184594830Y-121916768D01*
X184594830Y-121916761D01*
X184574634Y-121737515D01*
X184574633Y-121737510D01*
X184561140Y-121698950D01*
X184515054Y-121567243D01*
X184508201Y-121556337D01*
X184419080Y-121414502D01*
X184291527Y-121286949D01*
X184138788Y-121190976D01*
X183968519Y-121131396D01*
X183968514Y-121131395D01*
X183789269Y-121111200D01*
X183789261Y-121111200D01*
X183610015Y-121131395D01*
X183610010Y-121131396D01*
X183439741Y-121190976D01*
X183287002Y-121286949D01*
X183159449Y-121414502D01*
X183063476Y-121567241D01*
X183003896Y-121737510D01*
X183003895Y-121737515D01*
X182983700Y-121916761D01*
X182983700Y-121916768D01*
X183003895Y-122096014D01*
X183003896Y-122096019D01*
X183063476Y-122266288D01*
X183140613Y-122389050D01*
X183159449Y-122419027D01*
X183287003Y-122546581D01*
X183299794Y-122554618D01*
X183431772Y-122637546D01*
X183439743Y-122642554D01*
X183597713Y-122697830D01*
X183610010Y-122702133D01*
X183610014Y-122702134D01*
X183683345Y-122710396D01*
X183747759Y-122737462D01*
X183787314Y-122795057D01*
X183789452Y-122864894D01*
X183753495Y-122924800D01*
X183690857Y-122955756D01*
X183681617Y-122957019D01*
X183636370Y-122961475D01*
X183447766Y-123018688D01*
X183273967Y-123111586D01*
X183273960Y-123111590D01*
X183121616Y-123236616D01*
X182996590Y-123388960D01*
X182996586Y-123388967D01*
X182903688Y-123562766D01*
X182846475Y-123751370D01*
X182827159Y-123947500D01*
X180530501Y-123947500D01*
X180530501Y-123890944D01*
X180530501Y-123890943D01*
X180514878Y-123832643D01*
X180511433Y-123786665D01*
X180515565Y-123750000D01*
X180515107Y-123745931D01*
X180495369Y-123570750D01*
X180495368Y-123570745D01*
X180459324Y-123467737D01*
X180435789Y-123400478D01*
X180339816Y-123247738D01*
X180339815Y-123247737D01*
X180336326Y-123242184D01*
X180317326Y-123174948D01*
X180324277Y-123135261D01*
X180375368Y-122989255D01*
X180379000Y-122957019D01*
X180395565Y-122810003D01*
X180395565Y-122809996D01*
X180375369Y-122630750D01*
X180375368Y-122630745D01*
X180342198Y-122535950D01*
X180315789Y-122460478D01*
X180219816Y-122307738D01*
X180092262Y-122180184D01*
X180072991Y-122168075D01*
X179939523Y-122084211D01*
X179769254Y-122024631D01*
X179769249Y-122024630D01*
X179590004Y-122004435D01*
X179589996Y-122004435D01*
X179410750Y-122024630D01*
X179410745Y-122024631D01*
X179240476Y-122084211D01*
X179087737Y-122180184D01*
X178960184Y-122307737D01*
X178864211Y-122460476D01*
X178804631Y-122630745D01*
X178804630Y-122630750D01*
X178784435Y-122809996D01*
X170557766Y-122809996D01*
X170968504Y-122399258D01*
X170968514Y-122399251D01*
X171063869Y-122303895D01*
X171085582Y-122286580D01*
X171112259Y-122269818D01*
X171112259Y-122269817D01*
X171112262Y-122269816D01*
X171239816Y-122142262D01*
X171335789Y-121989522D01*
X171395368Y-121819255D01*
X171399274Y-121784592D01*
X171415565Y-121640003D01*
X171415565Y-121639996D01*
X171395369Y-121460750D01*
X171395368Y-121460745D01*
X171359928Y-121359463D01*
X171335789Y-121290478D01*
X171331671Y-121283925D01*
X171269868Y-121185565D01*
X171239816Y-121137738D01*
X171112262Y-121010184D01*
X170985844Y-120930750D01*
X170959523Y-120914211D01*
X170789254Y-120854631D01*
X170789249Y-120854630D01*
X170610004Y-120834435D01*
X170609996Y-120834435D01*
X170430750Y-120854630D01*
X170430745Y-120854631D01*
X170260476Y-120914211D01*
X170107736Y-121010184D01*
X170078316Y-121039605D01*
X170016992Y-121073089D01*
X169976753Y-121075142D01*
X169808279Y-121056160D01*
X169808271Y-121056160D01*
X169629025Y-121076355D01*
X169629020Y-121076356D01*
X169458751Y-121135936D01*
X169306012Y-121231909D01*
X169178459Y-121359462D01*
X169082486Y-121512201D01*
X169022905Y-121682474D01*
X169022193Y-121685595D01*
X169021179Y-121687406D01*
X169020607Y-121689043D01*
X169020320Y-121688942D01*
X168988081Y-121746572D01*
X168926417Y-121779426D01*
X168856780Y-121773727D01*
X168801279Y-121731285D01*
X168784261Y-121698950D01*
X168740987Y-121575280D01*
X168645013Y-121422539D01*
X168517460Y-121294986D01*
X168364721Y-121199013D01*
X168194452Y-121139433D01*
X168194447Y-121139432D01*
X168015202Y-121119237D01*
X168015194Y-121119237D01*
X167835948Y-121139432D01*
X167835935Y-121139435D01*
X167665679Y-121199011D01*
X167665674Y-121199013D01*
X167655642Y-121205317D01*
X167588405Y-121224315D01*
X167521570Y-121203945D01*
X167484679Y-121166293D01*
X167410254Y-121047847D01*
X167390749Y-121016805D01*
X167263195Y-120889251D01*
X167252072Y-120882262D01*
X167223813Y-120864505D01*
X167177522Y-120812170D01*
X167166875Y-120743117D01*
X167195250Y-120679268D01*
X167202093Y-120671843D01*
X169040621Y-118833316D01*
X169040626Y-118833312D01*
X169050829Y-118823108D01*
X169050831Y-118823108D01*
X169162635Y-118711304D01*
X169241692Y-118574372D01*
X169277563Y-118440501D01*
X169282615Y-118421646D01*
X169282615Y-118263531D01*
X169282615Y-114354600D01*
X169282616Y-114354587D01*
X169282616Y-114186484D01*
X169270161Y-114140003D01*
X169241692Y-114033756D01*
X169230345Y-114014102D01*
X169162639Y-113896830D01*
X169162633Y-113896822D01*
X168713069Y-113447259D01*
X168284165Y-113018355D01*
X168284163Y-113018352D01*
X168159544Y-112893733D01*
X168160618Y-112892658D01*
X168124792Y-112843590D01*
X168120639Y-112773844D01*
X168153801Y-112713964D01*
X169470748Y-111397017D01*
X170910520Y-109957246D01*
X170989577Y-109820314D01*
X171030501Y-109667587D01*
X171030501Y-109509472D01*
X171030501Y-109501877D01*
X171030500Y-109501859D01*
X171030500Y-104950945D01*
X171030498Y-104950937D01*
X171029922Y-104948786D01*
X171029914Y-104948758D01*
X171004822Y-104855112D01*
X171004821Y-104855108D01*
X170989577Y-104798216D01*
X170964338Y-104754500D01*
X170910524Y-104661290D01*
X170910521Y-104661286D01*
X170910520Y-104661284D01*
X170798716Y-104549480D01*
X170798715Y-104549479D01*
X170794385Y-104545149D01*
X170794374Y-104545139D01*
X170231386Y-103982151D01*
X170197901Y-103920828D01*
X170202885Y-103851136D01*
X170244757Y-103795203D01*
X170310221Y-103770786D01*
X170332949Y-103771249D01*
X170371782Y-103775625D01*
X170459997Y-103785565D01*
X170460000Y-103785565D01*
X170460004Y-103785565D01*
X170639249Y-103765369D01*
X170639252Y-103765368D01*
X170639255Y-103765368D01*
X170809522Y-103705789D01*
X170962262Y-103609816D01*
X171089816Y-103482262D01*
X171185789Y-103329522D01*
X171245368Y-103159255D01*
X171246983Y-103144920D01*
X171265565Y-102980003D01*
X171265565Y-102979996D01*
X171245369Y-102800750D01*
X171245368Y-102800745D01*
X171219321Y-102726308D01*
X171185789Y-102630478D01*
X171179504Y-102620476D01*
X171089815Y-102477737D01*
X170962262Y-102350184D01*
X170805590Y-102251740D01*
X170759299Y-102199405D01*
X170748342Y-102132862D01*
X170765565Y-101980002D01*
X170765565Y-101979996D01*
X170745369Y-101800750D01*
X170745368Y-101800745D01*
X170722911Y-101736568D01*
X170685789Y-101630478D01*
X170673730Y-101611287D01*
X170595611Y-101486961D01*
X170589816Y-101477738D01*
X170462262Y-101350184D01*
X170446085Y-101340019D01*
X170309523Y-101254211D01*
X170139254Y-101194631D01*
X170139249Y-101194630D01*
X169960004Y-101174435D01*
X169959996Y-101174435D01*
X169780750Y-101194630D01*
X169780745Y-101194631D01*
X169610476Y-101254211D01*
X169457736Y-101350185D01*
X169454903Y-101352445D01*
X169452724Y-101353334D01*
X169451842Y-101353889D01*
X169451744Y-101353734D01*
X169390217Y-101378855D01*
X169377588Y-101379500D01*
X168120081Y-101379500D01*
X168120065Y-101379499D01*
X168112469Y-101379499D01*
X167954355Y-101379499D01*
X167846999Y-101408265D01*
X167801622Y-101420424D01*
X167801621Y-101420425D01*
X167757693Y-101445788D01*
X167757691Y-101445789D01*
X167664702Y-101499475D01*
X167664694Y-101499481D01*
X167578667Y-101585509D01*
X167552892Y-101611284D01*
X167552890Y-101611286D01*
X167492155Y-101672020D01*
X167461092Y-101703084D01*
X167399768Y-101736568D01*
X167330077Y-101731584D01*
X167285730Y-101703083D01*
X166122643Y-100539996D01*
X171374435Y-100539996D01*
X171374435Y-100540003D01*
X171394630Y-100719249D01*
X171394631Y-100719254D01*
X171454211Y-100889523D01*
X171524595Y-101001538D01*
X171550184Y-101042262D01*
X171677738Y-101169816D01*
X171830478Y-101265789D01*
X172000745Y-101325368D01*
X172087669Y-101335161D01*
X172152080Y-101362226D01*
X172161464Y-101370699D01*
X172591284Y-101800520D01*
X172591286Y-101800521D01*
X172591290Y-101800524D01*
X172675000Y-101848853D01*
X172728216Y-101879577D01*
X172880943Y-101920501D01*
X172880945Y-101920501D01*
X173046654Y-101920501D01*
X173046670Y-101920500D01*
X177461373Y-101920500D01*
X177528412Y-101940185D01*
X177553440Y-101963209D01*
X177553733Y-101962917D01*
X177678349Y-102087533D01*
X177678355Y-102087538D01*
X179985191Y-104394374D01*
X179985201Y-104394385D01*
X179989531Y-104398715D01*
X179989532Y-104398716D01*
X180101336Y-104510520D01*
X180101338Y-104510521D01*
X180101342Y-104510524D01*
X180238261Y-104589573D01*
X180238268Y-104589577D01*
X180340612Y-104617000D01*
X180340611Y-104617000D01*
X180351258Y-104619852D01*
X180390994Y-104630500D01*
X180390995Y-104630500D01*
X180418000Y-104630500D01*
X180485039Y-104650185D01*
X180530794Y-104702989D01*
X180542000Y-104754500D01*
X180542000Y-106355830D01*
X180541999Y-106355848D01*
X180541999Y-106521554D01*
X180541998Y-106521554D01*
X180541999Y-106521557D01*
X180568736Y-106621341D01*
X180582924Y-106674287D01*
X180601111Y-106705787D01*
X180601112Y-106705789D01*
X180661977Y-106811212D01*
X180661981Y-106811217D01*
X180780849Y-106930085D01*
X180780855Y-106930090D01*
X181999298Y-108148533D01*
X182032783Y-108209856D01*
X182034837Y-108222330D01*
X182044630Y-108309249D01*
X182104210Y-108479521D01*
X182200184Y-108632262D01*
X182256662Y-108688740D01*
X182290147Y-108750063D01*
X182285163Y-108819755D01*
X182256662Y-108864102D01*
X172389481Y-118731282D01*
X172389479Y-118731284D01*
X172370764Y-118763700D01*
X172362854Y-118777402D01*
X172310423Y-118868215D01*
X172269499Y-119020943D01*
X172269499Y-119020945D01*
X172269499Y-119189046D01*
X172269500Y-119189059D01*
X172269500Y-119547587D01*
X172249815Y-119614626D01*
X172242450Y-119624896D01*
X172240186Y-119627734D01*
X172144211Y-119780476D01*
X172084631Y-119950745D01*
X172084630Y-119950750D01*
X172064435Y-120129996D01*
X172064435Y-120130003D01*
X172084630Y-120309249D01*
X172084631Y-120309254D01*
X172144211Y-120479523D01*
X172240184Y-120632262D01*
X172367738Y-120759816D01*
X172424387Y-120795411D01*
X172518636Y-120854632D01*
X172520478Y-120855789D01*
X172690745Y-120915368D01*
X172690750Y-120915369D01*
X172869996Y-120935565D01*
X172870000Y-120935565D01*
X172870004Y-120935565D01*
X173049249Y-120915369D01*
X173049252Y-120915368D01*
X173049255Y-120915368D01*
X173219522Y-120855789D01*
X173219525Y-120855786D01*
X173224062Y-120853602D01*
X173293002Y-120842242D01*
X173357140Y-120869957D01*
X173365557Y-120877635D01*
X173370184Y-120882262D01*
X173497738Y-121009816D01*
X173545147Y-121039605D01*
X173625927Y-121090363D01*
X173650478Y-121105789D01*
X173746627Y-121139433D01*
X173820745Y-121165368D01*
X173820750Y-121165369D01*
X173999996Y-121185565D01*
X174000000Y-121185565D01*
X174000004Y-121185565D01*
X174179249Y-121165369D01*
X174179252Y-121165368D01*
X174179255Y-121165368D01*
X174179256Y-121165367D01*
X174179259Y-121165367D01*
X174253370Y-121139434D01*
X174316211Y-121117444D01*
X174385988Y-121113882D01*
X174423137Y-121129492D01*
X174512376Y-121185565D01*
X174560478Y-121215789D01*
X174730745Y-121275368D01*
X174806706Y-121283926D01*
X174871117Y-121310991D01*
X174897814Y-121341173D01*
X174980182Y-121472260D01*
X174980184Y-121472262D01*
X175107738Y-121599816D01*
X175171695Y-121640003D01*
X175249741Y-121689043D01*
X175260478Y-121695789D01*
X175430745Y-121755368D01*
X175430750Y-121755369D01*
X175609996Y-121775565D01*
X175610000Y-121775565D01*
X175610004Y-121775565D01*
X175789249Y-121755369D01*
X175789252Y-121755368D01*
X175789255Y-121755368D01*
X175959522Y-121695789D01*
X176112262Y-121599816D01*
X176239816Y-121472262D01*
X176335789Y-121319522D01*
X176395368Y-121149255D01*
X176405161Y-121062329D01*
X176432226Y-120997918D01*
X176440690Y-120988543D01*
X177049237Y-120379996D01*
X188534435Y-120379996D01*
X188534435Y-120380003D01*
X188554630Y-120559249D01*
X188554631Y-120559254D01*
X188614211Y-120729523D01*
X188699137Y-120864681D01*
X188710184Y-120882262D01*
X188837738Y-121009816D01*
X188885147Y-121039605D01*
X188965927Y-121090363D01*
X188990478Y-121105789D01*
X189086627Y-121139433D01*
X189160745Y-121165368D01*
X189160750Y-121165369D01*
X189339996Y-121185565D01*
X189340000Y-121185565D01*
X189340004Y-121185565D01*
X189519249Y-121165369D01*
X189519252Y-121165368D01*
X189519255Y-121165368D01*
X189689522Y-121105789D01*
X189842262Y-121009816D01*
X189969816Y-120882262D01*
X190065789Y-120729522D01*
X190125368Y-120559255D01*
X190134674Y-120476662D01*
X190145565Y-120380003D01*
X190145565Y-120379996D01*
X190125369Y-120200750D01*
X190125368Y-120200745D01*
X190107612Y-120150001D01*
X190065789Y-120030478D01*
X190055047Y-120013383D01*
X190017611Y-119953803D01*
X189969816Y-119877738D01*
X189842262Y-119750184D01*
X189810580Y-119730277D01*
X189689523Y-119654211D01*
X189519254Y-119594631D01*
X189519249Y-119594630D01*
X189340004Y-119574435D01*
X189339996Y-119574435D01*
X189160750Y-119594630D01*
X189160745Y-119594631D01*
X188990476Y-119654211D01*
X188837737Y-119750184D01*
X188710184Y-119877737D01*
X188614211Y-120030476D01*
X188554631Y-120200745D01*
X188554630Y-120200750D01*
X188534435Y-120379996D01*
X177049237Y-120379996D01*
X188590520Y-108838716D01*
X188669577Y-108701784D01*
X188710501Y-108549057D01*
X188710501Y-108390942D01*
X188710501Y-108383347D01*
X188710500Y-108383329D01*
X188710500Y-103120945D01*
X188710499Y-103120941D01*
X188707706Y-103110518D01*
X188688925Y-103040423D01*
X188687049Y-103033425D01*
X188683600Y-102987432D01*
X188685565Y-102970000D01*
X188672694Y-102855767D01*
X188665369Y-102790750D01*
X188665368Y-102790745D01*
X188645632Y-102734344D01*
X188605789Y-102620478D01*
X188603776Y-102617275D01*
X188562961Y-102552318D01*
X188509816Y-102467738D01*
X188382262Y-102340184D01*
X188355372Y-102323288D01*
X188229523Y-102244211D01*
X188059254Y-102184631D01*
X188059249Y-102184630D01*
X187880004Y-102164435D01*
X187879996Y-102164435D01*
X187704973Y-102184154D01*
X187636151Y-102172099D01*
X187584772Y-102124750D01*
X187567148Y-102057139D01*
X187567870Y-102047050D01*
X187585565Y-101890002D01*
X187585565Y-101889996D01*
X187565369Y-101710750D01*
X187565368Y-101710745D01*
X187540671Y-101640165D01*
X187505789Y-101540478D01*
X187409816Y-101387738D01*
X187282262Y-101260184D01*
X187262214Y-101247587D01*
X187129523Y-101164211D01*
X186959254Y-101104631D01*
X186959249Y-101104630D01*
X186780004Y-101084435D01*
X186779996Y-101084435D01*
X186600750Y-101104630D01*
X186600745Y-101104631D01*
X186430476Y-101164211D01*
X186277737Y-101260184D01*
X186150184Y-101387737D01*
X186054211Y-101540476D01*
X185994631Y-101710745D01*
X185994630Y-101710750D01*
X185974435Y-101889996D01*
X185974435Y-101890003D01*
X185994630Y-102069246D01*
X185994632Y-102069255D01*
X186001220Y-102088083D01*
X186004781Y-102157862D01*
X185970051Y-102218489D01*
X185925133Y-102246077D01*
X185867106Y-102266382D01*
X185797328Y-102269945D01*
X185760179Y-102254335D01*
X185641509Y-102179769D01*
X185471240Y-102120189D01*
X185471235Y-102120188D01*
X185291990Y-102099993D01*
X185291982Y-102099993D01*
X185112736Y-102120188D01*
X185112731Y-102120189D01*
X184942462Y-102179769D01*
X184789723Y-102275742D01*
X184662170Y-102403295D01*
X184566196Y-102556036D01*
X184506616Y-102726308D01*
X184496823Y-102813226D01*
X184469756Y-102877640D01*
X184461285Y-102887023D01*
X184351286Y-102997022D01*
X184239481Y-103108826D01*
X184239479Y-103108829D01*
X184193044Y-103189259D01*
X184193042Y-103189261D01*
X184160425Y-103245753D01*
X184160424Y-103245754D01*
X184160423Y-103245759D01*
X184119499Y-103398487D01*
X184119499Y-103398489D01*
X184119499Y-103566590D01*
X184119500Y-103566603D01*
X184119500Y-106949902D01*
X184099815Y-107016941D01*
X184083181Y-107037583D01*
X183564102Y-107556662D01*
X183502779Y-107590147D01*
X183433087Y-107585163D01*
X183388740Y-107556662D01*
X183332262Y-107500184D01*
X183179521Y-107404210D01*
X183009249Y-107344630D01*
X182922330Y-107334837D01*
X182857916Y-107307770D01*
X182848533Y-107299298D01*
X181779319Y-106230084D01*
X181745834Y-106168761D01*
X181743000Y-106142403D01*
X181743000Y-104612412D01*
X181762685Y-104545373D01*
X181770055Y-104535097D01*
X181772310Y-104532267D01*
X181772316Y-104532262D01*
X181868289Y-104379522D01*
X181927868Y-104209255D01*
X181930690Y-104184211D01*
X181948065Y-104030003D01*
X181948065Y-104029996D01*
X181927869Y-103850750D01*
X181927868Y-103850745D01*
X181907555Y-103792694D01*
X181868289Y-103680478D01*
X181856083Y-103661053D01*
X181823888Y-103609815D01*
X181772316Y-103527738D01*
X181644762Y-103400184D01*
X181612463Y-103379889D01*
X181492023Y-103304211D01*
X181321754Y-103244631D01*
X181321749Y-103244630D01*
X181142504Y-103224435D01*
X181142496Y-103224435D01*
X180963250Y-103244630D01*
X180963245Y-103244631D01*
X180792976Y-103304211D01*
X180754202Y-103328575D01*
X180686965Y-103347575D01*
X180620130Y-103327207D01*
X180600549Y-103311262D01*
X179506723Y-102217436D01*
X179473238Y-102156113D01*
X179478222Y-102086421D01*
X179520094Y-102030488D01*
X179532401Y-102022370D01*
X179578739Y-101995615D01*
X179578744Y-101995612D01*
X179605782Y-101980002D01*
X179665556Y-101945493D01*
X179777360Y-101833689D01*
X179777360Y-101833687D01*
X179787568Y-101823480D01*
X179787569Y-101823477D01*
X180976735Y-100634311D01*
X181804435Y-100634311D01*
X181804435Y-100634318D01*
X181824630Y-100813564D01*
X181824631Y-100813569D01*
X181884211Y-100983838D01*
X181966415Y-101114664D01*
X181980184Y-101136577D01*
X182107738Y-101264131D01*
X182198080Y-101320897D01*
X182249703Y-101353334D01*
X182260478Y-101360104D01*
X182380450Y-101402084D01*
X182430745Y-101419683D01*
X182430750Y-101419684D01*
X182609996Y-101439880D01*
X182610000Y-101439880D01*
X182610004Y-101439880D01*
X182789249Y-101419684D01*
X182789252Y-101419683D01*
X182789255Y-101419683D01*
X182959522Y-101360104D01*
X183112262Y-101264131D01*
X183239816Y-101136577D01*
X183335789Y-100983837D01*
X183395368Y-100813570D01*
X183396106Y-100807022D01*
X183415565Y-100634318D01*
X183415565Y-100634311D01*
X183395369Y-100455065D01*
X183395368Y-100455060D01*
X183365270Y-100369046D01*
X183335789Y-100284793D01*
X183239816Y-100132053D01*
X183112262Y-100004499D01*
X183045558Y-99962586D01*
X182959523Y-99908526D01*
X182789254Y-99848946D01*
X182789249Y-99848945D01*
X182610004Y-99828750D01*
X182609996Y-99828750D01*
X182430750Y-99848945D01*
X182430745Y-99848946D01*
X182260476Y-99908526D01*
X182107737Y-100004499D01*
X181980184Y-100132052D01*
X181884211Y-100284791D01*
X181824631Y-100455060D01*
X181824630Y-100455065D01*
X181804435Y-100634311D01*
X180976735Y-100634311D01*
X182889133Y-98721914D01*
X182935859Y-98692555D01*
X182947202Y-98688587D01*
X183099942Y-98592614D01*
X183157029Y-98535526D01*
X183218349Y-98502043D01*
X183288041Y-98507027D01*
X183310679Y-98518214D01*
X183370478Y-98555789D01*
X183525393Y-98609996D01*
X183540745Y-98615368D01*
X183540750Y-98615369D01*
X183719996Y-98635565D01*
X183720000Y-98635565D01*
X183720004Y-98635565D01*
X183899249Y-98615369D01*
X183899252Y-98615368D01*
X183899255Y-98615368D01*
X184069522Y-98555789D01*
X184222262Y-98459816D01*
X184349816Y-98332262D01*
X184445789Y-98179522D01*
X184505368Y-98009255D01*
X184505369Y-98009249D01*
X184525565Y-97830003D01*
X184525565Y-97829996D01*
X184505369Y-97650750D01*
X184505368Y-97650745D01*
X184445789Y-97480478D01*
X184349816Y-97327738D01*
X184222262Y-97200184D01*
X184169485Y-97167022D01*
X184069523Y-97104211D01*
X183899254Y-97044631D01*
X183899249Y-97044630D01*
X183720004Y-97024435D01*
X183719996Y-97024435D01*
X183540750Y-97044630D01*
X183540745Y-97044631D01*
X183370476Y-97104211D01*
X183217736Y-97200185D01*
X183160650Y-97257270D01*
X183099326Y-97290754D01*
X183029635Y-97285768D01*
X183006998Y-97274581D01*
X182947203Y-97237009D01*
X182776934Y-97177429D01*
X182776929Y-97177428D01*
X182597684Y-97157233D01*
X182597676Y-97157233D01*
X182418430Y-97177428D01*
X182418425Y-97177429D01*
X182248156Y-97237009D01*
X182095419Y-97332981D01*
X182003557Y-97424843D01*
X181942233Y-97458327D01*
X181872542Y-97453343D01*
X181816609Y-97411471D01*
X181810882Y-97403133D01*
X181724814Y-97266158D01*
X181597261Y-97138605D01*
X181444522Y-97042632D01*
X181274253Y-96983052D01*
X181274248Y-96983051D01*
X181095003Y-96962856D01*
X181094995Y-96962856D01*
X180915749Y-96983051D01*
X180915744Y-96983052D01*
X180745475Y-97042632D01*
X180592736Y-97138605D01*
X180465183Y-97266158D01*
X180369210Y-97418897D01*
X180309630Y-97589166D01*
X180309629Y-97589171D01*
X180289434Y-97768417D01*
X180289434Y-97768424D01*
X180309629Y-97947670D01*
X180309630Y-97947675D01*
X180369210Y-98117944D01*
X180465184Y-98270684D01*
X180467444Y-98273518D01*
X180468333Y-98275696D01*
X180468888Y-98276579D01*
X180468733Y-98276676D01*
X180493854Y-98338204D01*
X180494499Y-98350833D01*
X180494499Y-98518187D01*
X180474814Y-98585226D01*
X180458180Y-98605868D01*
X179853107Y-99210940D01*
X179791784Y-99244425D01*
X179779310Y-99246479D01*
X179692392Y-99256272D01*
X179522120Y-99315852D01*
X179369379Y-99411826D01*
X179241826Y-99539379D01*
X179145853Y-99692118D01*
X179086273Y-99862387D01*
X179086272Y-99862392D01*
X179066077Y-100041638D01*
X179066077Y-100041645D01*
X179086272Y-100220891D01*
X179086273Y-100220896D01*
X179145853Y-100391165D01*
X179238162Y-100538073D01*
X179257162Y-100605310D01*
X179236794Y-100672145D01*
X179220849Y-100691726D01*
X179210259Y-100702316D01*
X179148936Y-100735801D01*
X179081624Y-100731677D01*
X178932811Y-100679605D01*
X178932804Y-100679603D01*
X178750616Y-100659076D01*
X178686202Y-100632009D01*
X178646647Y-100574414D01*
X178640500Y-100535856D01*
X178640500Y-95882412D01*
X178660185Y-95815373D01*
X178667555Y-95805097D01*
X178669810Y-95802267D01*
X178669816Y-95802262D01*
X178765789Y-95649522D01*
X178825368Y-95479255D01*
X178831169Y-95427772D01*
X178845565Y-95300003D01*
X178845565Y-95299996D01*
X178825369Y-95120750D01*
X178825368Y-95120745D01*
X178793782Y-95030478D01*
X178765789Y-94950478D01*
X178746638Y-94920000D01*
X178680403Y-94814587D01*
X178669816Y-94797738D01*
X178542262Y-94670184D01*
X178516841Y-94654211D01*
X178389523Y-94574211D01*
X178219254Y-94514631D01*
X178219249Y-94514630D01*
X178040004Y-94494435D01*
X178039996Y-94494435D01*
X177860750Y-94514630D01*
X177860745Y-94514631D01*
X177690476Y-94574211D01*
X177537737Y-94670184D01*
X177410184Y-94797737D01*
X177410180Y-94797742D01*
X177399596Y-94814587D01*
X177347261Y-94860877D01*
X177278207Y-94871524D01*
X177253649Y-94865655D01*
X177079254Y-94804631D01*
X177079249Y-94804630D01*
X176900004Y-94784435D01*
X176899996Y-94784435D01*
X176720750Y-94804630D01*
X176720745Y-94804631D01*
X176550476Y-94864211D01*
X176397737Y-94960184D01*
X176270184Y-95087737D01*
X176174211Y-95240476D01*
X176114631Y-95410745D01*
X176114630Y-95410750D01*
X176094435Y-95589996D01*
X176094435Y-95590003D01*
X176114630Y-95769249D01*
X176114631Y-95769254D01*
X176174211Y-95939523D01*
X176222064Y-96015680D01*
X176270184Y-96092262D01*
X176397738Y-96219816D01*
X176488080Y-96276582D01*
X176550474Y-96315787D01*
X176550478Y-96315789D01*
X176706584Y-96370413D01*
X176720745Y-96375368D01*
X176720750Y-96375369D01*
X176899996Y-96395565D01*
X176900000Y-96395565D01*
X176900004Y-96395565D01*
X177079249Y-96375369D01*
X177079252Y-96375368D01*
X177079255Y-96375368D01*
X177249522Y-96315789D01*
X177249523Y-96315787D01*
X177249526Y-96315787D01*
X177249529Y-96315786D01*
X177255795Y-96312769D01*
X177256323Y-96313866D01*
X177316757Y-96296785D01*
X177383593Y-96317148D01*
X177428811Y-96370413D01*
X177439500Y-96420779D01*
X177439500Y-99190218D01*
X177419815Y-99257257D01*
X177367011Y-99303012D01*
X177297853Y-99312956D01*
X177234297Y-99283931D01*
X177218482Y-99265494D01*
X177217677Y-99266137D01*
X177213333Y-99260690D01*
X177085780Y-99133137D01*
X176933038Y-99037162D01*
X176891053Y-99022471D01*
X176834278Y-98981749D01*
X176808531Y-98916796D01*
X176821988Y-98848235D01*
X176844329Y-98817748D01*
X176849816Y-98812262D01*
X176945789Y-98659522D01*
X177005368Y-98489255D01*
X177011960Y-98430750D01*
X177025565Y-98310003D01*
X177025565Y-98309996D01*
X177005369Y-98130750D01*
X177005368Y-98130745D01*
X176945789Y-97960478D01*
X176937744Y-97947675D01*
X176863804Y-97830000D01*
X176849816Y-97807738D01*
X176722262Y-97680184D01*
X176675410Y-97650745D01*
X176569523Y-97584211D01*
X176399254Y-97524631D01*
X176399249Y-97524630D01*
X176220004Y-97504435D01*
X176219996Y-97504435D01*
X176040750Y-97524630D01*
X176040745Y-97524631D01*
X175870476Y-97584211D01*
X175717737Y-97680184D01*
X175590184Y-97807737D01*
X175494211Y-97960476D01*
X175434631Y-98130745D01*
X175434630Y-98130750D01*
X175414435Y-98309996D01*
X175414435Y-98310003D01*
X175434630Y-98489249D01*
X175434631Y-98489254D01*
X175494211Y-98659523D01*
X175575724Y-98789249D01*
X175590184Y-98812262D01*
X175717738Y-98939816D01*
X175830328Y-99010561D01*
X175870478Y-99035789D01*
X175912462Y-99050480D01*
X175969238Y-99091202D01*
X175994986Y-99156154D01*
X175981530Y-99224716D01*
X175959193Y-99255199D01*
X175953704Y-99260687D01*
X175953702Y-99260690D01*
X175857729Y-99413429D01*
X175849673Y-99436454D01*
X175808951Y-99493230D01*
X175743999Y-99518978D01*
X175732631Y-99519500D01*
X174513200Y-99519500D01*
X174472245Y-99512541D01*
X174449644Y-99504632D01*
X174449634Y-99504630D01*
X174270392Y-99484435D01*
X174270383Y-99484435D01*
X174158217Y-99497072D01*
X174089396Y-99485017D01*
X174038017Y-99437668D01*
X174020335Y-99373852D01*
X174020335Y-97810779D01*
X174020334Y-97810775D01*
X174019518Y-97807729D01*
X174019515Y-97807721D01*
X173996302Y-97721087D01*
X173996302Y-97721086D01*
X173979413Y-97658053D01*
X173979411Y-97658048D01*
X173900359Y-97521125D01*
X173900356Y-97521121D01*
X173900355Y-97521119D01*
X173788551Y-97409315D01*
X173788550Y-97409314D01*
X173784220Y-97404984D01*
X173784209Y-97404974D01*
X173750700Y-97371465D01*
X173717215Y-97310142D01*
X173715163Y-97297686D01*
X173705368Y-97210745D01*
X173645789Y-97040478D01*
X173549816Y-96887738D01*
X173422262Y-96760184D01*
X173276673Y-96668704D01*
X173269521Y-96664210D01*
X173120314Y-96612001D01*
X173099255Y-96604632D01*
X173099254Y-96604631D01*
X173099246Y-96604629D01*
X173092459Y-96603080D01*
X173092748Y-96601811D01*
X173035119Y-96577589D01*
X172995570Y-96519990D01*
X172990206Y-96467558D01*
X172995565Y-96420000D01*
X172995565Y-96419997D01*
X172975369Y-96240750D01*
X172975368Y-96240745D01*
X172956801Y-96187684D01*
X172915789Y-96070478D01*
X172819816Y-95917738D01*
X172692262Y-95790184D01*
X172595721Y-95729523D01*
X172539523Y-95694211D01*
X172369254Y-95634631D01*
X172369249Y-95634630D01*
X172190004Y-95614435D01*
X172189996Y-95614435D01*
X172010750Y-95634630D01*
X172010745Y-95634631D01*
X171840476Y-95694211D01*
X171687737Y-95790184D01*
X171560184Y-95917737D01*
X171464211Y-96070476D01*
X171404631Y-96240745D01*
X171404630Y-96240750D01*
X171384435Y-96419996D01*
X171384435Y-96420003D01*
X171404630Y-96599249D01*
X171404631Y-96599254D01*
X171464211Y-96769523D01*
X171527452Y-96870169D01*
X171560184Y-96922262D01*
X171687738Y-97049816D01*
X171774307Y-97104211D01*
X171829044Y-97138605D01*
X171840478Y-97145789D01*
X171930897Y-97177428D01*
X172010745Y-97205368D01*
X172017532Y-97206917D01*
X172017242Y-97208187D01*
X172074869Y-97232401D01*
X172114425Y-97289995D01*
X172119793Y-97342439D01*
X172114435Y-97389995D01*
X172114435Y-97390003D01*
X172134630Y-97569249D01*
X172134631Y-97569254D01*
X172194211Y-97739523D01*
X172251062Y-97830000D01*
X172290184Y-97892262D01*
X172417738Y-98019816D01*
X172570478Y-98115789D01*
X172736291Y-98173809D01*
X172793065Y-98214530D01*
X172818813Y-98279482D01*
X172819335Y-98290850D01*
X172819335Y-99659817D01*
X172799650Y-99726856D01*
X172792285Y-99737126D01*
X172790019Y-99739967D01*
X172748809Y-99805552D01*
X172696474Y-99851842D01*
X172627421Y-99862490D01*
X172577845Y-99844573D01*
X172529525Y-99814212D01*
X172359254Y-99754631D01*
X172359249Y-99754630D01*
X172180004Y-99734435D01*
X172179996Y-99734435D01*
X172000750Y-99754630D01*
X172000745Y-99754631D01*
X171830476Y-99814211D01*
X171677737Y-99910184D01*
X171550184Y-100037737D01*
X171454211Y-100190476D01*
X171394631Y-100360745D01*
X171394630Y-100360750D01*
X171374435Y-100539996D01*
X166122643Y-100539996D01*
X164972769Y-99390122D01*
X164939284Y-99328799D01*
X164944268Y-99259107D01*
X164986140Y-99203174D01*
X165008039Y-99190062D01*
X165122830Y-99136535D01*
X165316401Y-99000995D01*
X165483495Y-98833901D01*
X165619035Y-98640330D01*
X165718903Y-98426163D01*
X165780063Y-98197908D01*
X165800659Y-97962500D01*
X165780063Y-97727092D01*
X165742784Y-97587964D01*
X165744447Y-97518118D01*
X165783609Y-97460255D01*
X165796581Y-97450885D01*
X165802262Y-97447316D01*
X165929816Y-97319762D01*
X166025789Y-97167022D01*
X166082477Y-97005017D01*
X166085369Y-96996753D01*
X166085369Y-96996749D01*
X166105565Y-96817503D01*
X166105565Y-96817496D01*
X166085369Y-96638250D01*
X166085368Y-96638245D01*
X166064224Y-96577818D01*
X166025789Y-96467978D01*
X166021401Y-96460995D01*
X165930162Y-96315789D01*
X165929816Y-96315238D01*
X165802262Y-96187684D01*
X165721709Y-96137069D01*
X165675418Y-96084734D01*
X165664770Y-96015680D01*
X165675297Y-95979673D01*
X165718903Y-95886163D01*
X165780063Y-95657908D01*
X165800659Y-95422500D01*
X165780063Y-95187092D01*
X165718903Y-94958837D01*
X165619035Y-94744671D01*
X165616290Y-94740750D01*
X165483494Y-94551097D01*
X165316402Y-94384006D01*
X165316395Y-94384001D01*
X165122834Y-94248467D01*
X165122830Y-94248465D01*
X165006482Y-94194211D01*
X164908663Y-94148597D01*
X164908659Y-94148596D01*
X164908655Y-94148594D01*
X164680413Y-94087438D01*
X164680403Y-94087436D01*
X164445001Y-94066841D01*
X164444999Y-94066841D01*
X164209596Y-94087436D01*
X164209586Y-94087438D01*
X163981344Y-94148594D01*
X163981335Y-94148598D01*
X163767171Y-94248464D01*
X163767169Y-94248465D01*
X163573597Y-94384005D01*
X163406505Y-94551097D01*
X163276575Y-94736658D01*
X163221998Y-94780283D01*
X163152500Y-94787477D01*
X163090145Y-94755954D01*
X163073425Y-94736658D01*
X162943494Y-94551097D01*
X162776402Y-94384006D01*
X162776395Y-94384001D01*
X162582834Y-94248467D01*
X162582830Y-94248465D01*
X162466482Y-94194211D01*
X162368663Y-94148597D01*
X162368659Y-94148596D01*
X162368655Y-94148594D01*
X162140413Y-94087438D01*
X162140403Y-94087436D01*
X161905001Y-94066841D01*
X161904999Y-94066841D01*
X161669596Y-94087436D01*
X161669586Y-94087438D01*
X161441344Y-94148594D01*
X161441335Y-94148598D01*
X161227171Y-94248464D01*
X161227169Y-94248465D01*
X161033597Y-94384005D01*
X160866505Y-94551097D01*
X160736575Y-94736658D01*
X160681998Y-94780283D01*
X160612500Y-94787477D01*
X160550145Y-94755954D01*
X160533425Y-94736658D01*
X160403494Y-94551097D01*
X160236402Y-94384006D01*
X160236395Y-94384001D01*
X160042834Y-94248467D01*
X160042830Y-94248465D01*
X159926482Y-94194211D01*
X159828663Y-94148597D01*
X159828659Y-94148596D01*
X159828655Y-94148594D01*
X159600413Y-94087438D01*
X159600403Y-94087436D01*
X159365001Y-94066841D01*
X159364999Y-94066841D01*
X159129596Y-94087436D01*
X159129586Y-94087438D01*
X158901344Y-94148594D01*
X158901335Y-94148598D01*
X158687171Y-94248464D01*
X158687169Y-94248465D01*
X158493597Y-94384005D01*
X158326505Y-94551097D01*
X158190965Y-94744669D01*
X158190964Y-94744671D01*
X158091098Y-94958835D01*
X158091094Y-94958844D01*
X158029938Y-95187086D01*
X158029936Y-95187096D01*
X158009341Y-95422499D01*
X158009341Y-95422500D01*
X158029936Y-95657903D01*
X158029938Y-95657913D01*
X158091094Y-95886155D01*
X158091096Y-95886159D01*
X158091097Y-95886163D01*
X158134700Y-95979670D01*
X158190965Y-96100330D01*
X158190967Y-96100334D01*
X158252131Y-96187684D01*
X158326501Y-96293896D01*
X158326506Y-96293902D01*
X158448430Y-96415826D01*
X158481915Y-96477149D01*
X158476931Y-96546841D01*
X158435059Y-96602774D01*
X158404083Y-96619689D01*
X158272669Y-96668703D01*
X158272664Y-96668706D01*
X158157455Y-96754952D01*
X158157452Y-96754955D01*
X158071206Y-96870164D01*
X158071202Y-96870171D01*
X158020908Y-97005017D01*
X158014501Y-97064616D01*
X158014500Y-97064635D01*
X158014500Y-98860370D01*
X158014501Y-98860376D01*
X158020908Y-98919983D01*
X158071202Y-99054828D01*
X158071206Y-99054835D01*
X158157452Y-99170044D01*
X158157455Y-99170047D01*
X158272664Y-99256293D01*
X158272671Y-99256297D01*
X158297330Y-99265494D01*
X158407517Y-99306591D01*
X158467127Y-99313000D01*
X158882401Y-99312999D01*
X158949440Y-99332683D01*
X158970082Y-99349318D01*
X159003349Y-99382585D01*
X159003355Y-99382590D01*
X160039298Y-100418533D01*
X160072783Y-100479856D01*
X160074837Y-100492330D01*
X160084630Y-100579249D01*
X160144210Y-100749521D01*
X160223802Y-100876191D01*
X160240184Y-100902262D01*
X160367738Y-101029816D01*
X160520478Y-101125789D01*
X160690745Y-101185368D01*
X160777669Y-101195161D01*
X160842080Y-101222226D01*
X160851464Y-101230699D01*
X161698784Y-102078020D01*
X161698786Y-102078021D01*
X161698790Y-102078024D01*
X161771825Y-102120190D01*
X161835716Y-102157077D01*
X161988443Y-102198001D01*
X161988445Y-102198001D01*
X162154154Y-102198001D01*
X162154170Y-102198000D01*
X164300089Y-102198000D01*
X164367128Y-102217685D01*
X164377404Y-102225055D01*
X164380237Y-102227314D01*
X164380239Y-102227316D01*
X164532979Y-102323289D01*
X164703246Y-102382868D01*
X164703251Y-102382869D01*
X164882497Y-102403065D01*
X164882501Y-102403065D01*
X164882505Y-102403065D01*
X165061750Y-102382869D01*
X165061753Y-102382868D01*
X165061756Y-102382868D01*
X165232023Y-102323289D01*
X165384763Y-102227316D01*
X165512317Y-102099762D01*
X165608290Y-101947022D01*
X165608291Y-101947018D01*
X165611579Y-101941786D01*
X165663913Y-101895495D01*
X165732967Y-101884846D01*
X165796815Y-101913221D01*
X165804254Y-101920077D01*
X166436495Y-102552318D01*
X166469980Y-102613641D01*
X166464996Y-102683333D01*
X166436495Y-102727680D01*
X161060783Y-108103392D01*
X160999460Y-108136877D01*
X160929768Y-108131893D01*
X160911102Y-108123098D01*
X160889150Y-108110424D01*
X160889149Y-108110423D01*
X160889148Y-108110423D01*
X160736421Y-108069500D01*
X160736420Y-108069500D01*
X159148141Y-108069500D01*
X159148125Y-108069499D01*
X159140529Y-108069499D01*
X159064500Y-108069499D01*
X158997461Y-108049814D01*
X158951706Y-107997010D01*
X158940500Y-107945499D01*
X158940500Y-103110531D01*
X158940501Y-103110518D01*
X158940501Y-102942415D01*
X158940501Y-102942414D01*
X158899577Y-102789687D01*
X158863778Y-102727680D01*
X158820524Y-102652761D01*
X158820518Y-102652753D01*
X155652200Y-99484435D01*
X152416674Y-96248910D01*
X152383190Y-96187588D01*
X152388174Y-96117896D01*
X152430046Y-96061963D01*
X152438372Y-96056243D01*
X152512262Y-96009816D01*
X152639816Y-95882262D01*
X152735789Y-95729522D01*
X152795368Y-95559255D01*
X152795369Y-95559249D01*
X152815565Y-95380003D01*
X152815565Y-95379996D01*
X152795369Y-95200750D01*
X152795368Y-95200745D01*
X152790591Y-95187092D01*
X152735789Y-95030478D01*
X152639816Y-94877738D01*
X152512262Y-94750184D01*
X152490736Y-94736658D01*
X152359523Y-94654211D01*
X152189254Y-94594631D01*
X152189249Y-94594630D01*
X152010004Y-94574435D01*
X152009996Y-94574435D01*
X151830750Y-94594630D01*
X151830745Y-94594631D01*
X151660475Y-94654211D01*
X151623763Y-94677279D01*
X151556526Y-94696278D01*
X151489691Y-94675909D01*
X151444478Y-94622640D01*
X151440751Y-94613237D01*
X151425790Y-94570479D01*
X151329815Y-94417737D01*
X151202262Y-94290184D01*
X151049523Y-94194211D01*
X150879254Y-94134631D01*
X150879249Y-94134630D01*
X150700004Y-94114435D01*
X150699996Y-94114435D01*
X150520750Y-94134630D01*
X150520745Y-94134631D01*
X150350476Y-94194211D01*
X150197737Y-94290184D01*
X150070184Y-94417737D01*
X149974211Y-94570476D01*
X149914631Y-94740745D01*
X149914630Y-94740750D01*
X149894435Y-94919996D01*
X149894435Y-94920003D01*
X149914630Y-95099249D01*
X149914631Y-95099254D01*
X149974211Y-95269523D01*
X150070184Y-95422262D01*
X150072728Y-95424806D01*
X150074078Y-95427145D01*
X150074525Y-95427705D01*
X150074440Y-95427772D01*
X150104822Y-95480393D01*
X150122790Y-95547449D01*
X150121127Y-95617299D01*
X150090697Y-95667223D01*
X150050186Y-95707733D01*
X150050186Y-95707734D01*
X149954211Y-95860476D01*
X149894631Y-96030745D01*
X149894630Y-96030750D01*
X149874435Y-96209996D01*
X149874435Y-96210003D01*
X149894630Y-96389249D01*
X149894631Y-96389254D01*
X149954211Y-96559523D01*
X150048152Y-96709028D01*
X150067152Y-96776265D01*
X150048152Y-96840972D01*
X149954210Y-96990478D01*
X149894630Y-97160750D01*
X149884837Y-97247668D01*
X149857770Y-97312082D01*
X149849298Y-97321465D01*
X147371286Y-99799478D01*
X147259481Y-99911282D01*
X147259479Y-99911284D01*
X147241626Y-99942208D01*
X147229862Y-99962585D01*
X147207714Y-100000946D01*
X147186473Y-100037737D01*
X147180423Y-100048215D01*
X147139499Y-100200943D01*
X147139499Y-100200945D01*
X147139499Y-100369046D01*
X147139500Y-100369059D01*
X147139500Y-111029359D01*
X147139499Y-111029377D01*
X147139499Y-111195085D01*
X147140560Y-111203143D01*
X147137643Y-111203526D01*
X147136315Y-111259265D01*
X147097151Y-111317127D01*
X147032922Y-111344629D01*
X147032090Y-111344726D01*
X147010750Y-111347130D01*
X146840478Y-111406710D01*
X146687737Y-111502684D01*
X146560184Y-111630237D01*
X146464211Y-111782976D01*
X146404631Y-111953245D01*
X146404630Y-111953250D01*
X146384435Y-112132496D01*
X146384435Y-112132503D01*
X146404630Y-112311749D01*
X146404631Y-112311754D01*
X146464211Y-112482023D01*
X146557652Y-112630733D01*
X146560184Y-112634762D01*
X146687738Y-112762316D01*
X146706085Y-112773844D01*
X146825242Y-112848716D01*
X146840478Y-112858289D01*
X146938699Y-112892658D01*
X147010745Y-112917868D01*
X147010750Y-112917869D01*
X147189996Y-112938065D01*
X147190000Y-112938065D01*
X147190004Y-112938065D01*
X147369249Y-112917869D01*
X147369252Y-112917868D01*
X147369255Y-112917868D01*
X147539522Y-112858289D01*
X147692262Y-112762316D01*
X147819816Y-112634762D01*
X147915789Y-112482022D01*
X147916496Y-112480003D01*
X147938993Y-112415708D01*
X147979714Y-112358931D01*
X148044666Y-112333183D01*
X148113228Y-112346639D01*
X148143716Y-112368980D01*
X149137398Y-113362662D01*
X149170883Y-113423985D01*
X149165899Y-113493677D01*
X149137398Y-113538024D01*
X149100184Y-113575237D01*
X149004211Y-113727976D01*
X148944631Y-113898245D01*
X148944630Y-113898250D01*
X148924435Y-114077496D01*
X148924435Y-114077503D01*
X148944630Y-114256749D01*
X148944631Y-114256754D01*
X149004211Y-114427023D01*
X149037031Y-114479255D01*
X149100184Y-114579762D01*
X149227738Y-114707316D01*
X149380478Y-114803289D01*
X149550745Y-114862868D01*
X149637669Y-114872661D01*
X149702080Y-114899726D01*
X149711464Y-114908199D01*
X150263784Y-115460520D01*
X150263786Y-115460521D01*
X150263790Y-115460524D01*
X150331712Y-115499738D01*
X150400716Y-115539577D01*
X150553443Y-115580501D01*
X150553445Y-115580501D01*
X150719154Y-115580501D01*
X150719170Y-115580500D01*
X151877588Y-115580500D01*
X151944627Y-115600185D01*
X151954903Y-115607555D01*
X151957736Y-115609814D01*
X151957738Y-115609816D01*
X152110478Y-115705789D01*
X152278079Y-115764435D01*
X152280745Y-115765368D01*
X152280750Y-115765369D01*
X152459996Y-115785565D01*
X152460000Y-115785565D01*
X152460004Y-115785565D01*
X152639249Y-115765369D01*
X152639252Y-115765368D01*
X152639255Y-115765368D01*
X152809522Y-115705789D01*
X152962262Y-115609816D01*
X153089816Y-115482262D01*
X153185789Y-115329522D01*
X153245368Y-115159255D01*
X153245369Y-115159249D01*
X153265565Y-114980003D01*
X153265565Y-114979996D01*
X153245369Y-114800750D01*
X153245368Y-114800745D01*
X153230490Y-114758227D01*
X153185789Y-114630478D01*
X153089816Y-114477738D01*
X153084259Y-114472181D01*
X153050774Y-114410858D01*
X153055758Y-114341166D01*
X153097630Y-114285233D01*
X153163094Y-114260816D01*
X153171940Y-114260500D01*
X159516901Y-114260500D01*
X159583940Y-114280185D01*
X159604582Y-114296819D01*
X161832137Y-116524374D01*
X161832158Y-116524397D01*
X161852947Y-116545186D01*
X161870259Y-116566894D01*
X161930182Y-116662259D01*
X161930184Y-116662262D01*
X162057738Y-116789816D01*
X162210478Y-116885789D01*
X162210482Y-116885790D01*
X162214118Y-116888075D01*
X162260409Y-116940409D01*
X162267920Y-116960973D01*
X162270423Y-116970314D01*
X162349481Y-117107245D01*
X162349483Y-117107247D01*
X164709045Y-119466809D01*
X164742530Y-119528132D01*
X164737546Y-119597824D01*
X164695674Y-119653757D01*
X164630210Y-119678174D01*
X164621364Y-119678490D01*
X161740067Y-119678490D01*
X161581953Y-119678490D01*
X161429225Y-119719413D01*
X161429224Y-119719413D01*
X161429222Y-119719414D01*
X161429219Y-119719415D01*
X161379106Y-119748349D01*
X161379105Y-119748350D01*
X161335699Y-119773410D01*
X161292295Y-119798469D01*
X161292292Y-119798471D01*
X160614102Y-120476662D01*
X160552779Y-120510147D01*
X160483087Y-120505163D01*
X160448812Y-120483135D01*
X160447705Y-120484525D01*
X160442262Y-120480184D01*
X160289523Y-120384211D01*
X160119254Y-120324631D01*
X160119249Y-120324630D01*
X159940004Y-120304435D01*
X159939996Y-120304435D01*
X159760750Y-120324630D01*
X159760745Y-120324631D01*
X159590476Y-120384211D01*
X159437737Y-120480184D01*
X159310184Y-120607737D01*
X159214211Y-120760476D01*
X159154631Y-120930745D01*
X159154630Y-120930750D01*
X159134435Y-121109996D01*
X159134435Y-121110003D01*
X159154630Y-121289249D01*
X159154631Y-121289254D01*
X159214211Y-121459523D01*
X159310184Y-121612262D01*
X159314525Y-121617705D01*
X159312457Y-121619353D01*
X159340147Y-121670063D01*
X159335163Y-121739755D01*
X159306662Y-121784102D01*
X156747584Y-124343181D01*
X156686261Y-124376666D01*
X156659903Y-124379500D01*
X156379564Y-124379500D01*
X156312525Y-124359815D01*
X156266770Y-124307011D01*
X156256826Y-124237853D01*
X156262522Y-124214545D01*
X156285368Y-124149255D01*
X156289643Y-124111313D01*
X156305565Y-123970003D01*
X156305565Y-123969996D01*
X156285369Y-123790750D01*
X156285368Y-123790745D01*
X156225788Y-123620476D01*
X156129815Y-123467737D01*
X156002262Y-123340184D01*
X155849523Y-123244211D01*
X155679254Y-123184631D01*
X155679249Y-123184630D01*
X155500004Y-123164435D01*
X155499996Y-123164435D01*
X155320750Y-123184630D01*
X155320745Y-123184631D01*
X155150476Y-123244211D01*
X154997737Y-123340184D01*
X154870184Y-123467737D01*
X154774211Y-123620476D01*
X154714631Y-123790745D01*
X154714630Y-123790750D01*
X154694435Y-123969996D01*
X154694435Y-123970003D01*
X154714630Y-124149249D01*
X154714631Y-124149254D01*
X154737478Y-124214545D01*
X154741039Y-124284324D01*
X154706310Y-124344952D01*
X154644317Y-124377179D01*
X154620436Y-124379500D01*
X151880943Y-124379500D01*
X151728213Y-124420423D01*
X151700882Y-124436204D01*
X151700881Y-124436204D01*
X151591287Y-124499477D01*
X151591282Y-124499481D01*
X151062180Y-125028584D01*
X151000857Y-125062069D01*
X150931165Y-125057085D01*
X150875232Y-125015213D01*
X150850815Y-124949749D01*
X150850499Y-124940903D01*
X150850499Y-124832129D01*
X150850498Y-124832123D01*
X150844091Y-124772516D01*
X150793797Y-124637671D01*
X150793793Y-124637664D01*
X150707547Y-124522455D01*
X150707544Y-124522452D01*
X150592335Y-124436206D01*
X150592328Y-124436202D01*
X150457482Y-124385908D01*
X150457483Y-124385908D01*
X150397883Y-124379501D01*
X150397881Y-124379500D01*
X150397873Y-124379500D01*
X150397864Y-124379500D01*
X148602129Y-124379500D01*
X148602123Y-124379501D01*
X148542516Y-124385908D01*
X148407671Y-124436202D01*
X148407664Y-124436206D01*
X148292455Y-124522452D01*
X148292452Y-124522455D01*
X148206206Y-124637664D01*
X148206203Y-124637669D01*
X148157189Y-124769083D01*
X148115317Y-124825016D01*
X148049853Y-124849433D01*
X147981580Y-124834581D01*
X147953326Y-124813430D01*
X147831402Y-124691506D01*
X147831395Y-124691501D01*
X147637834Y-124555967D01*
X147637830Y-124555965D01*
X147577784Y-124527965D01*
X147423663Y-124456097D01*
X147423659Y-124456096D01*
X147423655Y-124456094D01*
X147195413Y-124394938D01*
X147195403Y-124394936D01*
X146960001Y-124374341D01*
X146959999Y-124374341D01*
X146724596Y-124394936D01*
X146724586Y-124394938D01*
X146496344Y-124456094D01*
X146496335Y-124456098D01*
X146282171Y-124555964D01*
X146282169Y-124555965D01*
X146088597Y-124691505D01*
X145921505Y-124858597D01*
X145791575Y-125044158D01*
X145736998Y-125087783D01*
X145667500Y-125094977D01*
X145605145Y-125063454D01*
X145588425Y-125044158D01*
X145458494Y-124858597D01*
X145291402Y-124691506D01*
X145291395Y-124691501D01*
X145097834Y-124555967D01*
X145097830Y-124555965D01*
X145037784Y-124527965D01*
X144883663Y-124456097D01*
X144883659Y-124456096D01*
X144883655Y-124456094D01*
X144655413Y-124394938D01*
X144655403Y-124394936D01*
X144420001Y-124374341D01*
X144419999Y-124374341D01*
X144184596Y-124394936D01*
X144184586Y-124394938D01*
X143956344Y-124456094D01*
X143956335Y-124456098D01*
X143742171Y-124555964D01*
X143742169Y-124555965D01*
X143548597Y-124691505D01*
X143381505Y-124858597D01*
X143245965Y-125052169D01*
X143245964Y-125052171D01*
X143146098Y-125266335D01*
X143146094Y-125266344D01*
X143084938Y-125494586D01*
X143084936Y-125494596D01*
X143064341Y-125729999D01*
X142760500Y-125729999D01*
X142760500Y-119508654D01*
X146737318Y-119508654D01*
X146737318Y-119508661D01*
X146757513Y-119687907D01*
X146757514Y-119687912D01*
X146817094Y-119858181D01*
X146913067Y-120010920D01*
X147040621Y-120138474D01*
X147193361Y-120234447D01*
X147363628Y-120294026D01*
X147363633Y-120294027D01*
X147542879Y-120314223D01*
X147542883Y-120314223D01*
X147542887Y-120314223D01*
X147722132Y-120294027D01*
X147722135Y-120294026D01*
X147722138Y-120294026D01*
X147892405Y-120234447D01*
X148045145Y-120138474D01*
X148172699Y-120010920D01*
X148268672Y-119858180D01*
X148328251Y-119687913D01*
X148329313Y-119678490D01*
X148348448Y-119508661D01*
X148348448Y-119508654D01*
X148328252Y-119329408D01*
X148328251Y-119329403D01*
X148291171Y-119223434D01*
X148268672Y-119159136D01*
X148172699Y-119006396D01*
X148045145Y-118878842D01*
X147986540Y-118842018D01*
X147892406Y-118782869D01*
X147722137Y-118723289D01*
X147722132Y-118723288D01*
X147542887Y-118703093D01*
X147542879Y-118703093D01*
X147363633Y-118723288D01*
X147363628Y-118723289D01*
X147193359Y-118782869D01*
X147040620Y-118878842D01*
X146913067Y-119006395D01*
X146817094Y-119159134D01*
X146757514Y-119329403D01*
X146757513Y-119329408D01*
X146737318Y-119508654D01*
X142760500Y-119508654D01*
X142760500Y-116569996D01*
X144994435Y-116569996D01*
X144994435Y-116570003D01*
X145014630Y-116749249D01*
X145014631Y-116749254D01*
X145074211Y-116919523D01*
X145146416Y-117034435D01*
X145170184Y-117072262D01*
X145297738Y-117199816D01*
X145450478Y-117295789D01*
X145620745Y-117355368D01*
X145707669Y-117365161D01*
X145772080Y-117392226D01*
X145781465Y-117400700D01*
X146515139Y-118134374D01*
X146515149Y-118134385D01*
X146519479Y-118138715D01*
X146519480Y-118138716D01*
X146631284Y-118250520D01*
X146713069Y-118297738D01*
X146768215Y-118329577D01*
X146920942Y-118370500D01*
X146920943Y-118370500D01*
X148897060Y-118370500D01*
X148964099Y-118390185D01*
X148984741Y-118406819D01*
X149047738Y-118469816D01*
X149200478Y-118565789D01*
X149353912Y-118619478D01*
X149370745Y-118625368D01*
X149370750Y-118625369D01*
X149549997Y-118645565D01*
X149556964Y-118645565D01*
X149556964Y-118647042D01*
X149617922Y-118657710D01*
X149669308Y-118705052D01*
X149687000Y-118768884D01*
X149687000Y-120377870D01*
X149687001Y-120377876D01*
X149693408Y-120437483D01*
X149743702Y-120572328D01*
X149743706Y-120572335D01*
X149829952Y-120687544D01*
X149829955Y-120687547D01*
X149945164Y-120773793D01*
X149945171Y-120773797D01*
X150076581Y-120822810D01*
X150132515Y-120864681D01*
X150156932Y-120930145D01*
X150142080Y-120998418D01*
X150120930Y-121026673D01*
X149999003Y-121148600D01*
X149863465Y-121342169D01*
X149863464Y-121342171D01*
X149763598Y-121556335D01*
X149763594Y-121556344D01*
X149702438Y-121784586D01*
X149702436Y-121784596D01*
X149681841Y-122019999D01*
X149681841Y-122020000D01*
X149702436Y-122255403D01*
X149702438Y-122255413D01*
X149763594Y-122483655D01*
X149763596Y-122483659D01*
X149763597Y-122483663D01*
X149837689Y-122642553D01*
X149863465Y-122697830D01*
X149863467Y-122697834D01*
X149942007Y-122810000D01*
X149999005Y-122891401D01*
X150166099Y-123058495D01*
X150257382Y-123122412D01*
X150359665Y-123194032D01*
X150359667Y-123194033D01*
X150359670Y-123194035D01*
X150573837Y-123293903D01*
X150802092Y-123355063D01*
X150990418Y-123371539D01*
X151037499Y-123375659D01*
X151037500Y-123375659D01*
X151037501Y-123375659D01*
X151076734Y-123372226D01*
X151272908Y-123355063D01*
X151501163Y-123293903D01*
X151715330Y-123194035D01*
X151908901Y-123058495D01*
X152075995Y-122891401D01*
X152211535Y-122697830D01*
X152311403Y-122483663D01*
X152372563Y-122255408D01*
X152393159Y-122020000D01*
X152392528Y-122012793D01*
X152384127Y-121916765D01*
X152372563Y-121784592D01*
X152311403Y-121556337D01*
X152211535Y-121342171D01*
X152210836Y-121341173D01*
X152075996Y-121148600D01*
X152016133Y-121088737D01*
X151954067Y-121026671D01*
X151920584Y-120965351D01*
X151925568Y-120895659D01*
X151967439Y-120839725D01*
X151998415Y-120822810D01*
X152129831Y-120773796D01*
X152245046Y-120687546D01*
X152331296Y-120572331D01*
X152381591Y-120437483D01*
X152388000Y-120377873D01*
X152387999Y-118582128D01*
X152381591Y-118522517D01*
X152376569Y-118509053D01*
X154073492Y-118509053D01*
X154073492Y-118509060D01*
X154093687Y-118688306D01*
X154093688Y-118688311D01*
X154153268Y-118858580D01*
X154207454Y-118944816D01*
X154249241Y-119011319D01*
X154376795Y-119138873D01*
X154511373Y-119223434D01*
X154529535Y-119234846D01*
X154573163Y-119250112D01*
X154629939Y-119290833D01*
X154655687Y-119355786D01*
X154642231Y-119424348D01*
X154606521Y-119466420D01*
X154504952Y-119542455D01*
X154418706Y-119657664D01*
X154418702Y-119657671D01*
X154368408Y-119792517D01*
X154362001Y-119852116D01*
X154362000Y-119852135D01*
X154362000Y-120100890D01*
X154361220Y-120114774D01*
X154357251Y-120149997D01*
X154357251Y-120150001D01*
X154361220Y-120185224D01*
X154362000Y-120199109D01*
X154362000Y-121040887D01*
X154361220Y-121054768D01*
X154357251Y-121090000D01*
X154359639Y-121111200D01*
X154361220Y-121125227D01*
X154362000Y-121139111D01*
X154362000Y-121980878D01*
X154361221Y-121994758D01*
X154357856Y-122024630D01*
X154357251Y-122030000D01*
X154361219Y-122065226D01*
X154361221Y-122065239D01*
X154362000Y-122079120D01*
X154362000Y-122327869D01*
X154362001Y-122327876D01*
X154368408Y-122387483D01*
X154418702Y-122522328D01*
X154418706Y-122522335D01*
X154504952Y-122637544D01*
X154504955Y-122637547D01*
X154620164Y-122723793D01*
X154620171Y-122723797D01*
X154622917Y-122724821D01*
X154755017Y-122774091D01*
X154814627Y-122780500D01*
X155063385Y-122780499D01*
X155077271Y-122781279D01*
X155112499Y-122785249D01*
X155112499Y-122785248D01*
X155112500Y-122785249D01*
X155147728Y-122781279D01*
X155161614Y-122780499D01*
X156213382Y-122780499D01*
X156227265Y-122781278D01*
X156239636Y-122782672D01*
X156262499Y-122785249D01*
X156262500Y-122785249D01*
X156262501Y-122785249D01*
X156283161Y-122782920D01*
X156297733Y-122781278D01*
X156311617Y-122780499D01*
X156560371Y-122780499D01*
X156560372Y-122780499D01*
X156619983Y-122774091D01*
X156754831Y-122723796D01*
X156870046Y-122637546D01*
X156956296Y-122522331D01*
X157006591Y-122387483D01*
X157013000Y-122327873D01*
X157012999Y-122079112D01*
X157013779Y-122065226D01*
X157014906Y-122055230D01*
X157017749Y-122030000D01*
X157013779Y-121994771D01*
X157012999Y-121980885D01*
X157012999Y-121139115D01*
X157013779Y-121125229D01*
X157017749Y-121090000D01*
X157017749Y-121089999D01*
X157013779Y-121054768D01*
X157012999Y-121040883D01*
X157012999Y-120199117D01*
X157013779Y-120185232D01*
X157017749Y-120150000D01*
X157017749Y-120145997D01*
X157018481Y-120143503D01*
X157018529Y-120143079D01*
X157018603Y-120143087D01*
X157037434Y-120078958D01*
X157090238Y-120033203D01*
X157127866Y-120022777D01*
X157211235Y-120013384D01*
X157211238Y-120013383D01*
X157211240Y-120013383D01*
X157381507Y-119953804D01*
X157534247Y-119857831D01*
X157661801Y-119730277D01*
X157757774Y-119577537D01*
X157817353Y-119407270D01*
X157817507Y-119405909D01*
X157838066Y-119223434D01*
X157865132Y-119159020D01*
X157922727Y-119119465D01*
X157947400Y-119114097D01*
X157996570Y-119108557D01*
X158069250Y-119100369D01*
X158069253Y-119100368D01*
X158069255Y-119100368D01*
X158239522Y-119040789D01*
X158392262Y-118944816D01*
X158519816Y-118817262D01*
X158615789Y-118664522D01*
X158675368Y-118494255D01*
X158678122Y-118469815D01*
X158695565Y-118315003D01*
X158695565Y-118314996D01*
X158675369Y-118135750D01*
X158675368Y-118135745D01*
X158624935Y-117991617D01*
X158615789Y-117965478D01*
X158610569Y-117957171D01*
X158565015Y-117884672D01*
X158519816Y-117812738D01*
X158392262Y-117685184D01*
X158330821Y-117646578D01*
X158239523Y-117589211D01*
X158069254Y-117529631D01*
X158069249Y-117529630D01*
X157890004Y-117509435D01*
X157889996Y-117509435D01*
X157710750Y-117529630D01*
X157710745Y-117529631D01*
X157540476Y-117589211D01*
X157387737Y-117685184D01*
X157260184Y-117812737D01*
X157164211Y-117965476D01*
X157104631Y-118135745D01*
X157103083Y-118142532D01*
X157101797Y-118142238D01*
X157077592Y-118199821D01*
X157019992Y-118239368D01*
X156950154Y-118241496D01*
X156893769Y-118209191D01*
X156819762Y-118135184D01*
X156667023Y-118039211D01*
X156496754Y-117979631D01*
X156496749Y-117979630D01*
X156317504Y-117959435D01*
X156317496Y-117959435D01*
X156248383Y-117967222D01*
X156179561Y-117955167D01*
X156128182Y-117907818D01*
X156110500Y-117844002D01*
X156110500Y-117697412D01*
X156130185Y-117630373D01*
X156137555Y-117620097D01*
X156139810Y-117617267D01*
X156139816Y-117617262D01*
X156235789Y-117464522D01*
X156295368Y-117294255D01*
X156301623Y-117238739D01*
X156315565Y-117115003D01*
X156315565Y-117114996D01*
X156295369Y-116935750D01*
X156295368Y-116935745D01*
X156282926Y-116900189D01*
X156235789Y-116765478D01*
X156225595Y-116749255D01*
X156139815Y-116612737D01*
X156012262Y-116485184D01*
X155859523Y-116389211D01*
X155689254Y-116329631D01*
X155689249Y-116329630D01*
X155510004Y-116309435D01*
X155509996Y-116309435D01*
X155330750Y-116329630D01*
X155330745Y-116329631D01*
X155160476Y-116389211D01*
X155007737Y-116485184D01*
X154880184Y-116612737D01*
X154784211Y-116765476D01*
X154724631Y-116935745D01*
X154724630Y-116935750D01*
X154704435Y-117114996D01*
X154704435Y-117115003D01*
X154724630Y-117294249D01*
X154724631Y-117294254D01*
X154784212Y-117464525D01*
X154825714Y-117530576D01*
X154844714Y-117597812D01*
X154824346Y-117664648D01*
X154771078Y-117709861D01*
X154734604Y-117719767D01*
X154699807Y-117723687D01*
X154529535Y-117783267D01*
X154376794Y-117879241D01*
X154249241Y-118006794D01*
X154153268Y-118159533D01*
X154093688Y-118329802D01*
X154093687Y-118329807D01*
X154073492Y-118509053D01*
X152376569Y-118509053D01*
X152331297Y-118387671D01*
X152331293Y-118387664D01*
X152245047Y-118272455D01*
X152245044Y-118272452D01*
X152129835Y-118186206D01*
X152129828Y-118186202D01*
X151994982Y-118135908D01*
X151994983Y-118135908D01*
X151935383Y-118129501D01*
X151935381Y-118129500D01*
X151935373Y-118129500D01*
X151935365Y-118129500D01*
X150461703Y-118129500D01*
X150394664Y-118109815D01*
X150348909Y-118057011D01*
X150338483Y-117991617D01*
X150355565Y-117840003D01*
X150355565Y-117839996D01*
X150335369Y-117660750D01*
X150335368Y-117660745D01*
X150289820Y-117530576D01*
X150275789Y-117490478D01*
X150259480Y-117464523D01*
X150214053Y-117392226D01*
X150179816Y-117337738D01*
X150052262Y-117210184D01*
X150048942Y-117208098D01*
X149899523Y-117114211D01*
X149729254Y-117054631D01*
X149729249Y-117054630D01*
X149550004Y-117034435D01*
X149549996Y-117034435D01*
X149370750Y-117054630D01*
X149370745Y-117054631D01*
X149200477Y-117114211D01*
X149142734Y-117150494D01*
X149076762Y-117169500D01*
X147300097Y-117169500D01*
X147233058Y-117149815D01*
X147212416Y-117133181D01*
X146630700Y-116551465D01*
X146597215Y-116490142D01*
X146595163Y-116477686D01*
X146585368Y-116390745D01*
X146525789Y-116220478D01*
X146429816Y-116067738D01*
X146302262Y-115940184D01*
X146149523Y-115844211D01*
X145979254Y-115784631D01*
X145979249Y-115784630D01*
X145800004Y-115764435D01*
X145799996Y-115764435D01*
X145620750Y-115784630D01*
X145620745Y-115784631D01*
X145450476Y-115844211D01*
X145297737Y-115940184D01*
X145170184Y-116067737D01*
X145074211Y-116220476D01*
X145014631Y-116390745D01*
X145014630Y-116390750D01*
X144994435Y-116569996D01*
X142760500Y-116569996D01*
X142760500Y-114851940D01*
X142780185Y-114784901D01*
X142832989Y-114739146D01*
X142902147Y-114729202D01*
X142965703Y-114758227D01*
X142972181Y-114764259D01*
X142977738Y-114769816D01*
X143068080Y-114826582D01*
X143125827Y-114862867D01*
X143130478Y-114865789D01*
X143251682Y-114908200D01*
X143300745Y-114925368D01*
X143300750Y-114925369D01*
X143479996Y-114945565D01*
X143480000Y-114945565D01*
X143480004Y-114945565D01*
X143659249Y-114925369D01*
X143659252Y-114925368D01*
X143659255Y-114925368D01*
X143829522Y-114865789D01*
X143982262Y-114769816D01*
X144109816Y-114642262D01*
X144205789Y-114489522D01*
X144265368Y-114319255D01*
X144267537Y-114300003D01*
X144267538Y-114299996D01*
X145114435Y-114299996D01*
X145114435Y-114300003D01*
X145134630Y-114479249D01*
X145134631Y-114479254D01*
X145194211Y-114649523D01*
X145262515Y-114758227D01*
X145290184Y-114802262D01*
X145417738Y-114929816D01*
X145570478Y-115025789D01*
X145713556Y-115075854D01*
X145740745Y-115085368D01*
X145740750Y-115085369D01*
X145919996Y-115105565D01*
X145920000Y-115105565D01*
X145920004Y-115105565D01*
X146099249Y-115085369D01*
X146099252Y-115085368D01*
X146099255Y-115085368D01*
X146269522Y-115025789D01*
X146422262Y-114929816D01*
X146549816Y-114802262D01*
X146645789Y-114649522D01*
X146705368Y-114479255D01*
X146711253Y-114427023D01*
X146725565Y-114300003D01*
X146725565Y-114299996D01*
X146705369Y-114120750D01*
X146705368Y-114120745D01*
X146690236Y-114077500D01*
X146645789Y-113950478D01*
X146549816Y-113797738D01*
X146422262Y-113670184D01*
X146370623Y-113637737D01*
X146269523Y-113574211D01*
X146099254Y-113514631D01*
X146099249Y-113514630D01*
X145920004Y-113494435D01*
X145919996Y-113494435D01*
X145740750Y-113514630D01*
X145740745Y-113514631D01*
X145570476Y-113574211D01*
X145417737Y-113670184D01*
X145290184Y-113797737D01*
X145194211Y-113950476D01*
X145134631Y-114120745D01*
X145134630Y-114120750D01*
X145114435Y-114299996D01*
X144267538Y-114299996D01*
X144285565Y-114140003D01*
X144285565Y-114139996D01*
X144265369Y-113960750D01*
X144265368Y-113960745D01*
X144205788Y-113790476D01*
X144162020Y-113720820D01*
X144109816Y-113637738D01*
X143982262Y-113510184D01*
X143882118Y-113447259D01*
X143829523Y-113414211D01*
X143659254Y-113354631D01*
X143659249Y-113354630D01*
X143480004Y-113334435D01*
X143479996Y-113334435D01*
X143300750Y-113354630D01*
X143300745Y-113354631D01*
X143130476Y-113414211D01*
X142977737Y-113510184D01*
X142972181Y-113515741D01*
X142910858Y-113549226D01*
X142841166Y-113544242D01*
X142785233Y-113502370D01*
X142760816Y-113436906D01*
X142760500Y-113428060D01*
X142760500Y-109318804D01*
X143189500Y-109318804D01*
X143189500Y-109496195D01*
X143224103Y-109670158D01*
X143224106Y-109670167D01*
X143291983Y-109834040D01*
X143291990Y-109834053D01*
X143390535Y-109981534D01*
X143390538Y-109981538D01*
X143515961Y-110106961D01*
X143515965Y-110106964D01*
X143663446Y-110205509D01*
X143663459Y-110205516D01*
X143770411Y-110249816D01*
X143827334Y-110273394D01*
X143827336Y-110273394D01*
X143827341Y-110273396D01*
X144001304Y-110307999D01*
X144001307Y-110308000D01*
X144001309Y-110308000D01*
X144778693Y-110308000D01*
X144778694Y-110307999D01*
X144836682Y-110296464D01*
X144952658Y-110273396D01*
X144952661Y-110273394D01*
X144952666Y-110273394D01*
X145116547Y-110205513D01*
X145264035Y-110106964D01*
X145389464Y-109981535D01*
X145488013Y-109834047D01*
X145555894Y-109670166D01*
X145556408Y-109667585D01*
X145589369Y-109501877D01*
X145590500Y-109496191D01*
X145590500Y-109318809D01*
X145590500Y-109318806D01*
X145590499Y-109318804D01*
X145555896Y-109144841D01*
X145555893Y-109144832D01*
X145488016Y-108980959D01*
X145488009Y-108980946D01*
X145389464Y-108833465D01*
X145389461Y-108833461D01*
X145264038Y-108708038D01*
X145264034Y-108708035D01*
X145116553Y-108609490D01*
X145116540Y-108609483D01*
X144952667Y-108541606D01*
X144952658Y-108541603D01*
X144778694Y-108507000D01*
X144778691Y-108507000D01*
X144001309Y-108507000D01*
X144001306Y-108507000D01*
X143827341Y-108541603D01*
X143827332Y-108541606D01*
X143663459Y-108609483D01*
X143663446Y-108609490D01*
X143515965Y-108708035D01*
X143515961Y-108708038D01*
X143390538Y-108833461D01*
X143390535Y-108833465D01*
X143291990Y-108980946D01*
X143291983Y-108980959D01*
X143224106Y-109144832D01*
X143224103Y-109144841D01*
X143189500Y-109318804D01*
X142760500Y-109318804D01*
X142760500Y-100338804D01*
X143189500Y-100338804D01*
X143189500Y-100516195D01*
X143224103Y-100690158D01*
X143224106Y-100690167D01*
X143291983Y-100854040D01*
X143291990Y-100854053D01*
X143390535Y-101001534D01*
X143390538Y-101001538D01*
X143515961Y-101126961D01*
X143515965Y-101126964D01*
X143663446Y-101225509D01*
X143663459Y-101225516D01*
X143756686Y-101264131D01*
X143827334Y-101293394D01*
X143827336Y-101293394D01*
X143827341Y-101293396D01*
X144001304Y-101327999D01*
X144001307Y-101328000D01*
X144001309Y-101328000D01*
X144778693Y-101328000D01*
X144778694Y-101327999D01*
X144836682Y-101316464D01*
X144952658Y-101293396D01*
X144952661Y-101293394D01*
X144952666Y-101293394D01*
X145116547Y-101225513D01*
X145264035Y-101126964D01*
X145389464Y-101001535D01*
X145488013Y-100854047D01*
X145555894Y-100690166D01*
X145558763Y-100675746D01*
X145578964Y-100574182D01*
X145590500Y-100516191D01*
X145590500Y-100338809D01*
X145590500Y-100338806D01*
X145590499Y-100338804D01*
X145555896Y-100164841D01*
X145555893Y-100164832D01*
X145488016Y-100000959D01*
X145488009Y-100000946D01*
X145389464Y-99853465D01*
X145389461Y-99853461D01*
X145264038Y-99728038D01*
X145264034Y-99728035D01*
X145116553Y-99629490D01*
X145116540Y-99629483D01*
X144952667Y-99561606D01*
X144952658Y-99561603D01*
X144778694Y-99527000D01*
X144778691Y-99527000D01*
X144001309Y-99527000D01*
X144001306Y-99527000D01*
X143827341Y-99561603D01*
X143827332Y-99561606D01*
X143663459Y-99629483D01*
X143663446Y-99629490D01*
X143515965Y-99728035D01*
X143515961Y-99728038D01*
X143390538Y-99853461D01*
X143390535Y-99853465D01*
X143291990Y-100000946D01*
X143291983Y-100000959D01*
X143224106Y-100164832D01*
X143224103Y-100164841D01*
X143189500Y-100338804D01*
X142760500Y-100338804D01*
X142760500Y-93874500D01*
X142780185Y-93807461D01*
X142832989Y-93761706D01*
X142884500Y-93750500D01*
X191635500Y-93750500D01*
X191702539Y-93770185D01*
G37*
G04 #@! TD.AperFunction*
G04 #@! TA.AperFunction,NonConductor*
G36*
X187474951Y-103792694D02*
G01*
X187507179Y-103854688D01*
X187509500Y-103878569D01*
X187509500Y-108169901D01*
X187489815Y-108236940D01*
X187473181Y-108257582D01*
X187327181Y-108403582D01*
X187265858Y-108437067D01*
X187196166Y-108432083D01*
X187140233Y-108390211D01*
X187115816Y-108324747D01*
X187115500Y-108315901D01*
X187115500Y-103927871D01*
X187135185Y-103860832D01*
X187187989Y-103815077D01*
X187212767Y-103808231D01*
X187212468Y-103806917D01*
X187219251Y-103805368D01*
X187219255Y-103805368D01*
X187219258Y-103805366D01*
X187219262Y-103805366D01*
X187344545Y-103761528D01*
X187414324Y-103757966D01*
X187474951Y-103792694D01*
G37*
G04 #@! TD.AperFunction*
G04 #@! TA.AperFunction,NonConductor*
G36*
X184638834Y-108282915D02*
G01*
X184694767Y-108324787D01*
X184719184Y-108390251D01*
X184719500Y-108399097D01*
X184719500Y-108759902D01*
X184699815Y-108826941D01*
X184683181Y-108847583D01*
X173981465Y-119549298D01*
X173920142Y-119582783D01*
X173907668Y-119584837D01*
X173820750Y-119594630D01*
X173650469Y-119654213D01*
X173648293Y-119655262D01*
X173646747Y-119655516D01*
X173643905Y-119656511D01*
X173643730Y-119656012D01*
X173579351Y-119666609D01*
X173515219Y-119638882D01*
X173476257Y-119580884D01*
X173470500Y-119543538D01*
X173470500Y-119400097D01*
X173490185Y-119333058D01*
X173506819Y-119312416D01*
X184507819Y-108311416D01*
X184569142Y-108277931D01*
X184638834Y-108282915D01*
G37*
G04 #@! TD.AperFunction*
G04 #@! TA.AperFunction,NonConductor*
G36*
X160719855Y-96089046D02*
G01*
X160736575Y-96108342D01*
X160866501Y-96293896D01*
X160866506Y-96293902D01*
X161033597Y-96460993D01*
X161033603Y-96460998D01*
X161219158Y-96590925D01*
X161262783Y-96645502D01*
X161269977Y-96715000D01*
X161238454Y-96777355D01*
X161219158Y-96794075D01*
X161033600Y-96924003D01*
X160911673Y-97045930D01*
X160850350Y-97079414D01*
X160780658Y-97074430D01*
X160724725Y-97032558D01*
X160707810Y-97001581D01*
X160658797Y-96870171D01*
X160658793Y-96870164D01*
X160572547Y-96754955D01*
X160572544Y-96754952D01*
X160457335Y-96668706D01*
X160457328Y-96668702D01*
X160325917Y-96619689D01*
X160269983Y-96577818D01*
X160245566Y-96512353D01*
X160260418Y-96444080D01*
X160281563Y-96415832D01*
X160403495Y-96293901D01*
X160533425Y-96108342D01*
X160588002Y-96064717D01*
X160657500Y-96057523D01*
X160719855Y-96089046D01*
G37*
G04 #@! TD.AperFunction*
G04 #@! TA.AperFunction,NonConductor*
G36*
X160883418Y-98857917D02*
G01*
X160911673Y-98879069D01*
X161033599Y-99000995D01*
X161130384Y-99068765D01*
X161227165Y-99136532D01*
X161227167Y-99136533D01*
X161227170Y-99136535D01*
X161441337Y-99236403D01*
X161441343Y-99236404D01*
X161441344Y-99236405D01*
X161496285Y-99251126D01*
X161669592Y-99297563D01*
X161846034Y-99313000D01*
X161904999Y-99318159D01*
X161905000Y-99318159D01*
X161905001Y-99318159D01*
X161963966Y-99313000D01*
X162140408Y-99297563D01*
X162368663Y-99236403D01*
X162582830Y-99136535D01*
X162755147Y-99015876D01*
X162821350Y-98993551D01*
X162889118Y-99010561D01*
X162913949Y-99029772D01*
X164559923Y-100675746D01*
X164593408Y-100737069D01*
X164588424Y-100806761D01*
X164546552Y-100862694D01*
X164538214Y-100868421D01*
X164380237Y-100967685D01*
X164377404Y-100969945D01*
X164375225Y-100970834D01*
X164374343Y-100971389D01*
X164374245Y-100971234D01*
X164312718Y-100996355D01*
X164300089Y-100997000D01*
X162367598Y-100997000D01*
X162300559Y-100977315D01*
X162279917Y-100960681D01*
X161700700Y-100381465D01*
X161667215Y-100320142D01*
X161665163Y-100307686D01*
X161655368Y-100220745D01*
X161595789Y-100050478D01*
X161499816Y-99897738D01*
X161372262Y-99770184D01*
X161305184Y-99728036D01*
X161219521Y-99674210D01*
X161049249Y-99614630D01*
X160962330Y-99604837D01*
X160897916Y-99577770D01*
X160888533Y-99569298D01*
X160612876Y-99293641D01*
X160579391Y-99232318D01*
X160584375Y-99162626D01*
X160601290Y-99131649D01*
X160615803Y-99112262D01*
X160658796Y-99054831D01*
X160707810Y-98923416D01*
X160749681Y-98867484D01*
X160815145Y-98843066D01*
X160883418Y-98857917D01*
G37*
G04 #@! TD.AperFunction*
G04 #@! TA.AperFunction,NonConductor*
G36*
X151429754Y-97824836D02*
G01*
X151474102Y-97853337D01*
X153136769Y-99516004D01*
X153170254Y-99577327D01*
X153165270Y-99647019D01*
X153123398Y-99702952D01*
X153057934Y-99727369D01*
X153008134Y-99720727D01*
X152869257Y-99672132D01*
X152869249Y-99672130D01*
X152690004Y-99651935D01*
X152689996Y-99651935D01*
X152510750Y-99672130D01*
X152510745Y-99672131D01*
X152340476Y-99731711D01*
X152187737Y-99827684D01*
X152060184Y-99955237D01*
X151964211Y-100107976D01*
X151904631Y-100278245D01*
X151904630Y-100278250D01*
X151884435Y-100457496D01*
X151884435Y-100457503D01*
X151904630Y-100636749D01*
X151904632Y-100636756D01*
X151912479Y-100659183D01*
X151916039Y-100728962D01*
X151881308Y-100789589D01*
X151819314Y-100821814D01*
X151763345Y-100819910D01*
X151678778Y-100797250D01*
X151659180Y-100791999D01*
X151651123Y-100790939D01*
X151651348Y-100789224D01*
X151593762Y-100772315D01*
X151548007Y-100719511D01*
X151539184Y-100692191D01*
X151505896Y-100524841D01*
X151505893Y-100524832D01*
X151438016Y-100360959D01*
X151438009Y-100360946D01*
X151339464Y-100213465D01*
X151339461Y-100213461D01*
X151214038Y-100088038D01*
X151214034Y-100088035D01*
X151066553Y-99989490D01*
X151066540Y-99989483D01*
X150902667Y-99921606D01*
X150902658Y-99921603D01*
X150728694Y-99887000D01*
X150728691Y-99887000D01*
X149951309Y-99887000D01*
X149951306Y-99887000D01*
X149777341Y-99921603D01*
X149777332Y-99921606D01*
X149613459Y-99989483D01*
X149613446Y-99989490D01*
X149465965Y-100088035D01*
X149465961Y-100088038D01*
X149340538Y-100213461D01*
X149340535Y-100213465D01*
X149241990Y-100360946D01*
X149241983Y-100360959D01*
X149174106Y-100524832D01*
X149174103Y-100524841D01*
X149139500Y-100698804D01*
X149139500Y-100876195D01*
X149174103Y-101050158D01*
X149174106Y-101050167D01*
X149241983Y-101214040D01*
X149241990Y-101214053D01*
X149340535Y-101361534D01*
X149340538Y-101361538D01*
X149465961Y-101486961D01*
X149465965Y-101486964D01*
X149613446Y-101585509D01*
X149613453Y-101585513D01*
X149730454Y-101633976D01*
X149784856Y-101677815D01*
X149806922Y-101744109D01*
X149789643Y-101811808D01*
X149755887Y-101848853D01*
X149684593Y-101900652D01*
X149684589Y-101900655D01*
X149568477Y-102029612D01*
X149481712Y-102179891D01*
X149435121Y-102323289D01*
X149428092Y-102344924D01*
X149409953Y-102517500D01*
X149428092Y-102690076D01*
X149428093Y-102690079D01*
X149481713Y-102855110D01*
X149481717Y-102855120D01*
X149481944Y-102855512D01*
X149482005Y-102855767D01*
X149484359Y-102861053D01*
X149483391Y-102861483D01*
X149498409Y-102923414D01*
X149483662Y-102973636D01*
X149484359Y-102973947D01*
X149482044Y-102979146D01*
X149481944Y-102979488D01*
X149481717Y-102979879D01*
X149481713Y-102979889D01*
X149435883Y-103120945D01*
X149428092Y-103144924D01*
X149409953Y-103317500D01*
X149428092Y-103490076D01*
X149428093Y-103490079D01*
X149481713Y-103655110D01*
X149481717Y-103655120D01*
X149481944Y-103655512D01*
X149482005Y-103655767D01*
X149484359Y-103661053D01*
X149483391Y-103661483D01*
X149498409Y-103723414D01*
X149483662Y-103773636D01*
X149484359Y-103773947D01*
X149482044Y-103779146D01*
X149481944Y-103779488D01*
X149481717Y-103779879D01*
X149481713Y-103779889D01*
X149428093Y-103944920D01*
X149428092Y-103944924D01*
X149409953Y-104117500D01*
X149428092Y-104290076D01*
X149428093Y-104290079D01*
X149481712Y-104455108D01*
X149568477Y-104605387D01*
X149568476Y-104605387D01*
X149681349Y-104730745D01*
X149684590Y-104734345D01*
X149786304Y-104808245D01*
X149798605Y-104817182D01*
X149841270Y-104872512D01*
X149847249Y-104942126D01*
X149814643Y-105003921D01*
X149798605Y-105017818D01*
X149684587Y-105100656D01*
X149684586Y-105100658D01*
X149684446Y-105100814D01*
X149684342Y-105100877D01*
X149679762Y-105105002D01*
X149679007Y-105104164D01*
X149624958Y-105137459D01*
X149624396Y-105137611D01*
X149548603Y-105157920D01*
X149548596Y-105157923D01*
X149450107Y-105214785D01*
X149382206Y-105231256D01*
X149316180Y-105208404D01*
X149272990Y-105153482D01*
X149264888Y-105093513D01*
X149285565Y-104910002D01*
X149285565Y-104909996D01*
X149265369Y-104730750D01*
X149265368Y-104730745D01*
X149241063Y-104661286D01*
X149205789Y-104560478D01*
X149198878Y-104549480D01*
X149166582Y-104498080D01*
X149109816Y-104407738D01*
X148982262Y-104280184D01*
X148975100Y-104275684D01*
X148829523Y-104184211D01*
X148659254Y-104124631D01*
X148659249Y-104124630D01*
X148480004Y-104104435D01*
X148479997Y-104104435D01*
X148478371Y-104104618D01*
X148477327Y-104104435D01*
X148473037Y-104104435D01*
X148473037Y-104103683D01*
X148409550Y-104092556D01*
X148358176Y-104045202D01*
X148340500Y-103981396D01*
X148340500Y-100580096D01*
X148360185Y-100513057D01*
X148376814Y-100492420D01*
X150698535Y-98170698D01*
X150759856Y-98137215D01*
X150772311Y-98135163D01*
X150859255Y-98125368D01*
X151029522Y-98065789D01*
X151182262Y-97969816D01*
X151298743Y-97853334D01*
X151360062Y-97819852D01*
X151429754Y-97824836D01*
G37*
G04 #@! TD.AperFunction*
G04 #@! TA.AperFunction,NonConductor*
G36*
X152305473Y-101161294D02*
G01*
X152340475Y-101183288D01*
X152510745Y-101242868D01*
X152510750Y-101242869D01*
X152552625Y-101247587D01*
X152617039Y-101274653D01*
X152656595Y-101332247D01*
X152658734Y-101402084D01*
X152622776Y-101461991D01*
X152604719Y-101475799D01*
X152597738Y-101480185D01*
X152470186Y-101607737D01*
X152374213Y-101760476D01*
X152314633Y-101930745D01*
X152314632Y-101930750D01*
X152294437Y-102109996D01*
X152294437Y-102110003D01*
X152314632Y-102289249D01*
X152314633Y-102289254D01*
X152374213Y-102459523D01*
X152410643Y-102517500D01*
X152465867Y-102605389D01*
X152470187Y-102612263D01*
X152472447Y-102615097D01*
X152473336Y-102617275D01*
X152473891Y-102618158D01*
X152473736Y-102618255D01*
X152498857Y-102679783D01*
X152499502Y-102692412D01*
X152499502Y-106043332D01*
X152499501Y-106043350D01*
X152499501Y-106110904D01*
X152479816Y-106177943D01*
X152427012Y-106223698D01*
X152357854Y-106233642D01*
X152294298Y-106204617D01*
X152287820Y-106198585D01*
X152201819Y-106112584D01*
X152168334Y-106051261D01*
X152165500Y-106024903D01*
X152165500Y-105947676D01*
X152165501Y-105947663D01*
X152165501Y-105779560D01*
X152148353Y-105715565D01*
X152124577Y-105626832D01*
X152074339Y-105539816D01*
X152045524Y-105489906D01*
X152045518Y-105489898D01*
X151967882Y-105412262D01*
X151788989Y-105233370D01*
X151755505Y-105172048D01*
X151753350Y-105158646D01*
X151751908Y-105144925D01*
X151749482Y-105137459D01*
X151698286Y-104979889D01*
X151698065Y-104979507D01*
X151698005Y-104979259D01*
X151695642Y-104973951D01*
X151696612Y-104973518D01*
X151681588Y-104911610D01*
X151696342Y-104861360D01*
X151695642Y-104861049D01*
X151697968Y-104855824D01*
X151698065Y-104855493D01*
X151698286Y-104855111D01*
X151751908Y-104690076D01*
X151770047Y-104517500D01*
X151751908Y-104344924D01*
X151698286Y-104179889D01*
X151698065Y-104179507D01*
X151698005Y-104179259D01*
X151695642Y-104173951D01*
X151696612Y-104173518D01*
X151681588Y-104111610D01*
X151696342Y-104061360D01*
X151695642Y-104061049D01*
X151697968Y-104055824D01*
X151698065Y-104055493D01*
X151698286Y-104055111D01*
X151751908Y-103890076D01*
X151770047Y-103717500D01*
X151751908Y-103544924D01*
X151704880Y-103400184D01*
X151698287Y-103379891D01*
X151669206Y-103329522D01*
X151611522Y-103229611D01*
X151495410Y-103100655D01*
X151495408Y-103100653D01*
X151412508Y-103040423D01*
X151381394Y-103017817D01*
X151338729Y-102962488D01*
X151332750Y-102892875D01*
X151365356Y-102831080D01*
X151381395Y-102817182D01*
X151386840Y-102813226D01*
X151495410Y-102734345D01*
X151611522Y-102605389D01*
X151698286Y-102455111D01*
X151751908Y-102290076D01*
X151770047Y-102117500D01*
X151751908Y-101944924D01*
X151751718Y-101944342D01*
X151751708Y-101943989D01*
X151750556Y-101938565D01*
X151751547Y-101938354D01*
X151749722Y-101874503D01*
X151785800Y-101814669D01*
X151807642Y-101798639D01*
X151912665Y-101738005D01*
X152010505Y-101640165D01*
X152079688Y-101520336D01*
X152115500Y-101386683D01*
X152115500Y-101266287D01*
X152135185Y-101199248D01*
X152187989Y-101153493D01*
X152257147Y-101143549D01*
X152305473Y-101161294D01*
G37*
G04 #@! TD.AperFunction*
G04 #@! TA.AperFunction,NonConductor*
G36*
X153905705Y-102802886D02*
G01*
X153912183Y-102808918D01*
X155105441Y-104002176D01*
X155138926Y-104063499D01*
X155141760Y-104089857D01*
X155141760Y-104094730D01*
X155122075Y-104161769D01*
X155069271Y-104207524D01*
X155000113Y-104217468D01*
X154976806Y-104211772D01*
X154949257Y-104202132D01*
X154949249Y-104202130D01*
X154770004Y-104181935D01*
X154769996Y-104181935D01*
X154590750Y-104202130D01*
X154590745Y-104202131D01*
X154420476Y-104261711D01*
X154267737Y-104357684D01*
X154140184Y-104485237D01*
X154044211Y-104637976D01*
X153984631Y-104808245D01*
X153984630Y-104808250D01*
X153964435Y-104987496D01*
X153964435Y-104987503D01*
X153984630Y-105166749D01*
X153984631Y-105166754D01*
X154044211Y-105337023D01*
X154091487Y-105412262D01*
X154140184Y-105489762D01*
X154267738Y-105617316D01*
X154420478Y-105713289D01*
X154569917Y-105765580D01*
X154626692Y-105806301D01*
X154652440Y-105871253D01*
X154638984Y-105939815D01*
X154616643Y-105970302D01*
X154339725Y-106247220D01*
X154278402Y-106280705D01*
X154208710Y-106275721D01*
X154152777Y-106233849D01*
X154147050Y-106225511D01*
X154145911Y-106223698D01*
X154071801Y-106105753D01*
X153944247Y-105978199D01*
X153791507Y-105882226D01*
X153783541Y-105879438D01*
X153726768Y-105838715D01*
X153701024Y-105773761D01*
X153700502Y-105762399D01*
X153700502Y-102896599D01*
X153720187Y-102829560D01*
X153772991Y-102783805D01*
X153842149Y-102773861D01*
X153905705Y-102802886D01*
G37*
G04 #@! TD.AperFunction*
G04 #@! TA.AperFunction,NonConductor*
G36*
X168321912Y-104069836D02*
G01*
X168366259Y-104098337D01*
X168370184Y-104102262D01*
X168497738Y-104229816D01*
X168650478Y-104325789D01*
X168820745Y-104385368D01*
X168907669Y-104395161D01*
X168972080Y-104422226D01*
X168981465Y-104430700D01*
X169793181Y-105242416D01*
X169826666Y-105303739D01*
X169829500Y-105330097D01*
X169829500Y-108271514D01*
X169809815Y-108338553D01*
X169757011Y-108384308D01*
X169687853Y-108394252D01*
X169639528Y-108376508D01*
X169618788Y-108363476D01*
X169448519Y-108303896D01*
X169448514Y-108303895D01*
X169269269Y-108283700D01*
X169269266Y-108283700D01*
X169269265Y-108283700D01*
X169239470Y-108287056D01*
X169170649Y-108275001D01*
X169119270Y-108227651D01*
X169102368Y-108177715D01*
X169101103Y-108166480D01*
X169041524Y-107996213D01*
X168945551Y-107843473D01*
X168817997Y-107715919D01*
X168788994Y-107697695D01*
X168742704Y-107645360D01*
X168732057Y-107576306D01*
X168749975Y-107526729D01*
X168783656Y-107473127D01*
X168783657Y-107473125D01*
X168843236Y-107302858D01*
X168844617Y-107290600D01*
X168863433Y-107123606D01*
X168863433Y-107123599D01*
X168843237Y-106944353D01*
X168843236Y-106944348D01*
X168796651Y-106811216D01*
X168783657Y-106774081D01*
X168687684Y-106621341D01*
X168560130Y-106493787D01*
X168478557Y-106442531D01*
X168407391Y-106397814D01*
X168237122Y-106338234D01*
X168237117Y-106338233D01*
X168057872Y-106318038D01*
X168057864Y-106318038D01*
X167878618Y-106338233D01*
X167878613Y-106338234D01*
X167708344Y-106397814D01*
X167555604Y-106493788D01*
X167552771Y-106496048D01*
X167550592Y-106496937D01*
X167549710Y-106497492D01*
X167549612Y-106497337D01*
X167488085Y-106522458D01*
X167475456Y-106523103D01*
X166288516Y-106523103D01*
X166221477Y-106503418D01*
X166175722Y-106450614D01*
X166165778Y-106381456D01*
X166183520Y-106333134D01*
X166185789Y-106329522D01*
X166202871Y-106280705D01*
X166245368Y-106159255D01*
X166255161Y-106072329D01*
X166282226Y-106007918D01*
X166290690Y-105998543D01*
X168190899Y-104098335D01*
X168252220Y-104064852D01*
X168321912Y-104069836D01*
G37*
G04 #@! TD.AperFunction*
G04 #@! TA.AperFunction,NonConductor*
G36*
X149338033Y-107111594D02*
G01*
X149393967Y-107153465D01*
X149418384Y-107218930D01*
X149418021Y-107240737D01*
X149411492Y-107302857D01*
X149409953Y-107317500D01*
X149428092Y-107490076D01*
X149428093Y-107490079D01*
X149481712Y-107655108D01*
X149481714Y-107655111D01*
X149552274Y-107777324D01*
X149568477Y-107805387D01*
X149568476Y-107805387D01*
X149650513Y-107896498D01*
X149684590Y-107934345D01*
X149755888Y-107986146D01*
X149798552Y-108041475D01*
X149804531Y-108111088D01*
X149771925Y-108172883D01*
X149730453Y-108201024D01*
X149613459Y-108249483D01*
X149613446Y-108249490D01*
X149465965Y-108348035D01*
X149465961Y-108348038D01*
X149340538Y-108473461D01*
X149340535Y-108473465D01*
X149241990Y-108620946D01*
X149241983Y-108620959D01*
X149179061Y-108772871D01*
X149135221Y-108827275D01*
X149068927Y-108849340D01*
X149001227Y-108832061D01*
X148953616Y-108780924D01*
X148940500Y-108725419D01*
X148940500Y-107457977D01*
X148960185Y-107390938D01*
X148976815Y-107370300D01*
X149207022Y-107140093D01*
X149268342Y-107106610D01*
X149338033Y-107111594D01*
G37*
G04 #@! TD.AperFunction*
G04 #@! TA.AperFunction,NonConductor*
G36*
X159999903Y-109290185D02*
G01*
X160045658Y-109342989D01*
X160056864Y-109394500D01*
X160056864Y-109788266D01*
X160037179Y-109855305D01*
X159984375Y-109901060D01*
X159915217Y-109911004D01*
X159851661Y-109881979D01*
X159845183Y-109875948D01*
X159767627Y-109798392D01*
X159680698Y-109711463D01*
X159647215Y-109650142D01*
X159645163Y-109637686D01*
X159635368Y-109550745D01*
X159595025Y-109435454D01*
X159591465Y-109365676D01*
X159626194Y-109305048D01*
X159688187Y-109272821D01*
X159712068Y-109270500D01*
X159932864Y-109270500D01*
X159999903Y-109290185D01*
G37*
G04 #@! TD.AperFunction*
G04 #@! TA.AperFunction,NonConductor*
G36*
X156227378Y-106434853D02*
G01*
X156235795Y-106442531D01*
X156309298Y-106516034D01*
X156342783Y-106577357D01*
X156344837Y-106589831D01*
X156354630Y-106676749D01*
X156414210Y-106847021D01*
X156458495Y-106917500D01*
X156510184Y-106999762D01*
X156637738Y-107127316D01*
X156665761Y-107144924D01*
X156783540Y-107218930D01*
X156790478Y-107223289D01*
X156960745Y-107282868D01*
X157029384Y-107290601D01*
X157093796Y-107317666D01*
X157133352Y-107375260D01*
X157139500Y-107413821D01*
X157139500Y-108978044D01*
X157119815Y-109045083D01*
X157067011Y-109090838D01*
X157029384Y-109101264D01*
X156910749Y-109114630D01*
X156910745Y-109114631D01*
X156740476Y-109174211D01*
X156587737Y-109270184D01*
X156460184Y-109397737D01*
X156364211Y-109550476D01*
X156304631Y-109720745D01*
X156304630Y-109720750D01*
X156284435Y-109899996D01*
X156284435Y-109900003D01*
X156304630Y-110079249D01*
X156304631Y-110079254D01*
X156364211Y-110249523D01*
X156436918Y-110365234D01*
X156460184Y-110402262D01*
X156587738Y-110529816D01*
X156740478Y-110625789D01*
X156905129Y-110683403D01*
X156910745Y-110685368D01*
X156910750Y-110685369D01*
X157089996Y-110705565D01*
X157090000Y-110705565D01*
X157090004Y-110705565D01*
X157269249Y-110685369D01*
X157269252Y-110685368D01*
X157269255Y-110685368D01*
X157439522Y-110625789D01*
X157592262Y-110529816D01*
X157719816Y-110402262D01*
X157815789Y-110249522D01*
X157875368Y-110079255D01*
X157875369Y-110079249D01*
X157875370Y-110079246D01*
X157876920Y-110072459D01*
X157878710Y-110072867D01*
X157902183Y-110016985D01*
X157959772Y-109977422D01*
X158029609Y-109975274D01*
X158089520Y-110011224D01*
X158115389Y-110054313D01*
X158124209Y-110079520D01*
X158151066Y-110122262D01*
X158220184Y-110232262D01*
X158347738Y-110359816D01*
X158500478Y-110455789D01*
X158670745Y-110515368D01*
X158757669Y-110525161D01*
X158822080Y-110552226D01*
X158831465Y-110560700D01*
X159433181Y-111162416D01*
X159466666Y-111223739D01*
X159469500Y-111250097D01*
X159469500Y-112935500D01*
X159449815Y-113002539D01*
X159397011Y-113048294D01*
X159345500Y-113059500D01*
X154765646Y-113059500D01*
X154698607Y-113039815D01*
X154652852Y-112987011D01*
X154642908Y-112917853D01*
X154660652Y-112869528D01*
X154685788Y-112829523D01*
X154685789Y-112829522D01*
X154745368Y-112659255D01*
X154765337Y-112482023D01*
X154765565Y-112480003D01*
X154765565Y-112479996D01*
X154745369Y-112300750D01*
X154745368Y-112300745D01*
X154701307Y-112174827D01*
X154685789Y-112130478D01*
X154589816Y-111977738D01*
X154462262Y-111850184D01*
X154309523Y-111754211D01*
X154139254Y-111694631D01*
X154139249Y-111694630D01*
X153960004Y-111674435D01*
X153959996Y-111674435D01*
X153780750Y-111694630D01*
X153780745Y-111694631D01*
X153610476Y-111754211D01*
X153457737Y-111850184D01*
X153330184Y-111977737D01*
X153234211Y-112130476D01*
X153174631Y-112300745D01*
X153174630Y-112300750D01*
X153154435Y-112479996D01*
X153154435Y-112480003D01*
X153174630Y-112659249D01*
X153174631Y-112659254D01*
X153234211Y-112829523D01*
X153259348Y-112869528D01*
X153278348Y-112936765D01*
X153257980Y-113003600D01*
X153204712Y-113048814D01*
X153154354Y-113059500D01*
X150584068Y-113059500D01*
X150517029Y-113039815D01*
X150496387Y-113023181D01*
X148990791Y-111517585D01*
X148957306Y-111456262D01*
X148962290Y-111386570D01*
X148973475Y-111363937D01*
X149045007Y-111250097D01*
X149065788Y-111217024D01*
X149072188Y-111198735D01*
X149125368Y-111046755D01*
X149125369Y-111046749D01*
X149145565Y-110867503D01*
X149145565Y-110867496D01*
X149125369Y-110688250D01*
X149125368Y-110688245D01*
X149065788Y-110517976D01*
X148995031Y-110405368D01*
X148969816Y-110365238D01*
X148969814Y-110365236D01*
X148969813Y-110365234D01*
X148967550Y-110362396D01*
X148966659Y-110360215D01*
X148966111Y-110359342D01*
X148966264Y-110359245D01*
X148941144Y-110297709D01*
X148940500Y-110285087D01*
X148940500Y-109369580D01*
X148960185Y-109302541D01*
X149012989Y-109256786D01*
X149082147Y-109246842D01*
X149145703Y-109275867D01*
X149179061Y-109322128D01*
X149241983Y-109474041D01*
X149241990Y-109474053D01*
X149340535Y-109621534D01*
X149340538Y-109621538D01*
X149465961Y-109746961D01*
X149465965Y-109746964D01*
X149613446Y-109845509D01*
X149613459Y-109845516D01*
X149713494Y-109886951D01*
X149777334Y-109913394D01*
X149777336Y-109913394D01*
X149777341Y-109913396D01*
X149951304Y-109947999D01*
X149951307Y-109948000D01*
X149951309Y-109948000D01*
X150728693Y-109948000D01*
X150728694Y-109947999D01*
X150786682Y-109936464D01*
X150902658Y-109913396D01*
X150902661Y-109913394D01*
X150902666Y-109913394D01*
X151066547Y-109845513D01*
X151214035Y-109746964D01*
X151339464Y-109621535D01*
X151438013Y-109474047D01*
X151505894Y-109310166D01*
X151509347Y-109292809D01*
X151541732Y-109230898D01*
X151602447Y-109196324D01*
X151630964Y-109193000D01*
X151659181Y-109193000D01*
X151659183Y-109193000D01*
X151792836Y-109157188D01*
X151912665Y-109088005D01*
X152010505Y-108990165D01*
X152079688Y-108870336D01*
X152115500Y-108736683D01*
X152115500Y-108298317D01*
X152079688Y-108164664D01*
X152010505Y-108044835D01*
X151912665Y-107946995D01*
X151912664Y-107946994D01*
X151912661Y-107946992D01*
X151825203Y-107896498D01*
X151776987Y-107845931D01*
X151763765Y-107777324D01*
X151763882Y-107776149D01*
X151770047Y-107717496D01*
X151766926Y-107687807D01*
X151779494Y-107619077D01*
X151827225Y-107568052D01*
X151894965Y-107550933D01*
X151961206Y-107573154D01*
X151977927Y-107587162D01*
X152335139Y-107944374D01*
X152335149Y-107944385D01*
X152339479Y-107948715D01*
X152339480Y-107948716D01*
X152451284Y-108060520D01*
X152511451Y-108095257D01*
X152588215Y-108139577D01*
X152740943Y-108180501D01*
X152740946Y-108180501D01*
X152906653Y-108180501D01*
X152906669Y-108180500D01*
X153769513Y-108180500D01*
X153769529Y-108180501D01*
X153777125Y-108180501D01*
X153935236Y-108180501D01*
X153935239Y-108180501D01*
X154087967Y-108139577D01*
X154164731Y-108095257D01*
X154224898Y-108060520D01*
X154336702Y-107948716D01*
X154336702Y-107948714D01*
X154346906Y-107938511D01*
X154346910Y-107938506D01*
X155760795Y-106524620D01*
X155822116Y-106491137D01*
X155834571Y-106489085D01*
X155921515Y-106479290D01*
X156091782Y-106419711D01*
X156091785Y-106419709D01*
X156094300Y-106418498D01*
X156096094Y-106418202D01*
X156098356Y-106417411D01*
X156098494Y-106417806D01*
X156163240Y-106407138D01*
X156227378Y-106434853D01*
G37*
G04 #@! TD.AperFunction*
G04 #@! TA.AperFunction,NonConductor*
G36*
X168753892Y-109709450D02*
G01*
X168764168Y-109716820D01*
X168767001Y-109719079D01*
X168767003Y-109719081D01*
X168912521Y-109810516D01*
X168919745Y-109815055D01*
X169055341Y-109862503D01*
X169112117Y-109903224D01*
X169137864Y-109968177D01*
X169124408Y-110036739D01*
X169102067Y-110067225D01*
X166502611Y-112666682D01*
X166441288Y-112700167D01*
X166371596Y-112695183D01*
X166315663Y-112653311D01*
X166291246Y-112587847D01*
X166291710Y-112565118D01*
X166301300Y-112480003D01*
X166301300Y-112479996D01*
X166281104Y-112300750D01*
X166281103Y-112300745D01*
X166237042Y-112174827D01*
X166221524Y-112130478D01*
X166125551Y-111977738D01*
X165997997Y-111850184D01*
X165922400Y-111802683D01*
X165876111Y-111750350D01*
X165865463Y-111681297D01*
X165893838Y-111617449D01*
X165900681Y-111610022D01*
X165904270Y-111606433D01*
X165965591Y-111572950D01*
X165978046Y-111570898D01*
X166064990Y-111561103D01*
X166235257Y-111501524D01*
X166387997Y-111405551D01*
X166515551Y-111277997D01*
X166611524Y-111125257D01*
X166671103Y-110954990D01*
X166671104Y-110954984D01*
X166691300Y-110775738D01*
X166691300Y-110775731D01*
X166671104Y-110596485D01*
X166671103Y-110596480D01*
X166611523Y-110426211D01*
X166560990Y-110345789D01*
X166515551Y-110273473D01*
X166387997Y-110145919D01*
X166325996Y-110106961D01*
X166235258Y-110049946D01*
X166064989Y-109990366D01*
X166064984Y-109990365D01*
X165885739Y-109970170D01*
X165885731Y-109970170D01*
X165706485Y-109990365D01*
X165706480Y-109990366D01*
X165536211Y-110049946D01*
X165383472Y-110145919D01*
X165255919Y-110273472D01*
X165159945Y-110426213D01*
X165100365Y-110596485D01*
X165090572Y-110683403D01*
X165063505Y-110747817D01*
X165055033Y-110757200D01*
X164527021Y-111285213D01*
X164415216Y-111397017D01*
X164415210Y-111397025D01*
X164367193Y-111480195D01*
X164367193Y-111480196D01*
X164336158Y-111533950D01*
X164295234Y-111686678D01*
X164295234Y-111686680D01*
X164295234Y-111854781D01*
X164295235Y-111854794D01*
X164295235Y-112880169D01*
X164275550Y-112947208D01*
X164237208Y-112985162D01*
X164148474Y-113040917D01*
X164020919Y-113168472D01*
X163924946Y-113321211D01*
X163865366Y-113491480D01*
X163865365Y-113491485D01*
X163845170Y-113670731D01*
X163845170Y-113670737D01*
X163850813Y-113720820D01*
X163838759Y-113789642D01*
X163791410Y-113841022D01*
X163723799Y-113858646D01*
X163713710Y-113857924D01*
X163540004Y-113838353D01*
X163539996Y-113838353D01*
X163360750Y-113858548D01*
X163360745Y-113858549D01*
X163190476Y-113918129D01*
X163037737Y-114014102D01*
X162945326Y-114106514D01*
X162884003Y-114139999D01*
X162814311Y-114135015D01*
X162769964Y-114106514D01*
X161294183Y-112630733D01*
X161260698Y-112569410D01*
X161257864Y-112543052D01*
X161257864Y-111065801D01*
X161277549Y-110998762D01*
X161330353Y-110953007D01*
X161399511Y-110943063D01*
X161463067Y-110972088D01*
X161469545Y-110978120D01*
X162182523Y-111691098D01*
X162216008Y-111752421D01*
X162218062Y-111764895D01*
X162227855Y-111851814D01*
X162287435Y-112022086D01*
X162355541Y-112130476D01*
X162383409Y-112174827D01*
X162510963Y-112302381D01*
X162525882Y-112311755D01*
X162616954Y-112368980D01*
X162663703Y-112398354D01*
X162713298Y-112415708D01*
X162833970Y-112457933D01*
X162833975Y-112457934D01*
X163013221Y-112478130D01*
X163013225Y-112478130D01*
X163013229Y-112478130D01*
X163192474Y-112457934D01*
X163192477Y-112457933D01*
X163192480Y-112457933D01*
X163362747Y-112398354D01*
X163515487Y-112302381D01*
X163643041Y-112174827D01*
X163739014Y-112022087D01*
X163798593Y-111851820D01*
X163798594Y-111851814D01*
X163818790Y-111672568D01*
X163818790Y-111672561D01*
X163798594Y-111493315D01*
X163798593Y-111493310D01*
X163764899Y-111397019D01*
X163739014Y-111323043D01*
X163643041Y-111170303D01*
X163515487Y-111042749D01*
X163403031Y-110972088D01*
X163362746Y-110946775D01*
X163192474Y-110887195D01*
X163105555Y-110877402D01*
X163041141Y-110850335D01*
X163031758Y-110841863D01*
X162138169Y-109948274D01*
X162104684Y-109886951D01*
X162109668Y-109817259D01*
X162151540Y-109761326D01*
X162184893Y-109743552D01*
X162198439Y-109738813D01*
X162227323Y-109720663D01*
X162294558Y-109701662D01*
X162359264Y-109720660D01*
X162363448Y-109723289D01*
X162472152Y-109761326D01*
X162496352Y-109769794D01*
X162553128Y-109810516D01*
X162572439Y-109845880D01*
X162584211Y-109879523D01*
X162584212Y-109879524D01*
X162627411Y-109948274D01*
X162680184Y-110032262D01*
X162807738Y-110159816D01*
X162880458Y-110205509D01*
X162950505Y-110249523D01*
X162960478Y-110255789D01*
X163130745Y-110315368D01*
X163130750Y-110315369D01*
X163309996Y-110335565D01*
X163310000Y-110335565D01*
X163310004Y-110335565D01*
X163489249Y-110315369D01*
X163489250Y-110315368D01*
X163489255Y-110315368D01*
X163601694Y-110276022D01*
X163671470Y-110272460D01*
X163708619Y-110288070D01*
X163740336Y-110307999D01*
X163800478Y-110345789D01*
X163961869Y-110402262D01*
X163970745Y-110405368D01*
X163970750Y-110405369D01*
X164149996Y-110425565D01*
X164150000Y-110425565D01*
X164150004Y-110425565D01*
X164329249Y-110405369D01*
X164329252Y-110405368D01*
X164329255Y-110405368D01*
X164499522Y-110345789D01*
X164652262Y-110249816D01*
X164779816Y-110122262D01*
X164875789Y-109969522D01*
X164935368Y-109799255D01*
X164935368Y-109799253D01*
X164936917Y-109792468D01*
X164938282Y-109792779D01*
X164962364Y-109735468D01*
X165019958Y-109695913D01*
X165058518Y-109689765D01*
X168686853Y-109689765D01*
X168753892Y-109709450D01*
G37*
G04 #@! TD.AperFunction*
G04 #@! TA.AperFunction,NonConductor*
G36*
X167109960Y-114705608D02*
G01*
X167280741Y-114765367D01*
X167280742Y-114765367D01*
X167280745Y-114765368D01*
X167367669Y-114775161D01*
X167432080Y-114802226D01*
X167441465Y-114810700D01*
X167645296Y-115014531D01*
X167678781Y-115075854D01*
X167681615Y-115102212D01*
X167681615Y-115284681D01*
X167661930Y-115351720D01*
X167609126Y-115397475D01*
X167539968Y-115407419D01*
X167480848Y-115380420D01*
X167480070Y-115381396D01*
X167474627Y-115377055D01*
X167321888Y-115281082D01*
X167151619Y-115221502D01*
X167151614Y-115221501D01*
X166972369Y-115201306D01*
X166972361Y-115201306D01*
X166809051Y-115219706D01*
X166740229Y-115207651D01*
X166688850Y-115160302D01*
X166671226Y-115092692D01*
X166692953Y-115026286D01*
X166707482Y-115008810D01*
X166981326Y-114734966D01*
X167042647Y-114701483D01*
X167109960Y-114705608D01*
G37*
G04 #@! TD.AperFunction*
G04 #@! TA.AperFunction,NonConductor*
G36*
X166071141Y-115309766D02*
G01*
X166240616Y-115309766D01*
X166307655Y-115329451D01*
X166353410Y-115382255D01*
X166363354Y-115451413D01*
X166345610Y-115499738D01*
X166342549Y-115504608D01*
X166342549Y-115504609D01*
X166294863Y-115580501D01*
X166242871Y-115663245D01*
X166241244Y-115662222D01*
X166200807Y-115706997D01*
X166133377Y-115725301D01*
X166066756Y-115704244D01*
X166048243Y-115689008D01*
X165880681Y-115521446D01*
X165847196Y-115460123D01*
X165852180Y-115390431D01*
X165894052Y-115334498D01*
X165959516Y-115310081D01*
X165968362Y-115309765D01*
X166071125Y-115309765D01*
X166071141Y-115309766D01*
G37*
G04 #@! TD.AperFunction*
G04 #@! TA.AperFunction,NonConductor*
G36*
X164365704Y-115705385D02*
G01*
X164372182Y-115711417D01*
X165838181Y-117177416D01*
X165871666Y-117238739D01*
X165873720Y-117251213D01*
X165883513Y-117338132D01*
X165943093Y-117508404D01*
X165956431Y-117529631D01*
X166039067Y-117661145D01*
X166166621Y-117788699D01*
X166204879Y-117812738D01*
X166310717Y-117879241D01*
X166319361Y-117884672D01*
X166443663Y-117928167D01*
X166489628Y-117944251D01*
X166489633Y-117944252D01*
X166668879Y-117964448D01*
X166668883Y-117964448D01*
X166668887Y-117964448D01*
X166848132Y-117944252D01*
X166848135Y-117944251D01*
X166848138Y-117944251D01*
X167018405Y-117884672D01*
X167171145Y-117788699D01*
X167208813Y-117751030D01*
X167270134Y-117717544D01*
X167337447Y-117721668D01*
X167451506Y-117761579D01*
X167502856Y-117779548D01*
X167502857Y-117779548D01*
X167502860Y-117779549D01*
X167541212Y-117783870D01*
X167605625Y-117810935D01*
X167645181Y-117868529D01*
X167647320Y-117938366D01*
X167615010Y-117994771D01*
X166754392Y-118855389D01*
X166693069Y-118888874D01*
X166623377Y-118883890D01*
X166567444Y-118842018D01*
X166543491Y-118781591D01*
X166525369Y-118620750D01*
X166525368Y-118620745D01*
X166506138Y-118565788D01*
X166465789Y-118450478D01*
X166459519Y-118440500D01*
X166389963Y-118329802D01*
X166369816Y-118297738D01*
X166242262Y-118170184D01*
X166185271Y-118134374D01*
X166089521Y-118074210D01*
X165919249Y-118014630D01*
X165832330Y-118004837D01*
X165767916Y-117977770D01*
X165758533Y-117969298D01*
X164196819Y-116407584D01*
X164163334Y-116346261D01*
X164160500Y-116319903D01*
X164160500Y-115834844D01*
X164160501Y-115834831D01*
X164160501Y-115799098D01*
X164180186Y-115732059D01*
X164232990Y-115686304D01*
X164302148Y-115676360D01*
X164365704Y-115705385D01*
G37*
G04 #@! TD.AperFunction*
G04 #@! TA.AperFunction,NonConductor*
G36*
X165910644Y-121299175D02*
G01*
X165956399Y-121351979D01*
X165966825Y-121417373D01*
X165955368Y-121519062D01*
X165955368Y-121519072D01*
X165964662Y-121601568D01*
X165952607Y-121670390D01*
X165905257Y-121721768D01*
X165882396Y-121732492D01*
X165712881Y-121791807D01*
X165560140Y-121887781D01*
X165432587Y-122015334D01*
X165336614Y-122168073D01*
X165277034Y-122338342D01*
X165277033Y-122338347D01*
X165266484Y-122431980D01*
X165239418Y-122496394D01*
X165181823Y-122535950D01*
X165143264Y-122542097D01*
X161480815Y-122542097D01*
X161413776Y-122522412D01*
X161368021Y-122469608D01*
X161358077Y-122400450D01*
X161387102Y-122336894D01*
X161393134Y-122330416D01*
X162407741Y-121315809D01*
X162469064Y-121282324D01*
X162495422Y-121279490D01*
X165843605Y-121279490D01*
X165910644Y-121299175D01*
G37*
G04 #@! TD.AperFunction*
G04 #@! TA.AperFunction,NonConductor*
G36*
X168966678Y-122012793D02*
G01*
X169022184Y-122055230D01*
X169039210Y-122087575D01*
X169082484Y-122211244D01*
X169082486Y-122211247D01*
X169161435Y-122336894D01*
X169174796Y-122358157D01*
X169193796Y-122425393D01*
X169173428Y-122492229D01*
X169157483Y-122511810D01*
X168563516Y-123105778D01*
X168502193Y-123139263D01*
X168475835Y-123142097D01*
X167946499Y-123142097D01*
X167879460Y-123122412D01*
X167833705Y-123069608D01*
X167823761Y-123000450D01*
X167852786Y-122936894D01*
X167858818Y-122930416D01*
X167924340Y-122864894D01*
X168033733Y-122755500D01*
X168095054Y-122722017D01*
X168107509Y-122719965D01*
X168194453Y-122710170D01*
X168364720Y-122650591D01*
X168517460Y-122554618D01*
X168645014Y-122427064D01*
X168740987Y-122274324D01*
X168800566Y-122104057D01*
X168800566Y-122104048D01*
X168801276Y-122100945D01*
X168802288Y-122099135D01*
X168802866Y-122097484D01*
X168803155Y-122097585D01*
X168835381Y-122039965D01*
X168897040Y-122007103D01*
X168966678Y-122012793D01*
G37*
G04 #@! TD.AperFunction*
G04 #@! TA.AperFunction,NonConductor*
G36*
X155015701Y-126661815D02*
G01*
X155039490Y-126689552D01*
X155042900Y-126694979D01*
X155042904Y-126694984D01*
X155170458Y-126822538D01*
X155323198Y-126918511D01*
X155395502Y-126943811D01*
X155452278Y-126984532D01*
X155478026Y-127049485D01*
X155464570Y-127118047D01*
X155442231Y-127148532D01*
X155397586Y-127193179D01*
X155336264Y-127226666D01*
X155309903Y-127229500D01*
X154934500Y-127229500D01*
X154867461Y-127209815D01*
X154821706Y-127157011D01*
X154810500Y-127105500D01*
X154810500Y-126937544D01*
X154810499Y-126755525D01*
X154830183Y-126688489D01*
X154882987Y-126642734D01*
X154952146Y-126632790D01*
X155015701Y-126661815D01*
G37*
G04 #@! TD.AperFunction*
M02*
