G04 #@! TF.GenerationSoftware,KiCad,Pcbnew,8.0.5*
G04 #@! TF.CreationDate,2024-11-06T19:49:11-08:00*
G04 #@! TF.ProjectId,Vanguard_new,56616e67-7561-4726-945f-6e65772e6b69,rev?*
G04 #@! TF.SameCoordinates,Original*
G04 #@! TF.FileFunction,Paste,Top*
G04 #@! TF.FilePolarity,Positive*
%FSLAX46Y46*%
G04 Gerber Fmt 4.6, Leading zero omitted, Abs format (unit mm)*
G04 Created by KiCad (PCBNEW 8.0.5) date 2024-11-06 19:49:11*
%MOMM*%
%LPD*%
G01*
G04 APERTURE LIST*
G04 Aperture macros list*
%AMRoundRect*
0 Rectangle with rounded corners*
0 $1 Rounding radius*
0 $2 $3 $4 $5 $6 $7 $8 $9 X,Y pos of 4 corners*
0 Add a 4 corners polygon primitive as box body*
4,1,4,$2,$3,$4,$5,$6,$7,$8,$9,$2,$3,0*
0 Add four circle primitives for the rounded corners*
1,1,$1+$1,$2,$3*
1,1,$1+$1,$4,$5*
1,1,$1+$1,$6,$7*
1,1,$1+$1,$8,$9*
0 Add four rect primitives between the rounded corners*
20,1,$1+$1,$2,$3,$4,$5,0*
20,1,$1+$1,$4,$5,$6,$7,0*
20,1,$1+$1,$6,$7,$8,$9,0*
20,1,$1+$1,$8,$9,$2,$3,0*%
%AMFreePoly0*
4,1,13,0.320000,0.125000,0.700000,0.125000,0.700000,-0.125000,0.320000,-0.125000,0.200000,-0.350000,-0.200000,-0.350000,-0.320000,-0.125000,-0.850000,-0.125000,-0.850000,0.125000,-0.320000,0.125000,-0.200000,0.350000,0.200000,0.350000,0.320000,0.125000,0.320000,0.125000,$1*%
G04 Aperture macros list end*
%ADD10RoundRect,0.079500X0.100500X-0.079500X0.100500X0.079500X-0.100500X0.079500X-0.100500X-0.079500X0*%
%ADD11R,0.700000X0.300000*%
%ADD12RoundRect,0.135000X-0.185000X0.135000X-0.185000X-0.135000X0.185000X-0.135000X0.185000X0.135000X0*%
%ADD13RoundRect,0.150000X-0.825000X-0.150000X0.825000X-0.150000X0.825000X0.150000X-0.825000X0.150000X0*%
%ADD14RoundRect,0.135000X0.135000X0.185000X-0.135000X0.185000X-0.135000X-0.185000X0.135000X-0.185000X0*%
%ADD15RoundRect,0.079500X-0.079500X-0.100500X0.079500X-0.100500X0.079500X0.100500X-0.079500X0.100500X0*%
%ADD16RoundRect,0.135000X0.185000X-0.135000X0.185000X0.135000X-0.185000X0.135000X-0.185000X-0.135000X0*%
%ADD17RoundRect,0.135000X-0.135000X-0.185000X0.135000X-0.185000X0.135000X0.185000X-0.135000X0.185000X0*%
%ADD18RoundRect,0.075000X-0.415425X-0.521491X0.521491X0.415425X0.415425X0.521491X-0.521491X-0.415425X0*%
%ADD19RoundRect,0.075000X0.415425X-0.521491X0.521491X-0.415425X-0.415425X0.521491X-0.521491X0.415425X0*%
%ADD20RoundRect,0.175000X0.175000X0.325000X-0.175000X0.325000X-0.175000X-0.325000X0.175000X-0.325000X0*%
%ADD21RoundRect,0.150000X0.200000X0.150000X-0.200000X0.150000X-0.200000X-0.150000X0.200000X-0.150000X0*%
%ADD22RoundRect,0.160000X-0.565000X-0.240000X0.565000X-0.240000X0.565000X0.240000X-0.565000X0.240000X0*%
%ADD23RoundRect,0.120000X-0.605000X-0.180000X0.605000X-0.180000X0.605000X0.180000X-0.605000X0.180000X0*%
%ADD24RoundRect,0.062500X0.123744X-0.035355X-0.035355X0.123744X-0.123744X0.035355X0.035355X-0.123744X0*%
%ADD25FreePoly0,135.000000*%
%ADD26R,0.254000X0.675000*%
%ADD27R,0.675000X0.254000*%
%ADD28RoundRect,0.150000X-0.150000X0.587500X-0.150000X-0.587500X0.150000X-0.587500X0.150000X0.587500X0*%
%ADD29R,1.100000X0.850000*%
%ADD30R,1.100000X0.750000*%
%ADD31R,1.000000X1.200000*%
%ADD32R,1.350000X1.550000*%
%ADD33R,1.350000X1.900000*%
%ADD34R,1.800000X1.170000*%
%ADD35RoundRect,0.079500X-0.100500X0.079500X-0.100500X-0.079500X0.100500X-0.079500X0.100500X0.079500X0*%
%ADD36RoundRect,0.172500X-0.172500X0.172500X-0.172500X-0.172500X0.172500X-0.172500X0.172500X0.172500X0*%
%ADD37RoundRect,0.062500X-0.062500X0.350000X-0.062500X-0.350000X0.062500X-0.350000X0.062500X0.350000X0*%
%ADD38RoundRect,0.062500X-0.350000X0.062500X-0.350000X-0.062500X0.350000X-0.062500X0.350000X0.062500X0*%
%ADD39RoundRect,0.150000X-0.150000X0.512500X-0.150000X-0.512500X0.150000X-0.512500X0.150000X0.512500X0*%
%ADD40RoundRect,0.150000X-0.150000X0.825000X-0.150000X-0.825000X0.150000X-0.825000X0.150000X0.825000X0*%
%ADD41RoundRect,0.147500X-0.172500X0.147500X-0.172500X-0.147500X0.172500X-0.147500X0.172500X0.147500X0*%
%ADD42RoundRect,0.150000X-0.587500X-0.150000X0.587500X-0.150000X0.587500X0.150000X-0.587500X0.150000X0*%
%ADD43R,1.200000X1.200000*%
%ADD44RoundRect,0.150000X0.150000X-0.587500X0.150000X0.587500X-0.150000X0.587500X-0.150000X-0.587500X0*%
%ADD45RoundRect,0.160000X0.565000X0.240000X-0.565000X0.240000X-0.565000X-0.240000X0.565000X-0.240000X0*%
%ADD46RoundRect,0.120000X0.605000X0.180000X-0.605000X0.180000X-0.605000X-0.180000X0.605000X-0.180000X0*%
%ADD47RoundRect,0.167500X0.167500X0.312500X-0.167500X0.312500X-0.167500X-0.312500X0.167500X-0.312500X0*%
%ADD48RoundRect,0.062500X0.362500X0.062500X-0.362500X0.062500X-0.362500X-0.062500X0.362500X-0.062500X0*%
%ADD49RoundRect,0.250000X0.275000X-0.275000X0.275000X0.275000X-0.275000X0.275000X-0.275000X-0.275000X0*%
%ADD50RoundRect,0.062500X0.062500X-0.350000X0.062500X0.350000X-0.062500X0.350000X-0.062500X-0.350000X0*%
%ADD51RoundRect,0.062500X0.350000X-0.062500X0.350000X0.062500X-0.350000X0.062500X-0.350000X-0.062500X0*%
%ADD52RoundRect,0.079500X0.079500X0.100500X-0.079500X0.100500X-0.079500X-0.100500X0.079500X-0.100500X0*%
%ADD53RoundRect,0.250000X-0.550000X1.500000X-0.550000X-1.500000X0.550000X-1.500000X0.550000X1.500000X0*%
G04 APERTURE END LIST*
D10*
X166790000Y-99962500D03*
X166790000Y-99272500D03*
D11*
X152250000Y-102167500D03*
X152250000Y-102667500D03*
X152250000Y-103167500D03*
X152250000Y-103667500D03*
X152250000Y-104167500D03*
X152250000Y-104667500D03*
X152250000Y-105167500D03*
X152250000Y-105667500D03*
X152250000Y-106167500D03*
X152250000Y-106667500D03*
X152250000Y-107167500D03*
X152250000Y-107667500D03*
D12*
X159820000Y-101597500D03*
X159820000Y-102617500D03*
D13*
X174670000Y-95280000D03*
X174670000Y-96550000D03*
X174670000Y-97820000D03*
X174670000Y-99090000D03*
X179620000Y-99090000D03*
X179620000Y-97820000D03*
X179620000Y-96550000D03*
X179620000Y-95280000D03*
D14*
X149940000Y-95060000D03*
X148920000Y-95060000D03*
D15*
X147180000Y-118832500D03*
X147870000Y-118832500D03*
D16*
X172660000Y-99527500D03*
X172660000Y-98507500D03*
D17*
X188122500Y-130700000D03*
X189142500Y-130700000D03*
D14*
X145285000Y-112952500D03*
X144265000Y-112952500D03*
X165160000Y-104917500D03*
X164140000Y-104917500D03*
D18*
X161282124Y-116888788D03*
X161635678Y-117242342D03*
X161989231Y-117595895D03*
X162342785Y-117949449D03*
X162696338Y-118303002D03*
X163049891Y-118656555D03*
X163403445Y-119010109D03*
X163756998Y-119363662D03*
X164110551Y-119717215D03*
X164464105Y-120070769D03*
X164817658Y-120424322D03*
X165171212Y-120777876D03*
D19*
X167168788Y-120777876D03*
X167522342Y-120424322D03*
X167875895Y-120070769D03*
X168229449Y-119717215D03*
X168583002Y-119363662D03*
X168936555Y-119010109D03*
X169290109Y-118656555D03*
X169643662Y-118303002D03*
X169997215Y-117949449D03*
X170350769Y-117595895D03*
X170704322Y-117242342D03*
X171057876Y-116888788D03*
D18*
X171057876Y-114891212D03*
X170704322Y-114537658D03*
X170350769Y-114184105D03*
X169997215Y-113830551D03*
X169643662Y-113476998D03*
X169290109Y-113123445D03*
X168936555Y-112769891D03*
X168583002Y-112416338D03*
X168229449Y-112062785D03*
X167875895Y-111709231D03*
X167522342Y-111355678D03*
X167168788Y-111002124D03*
D19*
X165171212Y-111002124D03*
X164817658Y-111355678D03*
X164464105Y-111709231D03*
X164110551Y-112062785D03*
X163756998Y-112416338D03*
X163403445Y-112769891D03*
X163049891Y-113123445D03*
X162696338Y-113476998D03*
X162342785Y-113830551D03*
X161989231Y-114184105D03*
X161635678Y-114537658D03*
X161282124Y-114891212D03*
D15*
X162002500Y-102557500D03*
X162692500Y-102557500D03*
D17*
X180610000Y-125950000D03*
X181630000Y-125950000D03*
X180470000Y-123770000D03*
X181490000Y-123770000D03*
D14*
X147175000Y-112952500D03*
X146155000Y-112952500D03*
D20*
X155720000Y-102727500D03*
D21*
X155720000Y-101027500D03*
X153720000Y-101027500D03*
X153720000Y-102927500D03*
D22*
X187230000Y-94980000D03*
D23*
X187230000Y-96030000D03*
D22*
X187230000Y-97080000D03*
X190280000Y-97080000D03*
D23*
X190280000Y-96030000D03*
D22*
X190280000Y-94980000D03*
D14*
X185775000Y-96030000D03*
X184755000Y-96030000D03*
X164077500Y-101617500D03*
X163057500Y-101617500D03*
D24*
X160153744Y-119650850D03*
D25*
X160030000Y-118820000D03*
D24*
X160860850Y-118943744D03*
X159906256Y-117989150D03*
X159199150Y-118696256D03*
D17*
X146835000Y-117992500D03*
X147855000Y-117992500D03*
D26*
X183592500Y-126267500D03*
D27*
X183455000Y-127180000D03*
X183455000Y-127680000D03*
X183455000Y-128180000D03*
X183455000Y-128680000D03*
D26*
X183592500Y-129592500D03*
X184092500Y-129592500D03*
X184592500Y-129592500D03*
X185092500Y-129592500D03*
X185592500Y-129592500D03*
X186092500Y-129592500D03*
X186592500Y-129592500D03*
X187092500Y-129592500D03*
X187592500Y-129592500D03*
X188092500Y-129592500D03*
D27*
X188230000Y-128680000D03*
X188230000Y-128180000D03*
X188230000Y-127680000D03*
X188230000Y-127180000D03*
D26*
X188092500Y-126267500D03*
X187592500Y-126267500D03*
X187092500Y-126267500D03*
X186592500Y-126267500D03*
X186092500Y-126267500D03*
X185592500Y-126267500D03*
X185092500Y-126267500D03*
X184592500Y-126267500D03*
X184092500Y-126267500D03*
D12*
X166790000Y-97442500D03*
X166790000Y-98462500D03*
D10*
X184522500Y-121882500D03*
X184522500Y-121192500D03*
D28*
X167582500Y-101350000D03*
X165682500Y-101350000D03*
X166632500Y-103225000D03*
D29*
X178960000Y-115775000D03*
X178960000Y-114675000D03*
X178960000Y-113575000D03*
X178960000Y-112475000D03*
X178960000Y-111375000D03*
X178960000Y-110275000D03*
X178960000Y-109175000D03*
D30*
X178960000Y-108125000D03*
D31*
X185110000Y-118410000D03*
X188810000Y-118410000D03*
D32*
X179085000Y-118235000D03*
D33*
X189785000Y-114910000D03*
X189785000Y-108940000D03*
D34*
X179310000Y-106915000D03*
D35*
X158207500Y-122040000D03*
X158207500Y-122730000D03*
D36*
X150155000Y-113652500D03*
X149305000Y-113652500D03*
X150155000Y-114502500D03*
X149305000Y-114502500D03*
D37*
X150480000Y-112615000D03*
X149980000Y-112615000D03*
X149480000Y-112615000D03*
X148980000Y-112615000D03*
D38*
X148267500Y-113327500D03*
X148267500Y-113827500D03*
X148267500Y-114327500D03*
X148267500Y-114827500D03*
D37*
X148980000Y-115540000D03*
X149480000Y-115540000D03*
X149980000Y-115540000D03*
X150480000Y-115540000D03*
D38*
X151192500Y-114827500D03*
X151192500Y-114327500D03*
X151192500Y-113827500D03*
X151192500Y-113327500D03*
D12*
X152335000Y-113342500D03*
X152335000Y-114362500D03*
D17*
X153540000Y-104147500D03*
X154560000Y-104147500D03*
D14*
X149940000Y-96120000D03*
X148920000Y-96120000D03*
D10*
X185222500Y-121877500D03*
X185222500Y-121187500D03*
D14*
X167040000Y-104907500D03*
X166020000Y-104907500D03*
D39*
X146835000Y-114335000D03*
X145885000Y-114335000D03*
X144935000Y-114335000D03*
X144935000Y-116610000D03*
X146835000Y-116610000D03*
D14*
X185785000Y-97080000D03*
X184765000Y-97080000D03*
D12*
X189292500Y-128790000D03*
X189292500Y-129810000D03*
D17*
X181412500Y-128190000D03*
X182432500Y-128190000D03*
D35*
X153197500Y-121550000D03*
X153197500Y-122240000D03*
D40*
X189655000Y-99292500D03*
X188385000Y-99292500D03*
X187115000Y-99292500D03*
X185845000Y-99292500D03*
X184575000Y-99292500D03*
X183305000Y-99292500D03*
X182035000Y-99292500D03*
X182035000Y-104242500D03*
X183305000Y-104242500D03*
X184575000Y-104242500D03*
X185845000Y-104242500D03*
X187115000Y-104242500D03*
X188385000Y-104242500D03*
X189655000Y-104242500D03*
D41*
X158350000Y-119625000D03*
X158350000Y-120595000D03*
D42*
X169312500Y-97555000D03*
X169312500Y-99455000D03*
X171187500Y-98505000D03*
D14*
X164500000Y-102557500D03*
X163480000Y-102557500D03*
X169110000Y-104707500D03*
X168090000Y-104707500D03*
D12*
X167770000Y-98617500D03*
X167770000Y-99637500D03*
D14*
X166670000Y-109737500D03*
X165650000Y-109737500D03*
D43*
X155460000Y-113220000D03*
X155460000Y-110420000D03*
D28*
X166580000Y-106377500D03*
X164680000Y-106377500D03*
X165630000Y-108252500D03*
D44*
X164680000Y-131427500D03*
X166580000Y-131427500D03*
X165630000Y-129552500D03*
D17*
X156760000Y-103177500D03*
X157780000Y-103177500D03*
X149110000Y-110837500D03*
X150130000Y-110837500D03*
D16*
X190232500Y-129810000D03*
X190232500Y-128790000D03*
D45*
X147465000Y-97160000D03*
D46*
X147465000Y-96110000D03*
D45*
X147465000Y-95060000D03*
X144415000Y-95060000D03*
D46*
X144415000Y-96110000D03*
D45*
X144415000Y-97160000D03*
D14*
X149930000Y-97160000D03*
X148910000Y-97160000D03*
D47*
X156097500Y-121685000D03*
X156097500Y-120495000D03*
X155277500Y-121685000D03*
X155277500Y-120495000D03*
D48*
X157137500Y-122090000D03*
X157137500Y-121590000D03*
X157137500Y-121090000D03*
X157137500Y-120590000D03*
X157137500Y-120090000D03*
X154237500Y-120090000D03*
X154237500Y-120590000D03*
X154237500Y-121090000D03*
X154237500Y-121590000D03*
X154237500Y-122090000D03*
D49*
X160420000Y-106297500D03*
X161720000Y-106297500D03*
X160420000Y-104997500D03*
X161720000Y-104997500D03*
D50*
X159820000Y-107585000D03*
X160320000Y-107585000D03*
X160820000Y-107585000D03*
X161320000Y-107585000D03*
X161820000Y-107585000D03*
X162320000Y-107585000D03*
D51*
X163007500Y-106897500D03*
X163007500Y-106397500D03*
X163007500Y-105897500D03*
X163007500Y-105397500D03*
X163007500Y-104897500D03*
X163007500Y-104397500D03*
D50*
X162320000Y-103710000D03*
X161820000Y-103710000D03*
X161320000Y-103710000D03*
X160820000Y-103710000D03*
X160320000Y-103710000D03*
X159820000Y-103710000D03*
D51*
X159132500Y-104397500D03*
X159132500Y-104897500D03*
X159132500Y-105397500D03*
X159132500Y-105897500D03*
X159132500Y-106397500D03*
X159132500Y-106897500D03*
D12*
X186092500Y-130610000D03*
X186092500Y-131630000D03*
D35*
X153460000Y-113310000D03*
X153460000Y-114000000D03*
D15*
X155520000Y-104220000D03*
X156210000Y-104220000D03*
D16*
X171460000Y-102490000D03*
X171460000Y-101470000D03*
D52*
X146050000Y-117882500D03*
X145360000Y-117882500D03*
D12*
X158450000Y-101047500D03*
X158450000Y-102067500D03*
D35*
X185092500Y-130565000D03*
X185092500Y-131255000D03*
D14*
X185785000Y-94980000D03*
X184765000Y-94980000D03*
D15*
X147950000Y-116572500D03*
X148640000Y-116572500D03*
D53*
X159627500Y-123935000D03*
X159627500Y-129535000D03*
M02*
