%TF.GenerationSoftware,KiCad,Pcbnew,8.0.4*%
%TF.CreationDate,2024-11-08T09:04:54-08:00*%
%TF.ProjectId,Vanguard_new,56616e67-7561-4726-945f-6e65772e6b69,rev?*%
%TF.SameCoordinates,Original*%
%TF.FileFunction,Copper,L1,Top*%
%TF.FilePolarity,Positive*%
%FSLAX46Y46*%
G04 Gerber Fmt 4.6, Leading zero omitted, Abs format (unit mm)*
G04 Created by KiCad (PCBNEW 8.0.4) date 2024-11-08 09:04:54*
%MOMM*%
%LPD*%
G01*
G04 APERTURE LIST*
G04 Aperture macros list*
%AMRoundRect*
0 Rectangle with rounded corners*
0 $1 Rounding radius*
0 $2 $3 $4 $5 $6 $7 $8 $9 X,Y pos of 4 corners*
0 Add a 4 corners polygon primitive as box body*
4,1,4,$2,$3,$4,$5,$6,$7,$8,$9,$2,$3,0*
0 Add four circle primitives for the rounded corners*
1,1,$1+$1,$2,$3*
1,1,$1+$1,$4,$5*
1,1,$1+$1,$6,$7*
1,1,$1+$1,$8,$9*
0 Add four rect primitives between the rounded corners*
20,1,$1+$1,$2,$3,$4,$5,0*
20,1,$1+$1,$4,$5,$6,$7,0*
20,1,$1+$1,$6,$7,$8,$9,0*
20,1,$1+$1,$8,$9,$2,$3,0*%
%AMFreePoly0*
4,1,13,0.320000,0.125000,0.700000,0.125000,0.700000,-0.125000,0.320000,-0.125000,0.200000,-0.350000,-0.200000,-0.350000,-0.320000,-0.125000,-0.850000,-0.125000,-0.850000,0.125000,-0.320000,0.125000,-0.200000,0.350000,0.200000,0.350000,0.320000,0.125000,0.320000,0.125000,$1*%
G04 Aperture macros list end*
%TA.AperFunction,EtchedComponent*%
%ADD10C,0.000000*%
%TD*%
%TA.AperFunction,SMDPad,CuDef*%
%ADD11RoundRect,0.100000X0.100000X-0.130000X0.100000X0.130000X-0.100000X0.130000X-0.100000X-0.130000X0*%
%TD*%
%TA.AperFunction,SMDPad,CuDef*%
%ADD12R,0.700000X0.300000*%
%TD*%
%TA.AperFunction,ComponentPad*%
%ADD13C,0.650000*%
%TD*%
%TA.AperFunction,ComponentPad*%
%ADD14O,1.400000X0.800000*%
%TD*%
%TA.AperFunction,SMDPad,CuDef*%
%ADD15RoundRect,0.135000X-0.185000X0.135000X-0.185000X-0.135000X0.185000X-0.135000X0.185000X0.135000X0*%
%TD*%
%TA.AperFunction,SMDPad,CuDef*%
%ADD16RoundRect,0.150000X-0.825000X-0.150000X0.825000X-0.150000X0.825000X0.150000X-0.825000X0.150000X0*%
%TD*%
%TA.AperFunction,SMDPad,CuDef*%
%ADD17RoundRect,0.135000X0.135000X0.185000X-0.135000X0.185000X-0.135000X-0.185000X0.135000X-0.185000X0*%
%TD*%
%TA.AperFunction,SMDPad,CuDef*%
%ADD18RoundRect,0.100000X-0.130000X-0.100000X0.130000X-0.100000X0.130000X0.100000X-0.130000X0.100000X0*%
%TD*%
%TA.AperFunction,SMDPad,CuDef*%
%ADD19R,1.000000X1.000000*%
%TD*%
%TA.AperFunction,SMDPad,CuDef*%
%ADD20RoundRect,0.135000X0.185000X-0.135000X0.185000X0.135000X-0.185000X0.135000X-0.185000X-0.135000X0*%
%TD*%
%TA.AperFunction,SMDPad,CuDef*%
%ADD21RoundRect,0.135000X-0.135000X-0.185000X0.135000X-0.185000X0.135000X0.185000X-0.135000X0.185000X0*%
%TD*%
%TA.AperFunction,SMDPad,CuDef*%
%ADD22RoundRect,0.075000X-0.415425X-0.521491X0.521491X0.415425X0.415425X0.521491X-0.521491X-0.415425X0*%
%TD*%
%TA.AperFunction,SMDPad,CuDef*%
%ADD23RoundRect,0.075000X0.415425X-0.521491X0.521491X-0.415425X-0.415425X0.521491X-0.521491X0.415425X0*%
%TD*%
%TA.AperFunction,ComponentPad*%
%ADD24R,1.700000X1.700000*%
%TD*%
%TA.AperFunction,ComponentPad*%
%ADD25O,1.700000X1.700000*%
%TD*%
%TA.AperFunction,SMDPad,CuDef*%
%ADD26RoundRect,0.175000X0.175000X0.325000X-0.175000X0.325000X-0.175000X-0.325000X0.175000X-0.325000X0*%
%TD*%
%TA.AperFunction,SMDPad,CuDef*%
%ADD27RoundRect,0.150000X0.200000X0.150000X-0.200000X0.150000X-0.200000X-0.150000X0.200000X-0.150000X0*%
%TD*%
%TA.AperFunction,SMDPad,CuDef*%
%ADD28RoundRect,0.160000X-0.565000X-0.240000X0.565000X-0.240000X0.565000X0.240000X-0.565000X0.240000X0*%
%TD*%
%TA.AperFunction,SMDPad,CuDef*%
%ADD29RoundRect,0.120000X-0.605000X-0.180000X0.605000X-0.180000X0.605000X0.180000X-0.605000X0.180000X0*%
%TD*%
%TA.AperFunction,SMDPad,CuDef*%
%ADD30RoundRect,0.062500X0.123744X-0.035355X-0.035355X0.123744X-0.123744X0.035355X0.035355X-0.123744X0*%
%TD*%
%TA.AperFunction,SMDPad,CuDef*%
%ADD31FreePoly0,135.000000*%
%TD*%
%TA.AperFunction,SMDPad,CuDef*%
%ADD32R,0.254000X0.675000*%
%TD*%
%TA.AperFunction,SMDPad,CuDef*%
%ADD33R,0.675000X0.254000*%
%TD*%
%TA.AperFunction,SMDPad,CuDef*%
%ADD34RoundRect,0.150000X-0.150000X0.587500X-0.150000X-0.587500X0.150000X-0.587500X0.150000X0.587500X0*%
%TD*%
%TA.AperFunction,SMDPad,CuDef*%
%ADD35R,1.100000X0.850000*%
%TD*%
%TA.AperFunction,SMDPad,CuDef*%
%ADD36R,1.100000X0.750000*%
%TD*%
%TA.AperFunction,SMDPad,CuDef*%
%ADD37R,1.000000X1.200000*%
%TD*%
%TA.AperFunction,SMDPad,CuDef*%
%ADD38R,1.350000X1.550000*%
%TD*%
%TA.AperFunction,SMDPad,CuDef*%
%ADD39R,1.350000X1.900000*%
%TD*%
%TA.AperFunction,SMDPad,CuDef*%
%ADD40R,1.800000X1.170000*%
%TD*%
%TA.AperFunction,SMDPad,CuDef*%
%ADD41RoundRect,0.100000X-0.100000X0.130000X-0.100000X-0.130000X0.100000X-0.130000X0.100000X0.130000X0*%
%TD*%
%TA.AperFunction,SMDPad,CuDef*%
%ADD42RoundRect,0.062500X-0.062500X0.350000X-0.062500X-0.350000X0.062500X-0.350000X0.062500X0.350000X0*%
%TD*%
%TA.AperFunction,SMDPad,CuDef*%
%ADD43RoundRect,0.062500X-0.350000X0.062500X-0.350000X-0.062500X0.350000X-0.062500X0.350000X0.062500X0*%
%TD*%
%TA.AperFunction,HeatsinkPad*%
%ADD44R,1.700000X1.700000*%
%TD*%
%TA.AperFunction,ComponentPad*%
%ADD45C,1.000000*%
%TD*%
%TA.AperFunction,SMDPad,CuDef*%
%ADD46RoundRect,0.150000X-0.150000X0.512500X-0.150000X-0.512500X0.150000X-0.512500X0.150000X0.512500X0*%
%TD*%
%TA.AperFunction,SMDPad,CuDef*%
%ADD47R,1.500000X1.000000*%
%TD*%
%TA.AperFunction,SMDPad,CuDef*%
%ADD48RoundRect,0.150000X-0.150000X0.825000X-0.150000X-0.825000X0.150000X-0.825000X0.150000X0.825000X0*%
%TD*%
%TA.AperFunction,SMDPad,CuDef*%
%ADD49RoundRect,0.147500X-0.172500X0.147500X-0.172500X-0.147500X0.172500X-0.147500X0.172500X0.147500X0*%
%TD*%
%TA.AperFunction,SMDPad,CuDef*%
%ADD50RoundRect,0.150000X-0.587500X-0.150000X0.587500X-0.150000X0.587500X0.150000X-0.587500X0.150000X0*%
%TD*%
%TA.AperFunction,SMDPad,CuDef*%
%ADD51R,1.200000X1.200000*%
%TD*%
%TA.AperFunction,SMDPad,CuDef*%
%ADD52RoundRect,0.150000X0.150000X-0.587500X0.150000X0.587500X-0.150000X0.587500X-0.150000X-0.587500X0*%
%TD*%
%TA.AperFunction,SMDPad,CuDef*%
%ADD53RoundRect,0.160000X0.565000X0.240000X-0.565000X0.240000X-0.565000X-0.240000X0.565000X-0.240000X0*%
%TD*%
%TA.AperFunction,SMDPad,CuDef*%
%ADD54RoundRect,0.120000X0.605000X0.180000X-0.605000X0.180000X-0.605000X-0.180000X0.605000X-0.180000X0*%
%TD*%
%TA.AperFunction,SMDPad,CuDef*%
%ADD55RoundRect,0.062500X0.362500X0.062500X-0.362500X0.062500X-0.362500X-0.062500X0.362500X-0.062500X0*%
%TD*%
%TA.AperFunction,HeatsinkPad*%
%ADD56C,0.500000*%
%TD*%
%TA.AperFunction,HeatsinkPad*%
%ADD57R,1.650000X2.380000*%
%TD*%
%TA.AperFunction,SMDPad,CuDef*%
%ADD58RoundRect,0.062500X0.062500X-0.350000X0.062500X0.350000X-0.062500X0.350000X-0.062500X-0.350000X0*%
%TD*%
%TA.AperFunction,SMDPad,CuDef*%
%ADD59RoundRect,0.062500X0.350000X-0.062500X0.350000X0.062500X-0.350000X0.062500X-0.350000X-0.062500X0*%
%TD*%
%TA.AperFunction,HeatsinkPad*%
%ADD60R,2.600000X2.600000*%
%TD*%
%TA.AperFunction,ComponentPad*%
%ADD61R,2.000000X2.000000*%
%TD*%
%TA.AperFunction,ComponentPad*%
%ADD62C,2.000000*%
%TD*%
%TA.AperFunction,SMDPad,CuDef*%
%ADD63RoundRect,0.100000X0.130000X0.100000X-0.130000X0.100000X-0.130000X-0.100000X0.130000X-0.100000X0*%
%TD*%
%TA.AperFunction,SMDPad,CuDef*%
%ADD64RoundRect,0.250000X-0.550000X1.500000X-0.550000X-1.500000X0.550000X-1.500000X0.550000X1.500000X0*%
%TD*%
%TA.AperFunction,ViaPad*%
%ADD65C,0.600000*%
%TD*%
%TA.AperFunction,Conductor*%
%ADD66C,0.200000*%
%TD*%
%TA.AperFunction,Conductor*%
%ADD67C,0.500000*%
%TD*%
G04 APERTURE END LIST*
D10*
%TA.AperFunction,EtchedComponent*%
%TO.C,ADR1*%
G36*
X189882500Y-126970000D02*
G01*
X189482500Y-126970000D01*
X189482500Y-126470000D01*
X189882500Y-126470000D01*
X189882500Y-126970000D01*
G37*
%TD.AperFunction*%
%TA.AperFunction,EtchedComponent*%
G36*
X190682500Y-126970000D02*
G01*
X190282500Y-126970000D01*
X190282500Y-126470000D01*
X190682500Y-126470000D01*
X190682500Y-126970000D01*
G37*
%TD.AperFunction*%
%TD*%
D11*
%TO.P,D3,1,K*%
%TO.N,Net-(D3-K)*%
X166790000Y-99937500D03*
%TO.P,D3,2,A*%
%TO.N,Net-(D3-A)*%
X166790000Y-99297500D03*
%TD*%
D12*
%TO.P,J1,A1,GND*%
%TO.N,GND*%
X152250000Y-102167500D03*
%TO.P,J1,A2*%
%TO.N,N/C*%
X152250000Y-102667500D03*
%TO.P,J1,A3*%
X152250000Y-103167500D03*
%TO.P,J1,A4,VBUS*%
%TO.N,Net-(D1-GND)*%
X152250000Y-103667500D03*
%TO.P,J1,A5,CC1*%
%TO.N,Net-(J1-CC1)*%
X152250000Y-104167500D03*
%TO.P,J1,A6,D+*%
%TO.N,Net-(D1-I{slash}O1)*%
X152250000Y-104667500D03*
%TO.P,J1,A7,D-*%
%TO.N,Net-(D1-I{slash}O2)*%
X152250000Y-105167500D03*
%TO.P,J1,A8,SBU1*%
%TO.N,unconnected-(J1-SBU1-PadA8)*%
X152250000Y-105667500D03*
%TO.P,J1,A9,VBUS*%
%TO.N,Net-(D1-GND)*%
X152250000Y-106167500D03*
%TO.P,J1,A10*%
%TO.N,N/C*%
X152250000Y-106667500D03*
%TO.P,J1,A11*%
X152250000Y-107167500D03*
%TO.P,J1,A12,GND*%
%TO.N,GND*%
X152250000Y-107667500D03*
D13*
%TO.P,J1,B1,GND*%
X150940000Y-107717500D03*
%TO.P,J1,B2*%
%TO.N,N/C*%
X150240000Y-107317500D03*
%TO.P,J1,B3*%
X150240000Y-106517500D03*
%TO.P,J1,B4,VBUS*%
%TO.N,Net-(D1-GND)*%
X150940000Y-106117500D03*
%TO.P,J1,B5,CC2*%
%TO.N,Net-(J1-CC2)*%
X150240000Y-105717500D03*
%TO.P,J1,B6,D+*%
%TO.N,Net-(D1-I{slash}O1)*%
X150940000Y-105317500D03*
%TO.P,J1,B7,D-*%
%TO.N,Net-(D1-I{slash}O2)*%
X150940000Y-104517500D03*
%TO.P,J1,B8,SBU2*%
%TO.N,unconnected-(J1-SBU2-PadB8)*%
X150240000Y-104117500D03*
%TO.P,J1,B9,VBUS*%
%TO.N,Net-(D1-GND)*%
X150940000Y-103717500D03*
%TO.P,J1,B10*%
%TO.N,N/C*%
X150240000Y-103317500D03*
%TO.P,J1,B11*%
X150240000Y-102517500D03*
%TO.P,J1,B12,GND*%
%TO.N,GND*%
X150940000Y-102117500D03*
D14*
%TO.P,J1,S1,SHIELD*%
X144390000Y-100427500D03*
X150340000Y-100787500D03*
X150340000Y-109047500D03*
X144390000Y-109407500D03*
%TD*%
D15*
%TO.P,R11,1*%
%TO.N,+3.3V*%
X159820000Y-101597500D03*
%TO.P,R11,2*%
%TO.N,Net-(J2-Pin_6)*%
X159820000Y-102617500D03*
%TD*%
D16*
%TO.P,U3,1,~{CS}*%
%TO.N,PA3{slash}SS*%
X174670000Y-95280000D03*
%TO.P,U3,2,SO(SOI)*%
%TO.N,PA0{slash}MISO*%
X174670000Y-96550000D03*
%TO.P,U3,3,~{WP}*%
%TO.N,unconnected-(U3-~{WP}-Pad3)*%
X174670000Y-97820000D03*
%TO.P,U3,4,GND*%
%TO.N,GND*%
X174670000Y-99090000D03*
%TO.P,U3,5,SI(SIO)*%
%TO.N,PA1{slash}MOSI*%
X179620000Y-99090000D03*
%TO.P,U3,6,SCK*%
%TO.N,PA2{slash}SCK*%
X179620000Y-97820000D03*
%TO.P,U3,7,~{HOLD}*%
%TO.N,unconnected-(U3-~{HOLD}-Pad7)*%
X179620000Y-96550000D03*
%TO.P,U3,8,VCC*%
%TO.N,+3.3V*%
X179620000Y-95280000D03*
%TD*%
D17*
%TO.P,R27,1*%
%TO.N,STAR_GREEN*%
X149940000Y-95060000D03*
%TO.P,R27,2*%
%TO.N,Net-(STARBOARD_RGB1-GA)*%
X148920000Y-95060000D03*
%TD*%
D18*
%TO.P,D5,1,K*%
%TO.N,GND*%
X147205000Y-118832500D03*
%TO.P,D5,2,A*%
%TO.N,Net-(D5-A)*%
X147845000Y-118832500D03*
%TD*%
D19*
%TO.P,TP2,1,1*%
%TO.N,Net-(D1-I{slash}O2)*%
X154250000Y-108317500D03*
%TD*%
D20*
%TO.P,R13,1*%
%TO.N,+3.3V*%
X172660000Y-99527500D03*
%TO.P,R13,2*%
%TO.N,TX0*%
X172660000Y-98507500D03*
%TD*%
D21*
%TO.P,R19,1*%
%TO.N,Net-(U6-ENV_SCL)*%
X188122500Y-130700000D03*
%TO.P,R19,2*%
%TO.N,+3.3V*%
X189142500Y-130700000D03*
%TD*%
D17*
%TO.P,R16,1*%
%TO.N,Net-(U9-FB)*%
X145285000Y-112952500D03*
%TO.P,R16,2*%
%TO.N,GND*%
X144265000Y-112952500D03*
%TD*%
%TO.P,R5,1*%
%TO.N,/RX_UPDI*%
X165160000Y-104917500D03*
%TO.P,R5,2*%
%TO.N,/TX_UPDI*%
X164140000Y-104917500D03*
%TD*%
D22*
%TO.P,U2,1,PA5*%
%TO.N,unconnected-(U2-PA5-Pad1)*%
X161282124Y-116888788D03*
%TO.P,U2,2,PA6*%
%TO.N,unconnected-(U2-PA6-Pad2)*%
X161635678Y-117242342D03*
%TO.P,U2,3,PA7*%
%TO.N,TEMP_SENSOR*%
X161989231Y-117595895D03*
%TO.P,U2,4,PB0*%
%TO.N,SCL*%
X162342785Y-117949449D03*
%TO.P,U2,5,PB1*%
%TO.N,unconnected-(U2-PB1-Pad5)*%
X162696338Y-118303002D03*
%TO.P,U2,6,PB2*%
%TO.N,STAR_BLUE*%
X163049891Y-118656555D03*
%TO.P,U2,7,PB3*%
%TO.N,unconnected-(U2-PB3-Pad7)*%
X163403445Y-119010109D03*
%TO.P,U2,8,PB4*%
%TO.N,TX0*%
X163756998Y-119363662D03*
%TO.P,U2,9,PB5*%
%TO.N,RX0*%
X164110551Y-119717215D03*
%TO.P,U2,10,PC0*%
%TO.N,STAR_RED*%
X164464105Y-120070769D03*
%TO.P,U2,11,PC1*%
%TO.N,STAR_GREEN*%
X164817658Y-120424322D03*
%TO.P,U2,12,PC2*%
%TO.N,SDA*%
X165171212Y-120777876D03*
D23*
%TO.P,U2,13,PC3*%
%TO.N,PORT_SERVO*%
X167168788Y-120777876D03*
%TO.P,U2,14,VCC*%
%TO.N,+3.3V*%
X167522342Y-120424322D03*
%TO.P,U2,15,GND*%
%TO.N,GND*%
X167875895Y-120070769D03*
%TO.P,U2,16,PC4*%
%TO.N,BUZZER*%
X168229449Y-119717215D03*
%TO.P,U2,17,PC5*%
%TO.N,unconnected-(U2-PC5-Pad17)*%
X168583002Y-119363662D03*
%TO.P,U2,18,PC6*%
%TO.N,unconnected-(U2-PC6-Pad18)*%
X168936555Y-119010109D03*
%TO.P,U2,19,PC7*%
%TO.N,unconnected-(U2-PC7-Pad19)*%
X169290109Y-118656555D03*
%TO.P,U2,20,PD0*%
%TO.N,unconnected-(U2-PD0-Pad20)*%
X169643662Y-118303002D03*
%TO.P,U2,21,PD1*%
%TO.N,unconnected-(U2-PD1-Pad21)*%
X169997215Y-117949449D03*
%TO.P,U2,22,PD2*%
%TO.N,D5*%
X170350769Y-117595895D03*
%TO.P,U2,23,PD3*%
%TO.N,D4*%
X170704322Y-117242342D03*
%TO.P,U2,24,PD4*%
%TO.N,D6*%
X171057876Y-116888788D03*
D22*
%TO.P,U2,25,PD5*%
%TO.N,D7*%
X171057876Y-114891212D03*
%TO.P,U2,26,PD6*%
%TO.N,CD*%
X170704322Y-114537658D03*
%TO.P,U2,27,PD7*%
%TO.N,unconnected-(U2-PD7-Pad27)*%
X170350769Y-114184105D03*
%TO.P,U2,28,AVCC*%
%TO.N,+3.3V*%
X169997215Y-113830551D03*
%TO.P,U2,29,GND*%
%TO.N,GND*%
X169643662Y-113476998D03*
%TO.P,U2,30,PE0*%
%TO.N,PORT_RED*%
X169290109Y-113123445D03*
%TO.P,U2,31,PE1*%
%TO.N,unconnected-(U2-PE1-Pad31)*%
X168936555Y-112769891D03*
%TO.P,U2,32,PE2*%
%TO.N,unconnected-(U2-PE2-Pad32)*%
X168583002Y-112416338D03*
%TO.P,U2,33,PE3*%
%TO.N,unconnected-(U2-PE3-Pad33)*%
X168229449Y-112062785D03*
%TO.P,U2,34,PF0*%
%TO.N,PORT_GREEN*%
X167875895Y-111709231D03*
%TO.P,U2,35,PF1*%
%TO.N,PORT_BLUE*%
X167522342Y-111355678D03*
%TO.P,U2,36,PF2*%
%TO.N,STAR_SERVO*%
X167168788Y-111002124D03*
D23*
%TO.P,U2,37,PF3*%
%TO.N,EJEC_SERVO*%
X165171212Y-111002124D03*
%TO.P,U2,38,PF4*%
%TO.N,unconnected-(U2-PF4-Pad38)*%
X164817658Y-111355678D03*
%TO.P,U2,39,PF5*%
%TO.N,unconnected-(U2-PF5-Pad39)*%
X164464105Y-111709231D03*
%TO.P,U2,40,PF6/~{RESET}*%
%TO.N,unconnected-(U2-PF6{slash}~{RESET}-Pad40)*%
X164110551Y-112062785D03*
%TO.P,U2,41,UPDI*%
%TO.N,UPDI*%
X163756998Y-112416338D03*
%TO.P,U2,42,VCC*%
%TO.N,+3.3V*%
X163403445Y-112769891D03*
%TO.P,U2,43,GND*%
%TO.N,GND*%
X163049891Y-113123445D03*
%TO.P,U2,44,PA0*%
%TO.N,PA0{slash}MISO*%
X162696338Y-113476998D03*
%TO.P,U2,45,PA1*%
%TO.N,PA1{slash}MOSI*%
X162342785Y-113830551D03*
%TO.P,U2,46,PA2*%
%TO.N,PA2{slash}SCK*%
X161989231Y-114184105D03*
%TO.P,U2,47,PA3*%
%TO.N,PA3{slash}SS*%
X161635678Y-114537658D03*
%TO.P,U2,48,PA4*%
%TO.N,unconnected-(U2-PA4-Pad48)*%
X161282124Y-114891212D03*
%TD*%
D18*
%TO.P,D2,1,K*%
%TO.N,Net-(D2-K)*%
X162027500Y-102557500D03*
%TO.P,D2,2,A*%
%TO.N,Net-(D2-A)*%
X162667500Y-102557500D03*
%TD*%
D21*
%TO.P,R21,1*%
%TO.N,+3.3V*%
X180610000Y-125950000D03*
%TO.P,R21,2*%
%TO.N,SDA*%
X181630000Y-125950000D03*
%TD*%
%TO.P,R22,1*%
%TO.N,+3.3V*%
X180470000Y-123770000D03*
%TO.P,R22,2*%
%TO.N,SCL*%
X181490000Y-123770000D03*
%TD*%
D24*
%TO.P,J2,1,Pin_1*%
%TO.N,+3.3V*%
X159365000Y-97962500D03*
D25*
%TO.P,J2,2,Pin_2*%
%TO.N,Net-(J2-Pin_2)*%
X159365000Y-95422500D03*
%TO.P,J2,3,Pin_3*%
%TO.N,Net-(J2-Pin_3)*%
X161905000Y-97962500D03*
%TO.P,J2,4,Pin_4*%
%TO.N,UPDI*%
X161905000Y-95422500D03*
%TO.P,J2,5,Pin_5*%
%TO.N,GND*%
X164445000Y-97962500D03*
%TO.P,J2,6,Pin_6*%
%TO.N,Net-(J2-Pin_6)*%
X164445000Y-95422500D03*
%TD*%
D17*
%TO.P,R15,1*%
%TO.N,Net-(D6-K)*%
X147175000Y-112952500D03*
%TO.P,R15,2*%
%TO.N,Net-(U9-FB)*%
X146155000Y-112952500D03*
%TD*%
D26*
%TO.P,D1,1,GND*%
%TO.N,Net-(D1-GND)*%
X155720000Y-102727500D03*
D27*
%TO.P,D1,2,I/O1*%
%TO.N,Net-(D1-I{slash}O1)*%
X155720000Y-101027500D03*
%TO.P,D1,3,I/O2*%
%TO.N,Net-(D1-I{slash}O2)*%
X153720000Y-101027500D03*
%TO.P,D1,4,VCC*%
%TO.N,Net-(D1-GND)*%
X153720000Y-102927500D03*
%TD*%
D28*
%TO.P,PORTSIDE_RGB1,1,BA*%
%TO.N,Net-(PORTSIDE_RGB1-BA)*%
X187230000Y-94980000D03*
D29*
%TO.P,PORTSIDE_RGB1,2,RA*%
%TO.N,Net-(PORTSIDE_RGB1-RA)*%
X187230000Y-96030000D03*
D28*
%TO.P,PORTSIDE_RGB1,3,GA*%
%TO.N,Net-(PORTSIDE_RGB1-GA)*%
X187230000Y-97080000D03*
%TO.P,PORTSIDE_RGB1,4,GK*%
%TO.N,GND*%
X190280000Y-97080000D03*
D29*
%TO.P,PORTSIDE_RGB1,5,RK*%
X190280000Y-96030000D03*
D28*
%TO.P,PORTSIDE_RGB1,6,BK*%
X190280000Y-94980000D03*
%TD*%
D17*
%TO.P,R29,1*%
%TO.N,Net-(PORTSIDE_RGB1-RA)*%
X185775000Y-96030000D03*
%TO.P,R29,2*%
%TO.N,PORT_RED*%
X184755000Y-96030000D03*
%TD*%
D24*
%TO.P,J7,1,Pin_1*%
%TO.N,EJEC_SERVO*%
X153460000Y-126440000D03*
D25*
%TO.P,J7,2,Pin_2*%
%TO.N,+5V*%
X153460000Y-128980000D03*
%TO.P,J7,3,Pin_3*%
%TO.N,GND*%
X153460000Y-131520000D03*
%TD*%
D17*
%TO.P,R9,1*%
%TO.N,+3.3V*%
X164077500Y-101617500D03*
%TO.P,R9,2*%
%TO.N,Net-(D2-K)*%
X163057500Y-101617500D03*
%TD*%
D30*
%TO.P,U5,1,NC*%
%TO.N,unconnected-(U5-NC-Pad1)*%
X160153744Y-119650850D03*
D31*
%TO.P,U5,2,PG*%
%TO.N,GND*%
X160030000Y-118820000D03*
D30*
%TO.P,U5,3,OUT*%
%TO.N,TEMP_SENSOR*%
X160860850Y-118943744D03*
%TO.P,U5,4,VDD*%
%TO.N,+3.3V*%
X159906256Y-117989150D03*
%TO.P,U5,5,GND*%
%TO.N,GND*%
X159199150Y-118696256D03*
%TD*%
D21*
%TO.P,R17,1*%
%TO.N,+3.3V*%
X146835000Y-117992500D03*
%TO.P,R17,2*%
%TO.N,Net-(D5-A)*%
X147855000Y-117992500D03*
%TD*%
D32*
%TO.P,U6,1,RESV_NC*%
%TO.N,unconnected-(U6-RESV_NC-Pad1)*%
X183592500Y-126267500D03*
D33*
%TO.P,U6,2,GND*%
%TO.N,GND*%
X183455000Y-127180000D03*
%TO.P,U6,3,VDD*%
%TO.N,+3.3V*%
X183455000Y-127680000D03*
%TO.P,U6,4,~{BOOT}*%
%TO.N,Net-(U6-~{BOOT})*%
X183455000Y-128180000D03*
%TO.P,U6,5,PS1*%
%TO.N,PS1*%
X183455000Y-128680000D03*
D32*
%TO.P,U6,6,PS0/WAKE*%
%TO.N,PS0{slash}WAKE*%
X183592500Y-129592500D03*
%TO.P,U6,7,RESV_NC*%
%TO.N,unconnected-(U6-RESV_NC-Pad7)*%
X184092500Y-129592500D03*
%TO.P,U6,8,RESV_NC*%
%TO.N,unconnected-(U6-RESV_NC-Pad8)*%
X184592500Y-129592500D03*
%TO.P,U6,9,CAP*%
%TO.N,Net-(U6-CAP)*%
X185092500Y-129592500D03*
%TO.P,U6,10,CLKSEL0*%
%TO.N,GND*%
X185592500Y-129592500D03*
%TO.P,U6,11,~{RST}*%
%TO.N,Net-(U6-~{RST})*%
X186092500Y-129592500D03*
%TO.P,U6,12,RESV_NC*%
%TO.N,unconnected-(U6-RESV_NC-Pad12)*%
X186592500Y-129592500D03*
%TO.P,U6,13,RESV_NC*%
%TO.N,unconnected-(U6-RESV_NC-Pad13)*%
X187092500Y-129592500D03*
%TO.P,U6,14,~{H_INT}*%
%TO.N,INT*%
X187592500Y-129592500D03*
%TO.P,U6,15,ENV_SCL*%
%TO.N,Net-(U6-ENV_SCL)*%
X188092500Y-129592500D03*
D33*
%TO.P,U6,16,ENV_SDA*%
%TO.N,Net-(U6-ENV_SDA)*%
X188230000Y-128680000D03*
%TO.P,U6,17,SA0/H_MOSI*%
%TO.N,Net-(ADR1-B)*%
X188230000Y-128180000D03*
%TO.P,U6,18,~{H_CS}*%
%TO.N,unconnected-(U6-~{H_CS}-Pad18)*%
X188230000Y-127680000D03*
%TO.P,U6,19,H_SCL/SCK/RX*%
%TO.N,SCL*%
X188230000Y-127180000D03*
D32*
%TO.P,U6,20,H_SDA/H_MISO/TX*%
%TO.N,SDA*%
X188092500Y-126267500D03*
%TO.P,U6,21,RESV_NC*%
%TO.N,unconnected-(U6-RESV_NC-Pad21)*%
X187592500Y-126267500D03*
%TO.P,U6,22,RESV_NC*%
%TO.N,unconnected-(U6-RESV_NC-Pad22)*%
X187092500Y-126267500D03*
%TO.P,U6,23,RESV_NC*%
%TO.N,unconnected-(U6-RESV_NC-Pad23)*%
X186592500Y-126267500D03*
%TO.P,U6,24,RESV_NC*%
%TO.N,unconnected-(U6-RESV_NC-Pad24)*%
X186092500Y-126267500D03*
%TO.P,U6,25,GNDIO*%
%TO.N,GND*%
X185592500Y-126267500D03*
%TO.P,U6,26,XOUT32/CLKSEL1*%
%TO.N,Net-(U6-XOUT32{slash}CLKSEL1)*%
X185092500Y-126267500D03*
%TO.P,U6,27,XIN32*%
%TO.N,Net-(U6-XIN32)*%
X184592500Y-126267500D03*
%TO.P,U6,28,VDDIO*%
%TO.N,+3.3V*%
X184092500Y-126267500D03*
%TD*%
D15*
%TO.P,R3,1*%
%TO.N,+3.3V*%
X166790000Y-97442500D03*
%TO.P,R3,2*%
%TO.N,Net-(D3-A)*%
X166790000Y-98462500D03*
%TD*%
D11*
%TO.P,C3,1*%
%TO.N,Net-(U6-XIN32)*%
X184522500Y-121857500D03*
%TO.P,C3,2*%
%TO.N,GND*%
X184522500Y-121217500D03*
%TD*%
D34*
%TO.P,Q3,1,G*%
%TO.N,+3.3V*%
X167582500Y-101350000D03*
%TO.P,Q3,2,S*%
%TO.N,Net-(D2-K)*%
X165682500Y-101350000D03*
%TO.P,Q3,3,D*%
%TO.N,RX0*%
X166632500Y-103225000D03*
%TD*%
D35*
%TO.P,J3,1,DAT2*%
%TO.N,unconnected-(J3-DAT2-Pad1)*%
X178960000Y-115775000D03*
%TO.P,J3,2,DAT3/CD*%
%TO.N,unconnected-(J3-DAT3{slash}CD-Pad2)*%
X178960000Y-114675000D03*
%TO.P,J3,3,CMD*%
%TO.N,Net-(J3-CMD)*%
X178960000Y-113575000D03*
%TO.P,J3,4,VDD*%
%TO.N,GND*%
X178960000Y-112475000D03*
%TO.P,J3,5,CLK*%
%TO.N,Net-(J3-CLK)*%
X178960000Y-111375000D03*
%TO.P,J3,6,VSS*%
%TO.N,+3.3V*%
X178960000Y-110275000D03*
%TO.P,J3,7,DAT0*%
%TO.N,Net-(J3-DAT0)*%
X178960000Y-109175000D03*
D36*
%TO.P,J3,8,DAT1*%
%TO.N,Net-(J3-DAT1)*%
X178960000Y-108125000D03*
D37*
%TO.P,J3,9,DET*%
%TO.N,CD*%
X185110000Y-118410000D03*
%TO.P,J3,10,SHIELD*%
%TO.N,GND*%
X188810000Y-118410000D03*
D38*
%TO.P,J3,11*%
%TO.N,N/C*%
X179085000Y-118235000D03*
D39*
X189785000Y-114910000D03*
X189785000Y-108940000D03*
D40*
X179310000Y-106915000D03*
%TD*%
D41*
%TO.P,C9,1*%
%TO.N,+5V*%
X158207500Y-122065000D03*
%TO.P,C9,2*%
%TO.N,GND*%
X158207500Y-122705000D03*
%TD*%
D42*
%TO.P,U9,1,FB*%
%TO.N,Net-(U9-FB)*%
X150480000Y-112615000D03*
%TO.P,U9,2,VCC*%
%TO.N,unconnected-(U9-VCC-Pad2)*%
X149980000Y-112615000D03*
%TO.P,U9,3,AGND*%
%TO.N,GND*%
X149480000Y-112615000D03*
%TO.P,U9,4,SW*%
%TO.N,unconnected-(U9-SW-Pad19)_1*%
X148980000Y-112615000D03*
D43*
%TO.P,U9,5,SW*%
%TO.N,unconnected-(U9-SW-Pad19)_2*%
X148267500Y-113327500D03*
%TO.P,U9,6,SW*%
%TO.N,unconnected-(U9-SW-Pad19)*%
X148267500Y-113827500D03*
%TO.P,U9,7,OUT*%
%TO.N,Net-(D6-K)*%
X148267500Y-114327500D03*
%TO.P,U9,8,OUT*%
X148267500Y-114827500D03*
D42*
%TO.P,U9,9,OUT*%
X148980000Y-115540000D03*
%TO.P,U9,10*%
%TO.N,N/C*%
X149480000Y-115540000D03*
%TO.P,U9,11,BST*%
%TO.N,unconnected-(U9-BST-Pad11)*%
X149980000Y-115540000D03*
%TO.P,U9,12,PGND*%
%TO.N,GND*%
X150480000Y-115540000D03*
D43*
%TO.P,U9,13,PGND*%
X151192500Y-114827500D03*
%TO.P,U9,14,PGND*%
X151192500Y-114327500D03*
%TO.P,U9,15*%
%TO.N,N/C*%
X151192500Y-113827500D03*
%TO.P,U9,16,IN*%
%TO.N,Net-(U9-IN)*%
X151192500Y-113327500D03*
D44*
%TO.P,U9,17,EN*%
%TO.N,Net-(U9-EN)*%
X149730000Y-114077500D03*
%TD*%
D15*
%TO.P,R14,1*%
%TO.N,Net-(U9-IN)*%
X152335000Y-113342500D03*
%TO.P,R14,2*%
%TO.N,Net-(U9-EN)*%
X152335000Y-114362500D03*
%TD*%
D21*
%TO.P,R31,1*%
%TO.N,Net-(J1-CC1)*%
X153540000Y-104147500D03*
%TO.P,R31,2*%
%TO.N,GND*%
X154560000Y-104147500D03*
%TD*%
D17*
%TO.P,R26,1*%
%TO.N,STAR_RED*%
X149940000Y-96120000D03*
%TO.P,R26,2*%
%TO.N,Net-(STARBOARD_RGB1-RA)*%
X148920000Y-96120000D03*
%TD*%
D11*
%TO.P,C2,1*%
%TO.N,Net-(U6-XOUT32{slash}CLKSEL1)*%
X185222500Y-121852500D03*
%TO.P,C2,2*%
%TO.N,GND*%
X185222500Y-121212500D03*
%TD*%
D45*
%TO.P,Y1,1,1*%
%TO.N,Net-(U6-XOUT32{slash}CLKSEL1)*%
X185732500Y-123947500D03*
%TO.P,Y1,2,2*%
%TO.N,Net-(U6-XIN32)*%
X183832500Y-123947500D03*
%TD*%
D17*
%TO.P,R6,1*%
%TO.N,+3.3V*%
X167040000Y-104907500D03*
%TO.P,R6,2*%
%TO.N,/TX_UPDI*%
X166020000Y-104907500D03*
%TD*%
D46*
%TO.P,U4,1,VIN*%
%TO.N,Net-(D6-K)*%
X146835000Y-114335000D03*
%TO.P,U4,2,GND*%
%TO.N,GND*%
X145885000Y-114335000D03*
%TO.P,U4,3,EN*%
%TO.N,Net-(D6-K)*%
X144935000Y-114335000D03*
%TO.P,U4,4,NC*%
%TO.N,unconnected-(U4-NC-Pad4)*%
X144935000Y-116610000D03*
%TO.P,U4,5,VOUT*%
%TO.N,+3.3V*%
X146835000Y-116610000D03*
%TD*%
D17*
%TO.P,R30,1*%
%TO.N,Net-(PORTSIDE_RGB1-GA)*%
X185785000Y-97080000D03*
%TO.P,R30,2*%
%TO.N,PORT_GREEN*%
X184765000Y-97080000D03*
%TD*%
D15*
%TO.P,R20,1*%
%TO.N,Net-(U6-ENV_SDA)*%
X189292500Y-128790000D03*
%TO.P,R20,2*%
%TO.N,+3.3V*%
X189292500Y-129810000D03*
%TD*%
D21*
%TO.P,R24,1*%
%TO.N,+3.3V*%
X181412500Y-128190000D03*
%TO.P,R24,2*%
%TO.N,Net-(U6-~{BOOT})*%
X182432500Y-128190000D03*
%TD*%
D47*
%TO.P,ADR1,1,A*%
%TO.N,GND*%
X190082500Y-126070000D03*
%TO.P,ADR1,2,B*%
%TO.N,Net-(ADR1-B)*%
X190082500Y-127370000D03*
%TD*%
D41*
%TO.P,C8,1*%
%TO.N,Net-(D1-GND)*%
X153197500Y-121575000D03*
%TO.P,C8,2*%
%TO.N,GND*%
X153197500Y-122215000D03*
%TD*%
D48*
%TO.P,U7,1,VCCA*%
%TO.N,+3.3V*%
X189655000Y-99292500D03*
%TO.P,U7,2,A1*%
%TO.N,Net-(J3-DAT1)*%
X188385000Y-99292500D03*
%TO.P,U7,3,A2*%
%TO.N,Net-(J3-DAT0)*%
X187115000Y-99292500D03*
%TO.P,U7,4,A3*%
%TO.N,Net-(J3-CLK)*%
X185845000Y-99292500D03*
%TO.P,U7,5,A4*%
%TO.N,Net-(J3-CMD)*%
X184575000Y-99292500D03*
%TO.P,U7,6,NC*%
%TO.N,unconnected-(U7-NC-Pad6)*%
X183305000Y-99292500D03*
%TO.P,U7,7,GND*%
%TO.N,GND*%
X182035000Y-99292500D03*
%TO.P,U7,8,OE*%
%TO.N,+3.3V*%
X182035000Y-104242500D03*
%TO.P,U7,9,NC*%
%TO.N,unconnected-(U7-NC-Pad9)*%
X183305000Y-104242500D03*
%TO.P,U7,10,B4*%
%TO.N,D5*%
X184575000Y-104242500D03*
%TO.P,U7,11,B3*%
%TO.N,D4*%
X185845000Y-104242500D03*
%TO.P,U7,12,B2*%
%TO.N,D6*%
X187115000Y-104242500D03*
%TO.P,U7,13,B1*%
%TO.N,D7*%
X188385000Y-104242500D03*
%TO.P,U7,14,VCCB*%
%TO.N,+3.3V*%
X189655000Y-104242500D03*
%TD*%
D49*
%TO.P,L1,1,1*%
%TO.N,Net-(D1-GND)*%
X158350000Y-119625000D03*
%TO.P,L1,2,2*%
%TO.N,Net-(L1-Pad2)*%
X158350000Y-120595000D03*
%TD*%
D50*
%TO.P,Q2,1,G*%
%TO.N,+3.3V*%
X169312500Y-97555000D03*
%TO.P,Q2,2,S*%
%TO.N,Net-(D3-K)*%
X169312500Y-99455000D03*
%TO.P,Q2,3,D*%
%TO.N,TX0*%
X171187500Y-98505000D03*
%TD*%
D17*
%TO.P,R4,1*%
%TO.N,+3.3V*%
X164500000Y-102557500D03*
%TO.P,R4,2*%
%TO.N,Net-(D2-A)*%
X163480000Y-102557500D03*
%TD*%
%TO.P,R12,1*%
%TO.N,+3.3V*%
X169110000Y-104707500D03*
%TO.P,R12,2*%
%TO.N,RX0*%
X168090000Y-104707500D03*
%TD*%
D15*
%TO.P,R10,1*%
%TO.N,+3.3V*%
X167770000Y-98617500D03*
%TO.P,R10,2*%
%TO.N,Net-(D3-K)*%
X167770000Y-99637500D03*
%TD*%
D17*
%TO.P,R7,1*%
%TO.N,+3.3V*%
X166670000Y-109737500D03*
%TO.P,R7,2*%
%TO.N,UPDI*%
X165650000Y-109737500D03*
%TD*%
D24*
%TO.P,J6,1,Pin_1*%
%TO.N,Net-(D1-GND)*%
X151037500Y-119480000D03*
D25*
%TO.P,J6,2,Pin_2*%
%TO.N,GND*%
X151037500Y-122020000D03*
%TD*%
D51*
%TO.P,D6,1,K*%
%TO.N,Net-(D6-K)*%
X155460000Y-113220000D03*
%TO.P,D6,2,A*%
%TO.N,Net-(D1-GND)*%
X155460000Y-110420000D03*
%TD*%
D34*
%TO.P,Q1,1,G*%
%TO.N,+3.3V*%
X166580000Y-106377500D03*
%TO.P,Q1,2,S*%
%TO.N,/TX_UPDI*%
X164680000Y-106377500D03*
%TO.P,Q1,3,D*%
%TO.N,UPDI*%
X165630000Y-108252500D03*
%TD*%
D52*
%TO.P,Q4,1,G*%
%TO.N,BUZZER*%
X164050000Y-127937500D03*
%TO.P,Q4,2,S*%
%TO.N,Net-(BZ1--)*%
X165950000Y-127937500D03*
%TO.P,Q4,3,D*%
%TO.N,GND*%
X165000000Y-126062500D03*
%TD*%
D21*
%TO.P,R1,1*%
%TO.N,Net-(D1-GND)*%
X156760000Y-103177500D03*
%TO.P,R1,2*%
%TO.N,GND*%
X157780000Y-103177500D03*
%TD*%
%TO.P,R32,1*%
%TO.N,Net-(J1-CC2)*%
X149110000Y-110837500D03*
%TO.P,R32,2*%
%TO.N,GND*%
X150130000Y-110837500D03*
%TD*%
D20*
%TO.P,R23,1*%
%TO.N,+3.3V*%
X190232500Y-129810000D03*
%TO.P,R23,2*%
%TO.N,Net-(ADR1-B)*%
X190232500Y-128790000D03*
%TD*%
D24*
%TO.P,J5,1,Pin_1*%
%TO.N,PORT_SERVO*%
X149530000Y-131980000D03*
D25*
%TO.P,J5,2,Pin_2*%
%TO.N,+5V*%
X146990000Y-131980000D03*
%TO.P,J5,3,Pin_3*%
%TO.N,GND*%
X144450000Y-131980000D03*
%TD*%
D53*
%TO.P,STARBOARD_RGB1,1,BA*%
%TO.N,Net-(STARBOARD_RGB1-BA)*%
X147465000Y-97160000D03*
D54*
%TO.P,STARBOARD_RGB1,2,RA*%
%TO.N,Net-(STARBOARD_RGB1-RA)*%
X147465000Y-96110000D03*
D53*
%TO.P,STARBOARD_RGB1,3,GA*%
%TO.N,Net-(STARBOARD_RGB1-GA)*%
X147465000Y-95060000D03*
%TO.P,STARBOARD_RGB1,4,GK*%
%TO.N,GND*%
X144415000Y-95060000D03*
D54*
%TO.P,STARBOARD_RGB1,5,RK*%
X144415000Y-96110000D03*
D53*
%TO.P,STARBOARD_RGB1,6,BK*%
X144415000Y-97160000D03*
%TD*%
D17*
%TO.P,R25,1*%
%TO.N,STAR_BLUE*%
X149930000Y-97160000D03*
%TO.P,R25,2*%
%TO.N,Net-(STARBOARD_RGB1-BA)*%
X148910000Y-97160000D03*
%TD*%
D55*
%TO.P,U8,1,VOUT*%
%TO.N,+5V*%
X157137500Y-122090000D03*
%TO.P,U8,2,NC*%
%TO.N,unconnected-(U8-NC-Pad2)*%
X157137500Y-121590000D03*
%TO.P,U8,3,SW*%
%TO.N,GND*%
X157137500Y-121090000D03*
%TO.P,U8,4,SW*%
%TO.N,Net-(L1-Pad2)*%
X157137500Y-120590000D03*
%TO.P,U8,5,PGND*%
%TO.N,GND*%
X157137500Y-120090000D03*
%TO.P,U8,6,PGND*%
X154237500Y-120090000D03*
%TO.P,U8,7,PGND*%
X154237500Y-120590000D03*
%TO.P,U8,8,VBAT*%
%TO.N,Net-(D1-GND)*%
X154237500Y-121090000D03*
%TO.P,U8,9,LBI*%
%TO.N,unconnected-(U8-LBI-Pad9)*%
X154237500Y-121590000D03*
%TO.P,U8,10,SYNC*%
%TO.N,GND*%
X154237500Y-122090000D03*
D56*
%TO.P,U8,11,EN*%
%TO.N,Net-(D1-GND)*%
X156262500Y-122030000D03*
X156262500Y-121090000D03*
X156262500Y-120150000D03*
D57*
X155687500Y-121090000D03*
D56*
X155112500Y-122030000D03*
X155112500Y-121090000D03*
X155112500Y-120150000D03*
%TD*%
D58*
%TO.P,U1,1,PA02*%
%TO.N,unconnected-(U1-PA02-Pad1)*%
X159820000Y-107585000D03*
%TO.P,U1,2,PA03*%
%TO.N,unconnected-(U1-PA03-Pad2)*%
X160320000Y-107585000D03*
%TO.P,U1,3,PA04*%
%TO.N,unconnected-(U1-PA04-Pad3)*%
X160820000Y-107585000D03*
%TO.P,U1,4,PA05*%
%TO.N,unconnected-(U1-PA05-Pad4)*%
X161320000Y-107585000D03*
%TO.P,U1,5,PA06*%
%TO.N,unconnected-(U1-PA06-Pad5)*%
X161820000Y-107585000D03*
%TO.P,U1,6,PA07*%
%TO.N,unconnected-(U1-PA07-Pad6)*%
X162320000Y-107585000D03*
D59*
%TO.P,U1,7,PA08/XIN*%
%TO.N,unconnected-(U1-PA08{slash}XIN-Pad7)*%
X163007500Y-106897500D03*
%TO.P,U1,8,PA09/XOUT*%
%TO.N,unconnected-(U1-PA09{slash}XOUT-Pad8)*%
X163007500Y-106397500D03*
%TO.P,U1,9,PA10*%
%TO.N,unconnected-(U1-PA10-Pad9)*%
X163007500Y-105897500D03*
%TO.P,U1,10,PA11*%
%TO.N,unconnected-(U1-PA11-Pad10)*%
X163007500Y-105397500D03*
%TO.P,U1,11,PA14*%
%TO.N,/TX_UPDI*%
X163007500Y-104897500D03*
%TO.P,U1,12,PA15*%
%TO.N,/RX_UPDI*%
X163007500Y-104397500D03*
D58*
%TO.P,U1,13,PA16*%
%TO.N,unconnected-(U1-PA16-Pad13)*%
X162320000Y-103710000D03*
%TO.P,U1,14,PA17*%
%TO.N,unconnected-(U1-PA17-Pad14)*%
X161820000Y-103710000D03*
%TO.P,U1,15,PA22*%
%TO.N,Net-(D2-K)*%
X161320000Y-103710000D03*
%TO.P,U1,16,PA23*%
%TO.N,Net-(D3-K)*%
X160820000Y-103710000D03*
%TO.P,U1,17,PA27*%
%TO.N,unconnected-(U1-PA27-Pad17)*%
X160320000Y-103710000D03*
%TO.P,U1,18,PA28/~{RST}*%
%TO.N,Net-(J2-Pin_6)*%
X159820000Y-103710000D03*
D59*
%TO.P,U1,19,PA30/SWCLK*%
%TO.N,Net-(J2-Pin_3)*%
X159132500Y-104397500D03*
%TO.P,U1,20,PA31/SWDIO*%
%TO.N,Net-(J2-Pin_2)*%
X159132500Y-104897500D03*
%TO.P,U1,21,PA24*%
%TO.N,Net-(D1-I{slash}O2)*%
X159132500Y-105397500D03*
%TO.P,U1,22,PA25*%
%TO.N,Net-(D1-I{slash}O1)*%
X159132500Y-105897500D03*
%TO.P,U1,23,GND*%
%TO.N,GND*%
X159132500Y-106397500D03*
%TO.P,U1,24,VDD*%
%TO.N,+3.3V*%
X159132500Y-106897500D03*
D60*
%TO.P,U1,25*%
%TO.N,N/C*%
X161070000Y-105647500D03*
%TD*%
D15*
%TO.P,R18,1*%
%TO.N,Net-(U6-~{RST})*%
X186092500Y-130610000D03*
%TO.P,R18,2*%
%TO.N,+3.3V*%
X186092500Y-131630000D03*
%TD*%
D19*
%TO.P,TP1,1,1*%
%TO.N,Net-(D1-I{slash}O1)*%
X156740000Y-108537500D03*
%TD*%
D24*
%TO.P,J4,1,Pin_1*%
%TO.N,STAR_SERVO*%
X149500000Y-125730000D03*
D25*
%TO.P,J4,2,Pin_2*%
%TO.N,+5V*%
X146960000Y-125730000D03*
%TO.P,J4,3,Pin_3*%
%TO.N,GND*%
X144420000Y-125730000D03*
%TD*%
D41*
%TO.P,C4,1*%
%TO.N,Net-(U9-IN)*%
X153460000Y-113335000D03*
%TO.P,C4,2*%
%TO.N,GND*%
X153460000Y-113975000D03*
%TD*%
D18*
%TO.P,C1,1*%
%TO.N,Net-(D1-GND)*%
X155545000Y-104220000D03*
%TO.P,C1,2*%
%TO.N,GND*%
X156185000Y-104220000D03*
%TD*%
D61*
%TO.P,BZ1,1,+*%
%TO.N,+5V*%
X176010785Y-126990000D03*
D62*
%TO.P,BZ1,2,-*%
%TO.N,Net-(BZ1--)*%
X171010785Y-126990000D03*
%TD*%
D63*
%TO.P,C6,1*%
%TO.N,+3.3V*%
X146025000Y-117882500D03*
%TO.P,C6,2*%
%TO.N,GND*%
X145385000Y-117882500D03*
%TD*%
D15*
%TO.P,R2,1*%
%TO.N,+3.3V*%
X158450000Y-101047500D03*
%TO.P,R2,2*%
%TO.N,Net-(J2-Pin_3)*%
X158450000Y-102067500D03*
%TD*%
D41*
%TO.P,C7,1*%
%TO.N,Net-(U6-CAP)*%
X185092500Y-130590000D03*
%TO.P,C7,2*%
%TO.N,GND*%
X185092500Y-131230000D03*
%TD*%
D17*
%TO.P,R28,1*%
%TO.N,Net-(PORTSIDE_RGB1-BA)*%
X185785000Y-94980000D03*
%TO.P,R28,2*%
%TO.N,PORT_BLUE*%
X184765000Y-94980000D03*
%TD*%
D18*
%TO.P,C5,1*%
%TO.N,Net-(D6-K)*%
X147975000Y-116572500D03*
%TO.P,C5,2*%
%TO.N,GND*%
X148615000Y-116572500D03*
%TD*%
D64*
%TO.P,C10,1*%
%TO.N,+5V*%
X159627500Y-123935000D03*
%TO.P,C10,2*%
%TO.N,GND*%
X159627500Y-129535000D03*
%TD*%
D65*
%TO.N,GND*%
X149170000Y-107990000D03*
X154770000Y-104987500D03*
X184110000Y-130850000D03*
X149732964Y-116431078D03*
X167676782Y-115045311D03*
X190910000Y-98610000D03*
X153740000Y-114650000D03*
X145700000Y-100427500D03*
X145000000Y-98200000D03*
X185640000Y-127870000D03*
X151500000Y-111000000D03*
X190100000Y-124800000D03*
X180009999Y-111111471D03*
X176220000Y-98310000D03*
X151460000Y-116550000D03*
X157031985Y-119228015D03*
X157582113Y-109482115D03*
X157890000Y-118315000D03*
X144380000Y-127510000D03*
X182610000Y-100634315D03*
X159940000Y-121110000D03*
X146135001Y-118832500D03*
X152395221Y-109453150D03*
X144420000Y-130580000D03*
X153480000Y-123040000D03*
X163350000Y-126410000D03*
X163540000Y-114643918D03*
X183789265Y-121916765D03*
X143480000Y-114140000D03*
X157310000Y-104307531D03*
X182160000Y-126840000D03*
X187800000Y-117700000D03*
X165300000Y-96817500D03*
X149150000Y-101820000D03*
X147190000Y-112132500D03*
X186324963Y-122365037D03*
X145920000Y-114300000D03*
X153787500Y-119109057D03*
X145870000Y-109407500D03*
X147542883Y-119508658D03*
X155160000Y-131970000D03*
X157710735Y-123380735D03*
X169808272Y-121861725D03*
X158500000Y-129500000D03*
%TO.N,Net-(D1-GND)*%
X153100002Y-102110000D03*
X154879057Y-118509057D03*
X153441985Y-106608015D03*
X155510000Y-117115000D03*
%TO.N,+3.3V*%
X179930000Y-125980000D03*
X160870000Y-100400000D03*
X149550000Y-117840000D03*
X165885735Y-110775735D03*
X172180000Y-100540000D03*
X164650735Y-113670735D03*
X166668883Y-117158883D03*
X164882501Y-101597500D03*
X179710000Y-123750000D03*
X178040000Y-95300000D03*
X145800000Y-116570000D03*
X181142500Y-104030000D03*
X182830000Y-108130000D03*
%TO.N,Net-(D1-I{slash}O1)*%
X155742260Y-105693922D03*
X153890000Y-101937500D03*
%TO.N,Net-(D1-I{slash}O2)*%
X152690000Y-100457500D03*
X156710000Y-105297500D03*
X157140000Y-106497500D03*
%TO.N,UPDI*%
X163013225Y-111672565D03*
%TO.N,RX0*%
X165909265Y-114109265D03*
X169000000Y-103600000D03*
%TO.N,Net-(U9-EN)*%
X149730000Y-114077500D03*
X152460000Y-114980000D03*
%TO.N,SCL*%
X166760933Y-121519067D03*
X166062403Y-122517597D03*
%TO.N,EJEC_SERVO*%
X155672720Y-126192722D03*
X165495735Y-112480000D03*
%TO.N,PA3{slash}SS*%
X172920000Y-97390000D03*
X161848917Y-109013024D03*
X168057868Y-107123603D03*
X173419835Y-100242230D03*
%TO.N,PA1{slash}MOSI*%
X168315735Y-108345735D03*
X176545000Y-100650000D03*
X163310000Y-109530000D03*
X174945000Y-100720000D03*
%TO.N,D5*%
X185291986Y-102905558D03*
X172870000Y-120130000D03*
%TO.N,D6*%
X174910000Y-120490000D03*
X187040000Y-103020000D03*
%TO.N,BUZZER*%
X167287403Y-123742597D03*
X170610000Y-121640000D03*
%TO.N,PA0{slash}MISO*%
X164150000Y-109620000D03*
X169269265Y-109089265D03*
%TO.N,D4*%
X186220735Y-102990735D03*
X174000000Y-120380000D03*
%TO.N,D7*%
X187880000Y-102970000D03*
X175610000Y-120970000D03*
%TO.N,PA2{slash}SCK*%
X162712970Y-108997500D03*
X176583518Y-99762953D03*
X174270388Y-100290000D03*
X167350000Y-107745735D03*
%TO.N,PORT_SERVO*%
X168015198Y-121924802D03*
%TO.N,STAR_BLUE*%
X162560000Y-116160000D03*
X150680000Y-97340000D03*
%TO.N,STAR_SERVO*%
X167460000Y-113980000D03*
%TO.N,STAR_GREEN*%
X150700000Y-94920000D03*
X158340000Y-108542943D03*
X165931498Y-119678990D03*
X158850000Y-109730000D03*
%TO.N,PORT_GREEN*%
X182597680Y-97962798D03*
X178753554Y-101464973D03*
%TO.N,STAR_RED*%
X150680000Y-96210000D03*
X165740000Y-118800000D03*
%TO.N,PORT_BLUE*%
X181094999Y-97768421D03*
X179871642Y-100041642D03*
%TO.N,+5V*%
X160790000Y-125980000D03*
X167887403Y-125650000D03*
%TO.N,Net-(J1-CC2)*%
X148340000Y-110867500D03*
%TO.N,/TX_UPDI*%
X165460000Y-105980000D03*
%TD*%
D66*
%TO.N,Net-(ADR1-B)*%
X190222500Y-128180000D02*
X190232500Y-128190000D01*
X188230000Y-128180000D02*
X190222500Y-128180000D01*
X190232500Y-128190000D02*
X190232500Y-127520000D01*
X190232500Y-128790000D02*
X190232500Y-128190000D01*
X190232500Y-127520000D02*
X190082500Y-127370000D01*
%TO.N,GND*%
X178960000Y-112475000D02*
X179710000Y-112475000D01*
X144450000Y-131970000D02*
X144420000Y-131940000D01*
X147205000Y-118832500D02*
X147205000Y-119170775D01*
X175440000Y-99090000D02*
X176220000Y-98310000D01*
X158705614Y-106397500D02*
X159132500Y-106397500D01*
X169666851Y-121861725D02*
X167875895Y-120070769D01*
X149150000Y-101820000D02*
X150642500Y-101820000D01*
X144420000Y-130580000D02*
X144420000Y-131950000D01*
X150015808Y-116431078D02*
X149732964Y-116431078D01*
X190082500Y-126070000D02*
X190082500Y-124817500D01*
X149480000Y-112188114D02*
X149194386Y-111902500D01*
X144415000Y-97160000D02*
X144415000Y-97615000D01*
X144415000Y-97615000D02*
X145000000Y-98200000D01*
X150182500Y-100787500D02*
X149150000Y-101820000D01*
X179710000Y-112475000D02*
X180009999Y-112175001D01*
X144420000Y-131950000D02*
X144450000Y-131980000D01*
X157915552Y-121190000D02*
X159860000Y-121190000D01*
X158500000Y-129500000D02*
X159592500Y-129500000D01*
X157310000Y-104307531D02*
X157780000Y-103837531D01*
X190280000Y-94980000D02*
X190280000Y-97080000D01*
X158271256Y-118696256D02*
X157890000Y-118315000D01*
X144450000Y-131980000D02*
X144450000Y-131970000D01*
X157137500Y-121090000D02*
X157815552Y-121090000D01*
X159906256Y-118696256D02*
X160030000Y-118820000D01*
X150940000Y-102117500D02*
X152200000Y-102117500D01*
X183789265Y-121750736D02*
X183789265Y-121916765D01*
X145920000Y-114300000D02*
X145885000Y-114335000D01*
X182035000Y-100059315D02*
X182610000Y-100634315D01*
X158207500Y-122705000D02*
X158207500Y-122883970D01*
X153460000Y-131520000D02*
X154710000Y-131520000D01*
X152200000Y-102117500D02*
X152250000Y-102167500D01*
X150480000Y-115966886D02*
X150015808Y-116431078D01*
X186324963Y-122114964D02*
X186324963Y-122365037D01*
X157815552Y-121090000D02*
X157915552Y-121190000D01*
X185592500Y-127917500D02*
X185592500Y-129592500D01*
X174670000Y-99090000D02*
X175440000Y-99090000D01*
X157582113Y-109482115D02*
X157698569Y-109365659D01*
X153787500Y-119640000D02*
X154237500Y-120090000D01*
X154237500Y-122282500D02*
X153480000Y-123040000D01*
X157780000Y-103837531D02*
X157780000Y-103177500D01*
X154770000Y-104357500D02*
X154560000Y-104147500D01*
X150340000Y-108309352D02*
X149489352Y-108309352D01*
X153197500Y-122215000D02*
X153197500Y-122757500D01*
X167676782Y-115045311D02*
X168075349Y-115045311D01*
X185092500Y-131230000D02*
X184490000Y-131230000D01*
X150130000Y-110837500D02*
X151337500Y-110837500D01*
X159592500Y-129500000D02*
X159627500Y-129535000D01*
X154770000Y-104987500D02*
X154770000Y-104357500D01*
X184490000Y-131230000D02*
X184110000Y-130850000D01*
X153740000Y-114096544D02*
X153618456Y-113975000D01*
X154237500Y-120590000D02*
X154237500Y-120090000D01*
X153618456Y-113975000D02*
X153460000Y-113975000D01*
X147205000Y-119170775D02*
X147542883Y-119508658D01*
X157698569Y-107404545D02*
X158705614Y-106397500D01*
X144420000Y-127470000D02*
X144380000Y-127510000D01*
X144420000Y-125730000D02*
X144420000Y-127470000D01*
X182160000Y-126840000D02*
X183115000Y-126840000D01*
X145385000Y-117882500D02*
X145385000Y-118082499D01*
X153197500Y-122757500D02*
X153480000Y-123040000D01*
X149591542Y-116572500D02*
X149732964Y-116431078D01*
X150642500Y-101820000D02*
X150940000Y-102117500D01*
X159199150Y-118696256D02*
X159906256Y-118696256D01*
X154237500Y-122090000D02*
X154237500Y-122282500D01*
X151192500Y-116282500D02*
X151460000Y-116550000D01*
X153740000Y-114650000D02*
X153740000Y-114096544D01*
X185422499Y-121212500D02*
X186324963Y-122114964D01*
X163049891Y-113123445D02*
X163594299Y-113667853D01*
X149489352Y-108309352D02*
X149170000Y-107990000D01*
X180009999Y-112175001D02*
X180009999Y-111111471D01*
X159199150Y-118696256D02*
X158271256Y-118696256D01*
X144390000Y-100427500D02*
X145700000Y-100427500D01*
X183115000Y-126840000D02*
X183455000Y-127180000D01*
X187800000Y-117700000D02*
X188100000Y-117700000D01*
X190280000Y-97080000D02*
X190280000Y-97980000D01*
X182035000Y-99292500D02*
X182035000Y-100059315D01*
X154710000Y-131520000D02*
X155160000Y-131970000D01*
X144415000Y-95060000D02*
X144415000Y-97160000D01*
X151192500Y-114327500D02*
X151192500Y-114827500D01*
X165300000Y-96817500D02*
X165300000Y-97107500D01*
X152395221Y-109453150D02*
X152515000Y-109333371D01*
X163697500Y-126062500D02*
X165000000Y-126062500D01*
X151337500Y-110837500D02*
X151500000Y-111000000D01*
X157137500Y-119333530D02*
X157031985Y-119228015D01*
X185640000Y-127870000D02*
X185592500Y-127917500D01*
X155459999Y-104987500D02*
X154770000Y-104987500D01*
X152460000Y-122020000D02*
X153480000Y-123040000D01*
X150480000Y-115540000D02*
X150480000Y-115966886D01*
X151037500Y-122020000D02*
X152460000Y-122020000D01*
X165300000Y-97107500D02*
X164445000Y-97962500D01*
X151192500Y-114827500D02*
X151192500Y-116282500D01*
X157698569Y-109365659D02*
X157698569Y-107404545D01*
X149194386Y-111902500D02*
X147420000Y-111902500D01*
X163594299Y-114589619D02*
X163540000Y-114643918D01*
X163594299Y-113667853D02*
X163594299Y-114589619D01*
X185222500Y-121212500D02*
X185422499Y-121212500D01*
X169808272Y-121861725D02*
X169666851Y-121861725D01*
X150340000Y-108309352D02*
X150935926Y-107713426D01*
X190082500Y-124817500D02*
X190100000Y-124800000D01*
X144265000Y-113355000D02*
X143480000Y-114140000D01*
X153787500Y-119109057D02*
X153787500Y-119640000D01*
X152515000Y-107932500D02*
X152250000Y-107667500D01*
X159860000Y-121190000D02*
X159940000Y-121110000D01*
X148615000Y-116572500D02*
X149591542Y-116572500D01*
X150340000Y-100787500D02*
X150182500Y-100787500D01*
X185592500Y-127822500D02*
X185640000Y-127870000D01*
X190280000Y-97980000D02*
X190910000Y-98610000D01*
X184522500Y-121217500D02*
X184322501Y-121217500D01*
X152515000Y-109333371D02*
X152515000Y-107932500D01*
X144265000Y-112952500D02*
X144265000Y-113355000D01*
X145385000Y-118082499D02*
X146135001Y-118832500D01*
X168075349Y-115045311D02*
X169643662Y-113476998D01*
X149480000Y-112615000D02*
X149480000Y-112188114D01*
X157137500Y-120090000D02*
X157137500Y-119333530D01*
X163350000Y-126410000D02*
X163697500Y-126062500D01*
X184322501Y-121217500D02*
X183789265Y-121750736D01*
X188100000Y-117700000D02*
X188810000Y-118410000D01*
X156190000Y-104257499D02*
X155459999Y-104987500D01*
X144390000Y-109407500D02*
X145870000Y-109407500D01*
X158207500Y-122883970D02*
X157710735Y-123380735D01*
X150340000Y-109047500D02*
X150340000Y-108309352D01*
X147420000Y-111902500D02*
X147190000Y-112132500D01*
X185592500Y-126267500D02*
X185592500Y-127822500D01*
%TO.N,Net-(D1-GND)*%
X152915000Y-106232500D02*
X152850000Y-106167500D01*
X153720000Y-102927500D02*
X153265000Y-103382500D01*
X156760000Y-103325956D02*
X156598456Y-103487500D01*
X152250000Y-103667500D02*
X152980000Y-103667500D01*
X154879057Y-118509057D02*
X153187500Y-118509057D01*
X153441985Y-106608015D02*
X152933015Y-106608015D01*
X156767500Y-118115000D02*
X155273114Y-118115000D01*
X150990000Y-103667500D02*
X150940000Y-103717500D01*
D67*
X153537500Y-121085000D02*
X153287500Y-120835000D01*
D66*
X155440000Y-104220000D02*
X155130000Y-103910000D01*
X153113750Y-103533750D02*
X153113750Y-101940455D01*
X152915000Y-106590000D02*
X152915000Y-106232500D01*
X153197500Y-121575000D02*
X153197500Y-120925000D01*
X155240000Y-110760000D02*
X156500000Y-112020000D01*
D67*
X151037500Y-119480000D02*
X151932500Y-119480000D01*
D66*
X156598456Y-103487500D02*
X155450000Y-103487500D01*
X152933015Y-106608015D02*
X152915000Y-106590000D01*
X156500000Y-114500000D02*
X155510000Y-115490000D01*
X155460000Y-110420000D02*
X155460000Y-110540000D01*
X155130000Y-103637500D02*
X154875000Y-103382500D01*
X153113750Y-101940455D02*
X153113750Y-102096252D01*
D67*
X155112500Y-121090000D02*
X153537500Y-121090000D01*
D66*
X155130000Y-103910000D02*
X155130000Y-103637500D01*
X152250000Y-103667500D02*
X150990000Y-103667500D01*
D67*
X151932500Y-119480000D02*
X153187500Y-120735000D01*
D66*
X150990000Y-106167500D02*
X150940000Y-106117500D01*
X155065000Y-103382500D02*
X154875000Y-103382500D01*
X155273114Y-118115000D02*
X154879057Y-118509057D01*
X152250000Y-106167500D02*
X150990000Y-106167500D01*
X153537500Y-121090000D02*
X153537500Y-121085000D01*
X153287500Y-120835000D02*
X153187500Y-120735000D01*
X153265000Y-103382500D02*
X153113750Y-103533750D01*
X156500000Y-112020000D02*
X156500000Y-114500000D01*
X152915000Y-109145000D02*
X154530000Y-110760000D01*
X153187500Y-118509057D02*
X153187500Y-120735000D01*
X155510000Y-115490000D02*
X155510000Y-117115000D01*
X153197500Y-120925000D02*
X153287500Y-120835000D01*
X152850000Y-106167500D02*
X152250000Y-106167500D01*
X155545000Y-104220000D02*
X155440000Y-104220000D01*
X155460000Y-110540000D02*
X155240000Y-110760000D01*
X154862500Y-103370000D02*
X153277500Y-103370000D01*
X158277500Y-119625000D02*
X156767500Y-118115000D01*
X155720000Y-102727500D02*
X155205000Y-103242500D01*
X154530000Y-110760000D02*
X155240000Y-110760000D01*
D67*
X154237500Y-121090000D02*
X153537500Y-121090000D01*
D66*
X155205000Y-103242500D02*
X155065000Y-103382500D01*
X153113750Y-102096252D02*
X153100002Y-102110000D01*
X156760000Y-103177500D02*
X156760000Y-103325956D01*
X153113750Y-103533750D02*
X152980000Y-103667500D01*
X154875000Y-103382500D02*
X154862500Y-103370000D01*
X155450000Y-103487500D02*
X155205000Y-103242500D01*
X153277500Y-103370000D02*
X153265000Y-103382500D01*
X152915000Y-106590000D02*
X152915000Y-109145000D01*
%TO.N,Net-(U6-XOUT32{slash}CLKSEL1)*%
X185092500Y-123977500D02*
X185092500Y-121982500D01*
X185092500Y-126267500D02*
X185092500Y-124060000D01*
X185092500Y-123977500D02*
X185702500Y-123977500D01*
X185092500Y-121982500D02*
X185222500Y-121852500D01*
X185702500Y-123977500D02*
X185732500Y-123947500D01*
%TO.N,Net-(U6-XIN32)*%
X184592500Y-123967500D02*
X184592500Y-121927500D01*
X183832500Y-123947500D02*
X184572500Y-123947500D01*
X184592500Y-121927500D02*
X184522500Y-121857500D01*
X184572500Y-124030000D02*
X184592500Y-124050000D01*
X184592500Y-126267500D02*
X184592500Y-124050000D01*
%TO.N,Net-(U9-IN)*%
X152335000Y-113342500D02*
X151207500Y-113342500D01*
X152335000Y-113342500D02*
X153452500Y-113342500D01*
X151207500Y-113342500D02*
X151192500Y-113327500D01*
X153452500Y-113342500D02*
X153460000Y-113335000D01*
%TO.N,Net-(D6-K)*%
X147935000Y-117152500D02*
X154667500Y-117152500D01*
X147395000Y-113172500D02*
X147395000Y-114325000D01*
X147535000Y-114335000D02*
X147635000Y-114335000D01*
X147635000Y-116106948D02*
X147635000Y-115722500D01*
X148260000Y-114335000D02*
X148267500Y-114327500D01*
X146835000Y-114335000D02*
X147225000Y-114335000D01*
X154780000Y-117040000D02*
X154780000Y-114225686D01*
X147635000Y-115722500D02*
X147635000Y-114335000D01*
X155460000Y-113545686D02*
X155460000Y-113220000D01*
X146835000Y-114725000D02*
X146835000Y-114335000D01*
X144935000Y-114688052D02*
X144935000Y-114335000D01*
X147635000Y-116852500D02*
X147935000Y-117152500D01*
X146080000Y-115480000D02*
X146835000Y-114725000D01*
X147405000Y-114335000D02*
X147535000Y-114335000D01*
X147975000Y-116572500D02*
X147975000Y-116446948D01*
X147395000Y-114325000D02*
X147405000Y-114335000D01*
X154780000Y-114225686D02*
X155460000Y-113545686D01*
X147635000Y-114335000D02*
X147705000Y-114335000D01*
X147975000Y-116446948D02*
X147635000Y-116106948D01*
X147175000Y-112952500D02*
X147395000Y-113172500D01*
X148267500Y-114327500D02*
X148267500Y-114827500D01*
X147705000Y-114335000D02*
X148260000Y-114335000D01*
X145726948Y-115480000D02*
X144935000Y-114688052D01*
X154667500Y-117152500D02*
X154780000Y-117040000D01*
X148267500Y-114827500D02*
X148980000Y-115540000D01*
X146080000Y-115480000D02*
X145726948Y-115480000D01*
X147225000Y-114335000D02*
X147405000Y-114335000D01*
X147635000Y-115722500D02*
X147635000Y-116852500D01*
%TO.N,+3.3V*%
X167129448Y-101350000D02*
X167582500Y-101350000D01*
X180600000Y-127377500D02*
X180600000Y-125960000D01*
X183455000Y-127680000D02*
X182861424Y-127680000D01*
X159132500Y-106897500D02*
X159132500Y-107824386D01*
X189292500Y-129810000D02*
X189292500Y-130550000D01*
X170618052Y-99527500D02*
X168795552Y-101350000D01*
X145800000Y-116570000D02*
X146795000Y-116570000D01*
X169312500Y-98076948D02*
X169312500Y-97555000D01*
X162311471Y-115560000D02*
X163764264Y-115560000D01*
X185962500Y-131760000D02*
X184171471Y-131760000D01*
X164140000Y-114181470D02*
X164650735Y-113670735D01*
X166670000Y-106467500D02*
X166580000Y-106377500D01*
X164140000Y-115184264D02*
X164140000Y-114181470D01*
X182032500Y-127570000D02*
X181412500Y-128190000D01*
X160384163Y-117150353D02*
X161543689Y-115990827D01*
X146835000Y-117442500D02*
X146835000Y-117992500D01*
X178040000Y-95300000D02*
X179600000Y-95300000D01*
X186135000Y-108120000D02*
X186880000Y-108120000D01*
X159705614Y-108397500D02*
X164106948Y-108397500D01*
X170848020Y-123750000D02*
X179710000Y-123750000D01*
X184092500Y-126267500D02*
X184092500Y-127607000D01*
X166420000Y-104287500D02*
X167040000Y-104907500D01*
X169997215Y-113830551D02*
X166668883Y-117158883D01*
X163403445Y-112769891D02*
X164304289Y-113670735D01*
X167040000Y-104907500D02*
X167040000Y-105777500D01*
X178960000Y-110275000D02*
X180685000Y-110275000D01*
X172660000Y-99527500D02*
X172660000Y-100060000D01*
X180450000Y-123750000D02*
X180470000Y-123770000D01*
X166316948Y-104287500D02*
X166420000Y-104287500D01*
X186880000Y-108120000D02*
X189655000Y-105345000D01*
X186092500Y-131630000D02*
X185962500Y-131760000D01*
X165720000Y-102557500D02*
X165720000Y-103690552D01*
X165720000Y-102557500D02*
X165921948Y-102557500D01*
X159906256Y-117989150D02*
X160384163Y-117511243D01*
X179600000Y-95300000D02*
X179620000Y-95280000D01*
X182751424Y-127570000D02*
X182032500Y-127570000D01*
X167522342Y-120424322D02*
X170848020Y-123750000D01*
X184019500Y-127680000D02*
X183455000Y-127680000D01*
X184171471Y-131760000D02*
X181412500Y-129001029D01*
X161543689Y-115990827D02*
X161880644Y-115990827D01*
X164882501Y-101597500D02*
X164097500Y-101597500D01*
X167040000Y-105777500D02*
X167040000Y-105917500D01*
X167770000Y-98422500D02*
X167770000Y-98617500D01*
X189292500Y-130550000D02*
X189142500Y-130700000D01*
X159906256Y-117989150D02*
X159632106Y-117715000D01*
X159632106Y-117715000D02*
X149675000Y-117715000D01*
X180610000Y-125950000D02*
X179960000Y-125950000D01*
X166670000Y-109737500D02*
X166670000Y-106467500D01*
X166390000Y-119291980D02*
X167522342Y-120424322D01*
X182830000Y-108130000D02*
X186125000Y-108130000D01*
X149675000Y-117715000D02*
X149550000Y-117840000D01*
X166390000Y-117437766D02*
X166390000Y-119291980D01*
X188212500Y-131630000D02*
X186092500Y-131630000D01*
X182861424Y-127680000D02*
X182751424Y-127570000D01*
X146055000Y-117442500D02*
X146835000Y-117442500D01*
X164106948Y-108397500D02*
X166126948Y-106377500D01*
X161880644Y-115990827D02*
X162311471Y-115560000D01*
X165885735Y-110775735D02*
X165885735Y-110521765D01*
X184092500Y-127607000D02*
X184019500Y-127680000D01*
X164077500Y-101617500D02*
X164077500Y-102135000D01*
X168040000Y-105777500D02*
X169110000Y-104707500D01*
X181412500Y-129001029D02*
X181412500Y-128190000D01*
X164304289Y-113670735D02*
X164650735Y-113670735D01*
X166790000Y-97442500D02*
X167770000Y-98422500D01*
X170763052Y-99527500D02*
X169312500Y-98076948D01*
X168250000Y-98617500D02*
X169312500Y-97555000D01*
X159132500Y-107824386D02*
X159705614Y-108397500D01*
X186125000Y-108130000D02*
X186135000Y-108120000D01*
X167770000Y-98617500D02*
X168250000Y-98617500D01*
X166668883Y-117158883D02*
X166390000Y-117437766D01*
X170763052Y-99527500D02*
X170618052Y-99527500D01*
X189655000Y-104242500D02*
X189655000Y-99292500D01*
X179710000Y-123750000D02*
X180450000Y-123750000D01*
X190232500Y-129810000D02*
X189292500Y-129810000D01*
X159365000Y-97962500D02*
X158450000Y-98877500D01*
X166126948Y-106377500D02*
X166580000Y-106377500D01*
X165921948Y-102557500D02*
X167129448Y-101350000D01*
X164500000Y-102557500D02*
X165720000Y-102557500D01*
X172660000Y-100060000D02*
X172180000Y-100540000D01*
X165720000Y-103690552D02*
X166316948Y-104287500D01*
X189655000Y-105345000D02*
X189655000Y-104242500D01*
X146025000Y-117472500D02*
X146055000Y-117442500D01*
X146795000Y-116570000D02*
X146835000Y-116610000D01*
X165885735Y-110521765D02*
X166670000Y-109737500D01*
X167040000Y-105777500D02*
X168040000Y-105777500D01*
X160870000Y-100547500D02*
X159820000Y-101597500D01*
X172660000Y-99527500D02*
X170763052Y-99527500D01*
X160870000Y-100400000D02*
X160870000Y-100547500D01*
X189142500Y-130700000D02*
X188212500Y-131630000D01*
X164077500Y-102135000D02*
X164500000Y-102557500D01*
X163764264Y-115560000D02*
X164140000Y-115184264D01*
X167040000Y-105917500D02*
X166580000Y-106377500D01*
X179960000Y-125950000D02*
X179930000Y-125980000D01*
X180600000Y-125960000D02*
X180610000Y-125950000D01*
X158450000Y-98877500D02*
X158450000Y-101047500D01*
X168795552Y-101350000D02*
X167582500Y-101350000D01*
X180685000Y-110275000D02*
X182830000Y-108130000D01*
X181822500Y-104030000D02*
X182035000Y-104242500D01*
X181142500Y-104030000D02*
X181822500Y-104030000D01*
X146025000Y-117882500D02*
X146025000Y-117472500D01*
X146835000Y-116610000D02*
X146835000Y-117442500D01*
X164097500Y-101597500D02*
X164077500Y-101617500D01*
X160384163Y-117511243D02*
X160384163Y-117150353D01*
X181412500Y-128190000D02*
X180600000Y-127377500D01*
%TO.N,Net-(U6-CAP)*%
X185092500Y-130590000D02*
X185092500Y-129592500D01*
%TO.N,Net-(D1-I{slash}O1)*%
X155742260Y-105693922D02*
X155538682Y-105897500D01*
X155742260Y-105693922D02*
X155945838Y-105897500D01*
X156700000Y-107097500D02*
X157388529Y-107097500D01*
X156090000Y-107887500D02*
X156090000Y-107707500D01*
X154810000Y-101937500D02*
X155720000Y-101027500D01*
X155538682Y-105897500D02*
X154351076Y-105897500D01*
X153890000Y-101937500D02*
X154810000Y-101937500D01*
X153121076Y-104667500D02*
X152250000Y-104667500D01*
X155945838Y-105897500D02*
X157897500Y-105897500D01*
X157900000Y-105897500D02*
X159132500Y-105897500D01*
X157897500Y-106588529D02*
X157897500Y-105897500D01*
X156740000Y-108537500D02*
X156090000Y-107887500D01*
X154351076Y-105897500D02*
X153121076Y-104667500D01*
X157897500Y-105897500D02*
X157900000Y-105897500D01*
X156090000Y-107707500D02*
X156700000Y-107097500D01*
X157388529Y-107097500D02*
X157897500Y-106588529D01*
%TO.N,Net-(D1-I{slash}O2)*%
X151130000Y-104517500D02*
X151780000Y-105167500D01*
X156710000Y-105297500D02*
X156810000Y-105397500D01*
X150940000Y-104517500D02*
X151130000Y-104517500D01*
X152850000Y-105167500D02*
X152250000Y-105167500D01*
X154250000Y-106477500D02*
X154070000Y-106297500D01*
X157140000Y-106497500D02*
X156940000Y-106297500D01*
X151780000Y-105167500D02*
X152250000Y-105167500D01*
X154250000Y-108317500D02*
X154250000Y-106477500D01*
X153980000Y-106297500D02*
X152850000Y-105167500D01*
X153260000Y-101027500D02*
X152690000Y-100457500D01*
X156810000Y-105397500D02*
X159132500Y-105397500D01*
X154070000Y-106297500D02*
X153980000Y-106297500D01*
X156940000Y-106297500D02*
X154070000Y-106297500D01*
X153720000Y-101027500D02*
X153260000Y-101027500D01*
%TO.N,Net-(D2-A)*%
X162667500Y-102557500D02*
X163480000Y-102557500D01*
%TO.N,Net-(D2-K)*%
X162260000Y-101947500D02*
X162030000Y-101947500D01*
X165312500Y-100980000D02*
X162997500Y-100980000D01*
X162027500Y-102357501D02*
X162348750Y-102036250D01*
X162027500Y-102557500D02*
X162027500Y-102357501D01*
X162997500Y-100980000D02*
X162578750Y-101398750D01*
X162030000Y-101947500D02*
X161320000Y-102657500D01*
X162578750Y-101806250D02*
X162767501Y-101617500D01*
X165682500Y-101350000D02*
X165312500Y-100980000D01*
X162348750Y-102036250D02*
X162260000Y-101947500D01*
X162578750Y-101398750D02*
X162578750Y-101806250D01*
X161320000Y-102657500D02*
X161320000Y-103710000D01*
X162767501Y-101617500D02*
X163057500Y-101617500D01*
X162348750Y-102036250D02*
X162578750Y-101806250D01*
%TO.N,Net-(D3-A)*%
X166790000Y-98462500D02*
X166790000Y-99297500D01*
%TO.N,Net-(D3-K)*%
X169312500Y-99795000D02*
X169312500Y-99455000D01*
X167300000Y-100254448D02*
X166982500Y-100571948D01*
X167300000Y-99937500D02*
X167300000Y-100254448D01*
X167470000Y-99937500D02*
X169170000Y-99937500D01*
X166282500Y-100571948D02*
X165908052Y-100197500D01*
X169170000Y-99937500D02*
X169312500Y-99795000D01*
X166790000Y-99937500D02*
X167300000Y-99937500D01*
X166982500Y-100571948D02*
X166282500Y-100571948D01*
X165908052Y-100197500D02*
X163214314Y-100197500D01*
X167300000Y-99937500D02*
X167470000Y-99937500D01*
X163214314Y-100197500D02*
X160820000Y-102591814D01*
X167470000Y-99937500D02*
X167770000Y-99637500D01*
X160820000Y-102591814D02*
X160820000Y-103710000D01*
%TO.N,Net-(D5-A)*%
X147855000Y-118822500D02*
X147845000Y-118832500D01*
X147855000Y-117992500D02*
X147855000Y-118822500D01*
%TO.N,Net-(J2-Pin_3)*%
X158895000Y-102512500D02*
X159070000Y-102337500D01*
X159132500Y-102750000D02*
X158895000Y-102512500D01*
X158895000Y-102512500D02*
X158450000Y-102067500D01*
X159070000Y-100797500D02*
X161905000Y-97962500D01*
X159132500Y-104397500D02*
X159132500Y-102750000D01*
X159070000Y-102337500D02*
X159070000Y-100797500D01*
%TO.N,Net-(J2-Pin_2)*%
X158705614Y-104897500D02*
X158420000Y-104611886D01*
X159132500Y-104897500D02*
X158705614Y-104897500D01*
X158420000Y-104611886D02*
X158420000Y-102878576D01*
X157680000Y-97107500D02*
X159365000Y-95422500D01*
X158420000Y-102878576D02*
X157680000Y-102138576D01*
X157680000Y-102138576D02*
X157680000Y-97107500D01*
%TO.N,Net-(J2-Pin_6)*%
X163295000Y-99542500D02*
X163295000Y-96572500D01*
X163295000Y-96572500D02*
X164445000Y-95422500D01*
X159820000Y-102617500D02*
X159820000Y-103017500D01*
X159820000Y-103017500D02*
X163295000Y-99542500D01*
X159820000Y-103017500D02*
X159820000Y-103710000D01*
%TO.N,UPDI*%
X165650000Y-109737500D02*
X164968588Y-109737500D01*
X165630000Y-109717500D02*
X165650000Y-109737500D01*
X165630000Y-108252500D02*
X165630000Y-109717500D01*
X163212590Y-111871930D02*
X163756998Y-112416338D01*
X163013225Y-111672565D02*
X163756998Y-112416338D01*
X164968588Y-109737500D02*
X163212590Y-111493498D01*
X163212590Y-111493498D02*
X163212590Y-111871930D01*
%TO.N,Net-(J3-CMD)*%
X184575000Y-100047943D02*
X183388628Y-101234315D01*
X184575000Y-99292500D02*
X184575000Y-100047943D01*
X181095685Y-101234315D02*
X176910000Y-105420000D01*
X176910000Y-110365686D02*
X178110000Y-111565686D01*
X183388628Y-101234315D02*
X181095685Y-101234315D01*
X178645000Y-113575000D02*
X178960000Y-113575000D01*
X178110000Y-111565686D02*
X178110000Y-113040000D01*
X176910000Y-105420000D02*
X176910000Y-110365686D01*
X178110000Y-113040000D02*
X178645000Y-113575000D01*
%TO.N,Net-(J3-DAT1)*%
X188385000Y-100560000D02*
X188385000Y-99292500D01*
X183352500Y-102967500D02*
X184120000Y-102200000D01*
X178110000Y-107800000D02*
X178110000Y-106030000D01*
X178435000Y-108125000D02*
X178110000Y-107800000D01*
X185713872Y-100967500D02*
X187977500Y-100967500D01*
X184120000Y-102200000D02*
X184481372Y-102200000D01*
X181172500Y-102967500D02*
X183352500Y-102967500D01*
X184481372Y-102200000D02*
X185713872Y-100967500D01*
X178110000Y-106030000D02*
X181172500Y-102967500D01*
X187977500Y-100967500D02*
X188385000Y-100560000D01*
X178960000Y-108125000D02*
X178435000Y-108125000D01*
%TO.N,Net-(J3-DAT0)*%
X183186814Y-102567500D02*
X183954314Y-101800000D01*
X185548186Y-100567500D02*
X186366714Y-100567500D01*
X184315686Y-101800000D02*
X185548186Y-100567500D01*
X178960000Y-109175000D02*
X178210000Y-109175000D01*
X186366714Y-100567500D02*
X187115000Y-99819214D01*
X177710000Y-105864314D02*
X181006814Y-102567500D01*
X177710000Y-108675000D02*
X177710000Y-105864314D01*
X187115000Y-99819214D02*
X187115000Y-99292500D01*
X183954314Y-101800000D02*
X184315686Y-101800000D01*
X178210000Y-109175000D02*
X177710000Y-108675000D01*
X181006814Y-102567500D02*
X183186814Y-102567500D01*
%TO.N,CD*%
X174133912Y-116500000D02*
X171627163Y-113993251D01*
X185110000Y-118410000D02*
X183200000Y-116500000D01*
X183200000Y-116500000D02*
X174133912Y-116500000D01*
X171248729Y-113993251D02*
X170704322Y-114537658D01*
X171627163Y-113993251D02*
X171248729Y-113993251D01*
%TO.N,Net-(J3-CLK)*%
X177310000Y-105669240D02*
X180811740Y-102167500D01*
X178485000Y-111375000D02*
X177310000Y-110200000D01*
X177310000Y-110200000D02*
X177310000Y-105669240D01*
X180811740Y-102167500D02*
X183021128Y-102167500D01*
X184150000Y-101400000D02*
X185845000Y-99705000D01*
X185845000Y-99705000D02*
X185845000Y-99292500D01*
X183788628Y-101400000D02*
X184150000Y-101400000D01*
X178960000Y-111375000D02*
X178485000Y-111375000D01*
X183021128Y-102167500D02*
X183788628Y-101400000D01*
%TO.N,/RX_UPDI*%
X164515000Y-104272500D02*
X165160000Y-104917500D01*
X163132500Y-104272500D02*
X164515000Y-104272500D01*
X163007500Y-104397500D02*
X163132500Y-104272500D01*
%TO.N,TX0*%
X166170000Y-113000000D02*
X164540000Y-114630000D01*
X173395000Y-99430552D02*
X173654448Y-99690000D01*
X166170000Y-111340000D02*
X166170000Y-113000000D01*
X172660000Y-98507500D02*
X171190000Y-98507500D01*
X173654448Y-99690000D02*
X175545000Y-99690000D01*
X175545000Y-101965000D02*
X166170000Y-111340000D01*
X164540000Y-114630000D02*
X164540000Y-118580660D01*
X175545000Y-99690000D02*
X175545000Y-101965000D01*
X164540000Y-118580660D02*
X163756998Y-119363662D01*
X173395000Y-99242500D02*
X173395000Y-99430552D01*
X171190000Y-98507500D02*
X171187500Y-98505000D01*
X172660000Y-98507500D02*
X173395000Y-99242500D01*
%TO.N,RX0*%
X169000000Y-103600000D02*
X169000000Y-103797500D01*
X165767843Y-113967843D02*
X165909265Y-114109265D01*
X169000000Y-103797500D02*
X168090000Y-104707500D01*
X164960000Y-114775686D02*
X165767843Y-113967843D01*
X164110551Y-119717215D02*
X164960000Y-118867766D01*
X164960000Y-118867766D02*
X164960000Y-114775686D01*
X166632500Y-103225000D02*
X168090000Y-104682500D01*
X168090000Y-104682500D02*
X168090000Y-104707500D01*
%TO.N,Net-(U9-EN)*%
X152460000Y-114487500D02*
X152335000Y-114362500D01*
X152460000Y-114980000D02*
X152460000Y-114487500D01*
%TO.N,Net-(U9-FB)*%
X146155000Y-112952500D02*
X145725000Y-112952500D01*
X145725000Y-112231986D02*
X146454486Y-111502500D01*
X146454486Y-111502500D02*
X150185000Y-111502500D01*
X150480000Y-111797500D02*
X150480000Y-112615000D01*
X150185000Y-111502500D02*
X150480000Y-111797500D01*
X145725000Y-112952500D02*
X145285000Y-112952500D01*
X145725000Y-112952500D02*
X145725000Y-112231986D01*
%TO.N,Net-(U6-~{RST})*%
X186092500Y-130610000D02*
X186092500Y-129592500D01*
%TO.N,Net-(U6-ENV_SCL)*%
X188122500Y-129622500D02*
X188092500Y-129592500D01*
X188122500Y-130700000D02*
X188122500Y-129622500D01*
%TO.N,Net-(U6-ENV_SDA)*%
X188230000Y-128680000D02*
X189182500Y-128680000D01*
X189182500Y-128680000D02*
X189292500Y-128790000D01*
%TO.N,SDA*%
X181540000Y-125000000D02*
X169393336Y-125000000D01*
X185490956Y-120682500D02*
X184175000Y-120682500D01*
X169393336Y-125000000D02*
X165171212Y-120777876D01*
X181630000Y-125090000D02*
X182960000Y-125090000D01*
X183020000Y-121837500D02*
X183020000Y-125030000D01*
X184175000Y-120682500D02*
X183020000Y-121837500D01*
X182960000Y-125090000D02*
X183020000Y-125030000D01*
X181630000Y-125090000D02*
X181630000Y-125950000D01*
X188092500Y-126185000D02*
X188092500Y-123284044D01*
X181540000Y-125000000D02*
X181630000Y-125090000D01*
X188092500Y-123284044D02*
X185490956Y-120682500D01*
%TO.N,SCL*%
X169841866Y-124600000D02*
X166760933Y-121519067D01*
X182610000Y-121681814D02*
X182610000Y-124560000D01*
X166062403Y-122517597D02*
X165443685Y-122517597D01*
X165443685Y-122517597D02*
X161798377Y-118872289D01*
X185656642Y-120282500D02*
X184009314Y-120282500D01*
X181582500Y-124560000D02*
X181540000Y-124517500D01*
X188230000Y-127097500D02*
X188519500Y-126808000D01*
X181490000Y-123770000D02*
X181490000Y-124550000D01*
X161798377Y-118872289D02*
X161798377Y-118493857D01*
X184009314Y-120282500D02*
X182610000Y-121681814D01*
X181540000Y-124600000D02*
X169841866Y-124600000D01*
X182610000Y-124560000D02*
X181582500Y-124560000D01*
X188519500Y-123145358D02*
X185656642Y-120282500D01*
X188519500Y-126808000D02*
X188519500Y-123145358D01*
X161798377Y-118493857D02*
X162342785Y-117949449D01*
X181490000Y-124550000D02*
X181540000Y-124600000D01*
%TO.N,Net-(U6-~{BOOT})*%
X183445000Y-128190000D02*
X183455000Y-128180000D01*
X182432500Y-128190000D02*
X183445000Y-128190000D01*
%TO.N,EJEC_SERVO*%
X165770000Y-112205735D02*
X165770000Y-111600912D01*
X155425442Y-126440000D02*
X155672720Y-126192722D01*
X165495735Y-112480000D02*
X165770000Y-112205735D01*
X165770000Y-111600912D02*
X165171212Y-111002124D01*
X153460000Y-126440000D02*
X155425442Y-126440000D01*
%TO.N,Net-(PORTSIDE_RGB1-RA)*%
X185775000Y-96030000D02*
X187230000Y-96030000D01*
%TO.N,PA3{slash}SS*%
X161635678Y-114537658D02*
X160951930Y-113853910D01*
X160951930Y-109910011D02*
X161848917Y-109013024D01*
X173000000Y-97310000D02*
X173000000Y-95975001D01*
X173419835Y-101761636D02*
X173419835Y-100242230D01*
X160951930Y-113853910D02*
X160951930Y-109910011D01*
X173000000Y-95975001D02*
X173695001Y-95280000D01*
X168057868Y-107123603D02*
X173419835Y-101761636D01*
X173695001Y-95280000D02*
X174670000Y-95280000D01*
X172920000Y-97390000D02*
X173000000Y-97310000D01*
%TO.N,PA1{slash}MOSI*%
X161751930Y-111088070D02*
X161751930Y-113239696D01*
X163310000Y-109530000D02*
X161751930Y-111088070D01*
X174945000Y-100720000D02*
X175020000Y-100795000D01*
X175020000Y-100795000D02*
X175020000Y-101641470D01*
X175020000Y-101641470D02*
X168315735Y-108345735D01*
X179620000Y-99090000D02*
X178105000Y-99090000D01*
X178105000Y-99090000D02*
X176545000Y-100650000D01*
X161751930Y-113239696D02*
X162342785Y-113830551D01*
%TO.N,Net-(PORTSIDE_RGB1-BA)*%
X185785000Y-94980000D02*
X187230000Y-94980000D01*
%TO.N,Net-(PORTSIDE_RGB1-GA)*%
X187230000Y-97080000D02*
X185785000Y-97080000D01*
%TO.N,D5*%
X172870000Y-120115126D02*
X172870000Y-120130000D01*
X185291986Y-103179962D02*
X184575000Y-103896948D01*
X170350769Y-117595895D02*
X172870000Y-120115126D01*
X185291986Y-102905558D02*
X185291986Y-103179962D01*
X184575000Y-103896948D02*
X184575000Y-104242500D01*
%TO.N,D6*%
X187040000Y-103020000D02*
X187040000Y-103256262D01*
X171357317Y-116888788D02*
X174910000Y-120441471D01*
X174910000Y-120441471D02*
X174910000Y-120490000D01*
X187115000Y-103331262D02*
X187115000Y-104242500D01*
X171057876Y-116888788D02*
X171357317Y-116888788D01*
X187040000Y-103256262D02*
X187115000Y-103331262D01*
%TO.N,BUZZER*%
X170440000Y-121640000D02*
X170061725Y-121261725D01*
X167287403Y-125153149D02*
X167287403Y-123742597D01*
X164050000Y-127937500D02*
X164503052Y-127937500D01*
X164503052Y-127937500D02*
X167287403Y-125153149D01*
X170061725Y-121261725D02*
X169773959Y-121261725D01*
X169773959Y-121261725D02*
X168229449Y-119717215D01*
X170610000Y-121640000D02*
X170440000Y-121640000D01*
%TO.N,PA0{slash}MISO*%
X162151930Y-112932590D02*
X162696338Y-113476998D01*
X164150000Y-109620000D02*
X162151930Y-111618070D01*
X176334989Y-99162953D02*
X175945000Y-99552942D01*
X177000000Y-97905001D02*
X177000000Y-98780785D01*
X162151930Y-111618070D02*
X162151930Y-112932590D01*
X177000000Y-98780785D02*
X176617832Y-99162953D01*
X175945000Y-102413530D02*
X169269265Y-109089265D01*
X175644999Y-96550000D02*
X177000000Y-97905001D01*
X175945000Y-99552942D02*
X175945000Y-102413530D01*
X176617832Y-99162953D02*
X176334989Y-99162953D01*
X174670000Y-96550000D02*
X175644999Y-96550000D01*
%TO.N,Net-(BZ1--)*%
X166897500Y-126990000D02*
X171010785Y-126990000D01*
X165950000Y-127937500D02*
X166897500Y-126990000D01*
%TO.N,D4*%
X186220735Y-102990735D02*
X186220735Y-103866765D01*
X171406749Y-117786749D02*
X174000000Y-120380000D01*
X171248729Y-117786749D02*
X171406749Y-117786749D01*
X170704322Y-117242342D02*
X171248729Y-117786749D01*
X186220735Y-103866765D02*
X185845000Y-104242500D01*
%TO.N,Net-(J1-CC1)*%
X152270000Y-104147500D02*
X152250000Y-104167500D01*
X153540000Y-104147500D02*
X152270000Y-104147500D01*
%TO.N,Net-(STARBOARD_RGB1-BA)*%
X148910000Y-97160000D02*
X147465000Y-97160000D01*
%TO.N,D7*%
X175610000Y-119443336D02*
X175610000Y-120970000D01*
X188385000Y-103475000D02*
X188385000Y-104242500D01*
X171057876Y-114891212D02*
X175610000Y-119443336D01*
X187880000Y-102970000D02*
X188385000Y-103475000D01*
%TO.N,Net-(STARBOARD_RGB1-RA)*%
X147475000Y-96120000D02*
X147465000Y-96110000D01*
X148920000Y-96120000D02*
X147475000Y-96120000D01*
%TO.N,Net-(STARBOARD_RGB1-GA)*%
X148920000Y-95060000D02*
X147465000Y-95060000D01*
%TO.N,PA2{slash}SCK*%
X167350000Y-107745735D02*
X168284265Y-107745735D01*
X176583518Y-99762953D02*
X178526471Y-97820000D01*
X161351930Y-113546804D02*
X161351930Y-110358540D01*
X174370000Y-101660000D02*
X174270388Y-101560388D01*
X161989231Y-114184105D02*
X161351930Y-113546804D01*
X178526471Y-97820000D02*
X179620000Y-97820000D01*
X174270388Y-101560388D02*
X174270388Y-100290000D01*
X161351930Y-110358540D02*
X162712970Y-108997500D01*
X168284265Y-107745735D02*
X174370000Y-101660000D01*
%TO.N,PORT_SERVO*%
X168015198Y-121924802D02*
X168015198Y-121624286D01*
X168015198Y-121624286D02*
X167168788Y-120777876D01*
%TO.N,STAR_BLUE*%
X149930000Y-97160000D02*
X150500000Y-97160000D01*
X162560000Y-116160000D02*
X163594299Y-117194299D01*
X163594299Y-117194299D02*
X163594299Y-118182859D01*
X163594299Y-118182859D02*
X163120603Y-118656555D01*
X163120603Y-118656555D02*
X163049891Y-118656555D01*
X150500000Y-97160000D02*
X150680000Y-97340000D01*
%TO.N,STAR_SERVO*%
X166624381Y-113144381D02*
X166624381Y-111546531D01*
X166624381Y-111546531D02*
X167168788Y-111002124D01*
X167460000Y-113980000D02*
X166624381Y-113144381D01*
%TO.N,STAR_GREEN*%
X158850000Y-109052943D02*
X158850000Y-109730000D01*
X164817658Y-120424322D02*
X165562990Y-119678990D01*
X150700000Y-94920000D02*
X150080000Y-94920000D01*
X165562990Y-119678990D02*
X165931498Y-119678990D01*
X158340000Y-108542943D02*
X158850000Y-109052943D01*
X150080000Y-94920000D02*
X149940000Y-95060000D01*
%TO.N,PORT_GREEN*%
X183480478Y-97080000D02*
X182597680Y-97962798D01*
X176745000Y-102040686D02*
X176745000Y-102744902D01*
X170269265Y-109220637D02*
X170269265Y-109503480D01*
X168607921Y-111164824D02*
X168420302Y-111164824D01*
X176745000Y-102744902D02*
X170269265Y-109220637D01*
X168420302Y-111164824D02*
X167875895Y-111709231D01*
X177320713Y-101464973D02*
X176745000Y-102040686D01*
X178753554Y-101464973D02*
X177320713Y-101464973D01*
X170269265Y-109503480D02*
X168607921Y-111164824D01*
X184765000Y-97080000D02*
X183480478Y-97080000D01*
%TO.N,STAR_RED*%
X165106532Y-119433468D02*
X165101406Y-119433468D01*
X165101406Y-119433468D02*
X164464105Y-120070769D01*
X150680000Y-96210000D02*
X150030000Y-96210000D01*
X150030000Y-96210000D02*
X149940000Y-96120000D01*
X165740000Y-118800000D02*
X165106532Y-119433468D01*
%TO.N,PORT_RED*%
X181435000Y-99632056D02*
X181435000Y-98276948D01*
X181435000Y-98276948D02*
X183681948Y-96030000D01*
X169834516Y-112579038D02*
X169834516Y-110503915D01*
X169834516Y-110503915D02*
X170669265Y-109669166D01*
X177286399Y-102064973D02*
X179002083Y-102064973D01*
X177145000Y-102910588D02*
X177145000Y-102206372D01*
X169290109Y-113123445D02*
X169834516Y-112579038D01*
X177145000Y-102206372D02*
X177286399Y-102064973D01*
X170669265Y-109669166D02*
X170669265Y-109386323D01*
X170669265Y-109386323D02*
X177145000Y-102910588D01*
X183681948Y-96030000D02*
X184755000Y-96030000D01*
X179002083Y-102064973D02*
X181435000Y-99632056D01*
%TO.N,PORT_BLUE*%
X178178358Y-100041642D02*
X179871642Y-100041642D01*
X167522342Y-111355678D02*
X169188755Y-109689265D01*
X176345000Y-101875000D02*
X178178358Y-100041642D01*
X183883420Y-94980000D02*
X184765000Y-94980000D01*
X169188755Y-109689265D02*
X169517794Y-109689265D01*
X169869265Y-109337794D02*
X169869265Y-109054951D01*
X176345000Y-102579216D02*
X176345000Y-101875000D01*
X169869265Y-109054951D02*
X176345000Y-102579216D01*
X169517794Y-109689265D02*
X169869265Y-109337794D01*
X181094999Y-97768421D02*
X183883420Y-94980000D01*
%TO.N,Net-(L1-Pad2)*%
X157137500Y-120590000D02*
X158272500Y-120590000D01*
X158272500Y-120590000D02*
X158277500Y-120595000D01*
%TO.N,+5V*%
X149990000Y-128980000D02*
X150490000Y-128980000D01*
D67*
X146960000Y-125730000D02*
X150210000Y-128980000D01*
X146990000Y-131980000D02*
X149990000Y-128980000D01*
X160877500Y-126067500D02*
X160790000Y-125980000D01*
D66*
X159627500Y-123326544D02*
X159627500Y-123935000D01*
D67*
X155460000Y-128980000D02*
X158215000Y-131735000D01*
D66*
X174670785Y-125650000D02*
X167887403Y-125650000D01*
D67*
X160474378Y-131735000D02*
X160877500Y-131331878D01*
X160877500Y-131331878D02*
X160877500Y-126067500D01*
X150490000Y-128980000D02*
X150960000Y-128980000D01*
X157137500Y-122090000D02*
X158182500Y-122090000D01*
X150960000Y-128980000D02*
X153460000Y-128980000D01*
D66*
X176010785Y-126990000D02*
X174670785Y-125650000D01*
X150210000Y-128980000D02*
X150490000Y-128980000D01*
D67*
X158365956Y-122065000D02*
X159627500Y-123326544D01*
D66*
X158207500Y-122065000D02*
X158365956Y-122065000D01*
D67*
X158215000Y-131735000D02*
X160474378Y-131735000D01*
X159627500Y-123935000D02*
X160790000Y-125097500D01*
D66*
X158182500Y-122090000D02*
X158207500Y-122065000D01*
D67*
X153460000Y-128980000D02*
X155460000Y-128980000D01*
X150960000Y-128980000D02*
X149990000Y-128980000D01*
X160790000Y-125097500D02*
X160790000Y-125980000D01*
D66*
%TO.N,Net-(J1-CC2)*%
X148340000Y-110867500D02*
X149080000Y-110867500D01*
X149080000Y-110867500D02*
X149110000Y-110837500D01*
%TO.N,/TX_UPDI*%
X164140000Y-104917500D02*
X164140000Y-105547500D01*
X166020000Y-104996424D02*
X165478924Y-105537500D01*
X165460000Y-105980000D02*
X165077500Y-105980000D01*
X164150000Y-105537500D02*
X164140000Y-105547500D01*
X164140000Y-104917500D02*
X163027500Y-104917500D01*
X165077500Y-105980000D02*
X164680000Y-106377500D01*
X164140000Y-105837500D02*
X164680000Y-106377500D01*
X163027500Y-104917500D02*
X163007500Y-104897500D01*
X166020000Y-104907500D02*
X166020000Y-104996424D01*
X164140000Y-105547500D02*
X164140000Y-105837500D01*
X165478924Y-105537500D02*
X164150000Y-105537500D01*
%TO.N,TEMP_SENSOR*%
X160860850Y-118724276D02*
X160860850Y-118943744D01*
X161989231Y-117595895D02*
X160860850Y-118724276D01*
%TD*%
M02*
